<svg width="135" height="29" viewBox="0 0 135 29" fill="none" xmlns="http://www.w3.org/2000/svg">
<path d="M118.924 0.973633C119.371 1.12492 119.841 1.12235 120.301 1.19927C122.741 1.60953 124.996 2.49671 127.102 3.77364C129.437 5.18646 131.446 6.95826 133.005 9.20441C133.934 10.5454 134.625 11.9865 134.908 13.6147C135.391 16.407 133.947 18.8711 131.235 19.8121C129.92 20.2685 128.564 20.3993 127.177 20.3301C126.19 20.2814 125.219 20.1557 124.254 19.948C124.035 19.9019 123.974 19.8429 124.03 19.6096C124.487 17.7249 124.698 15.8096 124.631 13.8711C124.539 11.1608 124.028 8.53775 122.823 6.0839C121.824 4.04543 120.442 2.34287 118.384 1.26594C118.194 1.16594 118.002 1.07363 117.809 0.978761C118.187 0.973633 118.554 0.973633 118.924 0.973633Z" fill="white"/>
<path d="M0 10.1789C0.328775 10.1789 0.65755 10.1943 0.986325 10.1738C1.23291 10.1584 1.29455 10.243 1.29198 10.4815C1.28171 12.3225 1.28685 14.1635 1.28685 16.002C1.28685 16.2687 1.29712 16.5302 1.34849 16.7943C1.52058 17.6866 2.01632 18.1917 2.91531 18.3199C3.35196 18.3815 3.79632 18.3687 4.22784 18.2456C4.88796 18.0584 5.28865 17.6148 5.47616 16.9687C5.58147 16.6046 5.61743 16.2276 5.61486 15.8481C5.60715 14.284 5.60715 12.7199 5.59688 11.1558C5.59431 10.902 5.56863 10.6456 5.54294 10.3917C5.52753 10.2379 5.57376 10.1815 5.74072 10.1738C6.59091 10.1302 6.59091 10.1251 6.59091 10.9738C6.59091 12.6405 6.59091 14.3071 6.59091 15.9738C6.59091 16.8251 6.41368 17.6225 5.82548 18.2738C5.09858 19.0764 4.14308 19.2815 3.11309 19.2353C2.79716 19.2225 2.48122 19.1917 2.17043 19.1097C0.87074 18.7661 0.130996 17.8097 0.118154 16.4046C0.107879 15.1174 0.120722 13.8302 0.113016 12.543C0.110448 12.0328 0.0796252 11.5225 0.0616453 11.0122C0.0590768 10.9533 0.0719195 10.8866 0 10.8533C0 10.7917 0 10.7302 0 10.6687C0.0513711 10.5456 0.0513711 10.4225 0 10.2994C0 10.261 0 10.2199 0 10.1789Z" fill="white"/>
<path d="M0 10.3018C0.0846155 10.4248 0.105128 10.5479 0 10.671C0 10.5453 0 10.4248 0 10.3018Z" fill="white"/>
<path d="M109.777 23.6686C109.307 22.8301 108.932 21.9968 108.632 21.1275C108.064 19.4891 107.738 17.8045 107.63 16.0711C107.442 13.0403 107.858 10.1044 109.001 7.28393C109.664 5.64803 110.553 4.14803 111.873 2.9429C113.047 1.8711 114.398 1.19674 116.039 1.28392C117.629 1.36854 118.929 2.07879 120.013 3.19418C121.533 4.75572 122.448 6.66085 123.092 8.70957C123.157 8.9147 123.069 8.96598 122.89 9.02239C119.214 10.1327 116.003 12.0147 113.353 14.7968C111.801 16.425 110.596 18.2737 110.024 20.4763C109.762 21.4839 109.659 22.5045 109.795 23.5404C109.8 23.5686 109.79 23.5968 109.777 23.6686Z" fill="white"/>
<path d="M133.492 19.2759C133.207 19.8477 132.839 20.3554 132.454 20.8502C130.733 23.0554 128.594 24.7605 126.118 26.0579C124.153 27.0887 122.08 27.8195 119.879 28.1272C117.87 28.4092 115.866 28.4195 113.94 27.6554C112.119 26.9349 110.901 25.6656 110.508 23.7195C110.223 22.3143 110.48 20.9579 111.025 19.6477C111.695 18.0323 112.681 16.622 113.85 15.3323C113.968 15.2015 114.045 15.1528 114.21 15.3066C115.908 16.8887 117.806 18.181 119.912 19.1656C122.026 20.1528 124.227 20.822 126.57 20.9887C128.496 21.1272 130.353 20.8861 132.113 20.0631C132.593 19.84 133.04 19.5579 133.492 19.2759Z" fill="white"/>
<path d="M94.0865 19.212C93.2568 19.2068 92.4272 19.1735 91.6001 19.0966C91.3381 19.0735 91.3124 18.9684 91.315 18.753C91.3201 16.6992 91.315 14.6453 91.3201 12.5915C91.3201 11.8863 91.3099 11.1838 91.2559 10.4786C91.2456 10.3632 91.2097 10.2273 91.4126 10.2197C93.2414 10.1427 95.0805 9.90684 96.8888 10.3684C98.4992 10.7812 99.614 11.7402 99.9094 13.4299C100.164 14.8889 100.033 16.3094 99.0823 17.5376C98.3811 18.4453 97.3871 18.853 96.2954 19.0761C95.5634 19.2248 94.8262 19.2197 94.0865 19.212Z" fill="white"/>
<path d="M78.6983 14.3167C78.8704 14.368 78.9885 14.4014 79.1041 14.4373C80.7197 14.9398 80.9817 16.2962 80.4295 17.568C80.0237 18.5039 79.1709 18.868 78.2411 19.0732C77.1957 19.3014 76.1374 19.2091 75.0818 19.1757C74.6425 19.1603 74.2033 19.0937 73.7641 19.0962C73.4533 19.0988 73.4276 18.9629 73.4276 18.7116C73.4353 16.5962 73.4379 14.4783 73.4276 12.3629C73.4251 11.7219 73.3814 11.0783 73.3352 10.4372C73.3146 10.1655 73.4893 10.1937 73.6485 10.1885C74.7864 10.1629 75.9243 10.0962 77.0647 10.109C77.5476 10.1142 78.0279 10.1449 78.5005 10.2449C78.8935 10.3296 79.2736 10.4603 79.5844 10.7296C80.26 11.309 80.3601 12.5142 79.8182 13.3783C79.5536 13.7962 79.1709 14.0783 78.6983 14.3167Z" fill="white"/>
<path d="M89.9178 14.6429C89.9178 16.0122 89.9101 17.384 89.9229 18.7532C89.9255 19.0147 89.8433 19.0814 89.5916 19.0737C88.9649 19.0583 88.3381 19.0583 87.714 19.0737C87.4751 19.0788 87.4237 18.9994 87.4237 18.7763C87.434 17.7327 87.4212 16.6891 87.434 15.6481C87.4366 15.4147 87.3826 15.3301 87.1309 15.3352C86.237 15.3506 85.3432 15.3481 84.4519 15.3352C84.2182 15.3327 84.1565 15.4019 84.1591 15.6301C84.1719 16.6737 84.1591 17.7173 84.1694 18.7583C84.1719 18.9865 84.1283 19.084 83.8688 19.0763C83.2318 19.0558 82.5948 19.0583 81.9604 19.0763C81.7215 19.0814 81.647 19.0173 81.6496 18.7711C81.6599 16.8891 81.6599 15.007 81.6547 13.1275C81.6522 12.2583 81.6907 11.3891 81.588 10.525C81.5623 10.3045 81.6162 10.2173 81.8628 10.2224C82.5409 10.2378 83.219 10.2352 83.8945 10.2224C84.1129 10.2173 84.1745 10.2916 84.1719 10.5019C84.1617 11.4429 84.1745 12.384 84.1616 13.325C84.1591 13.5583 84.2284 13.6199 84.457 13.6173C85.3509 13.6045 86.2448 13.6045 87.136 13.6173C87.3569 13.6199 87.4391 13.5737 87.4391 13.3327C87.4366 12.3609 87.4366 11.3916 87.3492 10.4224C87.3338 10.2609 87.3801 10.225 87.5213 10.225C88.2508 10.2275 88.9803 10.2327 89.7097 10.2224C89.964 10.2199 89.9204 10.3865 89.9204 10.5327C89.9178 11.9019 89.9178 13.2711 89.9178 14.6429Z" fill="white"/>
<path d="M31.9994 13.6608C32.1766 13.5428 32.3179 13.4428 32.4643 13.3531C33.1142 12.948 33.818 12.8377 34.5603 13.0146C34.9173 13.0992 35.2332 13.2787 35.4439 13.5864C35.5646 13.7608 35.6596 13.7428 35.8137 13.6326C36.4173 13.2044 37.0697 12.9146 37.8377 12.9377C38.9088 12.9685 39.5895 13.6069 39.6203 14.6787C39.6434 15.4044 39.6255 16.13 39.6383 16.8557C39.6486 17.4993 39.6563 18.1428 39.6922 18.7839C39.7051 19.0377 39.6203 19.1069 39.384 19.0839C39.1092 19.0582 38.747 19.1941 38.5852 19.0275C38.4568 18.8916 38.5698 18.53 38.5698 18.2685C38.5724 17.3275 38.5749 16.3864 38.5775 15.4454C38.5775 15.3018 38.5775 15.1582 38.5621 15.0172C38.4465 13.9326 37.7684 13.6967 36.7769 13.8941C36.687 13.9121 36.5997 13.948 36.5149 13.9813C35.8779 14.2198 35.8214 14.3095 35.8163 14.9787C35.806 16.2454 35.824 17.5121 35.8754 18.7787C35.8856 19.0249 35.8163 19.089 35.5723 19.0864C34.7349 19.0787 34.7478 19.089 34.7529 18.2608C34.7606 17.2813 34.8531 16.3018 34.7632 15.3223C34.7503 15.189 34.7555 15.0557 34.7375 14.9249C34.5911 13.8249 33.7666 13.6659 32.7571 13.9454C32.7366 13.9505 32.7186 13.9633 32.7006 13.9685C31.9994 14.2326 31.9969 14.2326 31.9994 14.9736C32.002 16.2505 31.9712 17.53 32.0534 18.8044C32.0662 19.0172 32.0097 19.1018 31.7862 19.0839C31.5011 19.0608 31.1441 19.1608 30.954 19.0223C30.8256 18.93 30.9309 18.5146 30.936 18.2454C30.9489 17.3967 30.99 16.5505 30.9746 15.7018C30.9592 14.8864 30.972 14.0659 30.8641 13.2557C30.841 13.0813 30.8949 13.0377 31.0542 13.0505C31.1672 13.0582 31.2802 13.0531 31.3932 13.0531C31.9712 13.0557 31.9712 13.0557 31.9994 13.6608Z" fill="white"/>
<path d="M42.7716 13.6121C43.1826 13.3198 43.5627 13.0839 44.0148 12.9967C45.538 12.6993 46.7349 13.4685 47.0483 14.9839C47.2563 15.9864 47.1536 16.9659 46.5654 17.8352C45.8308 18.9198 44.7571 19.3275 43.4805 19.2223C42.7665 19.1634 42.7742 19.1326 42.7691 19.8403C42.7613 20.6377 42.7742 21.4326 42.8281 22.2275C42.8435 22.4454 42.8024 22.5531 42.5533 22.5326C42.2785 22.5095 41.924 22.6198 41.7442 22.4865C41.5464 22.3403 41.7185 21.9788 41.7185 21.7121C41.7108 19.2095 41.7159 16.7044 41.7108 14.2018C41.7108 13.8659 41.68 13.5275 41.6363 13.1941C41.6132 13.0172 41.6697 12.9839 41.8264 12.9916C42.0216 12.9993 42.2168 13.0095 42.412 12.989C42.6792 12.9634 42.823 13.0352 42.7716 13.3326C42.7613 13.4044 42.7716 13.4762 42.7716 13.6121Z" fill="white"/>
<path d="M9.81477 13.6682C10.1718 13.4528 10.462 13.2272 10.8139 13.1041C11.3713 12.9067 11.9364 12.8733 12.5066 13.0246C13.2592 13.2272 13.7138 13.8246 13.7421 14.6631C13.7652 15.3169 13.7626 15.9708 13.7575 16.6246C13.7498 17.3503 13.7729 18.0733 13.814 18.7964C13.8243 18.9939 13.7909 19.1067 13.5572 19.0836C13.2823 19.058 12.933 19.1913 12.7506 19.0323C12.5631 18.8682 12.7018 18.5144 12.6993 18.2426C12.6916 17.3221 12.7018 16.4041 12.7018 15.4836C12.7018 15.2605 12.6916 15.0374 12.6428 14.8144C12.4835 14.0964 12.0674 13.7682 11.3225 13.8169C10.8679 13.8451 10.4389 13.9708 10.0382 14.199C9.90724 14.2733 9.84816 14.3579 9.85073 14.5118C9.86871 15.9733 9.81991 17.4349 9.88669 18.8939C9.89183 19.0246 9.87898 19.0887 9.73771 19.0785C9.69662 19.0759 9.65552 19.0785 9.61442 19.0785C8.71029 19.0862 8.71543 19.0862 8.75653 18.181C8.82845 16.6708 8.8156 15.1605 8.74111 13.6503C8.71029 13.0503 8.70259 13.0503 9.32675 13.0503C9.36784 13.0503 9.40894 13.0554 9.45004 13.0503C9.75056 12.999 9.86357 13.1246 9.81477 13.4195C9.80707 13.481 9.81477 13.5451 9.81477 13.6682Z" fill="white"/>
<path d="M18.9563 18.5477C18.2268 19.2297 17.3971 19.3836 16.4827 19.1374C15.8945 18.9784 15.517 18.5964 15.4168 17.9938C15.3063 17.3323 15.463 16.7579 16.0564 16.3554C16.5649 16.0118 17.1429 15.8887 17.7362 15.822C18.0727 15.7836 18.4066 15.7451 18.7431 15.7092C18.8407 15.6989 18.928 15.6861 18.9229 15.5554C18.91 15.1989 18.9563 14.8425 18.8535 14.4887C18.6712 13.8502 18.1908 13.6861 17.5898 13.7041C17.0067 13.7246 16.5187 13.9784 16.1694 14.4477C16.0615 14.5938 15.9844 14.5631 15.874 14.4784C15.6043 14.2707 15.5683 13.881 15.7995 13.6066C16.0255 13.3374 16.3389 13.2041 16.6651 13.1066C17.3766 12.8938 18.0984 12.8554 18.8176 13.0579C19.5265 13.2579 19.9477 13.7784 19.9631 14.5143C19.9837 15.4118 19.9837 16.3118 19.9246 17.2092C19.8912 17.7502 19.9452 18.2913 20.0659 18.8195C20.1172 19.0374 20.0505 19.099 19.8476 19.081C19.7654 19.0733 19.6832 19.081 19.601 19.081C19.0821 19.0836 19.0821 19.0836 18.9563 18.5477Z" fill="white"/>
<path d="M55.3802 15.9016C54.8562 15.9016 54.3322 15.9067 53.8108 15.8991C53.6207 15.8965 53.5308 15.9349 53.5411 16.1503C53.554 16.4375 53.5719 16.7196 53.649 16.9991C53.9264 17.9837 54.7252 18.5016 55.7475 18.3734C56.233 18.3119 56.6979 18.2196 57.0986 17.9196C57.2116 17.8349 57.2964 17.8606 57.3066 18.0067C57.3297 18.3016 57.3015 18.5734 57.0164 18.7606C56.4256 19.1452 55.7706 19.2785 55.0823 19.2401C54.7458 19.2221 54.4119 19.1683 54.0934 19.0401C53.2175 18.6862 52.7295 18.0273 52.5471 17.1247C52.3211 16.017 52.4392 14.9683 53.107 14.0247C53.7697 13.0862 55.0694 12.6888 56.1508 13.0734C57.322 13.4914 57.6585 14.7452 57.5198 15.6119C57.4736 15.8939 57.2553 15.8734 57.078 15.8785C56.5129 15.8939 55.9504 15.8837 55.3853 15.8837C55.3802 15.8888 55.3802 15.8965 55.3802 15.9016Z" fill="white"/>
<path d="M67.761 18.5583C66.9211 19.2865 65.999 19.466 65.0075 19.0147C64.0109 18.5609 63.8927 17.0891 64.7712 16.4276C65.3003 16.0301 65.9142 15.8942 66.5512 15.8224C66.898 15.7814 67.2421 15.7404 67.5889 15.7096C67.7173 15.6993 67.7636 15.6481 67.7661 15.5199C67.7713 15.2122 67.7507 14.907 67.6865 14.607C67.5324 13.8788 67.0726 13.6891 66.3945 13.7096C65.8166 13.7275 65.3234 13.9763 64.9792 14.4583C64.8739 14.6045 64.7892 14.5686 64.6787 14.4814C64.427 14.2814 64.3833 13.8993 64.5914 13.6275C64.7121 13.4711 64.8688 13.3558 65.0486 13.2737C65.8936 12.8942 66.7695 12.8199 67.6582 13.066C68.3415 13.2558 68.7422 13.7686 68.7679 14.4814C68.8038 15.4814 68.7627 16.4814 68.7422 17.484C68.7345 17.9096 68.7345 18.3455 68.8629 18.7558C68.9528 19.0429 68.8629 19.1224 68.5906 19.0788C68.5495 19.0737 68.5084 19.0788 68.4673 19.0788C67.9151 19.084 67.9151 19.084 67.761 18.5583Z" fill="white"/>
<path d="M27.23 15.9017C26.6855 15.9017 26.1435 15.9017 25.599 15.9017C25.4885 15.9017 25.3781 15.8838 25.3421 16.0479C25.152 16.9094 25.7813 18.0402 26.629 18.2838C27.3944 18.5018 28.129 18.3838 28.8174 17.9864C28.8919 17.9428 28.9586 17.8248 29.0537 17.8838C29.159 17.9505 29.1461 18.0812 29.1333 18.1941C29.1025 18.4453 29.01 18.6479 28.7763 18.7992C27.6076 19.5479 25.8224 19.3582 24.9363 18.3582C24.4149 17.7684 24.2659 17.0428 24.2607 16.2787C24.253 15.0915 24.587 14.0556 25.6247 13.3607C26.5545 12.7376 27.8439 12.7915 28.6324 13.4838C29.2951 14.0658 29.4133 14.8428 29.3157 15.6684C29.29 15.8864 29.0717 15.8684 28.9227 15.8761C28.504 15.8992 28.0828 15.8966 27.6615 15.9017C27.5177 15.9043 27.3738 15.9017 27.23 15.9017Z" fill="white"/>
<path d="M60.649 19.2582C60.1276 19.2018 59.5651 19.2069 59.0668 18.9172C58.625 18.6608 58.4709 18.1915 58.702 17.7967C58.8048 17.6197 58.8921 17.5454 59.0925 17.7377C59.6935 18.3197 60.4153 18.5838 61.2578 18.4069C61.7329 18.3069 61.9744 18.0479 62.0078 17.6377C62.0437 17.2274 61.8357 16.8736 61.399 16.712C60.9675 16.5531 60.5206 16.4377 60.0762 16.3172C59.4341 16.1428 58.905 15.8479 58.7971 15.1197C58.6841 14.3556 58.9692 13.7608 59.6241 13.3454C60.4076 12.8479 61.2578 12.8813 62.1234 13.0274C62.1645 13.0351 62.203 13.0479 62.2441 13.0556C62.8194 13.1787 62.9967 13.5428 62.7449 14.0736C62.6679 14.2377 62.6088 14.2787 62.4316 14.1556C61.8896 13.7787 61.2783 13.6351 60.6233 13.7402C60.0325 13.8351 59.7089 14.2838 59.8373 14.7992C59.9093 15.0864 60.1147 15.2479 60.3819 15.3326C60.8494 15.4813 61.3245 15.6146 61.7946 15.7582C62.1722 15.8736 62.5292 16.0326 62.7783 16.3531C63.3177 17.0454 63.0994 18.1787 62.3314 18.7505C61.8331 19.1172 61.268 19.2249 60.649 19.2582Z" fill="white"/>
<path d="M49.7455 13.8631C49.9664 13.6067 50.1565 13.3964 50.3928 13.2298C50.8269 12.9246 51.2866 12.8452 51.7901 13.0349C51.975 13.1041 52.0521 13.2298 51.9981 13.4144C51.957 13.5605 51.9082 13.7093 51.8337 13.84C51.6539 14.1605 51.5512 14.1913 51.2275 14.0246C50.9116 13.8605 50.6137 13.8862 50.3311 14.0888C49.9587 14.3554 49.7121 14.6657 49.7275 15.1785C49.766 16.3836 49.7018 17.5913 49.7969 18.7939C49.8148 19.0349 49.7326 19.099 49.5092 19.0811C49.2754 19.0631 49.0366 19.0734 48.8003 19.0785C48.6641 19.0811 48.6256 19.0221 48.6359 18.8913C48.7412 17.2785 48.6847 15.6631 48.6744 14.0477C48.6718 13.7734 48.641 13.4964 48.6051 13.2246C48.5845 13.0811 48.6282 13.04 48.7617 13.0503C48.8131 13.0554 48.8645 13.0503 48.9158 13.0503C49.6684 13.0529 49.6684 13.0529 49.7455 13.8631Z" fill="white"/>
<path d="M94.5994 11.7736C94.8974 11.7608 95.1928 11.7787 95.4856 11.8326C96.3974 12.0018 97.0113 12.4992 97.2527 13.4044C97.4762 14.2403 97.4839 15.0813 97.2271 15.9095C96.9368 16.8556 96.2587 17.3685 95.3006 17.5326C94.8948 17.6018 94.489 17.6146 94.078 17.548C93.9033 17.5197 93.8314 17.4762 93.8314 17.289C93.8366 15.5326 93.8366 13.7761 93.8314 12.0197C93.8314 11.8377 93.8854 11.7582 94.0754 11.7685C94.2527 11.7813 94.4273 11.7736 94.5994 11.7736Z" fill="#014587"/>
<path d="M75.9211 16.4377C75.9211 16.1223 75.9262 15.8044 75.9185 15.489C75.9134 15.3403 75.9545 15.2762 76.1163 15.2505C76.5709 15.1839 77.0178 15.2095 77.4519 15.348C77.8475 15.4736 78.0966 15.7454 78.1249 16.171C78.1609 16.7018 78.017 17.1685 77.5341 17.4634C77.0692 17.748 76.5452 17.6736 76.0367 17.6582C75.9031 17.6531 75.9236 17.5351 75.9236 17.448C75.9211 17.1095 75.9211 16.7736 75.9211 16.4377Z" fill="#014587"/>
<path d="M75.921 12.7172C75.921 12.43 75.9236 12.1454 75.921 11.8582C75.921 11.7454 75.9364 11.6531 76.0803 11.6531C76.3551 11.6582 76.6351 11.6172 76.9073 11.689C77.4442 11.83 77.6548 12.0992 77.6471 12.6249C77.6368 13.2198 77.3594 13.6121 76.8637 13.7274C76.6222 13.7839 76.3782 13.7915 76.1291 13.7915C75.9647 13.7915 75.9133 13.7274 75.9184 13.5736C75.9261 13.2915 75.921 13.0044 75.921 12.7172Z" fill="#014587"/>
<path d="M42.7716 16.284C42.7716 15.7019 42.7793 15.1199 42.7664 14.5378C42.7639 14.3584 42.8281 14.2609 42.9771 14.1712C43.8272 13.6558 44.6774 13.6378 45.3324 14.1558C45.7588 14.4917 45.9335 14.9686 45.9951 15.4917C46.0876 16.2737 46.0002 17.0173 45.5122 17.6737C44.9369 18.4481 43.8632 18.6353 42.9205 18.2943C42.7639 18.2378 42.7716 18.1225 42.7716 17.9994C42.7716 17.4302 42.7716 16.8584 42.7716 16.284Z" fill="#014587"/>
<path d="M18.9257 17.1787C18.9257 17.2607 18.9103 17.3453 18.9283 17.4223C19.0284 17.8812 18.769 18.112 18.3966 18.2838C17.9342 18.4941 17.4667 18.5941 16.9736 18.3992C16.6011 18.253 16.3854 17.8941 16.4008 17.4428C16.4162 17.012 16.6217 16.7402 17.0301 16.612C17.59 16.4351 18.1782 16.4223 18.751 16.3325C18.8949 16.3094 18.9308 16.3787 18.9283 16.5043C18.9206 16.73 18.9257 16.953 18.9257 17.1787Z" fill="#014587"/>
<path d="M55.041 15.2553C54.6505 15.2553 54.2601 15.2527 53.8723 15.2579C53.7181 15.2604 53.6462 15.2194 53.6745 15.045C53.8106 14.222 54.4836 13.6578 55.3055 13.6681C56.1197 13.6809 56.4948 14.4579 56.4408 15.1271C56.428 15.2886 56.3047 15.2527 56.2096 15.2527C55.8192 15.2553 55.4314 15.2553 55.041 15.2553Z" fill="#014587"/>
<path d="M67.7638 17.1581C67.7638 17.2299 67.751 17.3043 67.7664 17.3709C67.882 17.8633 67.5917 18.1017 67.2039 18.2786C66.8366 18.4453 66.4616 18.5581 66.048 18.4735C65.316 18.3222 64.9795 17.5966 65.352 16.9504C65.4496 16.7812 65.5934 16.6812 65.7783 16.6248C66.3691 16.4504 66.983 16.4094 67.5892 16.3325C67.7382 16.3145 67.7638 16.3992 67.7638 16.5145C67.7638 16.7299 67.7638 16.9453 67.7638 17.1581Z" fill="#014587"/>
<path d="M26.8457 15.2556C26.4759 15.2556 26.106 15.2403 25.7387 15.2608C25.4613 15.2762 25.4407 15.1813 25.5101 14.9454C25.7464 14.1351 26.2909 13.671 27.0307 13.6685C27.6856 13.6685 28.1326 14.0531 28.2225 14.7069C28.3047 15.3146 28.3226 15.2556 27.7396 15.2556C27.4416 15.2531 27.1437 15.2556 26.8457 15.2556Z" fill="#014587"/>
</svg>
