<svg width="290" height="59" viewBox="0 0 290 59" fill="none" xmlns="http://www.w3.org/2000/svg">
<path d="M254.674 0C255.631 0.32397 256.638 0.318478 257.622 0.483209C262.848 1.36177 267.677 3.26166 272.188 5.99618C277.188 9.02173 281.489 12.816 284.828 17.6261C286.819 20.4979 288.299 23.5839 288.904 27.0707C289.938 33.0504 286.846 38.3272 281.038 40.3424C278.222 41.3198 275.317 41.5999 272.347 41.4516C270.235 41.3473 268.156 41.0782 266.087 40.6335C265.62 40.5346 265.488 40.4083 265.609 39.9087C266.588 35.8728 267.039 31.771 266.896 27.6198C266.698 21.8158 265.603 16.1985 263.024 10.9436C260.884 6.57823 257.925 2.9322 253.519 0.625975C253.112 0.411826 252.699 0.214149 252.287 0.010982C253.095 0 253.882 0 254.674 0Z" fill="white"/>
<path d="M0 19.7127C0.704068 19.7127 1.40814 19.7457 2.11221 19.7017C2.64026 19.6688 2.77227 19.85 2.76677 20.3607C2.74477 24.3032 2.75577 28.2458 2.75577 32.1828C2.75577 32.7539 2.77777 33.314 2.88778 33.8795C3.25632 35.7904 4.31792 36.8721 6.24311 37.1467C7.1782 37.2785 8.12979 37.251 9.05388 36.9874C10.4675 36.5866 11.3256 35.6367 11.7271 34.2529C11.9527 33.4732 12.0297 32.666 12.0242 31.8533C12.0077 28.5038 12.0077 25.1543 11.9857 21.8048C11.9802 21.2612 11.9252 20.7121 11.8702 20.1685C11.8372 19.839 11.9362 19.7182 12.2937 19.7017C14.1144 19.6084 14.1144 19.5974 14.1144 21.4149C14.1144 24.9841 14.1144 28.5533 14.1144 32.1224C14.1144 33.9454 13.7348 35.6531 12.4752 37.0478C10.9186 38.7665 8.87236 39.2058 6.66665 39.107C5.99008 39.0795 5.31352 39.0136 4.64795 38.8379C1.86468 38.1021 0.280527 36.054 0.253025 33.0449C0.231022 30.2884 0.258525 27.5319 0.242024 24.7754C0.236523 23.6827 0.170517 22.59 0.132013 21.4973C0.126512 21.371 0.154015 21.2282 0 21.1569C0 21.0251 0 20.8933 0 20.7615C0.110011 20.4979 0.110011 20.2344 0 19.9708C0 19.8884 0 19.8006 0 19.7127Z" fill="white"/>
<path d="M0 19.9763C0.181203 20.2399 0.225131 20.5034 0 20.767C0 20.4979 0 20.2399 0 19.9763Z" fill="white"/>
<path d="M235.087 48.601C234.08 46.8054 233.277 45.0209 232.633 43.1594C231.418 39.6506 230.719 36.0431 230.488 32.3311C230.087 25.8408 230.978 19.5536 233.425 13.5135C234.844 10.0102 236.748 6.79795 239.575 4.21718C242.089 1.92193 244.982 0.4778 248.497 0.664494C251.902 0.845697 254.685 2.36671 257.006 4.75529C260.262 8.09932 262.221 12.1791 263.601 16.5665C263.739 17.0057 263.552 17.1156 263.167 17.2364C255.295 19.614 248.42 23.6444 242.743 29.6021C239.421 33.0889 236.841 37.0479 235.615 41.7647C235.054 43.9227 234.834 46.1081 235.125 48.3264C235.136 48.3868 235.114 48.4472 235.087 48.601Z" fill="white"/>
<path d="M285.872 39.1946C285.261 40.4191 284.474 41.5063 283.649 42.5661C279.964 47.2883 275.382 50.9399 270.08 53.7183C265.872 55.9257 261.433 57.4906 256.719 58.1495C252.417 58.7536 248.127 58.7755 244.001 57.1392C240.102 55.5962 237.494 52.8782 236.653 48.7105C236.042 45.7014 236.592 42.7967 237.758 39.9908C239.194 36.5314 241.306 33.5114 243.809 30.7494C244.062 30.4694 244.227 30.365 244.579 30.6945C248.215 34.0825 252.28 36.8499 256.79 38.9585C261.317 41.0725 266.031 42.5057 271.048 42.8626C275.173 43.1591 279.15 42.6429 282.918 40.8803C283.946 40.4026 284.903 39.7986 285.872 39.1946Z" fill="white"/>
<path d="M201.485 39.0579C199.709 39.0469 197.932 38.9755 196.161 38.8108C195.6 38.7613 195.545 38.5362 195.55 38.075C195.561 33.6767 195.55 29.2784 195.561 24.8801C195.561 23.37 195.539 21.8655 195.424 20.3555C195.402 20.1084 195.325 19.8174 195.759 19.8009C199.676 19.6362 203.614 19.131 207.486 20.1194C210.935 21.0034 213.323 23.0571 213.955 26.6756C214.5 29.8 214.219 32.842 212.184 35.4722C210.682 37.416 208.554 38.2891 206.216 38.7668C204.648 39.0853 203.07 39.0743 201.485 39.0579Z" fill="white"/>
<path d="M168.532 28.5749C168.9 28.6847 169.153 28.7561 169.401 28.8329C172.861 29.9092 173.422 32.8139 172.239 35.5375C171.37 37.5417 169.544 38.3214 167.553 38.7607C165.314 39.2494 163.048 39.0517 160.787 38.9803C159.846 38.9474 158.906 38.8046 157.965 38.8101C157.3 38.8156 157.245 38.5246 157.245 37.9864C157.261 33.4564 157.267 28.9208 157.245 24.3907C157.239 23.018 157.146 21.6397 157.047 20.267C157.003 19.6849 157.377 19.7453 157.718 19.7343C160.154 19.6794 162.591 19.5367 165.033 19.5641C166.067 19.5751 167.096 19.641 168.108 19.8551C168.95 20.0363 169.764 20.3164 170.429 20.8929C171.876 22.1339 172.09 24.7147 170.93 26.5651C170.363 27.4602 169.544 28.0642 168.532 28.5749Z" fill="white"/>
<path d="M192.558 29.2727C192.558 32.2049 192.542 35.1426 192.569 38.0748C192.575 38.6349 192.399 38.7777 191.86 38.7612C190.517 38.7282 189.175 38.7282 187.839 38.7612C187.327 38.7722 187.217 38.6019 187.217 38.1242C187.239 35.8894 187.212 33.6545 187.239 31.4252C187.245 30.9255 187.129 30.7443 186.59 30.7553C184.676 30.7882 182.762 30.7827 180.853 30.7553C180.352 30.7498 180.22 30.8981 180.226 31.3868C180.253 33.6216 180.226 35.8564 180.248 38.0858C180.253 38.5745 180.16 38.7831 179.604 38.7667C178.24 38.7227 176.876 38.7282 175.518 38.7667C175.006 38.7777 174.846 38.6404 174.852 38.1132C174.874 34.0828 174.874 30.0524 174.863 26.0275C174.857 24.1661 174.94 22.3046 174.72 20.4542C174.665 19.9819 174.78 19.7952 175.309 19.8062C176.761 19.8392 178.213 19.8337 179.659 19.8062C180.127 19.7952 180.259 19.9545 180.253 20.4047C180.231 22.4199 180.259 24.4351 180.231 26.4503C180.226 26.95 180.374 27.0818 180.864 27.0763C182.778 27.0489 184.692 27.0489 186.601 27.0763C187.074 27.0818 187.25 26.983 187.25 26.4668C187.245 24.3857 187.245 22.3101 187.058 20.2345C187.025 19.8886 187.124 19.8117 187.426 19.8117C188.988 19.8172 190.55 19.8282 192.113 19.8062C192.657 19.8007 192.564 20.1576 192.564 20.4706C192.558 23.4028 192.558 26.335 192.558 29.2727Z" fill="white"/>
<path d="M68.5267 27.1696C68.9062 26.917 69.2087 26.7028 69.5223 26.5106C70.9139 25.6431 72.421 25.4069 74.0107 25.7858C74.7753 25.967 75.4518 26.3514 75.9029 27.0103C76.1614 27.3837 76.3649 27.3453 76.6949 27.1092C77.9876 26.1922 79.3847 25.5717 81.0294 25.6211C83.3231 25.687 84.7807 27.0542 84.8467 29.3495C84.8962 30.9034 84.8577 32.4574 84.8852 34.0114C84.9072 35.3896 84.9237 36.7678 85.0008 38.1406C85.0283 38.6842 84.8467 38.8325 84.3407 38.783C83.7521 38.7281 82.9766 39.0191 82.63 38.6622C82.355 38.3712 82.597 37.597 82.597 37.0369C82.6025 35.0217 82.608 33.0065 82.6135 30.9913C82.6135 30.6838 82.6135 30.3763 82.5805 30.0743C82.333 27.7516 80.8809 27.2464 78.7576 27.6692C78.5651 27.7077 78.3781 27.7845 78.1966 27.8559C76.8325 28.3666 76.7115 28.5588 76.7005 29.9919C76.6784 32.7045 76.717 35.4171 76.827 38.1296C76.849 38.6567 76.7004 38.794 76.1779 38.7885C74.3847 38.7721 74.4122 38.794 74.4232 37.0204C74.4397 34.9229 74.6377 32.8253 74.4452 30.7277C74.4177 30.4422 74.4287 30.1567 74.3902 29.8766C74.0767 27.521 72.311 27.1805 70.1493 27.7791C70.1053 27.79 70.0668 27.8175 70.0283 27.8285C68.5267 28.3941 68.5212 28.394 68.5267 29.981C68.5322 32.7155 68.4661 35.4555 68.6422 38.1845C68.6697 38.6403 68.5487 38.8215 68.0701 38.783C67.4595 38.7336 66.695 38.9478 66.2879 38.6513C66.0129 38.4536 66.2384 37.564 66.2494 36.9875C66.2769 35.17 66.3649 33.3579 66.3319 31.5404C66.2989 29.7943 66.3264 28.0371 66.0954 26.302C66.0459 25.9286 66.1614 25.8352 66.5025 25.8627C66.7445 25.8792 66.9865 25.8682 67.2285 25.8682C68.4661 25.8737 68.4661 25.8737 68.5267 27.1696Z" fill="white"/>
<path d="M91.5952 27.0652C92.4753 26.4393 93.2894 25.9341 94.2575 25.7474C97.5193 25.1104 100.083 26.7578 100.754 30.0029C101.199 32.1499 100.979 34.2475 99.7195 36.1089C98.1463 38.4316 95.8471 39.3047 93.1134 39.0796C91.5842 38.9533 91.6007 38.8874 91.5897 40.4029C91.5732 42.1106 91.6007 43.8128 91.7162 45.515C91.7492 45.9818 91.6612 46.2124 91.1277 46.1685C90.5391 46.119 89.78 46.3552 89.395 46.0696C88.9714 45.7566 89.34 44.9824 89.34 44.4113C89.3235 39.0521 89.3345 33.6874 89.3235 28.3282C89.3235 27.6089 89.2575 26.884 89.164 26.1702C89.1145 25.7913 89.2355 25.7199 89.571 25.7364C89.9891 25.7529 90.4071 25.7749 90.8251 25.7309C91.3972 25.676 91.7052 25.8298 91.5952 26.4667C91.5732 26.6205 91.5952 26.7742 91.5952 27.0652Z" fill="white"/>
<path d="M21.0183 27.1856C21.7829 26.7244 22.4045 26.2412 23.1581 25.9776C24.3517 25.5548 25.5618 25.4834 26.7829 25.8074C28.3946 26.2412 29.3682 27.5206 29.4287 29.3162C29.4782 30.7164 29.4727 32.1166 29.4617 33.5168C29.4452 35.0707 29.4947 36.6192 29.5827 38.1677C29.6047 38.5905 29.5332 38.8321 29.0326 38.7827C28.4441 38.7277 27.696 39.0133 27.3055 38.6728C26.9039 38.3214 27.2009 37.5636 27.1954 36.9816C27.1789 35.0103 27.2009 33.0445 27.2009 31.0733C27.2009 30.5956 27.1789 30.1178 27.0744 29.6401C26.7334 28.1026 25.8423 27.3998 24.2472 27.5041C23.2736 27.5645 22.355 27.8336 21.4969 28.3223C21.2164 28.4815 21.0899 28.6627 21.0954 28.9922C21.1339 32.1221 21.0293 35.2519 21.1724 38.3763C21.1834 38.6564 21.1559 38.7936 20.8533 38.7717C20.7653 38.7662 20.6773 38.7717 20.5893 38.7717C18.6531 38.7881 18.6641 38.7881 18.7521 36.8498C18.9061 33.6156 18.8786 30.3814 18.7191 27.1472C18.6531 25.8623 18.6366 25.8623 19.9732 25.8623C20.0613 25.8623 20.1493 25.8733 20.2373 25.8623C20.8808 25.7525 21.1229 26.0215 21.0183 26.653C21.0018 26.7848 21.0183 26.9221 21.0183 27.1856Z" fill="white"/>
<path d="M40.5945 37.6354C39.0323 39.096 37.2557 39.4254 35.2975 38.8983C34.0379 38.5579 33.2293 37.7397 33.0148 36.4493C32.7782 35.0326 33.1138 33.8026 34.3844 32.9406C35.4735 32.2048 36.7111 31.9412 37.9817 31.7984C38.7023 31.7161 39.4174 31.6337 40.1379 31.5568C40.347 31.5349 40.534 31.5074 40.523 31.2274C40.4955 30.4641 40.5945 29.7009 40.3745 28.9431C39.9839 27.5758 38.9553 27.2244 37.6682 27.2629C36.4196 27.3068 35.3745 27.8504 34.6264 28.8552C34.3954 29.1682 34.2304 29.1023 33.9938 28.9211C33.4163 28.4764 33.3393 27.6417 33.8343 27.0542C34.3184 26.4776 34.9894 26.1921 35.688 25.9835C37.2117 25.5277 38.7573 25.4453 40.2975 25.8791C41.8156 26.3074 42.7177 27.4221 42.7507 28.998C42.7947 30.9199 42.7947 32.8472 42.6682 34.7691C42.5967 35.9277 42.7122 37.0863 42.9707 38.2174C43.0807 38.6842 42.9377 38.8159 42.5032 38.7775C42.3272 38.761 42.1511 38.7775 41.9751 38.7775C40.864 38.783 40.864 38.783 40.5945 37.6354Z" fill="white"/>
<path d="M118.597 31.9681C117.474 31.9681 116.352 31.9791 115.236 31.9627C114.829 31.9572 114.636 32.0395 114.658 32.5008C114.686 33.1158 114.724 33.7198 114.889 34.3183C115.483 36.4268 117.194 37.536 119.383 37.2615C120.423 37.1297 121.418 36.932 122.276 36.2896C122.518 36.1084 122.7 36.1633 122.722 36.4763C122.771 37.1077 122.711 37.6898 122.1 38.0906C120.835 38.9143 119.433 39.1998 117.958 39.1174C117.238 39.079 116.523 38.9637 115.841 38.6891C113.965 37.9314 112.92 36.5202 112.529 34.5874C112.045 32.2152 112.298 29.9694 113.729 27.9487C115.148 25.939 117.931 25.0879 120.247 25.9116C122.755 26.8066 123.476 29.4917 123.178 31.3477C123.079 31.9517 122.612 31.9077 122.232 31.9187C121.022 31.9517 119.818 31.9297 118.608 31.9297C118.597 31.9407 118.597 31.9572 118.597 31.9681Z" fill="white"/>
<path d="M145.11 37.6568C143.311 39.2163 141.336 39.6006 139.213 38.6342C137.079 37.6623 136.826 34.5105 138.707 33.0938C139.84 32.2427 141.155 31.9517 142.519 31.7979C143.262 31.7101 143.999 31.6222 144.741 31.5563C145.016 31.5344 145.115 31.4245 145.121 31.15C145.132 30.4911 145.088 29.8376 144.95 29.1952C144.62 27.6357 143.636 27.2294 142.183 27.2733C140.946 27.3118 139.89 27.8444 139.153 28.8767C138.927 29.1897 138.746 29.1128 138.509 28.9261C137.97 28.4978 137.877 27.6797 138.322 27.0976C138.581 26.7627 138.916 26.5156 139.301 26.3399C141.111 25.5272 142.987 25.368 144.89 25.8951C146.353 26.3014 147.211 27.3996 147.266 28.9261C147.343 31.0676 147.255 33.2091 147.211 35.3561C147.194 36.2676 147.194 37.2011 147.469 38.0796C147.662 38.6946 147.469 38.8649 146.886 38.7715C146.798 38.7605 146.71 38.7715 146.622 38.7715C145.44 38.7825 145.44 38.7825 145.11 37.6568Z" fill="white"/>
<path d="M58.313 31.9687C57.1469 31.9687 55.9863 31.9687 54.8202 31.9687C54.5836 31.9687 54.3471 31.9302 54.2701 32.2816C53.8631 34.1266 55.2107 36.5482 57.0259 37.0698C58.665 37.5365 60.2382 37.284 61.7123 36.4328C61.8718 36.3395 62.0149 36.0869 62.2184 36.2132C62.4439 36.356 62.4164 36.636 62.3889 36.8776C62.3229 37.4157 62.1249 37.8495 61.6243 38.1735C59.1216 39.7769 55.2987 39.3705 53.401 37.229C52.2844 35.9661 51.9654 34.4122 51.9544 32.7758C51.9379 30.2335 52.6529 28.0151 54.8752 26.5271C56.8664 25.1928 59.6276 25.3081 61.3163 26.7906C62.7354 28.0371 62.9885 29.7009 62.7794 31.469C62.7244 31.9357 62.2569 31.8973 61.9379 31.9137C61.0413 31.9632 60.1392 31.9577 59.2371 31.9687C58.9291 31.9741 58.621 31.9687 58.313 31.9687Z" fill="white"/>
<path d="M129.879 39.1564C128.763 39.0355 127.558 39.0465 126.491 38.426C125.545 37.8769 125.215 36.8721 125.71 36.0265C125.93 35.6476 126.117 35.4884 126.546 35.9002C127.833 37.1466 129.379 37.7122 131.183 37.3333C132.2 37.1192 132.717 36.5646 132.789 35.686C132.866 34.8075 132.42 34.0497 131.485 33.7038C130.561 33.3633 129.604 33.1162 128.653 32.8582C127.277 32.4848 126.144 31.8533 125.913 30.2939C125.671 28.6575 126.282 27.3836 127.684 26.4941C129.362 25.4288 131.183 25.5002 133.036 25.8132C133.124 25.8297 133.207 25.8571 133.295 25.8736C134.527 26.1372 134.907 26.9169 134.368 28.0535C134.203 28.405 134.076 28.4928 133.697 28.2292C132.536 27.4221 131.227 27.1146 129.824 27.3397C128.559 27.5429 127.866 28.5038 128.141 29.6075C128.295 30.2225 128.735 30.5684 129.307 30.7496C130.308 31.0681 131.326 31.3536 132.332 31.6611C133.141 31.9082 133.906 32.2487 134.439 32.935C135.594 34.4176 135.127 36.8446 133.482 38.0691C132.415 38.8543 131.205 39.085 129.879 39.1564Z" fill="white"/>
<path d="M106.53 27.6031C107.003 27.054 107.41 26.6037 107.916 26.2468C108.845 25.5934 109.83 25.4232 110.908 25.8295C111.304 25.9777 111.469 26.2468 111.354 26.6422C111.266 26.9551 111.161 27.2736 111.002 27.5537C110.617 28.24 110.397 28.3059 109.704 27.949C109.027 27.5976 108.389 27.6525 107.784 28.0863C106.986 28.6574 106.458 29.3218 106.491 30.42C106.574 33.0007 106.436 35.587 106.64 38.1623C106.678 38.6784 106.502 38.8157 106.024 38.7773C105.523 38.7389 105.012 38.7608 104.506 38.7718C104.214 38.7773 104.131 38.651 104.153 38.371C104.379 34.9171 104.258 31.4578 104.236 27.9984C104.231 27.4109 104.165 26.8179 104.087 26.2358C104.043 25.9283 104.137 25.8405 104.423 25.8624C104.533 25.8734 104.643 25.8624 104.753 25.8624C106.365 25.8679 106.365 25.8679 106.53 27.6031Z" fill="white"/>
<path d="M202.584 23.1285C203.222 23.1011 203.854 23.1395 204.481 23.2548C206.434 23.6172 207.749 24.6825 208.266 26.6208C208.744 28.4109 208.761 30.2119 208.211 31.9855C207.589 34.0117 206.137 35.1099 204.085 35.4613C203.216 35.6096 202.347 35.637 201.467 35.4943C201.093 35.4339 200.939 35.3405 200.939 34.9397C200.95 31.1783 200.95 27.417 200.939 23.6557C200.939 23.2658 201.054 23.0956 201.462 23.1175C201.841 23.145 202.215 23.1285 202.584 23.1285Z" fill="#5BC34C"/>
<path d="M162.585 33.1162C162.585 32.4409 162.596 31.76 162.579 31.0846C162.568 30.7661 162.656 30.6288 163.003 30.5739C163.976 30.4311 164.933 30.4861 165.863 30.7826C166.71 31.0516 167.243 31.6337 167.304 32.5452C167.381 33.6818 167.073 34.6812 166.039 35.3127C165.043 35.9222 163.921 35.7629 162.832 35.73C162.546 35.719 162.59 35.4664 162.59 35.2797C162.585 34.5549 162.585 33.8356 162.585 33.1162Z" fill="#71D662"/>
<path d="M162.584 25.149C162.584 24.534 162.59 23.9245 162.584 23.3095C162.584 23.0679 162.617 22.8702 162.925 22.8702C163.514 22.8812 164.114 22.7933 164.697 22.9471C165.846 23.2491 166.297 23.8257 166.281 24.9513C166.259 26.2252 165.665 27.0653 164.603 27.3124C164.086 27.4332 163.563 27.4497 163.03 27.4497C162.678 27.4497 162.568 27.3124 162.579 26.983C162.595 26.379 162.584 25.764 162.584 25.149Z" fill="#71D662"/>
<path d="M91.5951 32.7865C91.5951 31.5401 91.6116 30.2936 91.5841 29.0471C91.5786 28.6628 91.7162 28.4541 92.0352 28.2619C93.8559 27.1582 95.6765 27.1198 97.0792 28.229C97.9923 28.9483 98.3663 29.9696 98.4983 31.0898C98.6963 32.7645 98.5093 34.3569 97.4642 35.7626C96.2321 37.4209 93.9329 37.8218 91.9142 37.0915C91.5786 36.9707 91.5951 36.7236 91.5951 36.46C91.5951 35.241 91.5951 34.0165 91.5951 32.7865Z" fill="#71D662"/>
<path d="M40.5293 34.7028C40.5293 34.8785 40.4963 35.0597 40.5348 35.2244C40.7493 36.2073 40.1938 36.7015 39.3962 37.0694C38.4061 37.5197 37.405 37.7338 36.3489 37.3165C35.5513 37.0035 35.0893 36.2348 35.1223 35.2684C35.1553 34.3459 35.5953 33.7638 36.4699 33.4893C37.669 33.1104 38.9286 33.083 40.1552 32.8908C40.4633 32.8414 40.5403 32.9896 40.5348 33.2587C40.5183 33.7419 40.5293 34.2196 40.5293 34.7028Z" fill="#71D662"/>
<path d="M117.87 30.5849C117.034 30.5849 116.198 30.5794 115.367 30.5904C115.037 30.5959 114.883 30.508 114.944 30.1346C115.235 28.372 116.676 27.164 118.436 27.186C120.18 27.2134 120.983 28.8772 120.868 30.3103C120.84 30.6563 120.576 30.5794 120.373 30.5794C119.537 30.5849 118.706 30.5849 117.87 30.5849Z" fill="#71D662"/>
<path d="M145.116 34.6593C145.116 34.8131 145.088 34.9723 145.121 35.1151C145.369 36.1694 144.747 36.68 143.917 37.0589C143.13 37.4158 142.327 37.6574 141.441 37.4762C139.874 37.1523 139.153 35.5983 139.951 34.2146C140.16 33.8522 140.468 33.638 140.864 33.5172C142.129 33.1438 143.444 33.056 144.742 32.8912C145.061 32.8528 145.116 33.034 145.116 33.2811C145.116 33.7423 145.116 34.2036 145.116 34.6593Z" fill="#71D662"/>
<path d="M57.4899 30.5851C56.6979 30.5851 55.9058 30.5522 55.1192 30.5961C54.5251 30.629 54.4811 30.4259 54.6296 29.9207C55.1357 28.1856 56.3018 27.1917 57.886 27.1862C59.2886 27.1862 60.2457 28.0098 60.4382 29.41C60.6142 30.7114 60.6527 30.5851 59.4041 30.5851C58.7661 30.5796 58.128 30.5851 57.4899 30.5851Z" fill="#71D662"/>
</svg>
