<svg width="963" height="477" viewBox="0 0 963 477" fill="none" xmlns="http://www.w3.org/2000/svg">
<line x1="-4.37114e-08" y1="0.500061" x2="963" y2="0.499977" stroke="#E6E6E6"/>
<g filter="url(#filter0_d_889_228)">
<path d="M80 140C80 113.49 101.49 92 128 92H839C865.51 92 887 113.49 887 140V406C887 432.51 865.51 454 839 454H128C101.49 454 80 432.51 80 406V140Z" fill="white"/>
</g>
<path d="M160.466 321.549C160.466 319.91 160.466 316.022 160.092 313.306H160.185C162.106 313.118 165.665 312.931 168.429 312.931C174.564 312.931 178.686 315.601 178.686 320.987C178.686 328.012 173.534 331.01 167.82 331.01C166.977 331.01 165.806 330.916 164.869 330.776V333.961C164.869 335.693 164.869 339.487 165.244 342.204H160.466V321.549ZM164.869 316.116V328.012C165.759 328.293 166.743 328.387 167.773 328.387C171.567 328.387 174.283 326.42 174.283 321.455C174.283 317.474 171.894 315.788 167.82 315.788C166.93 315.788 165.759 315.882 164.869 316.116Z" fill="#005CB9"/>
<path d="M181.025 332.883C181.025 326.233 185.615 322.158 191.329 322.158C197.137 322.158 200.931 325.905 200.931 331.993C200.931 338.785 196.294 342.859 190.439 342.859C184.725 342.859 181.025 339.019 181.025 332.883ZM196.669 332.462C196.669 327.263 194.186 324.781 191.001 324.781C187.536 324.781 185.334 327.872 185.334 332.274C185.334 337.567 187.863 340.19 191.001 340.19C194.467 340.237 196.669 336.958 196.669 332.462Z" fill="#005CB9"/>
<path d="M205.474 342.25C205.709 339.628 205.709 336.724 205.709 335.319V329.792C205.709 328.434 205.709 325.296 205.334 322.626H209.502L209.69 325.389C210.486 324.219 212.313 322.251 214.373 322.251C215.732 322.251 216.528 322.626 216.996 323.048C216.996 324.359 216.575 325.671 215.404 326.514C214.467 326.514 214.28 325.671 212.968 325.671C211.751 325.671 210.673 326.514 209.69 328.012V335.272C209.69 336.677 209.69 339.628 209.924 342.204H205.474V342.25Z" fill="#005CB9"/>
<path d="M217.466 323.001C217.513 322.767 217.607 322.626 217.935 322.626H220.23C220.276 321.502 220.276 320.706 220.323 320.238C221.213 319.254 223.649 318.317 224.07 318.177C224.304 318.177 224.445 318.27 224.445 318.598L224.258 322.626H230.112C230.112 323.563 229.831 324.827 228.988 325.483H224.164C224.023 329.183 223.883 333.445 223.883 336.115C223.883 338.785 224.351 339.674 226.459 339.674C227.911 339.674 229.129 339.206 229.972 338.55H230.206C230.206 339.534 230.018 340.752 229.597 341.501C228.988 341.923 227.442 342.719 225.382 342.719C222.009 342.719 219.855 341.08 219.855 337.052C219.855 334.335 219.949 329.324 220.089 325.483H216.904L217.466 323.001Z" fill="#005CB9"/>
<path d="M244.49 342.25L244.209 340.424C243.319 341.454 241.539 342.813 238.682 342.813C235.17 342.813 232.453 341.314 232.453 337.52C232.453 333.914 235.778 332.087 240.134 331.619L244.022 331.244V329.698C244.022 326.373 242.898 324.968 240.041 324.968C237.465 324.968 235.778 326.56 234.935 327.965C234.046 327.731 233.39 327.122 233.39 325.952C233.39 323.657 237.137 322.298 240.743 322.298C245.333 322.298 247.909 324.078 247.909 328.434C247.909 331.572 247.722 334.663 247.722 337.38C247.722 338.597 247.909 340.377 248.424 342.25H244.49ZM244.068 338.55V333.352L241.914 333.586C239.947 333.82 238.12 334.101 237.137 334.663C236.715 335.178 236.294 335.928 236.294 336.958C236.294 339.019 237.605 340.19 239.76 340.19C241.539 340.143 242.851 339.44 244.068 338.55Z" fill="#005CB9"/>
<path d="M254.322 342.25C254.556 339.628 254.556 336.724 254.556 335.319V318.786C254.556 317.427 254.556 314.289 254.182 311.573H258.584V335.319C258.584 336.724 258.584 339.674 258.818 342.25H254.322Z" fill="#005CB9"/>
<path d="M272.355 332.883C272.355 326.42 276.992 322.298 282.987 322.298C284.205 322.298 285.563 322.626 286.453 322.954V318.832C286.453 317.474 286.453 314.243 286.078 311.62H290.341V335.366C290.341 337.145 290.341 339.628 290.715 342.297H286.828L286.64 340.471C285.704 341.548 283.971 342.813 280.926 342.813C276.29 342.813 272.355 339.628 272.355 332.883ZM286.453 338.41V325.811C285.657 325.436 284.486 324.968 282.94 324.968C279.24 324.968 276.477 327.731 276.477 332.462C276.477 337.473 278.819 339.675 282.004 339.675C283.83 339.721 285.423 339.206 286.453 338.41Z" fill="#005CB9"/>
<path d="M295.305 332.883C295.305 326.514 299.239 322.298 304.766 322.298C309.496 322.298 312.213 325.53 312.213 329.886C312.213 330.354 312.166 331.15 311.931 331.712C311.463 331.993 310.152 332.134 308.512 332.134H299.379V332.883C299.379 337.426 301.815 339.721 305.328 339.721C308.231 339.721 309.918 338.925 310.995 337.988C311.229 337.988 311.369 338.316 311.369 338.831C311.369 339.534 311.182 340.283 311.042 340.658C310.339 341.361 308.278 342.813 304.672 342.813C299.005 342.813 295.305 339.393 295.305 332.883ZM299.66 329.792H308.231V329.09C308.231 326.795 307.154 324.827 304.531 324.827C302.002 324.827 300.269 326.56 299.66 329.792Z" fill="#005CB9"/>
<path d="M159.715 390.07V369.415C159.715 367.355 159.715 363.982 159.387 361.172C160.932 360.985 168.379 360.798 170.862 360.798C176.903 360.798 181.587 361.922 181.587 367.308C181.587 372.038 178.121 374.052 176.576 374.521C180.65 375.317 183.32 377.565 183.32 381.265C183.32 388.009 177.653 390.538 170.253 390.538C167.958 390.632 161.26 390.257 159.715 390.07ZM167.817 365.903V372.834C168.192 372.881 168.66 372.881 169.175 372.881C172.22 372.881 173.484 371.57 173.484 368.807C173.484 366.886 171.986 365.856 169.503 365.856C168.988 365.809 168.426 365.856 167.817 365.903ZM167.817 377.659V385.48C168.52 385.574 169.269 385.574 170.065 385.574C172.969 385.574 175.03 384.262 175.03 380.937C175.03 378.642 173.344 377.518 170.065 377.518C169.41 377.518 168.66 377.565 167.817 377.659Z" fill="#005CB9"/>
<path d="M186.927 369.415C186.927 367.355 186.927 363.982 186.6 361.172H206.037L205.662 367.167C204.772 366.839 201.634 366.699 199.152 366.699H195.03V372.694H204.304L204.491 372.881C204.491 374.333 204.21 376.862 203.414 378.221H194.983V384.59H201.868C203.976 384.59 205.849 384.45 206.88 384.075H207.067C207.067 386.323 206.318 389.04 204.304 390.117H186.927V369.415Z" fill="#005CB9"/>
<path d="M210.111 390.07V369.415C210.111 368.057 210.111 363.982 209.783 361.172H217.183L228.19 376.3L229.22 378.502V361.125H237.323V390.023H230.11L218.729 374.38L218.214 373.35V389.976H210.111V390.07Z" fill="#005CB9"/>
<path d="M242.802 369.415C242.802 367.355 242.802 363.982 242.475 361.172H261.912L261.537 367.167C260.647 366.839 257.509 366.699 255.027 366.699H250.905V372.694H260.179L260.366 372.881C260.366 374.333 260.085 376.862 259.289 378.221H250.858V384.59H257.743C259.851 384.59 261.724 384.45 262.755 384.075H262.942C262.942 386.323 262.193 389.04 260.179 390.117H242.802V369.415Z" fill="#005CB9"/>
<path d="M284.769 367.167C283.879 366.839 280.741 366.699 278.259 366.699H274.091V373.209H283.552L283.739 373.396C283.739 374.848 283.364 377.378 282.521 378.736H274.091V381.686C274.091 383.935 274.091 387.307 274.465 390.117H265.988V369.088C265.988 367.074 265.988 364.029 265.66 361.219H285.097L284.769 367.167Z" fill="#005CB9"/>
<path d="M288.049 390.07V369.415C288.049 367.355 288.049 363.982 287.721 361.172H296.151V390.07H288.049Z" fill="#005CB9"/>
<path d="M299.803 375.645C299.803 366.043 307.765 360.844 317.179 360.844C321.16 360.844 324.157 361.547 326.125 362.577C326.125 365.153 325.375 367.87 324.251 368.807H324.064C322.94 367.776 320.645 366.371 317.366 366.371C311.98 366.371 308.608 368.713 308.608 375.317C308.608 382.342 312.027 384.778 316.476 384.778C321.16 384.778 323.455 383.513 325.282 382.014H325.609C325.609 384.918 325.563 386.838 324.954 388.571C323.783 389.508 319.942 390.632 316.008 390.632C307.203 390.632 299.803 386.417 299.803 375.645Z" fill="#005CB9"/>
<path d="M329.683 390.07V369.415C329.683 367.355 329.683 363.982 329.355 361.172H337.786V390.07H329.683Z" fill="#005CB9"/>
<path d="M373.756 375.27C373.756 385.246 366.684 390.492 357.083 390.585C348.465 390.585 341.439 385.527 341.439 375.785C341.439 365.809 348.512 360.798 358.066 360.798C366.778 360.844 373.756 365.528 373.756 375.27ZM364.998 376.019C364.998 368.853 361.532 366.746 357.598 366.746C353.102 366.746 350.198 369.556 350.198 375.176C350.198 382.342 353.664 384.824 357.598 384.824C362.047 384.778 364.998 381.593 364.998 376.019Z" fill="#005CB9"/>
<path d="M375.49 388.899C375.49 386.604 376.052 382.811 376.661 381.874H376.848C378.675 384.356 382.516 385.152 385.607 385.152C388.37 385.152 389.213 384.075 389.213 382.389C389.213 380.656 387.668 379.907 386.497 379.673L382.703 378.595C379.05 377.143 376.146 375.457 376.146 369.65C376.146 364.966 380.268 360.891 387.527 360.891C391.602 360.891 395.77 361.734 396.988 362.437C396.988 365.341 395.911 367.401 395.255 368.666H395.068C394.412 368.151 391.977 366.231 388.042 366.231C385.7 366.231 384.249 367.308 384.249 368.994C384.249 370.024 384.576 370.867 385.794 371.383L390.103 372.741C393.475 373.865 397.503 375.41 397.503 381.031C397.503 387.728 392.211 390.679 385.419 390.679C381.392 390.632 377.457 389.93 375.49 388.899Z" fill="#005CB9"/>
<path d="M290.857 221.929C290.857 184.975 260.882 155 223.929 155C186.975 155 157 184.975 157 221.929C157 258.882 186.975 288.857 223.929 288.857C260.882 288.857 290.857 258.882 290.857 221.929Z" fill="#005CB9"/>
<path d="M240.837 230.874C240.837 230.874 239.713 229.844 236.434 227.83C235.404 227.268 234.327 226.753 233.25 226.331C237.09 223.521 239.572 219.118 239.572 213.967C239.572 205.208 232.407 198.089 223.648 198.089C214.89 198.089 207.724 205.255 207.724 213.967C207.724 219.118 210.253 223.568 214.141 226.331C213.016 226.753 211.892 227.221 210.862 227.83C210.862 227.83 208.661 228.814 206.506 230.874C200.699 235.792 196.999 243.099 197.045 251.248V253.918H250.204V250.873C250.157 242.818 246.504 235.698 240.837 230.874Z" fill="white"/>
<path d="M262.662 222.819C262.662 222.819 261.538 221.788 258.26 219.774C257.229 219.212 256.152 218.697 255.075 218.275C258.915 215.465 261.398 211.063 261.398 205.911C261.398 197.152 254.232 190.033 245.473 190.033C239.994 190.033 235.169 192.843 232.266 197.059C233.858 197.855 235.31 198.885 236.621 200.056C238.495 197.199 241.773 195.326 245.473 195.326C251.375 195.326 256.105 200.056 256.105 205.911C256.105 211.765 251.375 216.496 245.473 216.496C244.443 216.496 243.506 216.355 242.57 216.121C242.335 218.275 241.68 220.383 240.743 222.303C242.195 221.976 243.74 221.788 245.333 221.788C257.089 221.694 266.596 231.155 266.69 242.911C266.737 244.41 268.142 245.628 269.407 245.675C270.812 245.628 272.123 244.457 272.123 242.818C271.983 234.809 268.329 227.643 262.662 222.819Z" fill="white"/>
<path d="M206.457 222.163C205.521 220.336 204.912 218.322 204.678 216.262C203.928 216.402 203.179 216.496 202.383 216.496C196.2 216.589 191.798 211.859 191.751 205.911C191.751 200.009 196.481 195.326 202.383 195.326C205.942 195.326 209.08 197.059 211 199.728C212.312 198.557 213.764 197.574 215.403 196.825C212.499 192.75 207.769 190.033 202.429 190.033C193.671 190.033 186.505 197.199 186.505 205.911C186.505 211.063 189.034 215.512 192.922 218.275C191.798 218.697 190.674 219.165 189.643 219.774C189.643 219.774 187.442 220.758 185.287 222.819C179.48 227.736 175.78 235.043 175.827 243.192C175.827 244.597 177.138 245.862 178.543 245.862C179.948 245.862 181.213 244.55 181.213 243.145C181.119 231.39 190.486 221.929 202.242 221.835C203.694 221.741 205.099 221.882 206.457 222.163Z" fill="white"/>
<g filter="url(#filter1_d_889_228)">
<rect x="550" y="138" width="241" height="231" rx="20" fill="white"/>
</g>
<path d="M650.842 159.864H635.477V167.422H650.842V159.864Z" fill="black"/>
<path d="M689.198 159.864H681.535V167.422H689.198V159.864Z" fill="black"/>
<path d="M704.52 159.864H696.857V167.422H704.52V159.864Z" fill="black"/>
<path d="M681.495 167.422H673.832V174.98H681.495V167.422Z" fill="black"/>
<path d="M696.86 167.422H689.197V174.98H696.86V167.422Z" fill="black"/>
<path d="M643.139 175.019H635.477V182.578H643.139V175.019Z" fill="black"/>
<path d="M681.534 175.019H658.506V182.578H681.534V175.019Z" fill="black"/>
<path d="M704.563 175.019H689.197V182.578H704.563V175.019Z" fill="black"/>
<path d="M650.842 182.578H635.477V190.136H650.842V182.578Z" fill="black"/>
<path d="M666.169 182.578H658.506V190.136H666.169V182.578Z" fill="black"/>
<path d="M681.495 182.578H673.832V190.136H681.495V182.578Z" fill="black"/>
<path d="M704.563 182.578H689.197V190.136H704.563V182.578Z" fill="black"/>
<path d="M666.168 190.136H635.477V197.695H666.168V190.136Z" fill="black"/>
<path d="M689.198 190.136H681.535V197.695H689.198V190.136Z" fill="black"/>
<path d="M704.52 190.136H696.857V197.695H704.52V190.136Z" fill="black"/>
<path d="M650.805 197.734H643.143V205.292H650.805V197.734Z" fill="black"/>
<path d="M673.831 197.734H666.168V205.292H673.831V197.734Z" fill="black"/>
<path d="M689.198 197.734H681.535V205.292H689.198V197.734Z" fill="black"/>
<path d="M704.52 197.734H696.857V205.292H704.52V197.734Z" fill="black"/>
<path d="M643.139 205.292H635.477V212.851H643.139V205.292Z" fill="black"/>
<path d="M658.466 205.292H650.803V212.851H658.466V205.292Z" fill="black"/>
<path d="M673.831 205.292H666.168V212.851H673.831V205.292Z" fill="black"/>
<path d="M689.198 205.292H681.535V212.851H689.198V205.292Z" fill="black"/>
<path d="M704.52 205.292H696.857V212.851H704.52V205.292Z" fill="black"/>
<path d="M650.805 212.851H643.143V220.409H650.805V212.851Z" fill="black"/>
<path d="M666.169 212.851H658.506V220.409H666.169V212.851Z" fill="black"/>
<path d="M704.563 212.851H681.535V220.409H704.563V212.851Z" fill="black"/>
<path d="M604.746 220.448H574.055V228.006H604.746V220.448Z" fill="black"/>
<path d="M627.776 220.448H620.113V228.006H627.776V220.448Z" fill="black"/>
<path d="M643.139 220.448H635.477V228.006H643.139V220.448Z" fill="black"/>
<path d="M689.197 220.448H673.832V228.006H689.197V220.448Z" fill="black"/>
<path d="M712.223 220.448H696.857V228.006H712.223V220.448Z" fill="black"/>
<path d="M750.618 220.448H727.59V228.006H750.618V220.448Z" fill="black"/>
<path d="M765.946 220.448H758.283V228.006H765.946V220.448Z" fill="black"/>
<path d="M597.084 228.006H581.719V235.565H597.084V228.006Z" fill="black"/>
<path d="M620.112 228.006H604.746V235.565H620.112V228.006Z" fill="black"/>
<path d="M650.805 228.006H643.143V235.565H650.805V228.006Z" fill="black"/>
<path d="M712.226 228.006H689.197V235.565H712.226V228.006Z" fill="black"/>
<path d="M735.252 228.006H719.887V235.565H735.252V228.006Z" fill="black"/>
<path d="M765.946 228.006H758.283V235.565H765.946V228.006Z" fill="black"/>
<path d="M589.42 235.565H574.055V243.123H589.42V235.565Z" fill="black"/>
<path d="M635.476 235.565H612.447V243.123H635.476V235.565Z" fill="black"/>
<path d="M689.197 235.565H673.832V243.123H689.197V235.565Z" fill="black"/>
<path d="M765.945 235.565H735.254V243.123H765.945V235.565Z" fill="black"/>
<path d="M612.41 243.162H581.719V250.721H612.41V243.162Z" fill="black"/>
<path d="M673.871 243.162H658.506V250.721H673.871V243.162Z" fill="black"/>
<path d="M696.901 243.162H681.535V250.721H696.901V243.162Z" fill="black"/>
<path d="M727.593 243.162H704.564V250.721H727.593V243.162Z" fill="black"/>
<path d="M750.619 243.162H735.254V250.721H750.619V243.162Z" fill="black"/>
<path d="M765.946 243.162H758.283V250.721H765.946V243.162Z" fill="black"/>
<path d="M604.747 250.721H581.719V258.279H604.747V250.721Z" fill="black"/>
<path d="M627.813 250.721H612.447V258.279H627.813V250.721Z" fill="black"/>
<path d="M650.842 250.721H635.477V258.279H650.842V250.721Z" fill="black"/>
<path d="M666.169 250.721H658.506V258.279H666.169V250.721Z" fill="black"/>
<path d="M696.86 250.721H689.197V258.279H696.86V250.721Z" fill="black"/>
<path d="M742.916 250.721H712.225V258.279H742.916V250.721Z" fill="black"/>
<path d="M765.985 250.721H750.619V258.279H765.985V250.721Z" fill="black"/>
<path d="M604.787 258.279H589.422V265.838H604.787V258.279Z" fill="black"/>
<path d="M620.11 258.279H612.447V265.838H620.11V258.279Z" fill="black"/>
<path d="M635.438 258.279H627.775V265.838H635.438V258.279Z" fill="black"/>
<path d="M666.171 258.279H643.143V265.838H666.171V258.279Z" fill="black"/>
<path d="M704.563 258.279H689.197V265.838H704.563V258.279Z" fill="black"/>
<path d="M727.55 258.279H719.887V265.838H727.55V258.279Z" fill="black"/>
<path d="M742.917 258.279H735.254V265.838H742.917V258.279Z" fill="black"/>
<path d="M765.985 258.279H750.619V265.838H765.985V258.279Z" fill="black"/>
<path d="M589.382 265.877H581.719V273.435H589.382V265.877Z" fill="black"/>
<path d="M635.437 265.877H604.746V273.435H635.437V265.877Z" fill="black"/>
<path d="M673.831 265.877H666.168V273.435H673.831V265.877Z" fill="black"/>
<path d="M712.226 265.877H681.535V273.435H712.226V265.877Z" fill="black"/>
<path d="M742.915 265.877H719.887V273.435H742.915V265.877Z" fill="black"/>
<path d="M758.282 265.877H750.619V273.435H758.282V265.877Z" fill="black"/>
<path d="M581.718 273.435H574.055V280.993H581.718V273.435Z" fill="black"/>
<path d="M643.139 273.435H635.477V280.993H643.139V273.435Z" fill="black"/>
<path d="M658.466 273.435H650.803V280.993H658.466V273.435Z" fill="black"/>
<path d="M673.831 273.435H666.168V280.993H673.831V273.435Z" fill="black"/>
<path d="M712.227 273.435H704.564V280.993H712.227V273.435Z" fill="black"/>
<path d="M765.985 273.435H750.619V280.993H765.985V273.435Z" fill="black"/>
<path d="M604.747 280.993H597.084V288.552H604.747V280.993Z" fill="black"/>
<path d="M635.476 280.993H612.447V288.552H635.476V280.993Z" fill="black"/>
<path d="M666.169 280.993H658.506V288.552H666.169V280.993Z" fill="black"/>
<path d="M681.495 280.993H673.832V288.552H681.495V280.993Z" fill="black"/>
<path d="M735.251 280.993H696.857V288.552H735.251V280.993Z" fill="black"/>
<path d="M758.282 280.993H750.619V288.552H758.282V280.993Z" fill="black"/>
<path d="M658.505 288.591H635.477V296.149H658.505V288.591Z" fill="black"/>
<path d="M704.562 288.591H666.168V296.149H704.562V288.591Z" fill="black"/>
<path d="M750.618 288.591H727.59V296.149H750.618V288.591Z" fill="black"/>
<path d="M673.831 296.149H650.803V303.708H673.831V296.149Z" fill="black"/>
<path d="M689.198 296.149H681.535V303.708H689.198V296.149Z" fill="black"/>
<path d="M704.52 296.149H696.857V303.708H704.52V296.149Z" fill="black"/>
<path d="M719.887 296.149H712.225V303.708H719.887V296.149Z" fill="black"/>
<path d="M735.253 296.149H727.59V303.708H735.253V296.149Z" fill="black"/>
<path d="M765.944 296.149H742.916V303.708H765.944V296.149Z" fill="black"/>
<path d="M704.562 303.708H666.168V311.266H704.562V303.708Z" fill="black"/>
<path d="M735.253 303.708H727.59V311.266H735.253V303.708Z" fill="black"/>
<path d="M765.985 303.708H750.619V311.266H765.985V303.708Z" fill="black"/>
<path d="M650.805 311.305H643.143V318.864H650.805V311.305Z" fill="black"/>
<path d="M666.169 311.305H658.506V318.864H666.169V311.305Z" fill="black"/>
<path d="M735.254 311.305H673.832V318.864H735.254V311.305Z" fill="black"/>
<path d="M750.579 311.305H742.916V318.864H750.579V311.305Z" fill="black"/>
<path d="M765.946 311.305H758.283V318.864H765.946V311.305Z" fill="black"/>
<path d="M658.505 318.864H635.477V326.422H658.505V318.864Z" fill="black"/>
<path d="M673.831 318.864H666.168V326.422H673.831V318.864Z" fill="black"/>
<path d="M704.563 318.864H689.197V326.422H704.563V318.864Z" fill="black"/>
<path d="M719.887 318.864H712.225V326.422H719.887V318.864Z" fill="black"/>
<path d="M735.253 318.864H727.59V326.422H735.253V318.864Z" fill="black"/>
<path d="M765.985 318.864H750.619V326.422H765.985V318.864Z" fill="black"/>
<path d="M643.139 326.422H635.477V333.98H643.139V326.422Z" fill="black"/>
<path d="M666.169 326.422H658.506V333.98H666.169V326.422Z" fill="black"/>
<path d="M696.86 326.422H689.197V333.98H696.86V326.422Z" fill="black"/>
<path d="M719.93 326.422H704.564V333.98H719.93V326.422Z" fill="black"/>
<path d="M758.282 326.422H735.254V333.98H758.282V326.422Z" fill="black"/>
<path d="M643.139 334.02H635.477V341.578H643.139V334.02Z" fill="black"/>
<path d="M658.466 334.02H650.803V341.578H658.466V334.02Z" fill="black"/>
<path d="M681.495 334.02H673.832V341.578H681.495V334.02Z" fill="black"/>
<path d="M696.86 334.02H689.197V341.578H696.86V334.02Z" fill="black"/>
<path d="M712.227 334.02H704.564V341.578H712.227V334.02Z" fill="black"/>
<path d="M735.253 334.02H727.59V341.578H735.253V334.02Z" fill="black"/>
<path d="M765.944 334.02H742.916V341.578H765.944V334.02Z" fill="black"/>
<path d="M650.842 341.578H635.477V349.136H650.842V341.578Z" fill="black"/>
<path d="M696.86 341.578H689.197V349.136H696.86V341.578Z" fill="black"/>
<path d="M765.944 341.578H742.916V349.136H765.944V341.578Z" fill="black"/>
<path d="M627.774 159.864H574.055V167.422H627.774V159.864Z" fill="black"/>
<path d="M581.718 167.422H574.055V205.292H581.718V167.422Z" fill="black"/>
<path d="M627.776 167.422H620.113V205.292H627.776V167.422Z" fill="black"/>
<path d="M627.774 205.292H574.055V212.851H627.774V205.292Z" fill="black"/>
<path d="M627.774 159.864H574.055V167.422H627.774V159.864Z" fill="black"/>
<path d="M581.718 167.422H574.055V174.98H581.718V167.422Z" fill="black"/>
<path d="M627.776 167.422H620.113V174.98H627.776V167.422Z" fill="black"/>
<path d="M581.718 175.019H574.055V182.578H581.718V175.019Z" fill="black"/>
<path d="M627.776 175.019H620.113V182.578H627.776V175.019Z" fill="black"/>
<path d="M581.718 182.578H574.055V190.136H581.718V182.578Z" fill="black"/>
<path d="M627.776 182.578H620.113V190.136H627.776V182.578Z" fill="black"/>
<path d="M581.718 190.136H574.055V197.695H581.718V190.136Z" fill="black"/>
<path d="M627.776 190.136H620.113V197.695H627.776V190.136Z" fill="black"/>
<path d="M581.718 197.734H574.055V205.292H581.718V197.734Z" fill="black"/>
<path d="M627.776 197.734H620.113V205.292H627.776V197.734Z" fill="black"/>
<path d="M627.774 205.292H574.055V212.851H627.774V205.292Z" fill="black"/>
<path d="M612.45 175.019H589.422V197.734H612.45V175.019Z" fill="black"/>
<path d="M765.944 159.864H712.225V167.422H765.944V159.864Z" fill="black"/>
<path d="M719.887 167.422H712.225V205.292H719.887V167.422Z" fill="black"/>
<path d="M765.946 167.422H758.283V205.292H765.946V167.422Z" fill="black"/>
<path d="M765.944 205.292H712.225V212.851H765.944V205.292Z" fill="black"/>
<path d="M765.944 159.864H712.225V167.422H765.944V159.864Z" fill="black"/>
<path d="M719.887 167.422H712.225V174.98H719.887V167.422Z" fill="black"/>
<path d="M765.946 167.422H758.283V174.98H765.946V167.422Z" fill="black"/>
<path d="M719.887 175.019H712.225V182.578H719.887V175.019Z" fill="black"/>
<path d="M765.946 175.019H758.283V182.578H765.946V175.019Z" fill="black"/>
<path d="M719.887 182.578H712.225V190.136H719.887V182.578Z" fill="black"/>
<path d="M765.946 182.578H758.283V190.136H765.946V182.578Z" fill="black"/>
<path d="M719.887 190.136H712.225V197.695H719.887V190.136Z" fill="black"/>
<path d="M765.946 190.136H758.283V197.695H765.946V190.136Z" fill="black"/>
<path d="M719.887 197.734H712.225V205.292H719.887V197.734Z" fill="black"/>
<path d="M765.946 197.734H758.283V205.292H765.946V197.734Z" fill="black"/>
<path d="M765.944 205.292H712.225V212.851H765.944V205.292Z" fill="black"/>
<path d="M750.618 175.019H727.59V197.734H750.618V175.019Z" fill="black"/>
<path d="M627.774 296.149H574.055V303.708H627.774V296.149Z" fill="black"/>
<path d="M581.718 303.708H574.055V341.578H581.718V303.708Z" fill="black"/>
<path d="M627.776 303.708H620.113V341.578H627.776V303.708Z" fill="black"/>
<path d="M627.774 341.578H574.055V349.136H627.774V341.578Z" fill="black"/>
<path d="M627.774 296.149H574.055V303.708H627.774V296.149Z" fill="black"/>
<path d="M581.718 303.708H574.055V311.266H581.718V303.708Z" fill="black"/>
<path d="M627.776 303.708H620.113V311.266H627.776V303.708Z" fill="black"/>
<path d="M581.718 311.305H574.055V318.864H581.718V311.305Z" fill="black"/>
<path d="M627.776 311.305H620.113V318.864H627.776V311.305Z" fill="black"/>
<path d="M581.718 318.864H574.055V326.422H581.718V318.864Z" fill="black"/>
<path d="M627.776 318.864H620.113V326.422H627.776V318.864Z" fill="black"/>
<path d="M581.718 326.422H574.055V333.98H581.718V326.422Z" fill="black"/>
<path d="M627.776 326.422H620.113V333.98H627.776V326.422Z" fill="black"/>
<path d="M581.718 334.02H574.055V341.578H581.718V334.02Z" fill="black"/>
<path d="M627.776 334.02H620.113V341.578H627.776V334.02Z" fill="black"/>
<path d="M627.774 341.578H574.055V349.136H627.774V341.578Z" fill="black"/>
<path d="M612.45 311.305H589.422V334.02H612.45V311.305Z" fill="black"/>
<rect x="583" y="389" width="174" height="36" rx="18" fill="#005EB8"/>
<path d="M636.361 412H643.561C644.261 411.6 644.561 410.68 644.561 409.82H644.501C644.021 409.96 643.241 410.04 642.301 410.04H639.181V406.3H643.161C643.481 405.82 643.641 404.96 643.641 404.42L643.561 404.34H639.181V400.82H641.061C642.201 400.82 643.641 400.9 644.021 401.06L644.181 398.88H636.201C636.361 400.12 636.361 401.68 636.361 402.62V412ZM649.337 412V403.02L649.657 403.64L655.197 412H657.857V398.88H655.037V408L654.577 407L649.177 398.88H646.357C646.517 400.12 646.517 402 646.517 402.62V412H649.337ZM665.978 412V401L669.958 400.9V398.8L659.258 399.04V401.14L663.158 401.06V412H665.978ZM678.481 412H681.281C681.281 411.68 681.201 411.46 680.981 411.06L678.161 406.28C679.601 405.62 680.661 404.42 680.661 402.54C680.661 399.66 678.321 398.72 675.361 398.72C674.101 398.72 672.201 398.8 671.341 398.88H671.201C671.361 400.12 671.361 401.68 671.361 402.62V412H674.181V406.88C674.481 406.9 674.801 406.92 675.041 406.92C675.241 406.92 675.441 406.92 675.641 406.9L678.481 412ZM675.121 400.52C676.921 400.52 677.781 401.06 677.781 402.62C677.781 404.46 676.641 405.28 675.041 405.28C674.741 405.28 674.461 405.24 674.181 405.18V400.6C674.481 400.54 674.821 400.52 675.121 400.52ZM681.283 412H683.163C683.483 412 683.623 411.92 683.703 411.68L684.843 408.56L689.383 408.42L690.583 412H693.563C693.563 411.68 693.443 411.42 693.323 411.06L689.103 398.72C688.323 398.72 686.683 398.8 686.063 399.1L681.283 412ZM687.223 402L688.783 406.64L685.503 406.74L687.223 402ZM701.997 412H704.797C704.797 411.68 704.717 411.46 704.497 411.06L701.677 406.28C703.117 405.62 704.177 404.42 704.177 402.54C704.177 399.66 701.837 398.72 698.877 398.72C697.617 398.72 695.717 398.8 694.857 398.88H694.717C694.877 400.12 694.877 401.68 694.877 402.62V412H697.697V406.88C697.997 406.9 698.317 406.92 698.557 406.92C698.757 406.92 698.957 406.92 699.157 406.9L701.997 412ZM698.637 400.52C700.437 400.52 701.297 401.06 701.297 402.62C701.297 404.46 700.157 405.28 698.557 405.28C698.257 405.28 697.977 405.24 697.697 405.18V400.6C697.997 400.54 698.337 400.52 698.637 400.52Z" fill="white"/>
<defs>
<filter id="filter0_d_889_228" x="61" y="77" width="845" height="400" filterUnits="userSpaceOnUse" color-interpolation-filters="sRGB">
<feFlood flood-opacity="0" result="BackgroundImageFix"/>
<feColorMatrix in="SourceAlpha" type="matrix" values="0 0 0 0 0 0 0 0 0 0 0 0 0 0 0 0 0 0 127 0" result="hardAlpha"/>
<feOffset dy="4"/>
<feGaussianBlur stdDeviation="9.5"/>
<feComposite in2="hardAlpha" operator="out"/>
<feColorMatrix type="matrix" values="0 0 0 0 0 0 0 0 0 0 0 0 0 0 0 0 0 0 0.25 0"/>
<feBlend mode="normal" in2="BackgroundImageFix" result="effect1_dropShadow_889_228"/>
<feBlend mode="normal" in="SourceGraphic" in2="effect1_dropShadow_889_228" result="shape"/>
</filter>
<filter id="filter1_d_889_228" x="537" y="126" width="267" height="257" filterUnits="userSpaceOnUse" color-interpolation-filters="sRGB">
<feFlood flood-opacity="0" result="BackgroundImageFix"/>
<feColorMatrix in="SourceAlpha" type="matrix" values="0 0 0 0 0 0 0 0 0 0 0 0 0 0 0 0 0 0 127 0" result="hardAlpha"/>
<feOffset dy="1"/>
<feGaussianBlur stdDeviation="6.5"/>
<feComposite in2="hardAlpha" operator="out"/>
<feColorMatrix type="matrix" values="0 0 0 0 0 0 0 0 0 0 0 0 0 0 0 0 0 0 0.25 0"/>
<feBlend mode="normal" in2="BackgroundImageFix" result="effect1_dropShadow_889_228"/>
<feBlend mode="normal" in="SourceGraphic" in2="effect1_dropShadow_889_228" result="shape"/>
</filter>
</defs>
</svg>
