<svg width="81" height="81" viewBox="0 0 81 81" fill="none" xmlns="http://www.w3.org/2000/svg">
<circle cx="40.5" cy="40.5" r="40.5" fill="#005EB8"/>
<g clip-path="url(#clip0_1144_231)">
<path fill-rule="evenodd" clip-rule="evenodd" d="M41.8527 25.5247C39.7788 24.5682 38.1591 24.3737 36.7965 24.6168C35.2196 24.8925 33.9427 25.776 32.6486 26.8947C31.1061 28.2241 29.5206 29.9264 27.1553 31.1342C26.9239 31.2558 26.7697 31.4827 26.7611 31.7259C26.7525 31.9772 26.8811 32.2123 27.0953 32.3501C27.0953 32.3501 32.3573 35.625 38.2105 33.9875C42.4097 32.8121 43.181 29.7723 43.2496 27.9404C44.9379 29.821 45.5806 31.4341 45.4949 32.9175C45.4264 34.1577 44.8522 35.2926 44.0295 36.3788C43.1468 37.5542 41.9813 38.6729 40.7815 39.7996C39.0075 41.4857 39.3332 43.3339 40.1216 44.7605C40.413 45.2793 40.7643 45.7414 41.0814 46.1062C40.2244 46.3493 39.436 46.7303 38.7418 47.2248V45.0929C38.7418 44.7038 38.4076 44.3796 37.9877 44.3796H26.007C25.5956 44.3796 25.2528 44.6957 25.2528 45.0929V47.93H23.0075C22.5961 47.93 22.2533 48.2462 22.2533 48.6434V52.1858C22.2533 52.5748 22.5876 52.8991 23.0075 52.8991H23.7617V55.0229H22.2619C21.8506 55.0229 21.5078 55.339 21.5078 55.7362V58.5734H17.7542C17.3428 58.5734 17 58.8895 17 59.2867C17 59.6839 17.3342 60 17.7542 60H64.2458C64.6572 60 65 59.6839 65 59.2867C65 58.8895 64.6658 58.5734 64.2458 58.5734H59.0011V55.7362C59.0011 55.3471 58.6668 55.0229 58.2469 55.0229H56.7472V52.1858C56.7472 51.7967 56.413 51.4724 55.993 51.4724H50.594C49.8998 48.2381 46.8661 45.7981 43.241 45.7981C43.1039 45.7981 42.9754 45.7981 42.8382 45.8062C42.564 45.5631 41.9127 44.9227 41.4499 44.0877C40.9272 43.1393 40.6615 41.9072 41.8441 40.7886C44.4322 38.3324 46.8318 35.8844 46.9861 32.9743C47.0718 31.4746 46.5833 29.8372 45.2035 28.0052C46.7204 28.2241 48.3315 27.8512 49.8484 27.0406C53.4735 25.1032 56.4644 20.653 55.9416 16.6242C55.9073 16.3567 55.7102 16.1297 55.436 16.0406C55.1618 15.9514 54.8618 16.0244 54.6561 16.2189C54.5276 16.3405 54.1848 16.4864 53.6792 16.7053C52.2137 17.3295 49.5742 18.213 46.3262 19.1776C44.4494 19.737 43.3353 20.6124 42.6668 21.5446C41.6385 22.9794 41.6899 24.5763 41.8527 25.5247ZM54.5019 56.4415V58.5653H57.5013V56.4415H54.5019ZM23.0075 58.5734H27.5067V56.4496H23.0075V58.5734ZM32.0059 58.5734H33.5056V56.4496H32.0059V58.5734ZM51.5024 56.4415V58.5653H53.0021V56.4415H51.5024ZM47.7488 58.5734H50.0027V56.4496H49.7456C49.24 57.2683 48.5544 57.9978 47.7488 58.5734ZM29.0064 56.4415V58.5653H30.5062V56.4415H29.0064ZM36.7622 56.4415H35.0054V58.5653H38.759C37.9534 57.9978 37.2678 57.2683 36.7622 56.4415ZM42.504 50.143C41.4671 50.3862 41.0043 51.1482 41.0043 51.8291C41.0043 52.664 41.6899 53.6043 43.2496 53.6043C43.6952 53.6043 44.0037 53.7178 44.0037 53.961C44.0037 54.2042 43.7038 54.3177 43.2496 54.3177H41.7499C41.3385 54.3177 40.9957 54.6338 40.9957 55.031C40.9957 55.4282 41.3299 55.7443 41.7499 55.7443H42.504V56.4577C42.504 56.8468 42.8382 57.171 43.2582 57.171C43.6781 57.171 44.0123 56.8549 44.0123 56.4577V55.6633C45.0493 55.4201 45.5121 54.6581 45.5121 53.9772C45.5121 53.1423 44.8265 52.202 43.2667 52.202C42.8211 52.202 42.5126 52.0885 42.5126 51.8453C42.5126 51.6021 42.8125 51.4886 43.2667 51.4886H44.7665C45.1778 51.4886 45.5206 51.1725 45.5206 50.7753C45.5206 50.3781 45.1864 50.062 44.7665 50.062H44.0037V49.3486C44.0037 48.9595 43.6695 48.6353 43.2496 48.6353C42.8297 48.6353 42.4954 48.9514 42.4954 49.3486L42.504 50.143ZM50.7568 52.8991C50.7568 53.6367 50.6369 54.3582 50.414 55.0229H52.2566V54.3096C52.2566 53.9205 52.5908 53.5962 53.0107 53.5962C53.4306 53.5962 53.7649 53.9124 53.7649 54.3096V55.0229H55.2646V52.8991H50.7568ZM25.2614 52.8991V55.0229H27.5067V52.8991H25.2614ZM35.7595 52.8991H29.0064V55.0229H30.5062V54.3096C30.5062 53.9205 30.8404 53.5962 31.2603 53.5962C31.6802 53.5962 32.0145 53.9124 32.0145 54.3096V55.0229H36.1109C35.8795 54.3501 35.7595 53.6367 35.7595 52.8991ZM26.007 49.3486H23.7617V51.4724H29.0064V49.3486H27.5067V50.062C27.5067 50.451 27.1725 50.7753 26.7525 50.7753C26.3326 50.7753 25.9984 50.4592 25.9984 50.062V49.3486H26.007ZM30.5062 49.3486V51.4724H32.0059V49.3486H30.5062ZM36.7622 49.3486H33.5056V51.4724H35.9052C36.068 50.7185 36.3594 49.9971 36.7622 49.3486ZM26.7611 47.93H31.2603V45.8062H26.7611V47.93ZM32.76 47.93H34.2598V45.8062H32.76V47.93ZM35.7595 45.7981V47.9219H37.2592V45.7981H35.7595Z" fill="white"/>
</g>
<defs>
<clipPath id="clip0_1144_231">
<rect width="48" height="44" fill="white" transform="translate(17 16)"/>
</clipPath>
</defs>
</svg>
