<svg width="183" height="61" viewBox="0 0 183 61" fill="none" xmlns="http://www.w3.org/2000/svg">
<path d="M175.85 60.9855H7.28232C3.57386 60.9855 0.541016 57.5612 0.541016 53.3759V7.71857C0.541016 3.53331 3.57386 0.109009 7.28232 0.109009H175.85C179.558 0.109009 182.593 3.53331 182.593 7.71857V53.3759C182.593 57.5612 179.558 60.9855 175.85 60.9855Z" fill="black"/>
<path d="M175.85 0.109009H7.28232C3.57386 0.109009 0.541016 3.53331 0.541016 7.71857V53.3759C0.541016 57.5612 3.57386 60.9855 7.28232 60.9855H175.85C179.558 60.9855 182.593 57.5612 182.593 53.3759V7.71857C182.593 3.53331 179.558 0.109009 175.85 0.109009ZM175.85 1.32654C178.973 1.32654 181.514 4.19382 181.514 7.71857V53.3759C181.514 56.9007 178.973 59.7695 175.85 59.7695H7.28232C4.15912 59.7695 1.61984 56.9007 1.61984 53.3759V7.71857C1.61984 4.19382 4.15912 1.32654 7.28232 1.32654H175.85Z" fill="white"/>
<path d="M28.2754 30.1072L13.5605 45.0037C13.5619 45.0063 13.5619 45.009 13.5633 45.0116C14.0139 46.6304 15.5632 47.8208 17.4013 47.8208C18.1366 47.8208 18.8262 47.631 19.4177 47.2988L19.4647 47.2724L36.0273 38.1566L28.2754 30.1072Z" fill="#EB4335"/>
<path d="M43.1621 27.5709L43.1482 27.5616L35.9974 23.6068L27.9414 30.4447L36.0251 38.154L43.1386 34.24C44.3852 33.598 45.231 32.3443 45.231 30.8982C45.231 29.4626 44.3962 28.2142 43.1621 27.5709Z" fill="#FABC13"/>
<path d="M13.5612 16.7307C13.4728 17.0418 13.4258 17.3674 13.4258 17.7062V44.0282C13.4258 44.367 13.4714 44.694 13.5612 45.0037L28.7819 30.4882L13.5612 16.7307Z" fill="#547DBF"/>
<path d="M28.3832 30.8665L35.9997 23.6042L19.455 14.4553C18.8538 14.1113 18.1531 13.9135 17.4013 13.9135C15.5632 13.9135 14.0125 15.1066 13.5605 16.7267V16.7307L28.3832 30.8665Z" fill="#30A851"/>
<path d="M92.1904 33.5969C89.0003 33.5969 86.4002 36.0349 86.4002 39.3961C86.4002 42.7354 89.0003 45.1953 92.1904 45.1953C95.3806 45.1953 97.9807 42.7354 97.9807 39.3961C97.9807 36.0349 95.3806 33.5969 92.1904 33.5969ZM92.1904 42.9113C90.4421 42.9113 88.9338 41.4619 88.9338 39.3961C88.9338 37.3085 90.4421 35.8808 92.1904 35.8808C93.9388 35.8808 95.4457 37.3085 95.4457 39.3961C95.4457 41.4605 93.9388 42.9113 92.1904 42.9113ZM79.5574 33.5969C76.3672 33.5969 73.7671 36.0349 73.7671 39.3961C73.7671 42.7354 76.3672 45.1953 79.5574 45.1953C82.7475 45.1953 85.3476 42.7354 85.3476 39.3961C85.349 36.0349 82.7475 33.5969 79.5574 33.5969ZM79.5574 42.9113C77.809 42.9113 76.3021 41.4619 76.3021 39.3961C76.3021 37.3085 77.8104 35.8808 79.5574 35.8808C81.3057 35.8808 82.8126 37.3085 82.8126 39.3961C82.814 41.4605 81.3057 42.9113 79.5574 42.9113ZM64.5317 35.3763V37.8362H70.3884C70.2134 39.2202 69.755 40.2306 69.0551 40.9342C68.2033 41.7905 66.87 42.7354 64.5317 42.7354C60.9265 42.7354 58.108 39.8133 58.108 36.189C58.108 32.5647 60.9265 29.6426 64.5317 29.6426C66.4767 29.6426 67.8968 30.4116 68.9453 31.4002L70.6719 29.6644C69.2084 28.2585 67.2634 27.1813 64.5317 27.1813C59.5932 27.1813 55.4414 31.2229 55.4414 36.1876C55.4414 41.1523 59.5932 45.1939 64.5317 45.1939C67.1969 45.1939 69.2084 44.3158 70.7818 42.6672C72.3985 41.0419 72.9017 38.7566 72.9017 36.9117C72.9017 36.3403 72.8583 35.8126 72.7702 35.3736H64.5317V35.3763ZM125.985 37.2867C125.505 35.9899 124.04 33.5955 121.047 33.5955C118.075 33.5955 115.607 35.9463 115.607 39.3947C115.607 42.6454 118.053 45.1939 121.332 45.1939C123.975 45.1939 125.505 43.5686 126.139 42.6236L124.172 41.3051C123.517 42.2718 122.62 42.9086 121.332 42.9086C120.042 42.9086 119.125 42.3154 118.535 41.151L126.248 37.9439L125.985 37.2867ZM118.118 39.2202C118.053 36.9799 119.845 35.8372 121.134 35.8372C122.139 35.8372 122.991 36.3417 123.275 37.0671L118.118 39.2202ZM111.847 44.8435H114.382V27.7977H111.847V44.8435ZM107.695 34.8922H107.608C107.04 34.2118 105.948 33.5955 104.571 33.5955C101.686 33.5955 99.0427 36.144 99.0427 39.4165C99.0427 42.6672 101.686 45.1939 104.571 45.1939C105.948 45.1939 107.04 44.579 107.608 43.8754H107.695V44.7099C107.695 46.9284 106.515 48.1147 104.613 48.1147C103.062 48.1147 102.1 46.9938 101.707 46.0502L99.4998 46.9734C100.133 48.5115 101.816 50.4 104.613 50.4C107.585 50.4 110.098 48.6424 110.098 44.3594V33.9473H107.695V34.8922ZM104.79 42.9113C103.041 42.9113 101.578 41.44 101.578 39.4179C101.578 37.3753 103.041 35.8808 104.79 35.8808C106.516 35.8808 107.87 37.3739 107.87 39.4179C107.87 41.4387 106.516 42.9113 104.79 42.9113ZM137.859 27.7977H131.795V44.8435H134.324V38.3857H137.857C140.662 38.3857 143.42 36.3444 143.42 33.0924C143.42 29.8403 140.664 27.7977 137.859 27.7977ZM137.924 36.0131H134.324V30.1703H137.924C139.816 30.1703 140.89 31.7452 140.89 33.0924C140.89 34.4123 139.816 36.0131 137.924 36.0131ZM153.565 33.5655C151.733 33.5655 149.835 34.3768 149.05 36.1754L151.298 37.1189C151.778 36.1754 152.672 35.8686 153.61 35.8686C154.919 35.8686 156.25 36.6581 156.271 38.0612V38.2371C155.813 37.9739 154.831 37.5785 153.632 37.5785C151.211 37.5785 148.745 38.9161 148.745 41.4169C148.745 43.6981 150.731 45.1666 152.955 45.1666C154.657 45.1666 155.595 44.399 156.183 43.5004H156.27V44.8162H158.713V38.2807C158.713 35.2536 156.467 33.5655 153.565 33.5655ZM153.259 42.9072C152.43 42.9072 151.273 42.49 151.273 41.4605C151.273 40.1447 152.714 39.6402 153.956 39.6402C155.068 39.6402 155.592 39.8815 156.269 40.2101C156.073 41.7891 154.721 42.9072 153.259 42.9072ZM167.613 33.9378L164.712 41.3282H164.625L161.615 33.9378H158.889L163.404 44.2667L160.83 50.0127H163.47L170.429 33.9378H167.613ZM144.817 44.8435H147.348V27.7977H144.817V44.8435Z" fill="white"/>
<path fill-rule="evenodd" clip-rule="evenodd" d="M99.6959 20.3689C98.9067 21.2252 97.9261 21.6512 96.753 21.6512C95.5799 21.6512 94.5994 21.2238 93.8115 20.3689C93.0223 19.514 92.629 18.4672 92.629 17.23C92.629 15.9928 93.0223 14.9461 93.8115 14.0912C94.5994 13.2349 95.5799 12.8074 96.753 12.8074C97.9195 12.8074 98.8986 13.2377 99.6905 14.0968C100.482 14.956 100.878 15.9999 100.878 17.23C100.878 18.4686 100.484 19.5154 99.6959 20.3689ZM94.5726 19.6607C95.1665 20.2955 95.8929 20.6115 96.753 20.6115C97.6131 20.6115 98.3395 20.2941 98.9334 19.6607C99.5273 19.0259 99.8256 18.2161 99.8256 17.2314C99.8256 16.2468 99.5273 15.4356 98.9334 14.8022C98.3408 14.1674 97.6131 13.8514 96.753 13.8514C95.8929 13.8514 95.1665 14.1688 94.5726 14.8022C93.98 15.437 93.6817 16.2468 93.6817 17.2314C93.6817 18.2161 93.98 19.0259 94.5726 19.6607Z" fill="white"/>
<path d="M64.6611 17.5742C64.6611 18.7564 64.3294 19.6974 63.6646 20.3999C62.9101 21.2351 61.9256 21.6526 60.7164 21.6526C59.558 21.6526 58.5721 21.2294 57.7628 20.383C56.9522 19.5351 56.5469 18.4856 56.5469 17.2329C56.5469 15.9787 56.9522 14.9292 57.7628 14.0827C58.5721 13.2349 59.558 12.8117 60.7164 12.8117C61.2916 12.8117 61.8413 12.9302 62.363 13.1658C62.8861 13.4028 63.3047 13.7173 63.6178 14.1109L62.9128 14.8558C62.3818 14.1857 61.6501 13.8514 60.715 13.8514C59.8696 13.8514 59.1393 14.1645 58.5226 14.7909C57.9073 15.4173 57.5996 16.2298 57.5996 17.2314C57.5996 18.2331 57.9073 19.0456 58.5239 19.6734C59.1406 20.2998 59.871 20.6129 60.7164 20.6129C61.6126 20.6129 62.3604 20.2983 62.9583 19.6678C63.3462 19.2572 63.5709 18.6859 63.6311 17.9537H60.7164V16.9352H64.605C64.6437 17.1567 64.6611 17.3697 64.6611 17.5742Z" fill="white"/>
<path d="M70.8278 14.039H67.1733V16.7222H70.4693V17.7393H67.1733V20.4225H70.8278V21.4636H66.1419V12.9993H70.8278V14.039Z" fill="white"/>
<path d="M74.1438 21.4636H75.1752V14.039H77.4171V12.9993H71.9019V14.039H74.1438V21.4636Z" fill="white"/>
<path d="M81.4087 21.4636V12.9993H82.44V21.4636H81.4087Z" fill="white"/>
<path d="M85.9808 21.4636H87.0122V14.039H89.2541V12.9993H83.7389V14.039H85.9808V21.4636Z" fill="white"/>
<path d="M102.326 12.9993V21.4636H103.354V16.1903L103.31 14.5595H103.354L107.436 21.4636H108.512V12.9993H107.481V17.9537L107.525 19.5845H107.481L103.58 12.9993H102.326Z" fill="white"/>
<path fill-rule="evenodd" clip-rule="evenodd" d="M99.6959 20.3689C98.9067 21.2252 97.9261 21.6512 96.753 21.6512C95.5799 21.6512 94.5994 21.2238 93.8115 20.3689C93.0223 19.514 92.629 18.4672 92.629 17.23C92.629 15.9928 93.0223 14.9461 93.8115 14.0912C94.5994 13.2349 95.5799 12.8074 96.753 12.8074C97.9195 12.8074 98.8986 13.2377 99.6905 14.0968C100.482 14.956 100.878 15.9999 100.878 17.23C100.878 18.4686 100.484 19.5154 99.6959 20.3689ZM94.5726 19.6607C95.1665 20.2955 95.8929 20.6115 96.753 20.6115C97.6131 20.6115 98.3395 20.2941 98.9334 19.6607C99.5273 19.0259 99.8256 18.2161 99.8256 17.2314C99.8256 16.2468 99.5273 15.4356 98.9334 14.8022C98.3408 14.1674 97.6131 13.8514 96.753 13.8514C95.8929 13.8514 95.1665 14.1688 94.5726 14.8022C93.98 15.437 93.6817 16.2468 93.6817 17.2314C93.6817 18.2161 93.98 19.0259 94.5726 19.6607Z" stroke="white" stroke-width="0.2" stroke-miterlimit="10"/>
<path d="M64.6611 17.5742C64.6611 18.7564 64.3294 19.6974 63.6646 20.3999C62.9101 21.2351 61.9256 21.6526 60.7164 21.6526C59.558 21.6526 58.5721 21.2294 57.7628 20.383C56.9522 19.5351 56.5469 18.4856 56.5469 17.2329C56.5469 15.9787 56.9522 14.9292 57.7628 14.0827C58.5721 13.2349 59.558 12.8117 60.7164 12.8117C61.2916 12.8117 61.8413 12.9302 62.363 13.1658C62.8861 13.4028 63.3047 13.7173 63.6178 14.1109L62.9128 14.8558C62.3818 14.1857 61.6501 13.8514 60.715 13.8514C59.8696 13.8514 59.1393 14.1645 58.5226 14.7909C57.9073 15.4173 57.5996 16.2298 57.5996 17.2314C57.5996 18.2331 57.9073 19.0456 58.5239 19.6734C59.1406 20.2998 59.871 20.6129 60.7164 20.6129C61.6126 20.6129 62.3604 20.2983 62.9583 19.6678C63.3462 19.2572 63.5709 18.6859 63.6311 17.9537H60.7164V16.9352H64.605C64.6437 17.1567 64.6611 17.3697 64.6611 17.5742Z" stroke="white" stroke-width="0.2" stroke-miterlimit="10"/>
<path d="M70.8278 14.039H67.1733V16.7222H70.4693V17.7393H67.1733V20.4225H70.8278V21.4636H66.1419V12.9993H70.8278V14.039Z" stroke="white" stroke-width="0.2" stroke-miterlimit="10"/>
<path d="M74.1438 21.4636H75.1752V14.039H77.4171V12.9993H71.9019V14.039H74.1438V21.4636Z" stroke="white" stroke-width="0.2" stroke-miterlimit="10"/>
<path d="M81.4087 21.4636V12.9993H82.44V21.4636H81.4087Z" stroke="white" stroke-width="0.2" stroke-miterlimit="10"/>
<path d="M85.9808 21.4636H87.0122V14.039H89.2541V12.9993H83.7389V14.039H85.9808V21.4636Z" stroke="white" stroke-width="0.2" stroke-miterlimit="10"/>
<path d="M102.326 12.9993V21.4636H103.354V16.1903L103.31 14.5595H103.354L107.436 21.4636H108.512V12.9993H107.481V17.9537L107.525 19.5845H107.481L103.58 12.9993H102.326Z" stroke="white" stroke-width="0.2" stroke-miterlimit="10"/>
</svg>
