<svg width="194" height="194" viewBox="0 0 194 194" fill="none" xmlns="http://www.w3.org/2000/svg">
<g filter="url(#filter0_d_1143_228)">
<rect x="13" y="12.109" width="168" height="167" rx="20" fill="white"/>
</g>
<path d="M75.8779 24.3813H72.6241C71.9509 24.3813 71.418 24.914 71.418 25.5867V28.8384C71.418 29.5112 71.9509 30.0438 72.6241 30.0438H77.084V24.3813H75.8779V24.3813Z" fill="black"/>
<path d="M78.2901 30.0718H81.5439C82.2171 30.0718 82.75 29.5392 82.75 28.8664V25.5867C82.75 24.914 82.2171 24.3813 81.5439 24.3813H77.084V30.0718H78.2901Z" fill="black"/>
<path d="M106.675 24.3813H109.929C110.602 24.3813 111.135 24.914 111.135 25.5867V28.8384C111.135 29.5112 110.602 30.0438 109.929 30.0438H106.675C106.002 30.0438 105.469 29.5112 105.469 28.8384V25.5867C105.469 24.942 106.002 24.3813 106.675 24.3813Z" fill="black"/>
<path d="M118.009 24.3813H121.263C121.936 24.3813 122.469 24.914 122.469 25.5867V28.8384C122.469 29.5112 121.936 30.0438 121.263 30.0438H118.009C117.336 30.0438 116.803 29.5112 116.803 28.8384V25.5867C116.803 24.942 117.336 24.3813 118.009 24.3813Z" fill="black"/>
<path d="M98.5703 35.7342C99.2435 35.7342 99.7764 35.2016 99.7764 34.5289V35.7342H98.5703Z" fill="black"/>
<path d="M105.471 34.5288V31.2771C105.471 30.6044 104.938 30.0718 104.265 30.0718H101.011C100.338 30.0718 99.8047 30.6044 99.8047 31.2771V35.7342H105.471V34.5288V34.5288Z" fill="black"/>
<path d="M116.803 34.5288V31.2771C116.803 30.6044 116.27 30.0718 115.597 30.0718H112.343C111.67 30.0718 111.137 30.6044 111.137 31.2771V35.7342H116.803V34.5288V34.5288Z" fill="black"/>
<path d="M118.009 35.7342C117.336 35.7342 116.803 35.2016 116.803 34.5289V35.7342H118.009Z" fill="black"/>
<path d="M77.084 40.1912V36.9396C77.084 36.2668 76.5511 35.7342 75.8779 35.7342H72.6241C71.9509 35.7342 71.418 36.2668 71.418 36.9396V41.3966H77.084V40.1912Z" fill="black"/>
<path d="M78.2901 41.3966C77.6169 41.3966 77.084 40.864 77.084 40.1913V41.3966H78.2901Z" fill="black"/>
<path d="M89.6495 35.7343C88.9763 35.7343 88.4434 36.2669 88.4434 36.9396V41.3967H94.1094V35.7343H89.6495V35.7343Z" fill="black"/>
<path d="M99.7774 35.7343H94.1113V41.3967H99.7774V35.7343Z" fill="black"/>
<path d="M105.443 35.7343H99.7773V41.3967H105.443V35.7343Z" fill="black"/>
<path d="M116.803 35.7342H111.137V41.3966H116.803V35.7342Z" fill="black"/>
<path d="M121.263 35.7343C121.936 35.7343 122.469 36.2669 122.469 36.9396V41.3967H116.803V35.7343H121.263V35.7343Z" fill="black"/>
<path d="M77.084 41.3967H71.418V47.0591H77.084V41.3967Z" fill="black"/>
<path d="M81.5439 41.3966C82.2171 41.3966 82.75 41.9292 82.75 42.602V47.059H77.084V41.3966H81.5439V41.3966Z" fill="black"/>
<path d="M87.2383 47.0871C87.9115 47.0871 88.4444 46.5545 88.4444 45.8817V47.0871H87.2383Z" fill="black"/>
<path d="M83.9561 47.0871C83.2829 47.0871 82.75 46.5545 82.75 45.8817V47.0871H83.9561Z" fill="black"/>
<path d="M94.1094 41.3966H88.4434V47.059H94.1094V41.3966Z" fill="black"/>
<path d="M95.3175 41.3966H94.1113V42.602C94.1113 41.9292 94.6443 41.3966 95.3175 41.3966Z" fill="black"/>
<path d="M99.7764 42.602V41.3967H98.5703C99.2435 41.3967 99.7764 41.9293 99.7764 42.602Z" fill="black"/>
<path d="M99.7773 45.8817C99.7773 46.5545 100.31 47.0871 100.983 47.0871H104.237C104.91 47.0871 105.443 46.5545 105.443 45.8817V41.4247H99.7773V45.8817V45.8817Z" fill="black"/>
<path d="M111.137 45.8817C111.137 46.5545 111.67 47.0871 112.343 47.0871H116.803V41.4247H111.137V45.8817Z" fill="black"/>
<path d="M122.469 41.3966H116.803V47.059H122.469V41.3966Z" fill="black"/>
<path d="M71.418 51.5442C71.418 52.2169 71.9509 52.7495 72.6241 52.7495H77.084V47.0871H71.418V51.5442Z" fill="black"/>
<path d="M82.75 47.0871H77.084V52.7495H82.75V47.0871Z" fill="black"/>
<path d="M88.416 47.0871H82.75V52.7495H88.416V47.0871Z" fill="black"/>
<path d="M94.1094 51.5442C94.1094 52.2169 93.5764 52.7495 92.9033 52.7495H88.4434V47.0871H94.1094V51.5442Z" fill="black"/>
<path d="M111.135 51.5442V48.2925C111.135 47.6197 110.602 47.0871 109.929 47.0871H106.675C106.002 47.0871 105.469 47.6197 105.469 48.2925V52.7495H111.135V51.5442V51.5442Z" fill="black"/>
<path d="M116.802 48.2925V47.0871H115.596C116.269 47.0871 116.802 47.6197 116.802 48.2925Z" fill="black"/>
<path d="M122.469 47.0871H116.803V52.7495H122.469V47.0871Z" fill="black"/>
<path d="M77.0831 53.9549V52.7495H75.877C76.5501 52.7495 77.0831 53.2821 77.0831 53.9549Z" fill="black"/>
<path d="M77.084 57.2066C77.084 57.8793 77.6169 58.4119 78.2901 58.4119H81.5439C82.2171 58.4119 82.75 57.8793 82.75 57.2066V52.7495H77.084V57.2066Z" fill="black"/>
<path d="M83.9561 52.7495H82.75V53.9549C82.75 53.2821 83.311 52.7495 83.9561 52.7495Z" fill="black"/>
<path d="M99.7774 57.2066V53.9549C99.7774 53.2821 99.2444 52.7495 98.5712 52.7495H95.3175C94.6443 52.7495 94.1113 53.2821 94.1113 53.9549V58.4119H99.7774V57.2066Z" fill="black"/>
<path d="M111.135 52.7495H105.469V58.4119H111.135V52.7495Z" fill="black"/>
<path d="M122.469 52.7495H116.803V58.4119H122.469V52.7495Z" fill="black"/>
<path d="M72.6241 58.4119H75.8779C76.5511 58.4119 77.084 58.9445 77.084 59.6173V62.869C77.084 63.5417 76.5511 64.0743 75.8779 64.0743H72.6241C71.9509 64.0743 71.418 63.5417 71.418 62.869V59.6173C71.418 58.9445 71.9509 58.4119 72.6241 58.4119Z" fill="black"/>
<path d="M83.9561 58.4119H87.2099C87.8831 58.4119 88.416 58.9445 88.416 59.6173V62.869C88.416 63.5417 87.8831 64.0743 87.2099 64.0743H83.9561C83.2829 64.0743 82.75 63.5417 82.75 62.869V59.6173C82.75 58.9445 83.311 58.4119 83.9561 58.4119Z" fill="black"/>
<path d="M94.1113 62.869C94.1113 63.5417 94.6443 64.0743 95.3175 64.0743H98.5712C99.2444 64.0743 99.7774 63.5417 99.7774 62.869V58.4119H94.1113V62.869V62.869Z" fill="black"/>
<path d="M111.135 58.4119H105.469V64.0743H111.135V58.4119Z" fill="black"/>
<path d="M115.596 64.0744C116.269 64.0744 116.802 63.5418 116.802 62.869V64.0744H115.596Z" fill="black"/>
<path d="M112.343 64.0744C111.67 64.0744 111.137 63.5418 111.137 62.869V64.0744H112.343Z" fill="black"/>
<path d="M122.469 58.4119H116.803V64.0743H122.469V58.4119Z" fill="black"/>
<path d="M78.2901 64.0743H81.5439C82.2171 64.0743 82.75 64.6069 82.75 65.2797V68.5314C82.75 69.2042 82.2171 69.7368 81.5439 69.7368H78.2901C77.6169 69.7368 77.084 69.2042 77.084 68.5314V65.2797C77.084 64.635 77.6169 64.0743 78.2901 64.0743Z" fill="black"/>
<path d="M89.6495 64.0743H92.9033C93.5764 64.0743 94.1094 64.6069 94.1094 65.2797V68.5314C94.1094 69.2042 93.5764 69.7368 92.9033 69.7368H89.6495C88.9763 69.7368 88.4434 69.2042 88.4434 68.5314V65.2797C88.4434 64.635 88.9763 64.0743 89.6495 64.0743Z" fill="black"/>
<path d="M105.469 68.5595C105.469 69.2322 106.002 69.7648 106.675 69.7648H111.135V64.1024H105.469V68.5595Z" fill="black"/>
<path d="M116.803 64.0743H111.137V69.7368H116.803V64.0743Z" fill="black"/>
<path d="M122.469 64.0743H116.803V69.7368H122.469V64.0743Z" fill="black"/>
<path d="M123.675 69.7648C123.002 69.7648 122.469 69.2322 122.469 68.5594V69.7648H123.675Z" fill="black"/>
<path d="M27.2393 69.7648C26.5661 69.7648 26.0332 70.2974 26.0332 70.9702V75.4272H31.6992V69.7648H27.2393Z" fill="black"/>
<path d="M37.3652 69.7648H31.6992V75.4272H37.3652V69.7648Z" fill="black"/>
<path d="M43.0332 69.7648H37.3672V75.4272H43.0332V69.7648Z" fill="black"/>
<path d="M44.2374 75.4272H47.4911C48.1643 75.4272 48.6973 74.8946 48.6973 74.2219V70.9702C48.6973 70.2974 48.1643 69.7648 47.4911 69.7648H43.0312V75.4272H44.2374V75.4272Z" fill="black"/>
<path d="M61.2628 69.7648H64.5165C65.1897 69.7648 65.7227 70.2974 65.7227 70.9702V74.2219C65.7227 74.8946 65.1897 75.4272 64.5165 75.4272H61.2628C60.5896 75.4272 60.0566 74.8946 60.0566 74.2219V70.9702C60.0566 70.2974 60.6176 69.7648 61.2628 69.7648Z" fill="black"/>
<path d="M70.2129 75.4272C70.8861 75.4272 71.419 74.8946 71.419 74.2219V75.4272H70.2129Z" fill="black"/>
<path d="M77.084 74.2219V70.9702C77.084 70.2974 76.5511 69.7648 75.8779 69.7648H72.6241C71.9509 69.7648 71.418 70.2974 71.418 70.9702V75.4272H77.084V74.2219Z" fill="black"/>
<path d="M78.2901 75.4272C77.6169 75.4272 77.084 74.8946 77.084 74.2219V75.4272H78.2901Z" fill="black"/>
<path d="M116.802 70.9702V69.7648H115.596C116.269 69.7648 116.802 70.2974 116.802 70.9702Z" fill="black"/>
<path d="M115.596 75.4272C116.269 75.4272 116.802 74.8946 116.802 74.2219V75.4272H115.596Z" fill="black"/>
<path d="M122.469 69.7648H116.803V75.4272H122.469V69.7648Z" fill="black"/>
<path d="M126.958 69.7648C127.631 69.7648 128.164 70.2974 128.164 70.9702V75.4272H122.498V69.7648H126.958Z" fill="black"/>
<path d="M138.289 75.4272C138.962 75.4272 139.495 74.8946 139.495 74.2219V75.4272H138.289Z" fill="black"/>
<path d="M140.702 69.7648C140.029 69.7648 139.496 70.2974 139.496 70.9702V75.4272H145.162V69.7648H140.702Z" fill="black"/>
<path d="M150.855 69.7648H145.189V75.4272H150.855V69.7648Z" fill="black"/>
<path d="M152.062 75.4272H155.315C155.989 75.4272 156.522 74.8946 156.522 74.2219V70.9702C156.522 70.2974 155.989 69.7648 155.315 69.7648H150.855V75.4272H152.062V75.4272Z" fill="black"/>
<path d="M167.881 74.2219V70.9702C167.881 70.2974 167.348 69.7648 166.675 69.7648H163.421C162.748 69.7648 162.215 70.2974 162.215 70.9702V75.4272H167.881V74.2219V74.2219Z" fill="black"/>
<path d="M31.6992 75.4272H26.0332V81.0897H31.6992V75.4272Z" fill="black"/>
<path d="M37.3652 75.4272H31.6992V81.0897H37.3652V75.4272Z" fill="black"/>
<path d="M43.0332 75.4272H37.3672V81.0897H43.0332V75.4272Z" fill="black"/>
<path d="M44.2374 75.4272H43.0312V76.6326C43.0312 75.9599 43.5922 75.4272 44.2374 75.4272Z" fill="black"/>
<path d="M44.2374 81.0896C43.5642 81.0896 43.0312 80.557 43.0312 79.8843V81.0896H44.2374Z" fill="black"/>
<path d="M70.2118 75.4272H66.9581C66.2849 75.4272 65.752 75.9599 65.752 76.6326V79.8843C65.752 80.5571 66.2849 81.0897 66.9581 81.0897H71.418V75.4272H70.2118V75.4272Z" fill="black"/>
<path d="M77.084 75.4272H71.418V81.0897H77.084V75.4272Z" fill="black"/>
<path d="M78.2901 81.0897H81.5439C82.2171 81.0897 82.75 80.5571 82.75 79.8843V76.6326C82.75 75.9599 82.2171 75.4272 81.5439 75.4272H77.084V81.0897H78.2901Z" fill="black"/>
<path d="M109.929 75.4272H106.675C106.002 75.4272 105.469 75.9599 105.469 76.6326V79.8843C105.469 80.5571 106.002 81.0897 106.675 81.0897H111.135V75.4272H109.929V75.4272Z" fill="black"/>
<path d="M116.803 75.4272H111.137V81.0897H116.803V75.4272Z" fill="black"/>
<path d="M122.469 75.4272H116.803V81.0897H122.469V75.4272Z" fill="black"/>
<path d="M128.164 79.8843C128.164 80.5571 127.631 81.0897 126.958 81.0897H122.498V75.4272H128.164V79.8843Z" fill="black"/>
<path d="M138.288 75.4272H135.034C134.361 75.4272 133.828 75.9599 133.828 76.6326V79.8843C133.828 80.5571 134.361 81.0897 135.034 81.0897H139.494V75.4272H138.288V75.4272Z" fill="black"/>
<path d="M145.189 79.8843C145.189 80.5571 144.657 81.0897 143.983 81.0897H139.523V75.4272H145.189V79.8843V79.8843Z" fill="black"/>
<path d="M146.396 75.4272H145.189V76.6326C145.189 75.9599 145.722 75.4272 146.396 75.4272Z" fill="black"/>
<path d="M160.98 81.0896C161.654 81.0896 162.187 80.557 162.187 79.8843V81.0896H160.98Z" fill="black"/>
<path d="M167.852 75.4272H162.186V81.0897H167.852V75.4272Z" fill="black"/>
<path d="M31.6992 81.0897H26.0332V86.7521H31.6992V81.0897Z" fill="black"/>
<path d="M37.3652 81.0897H31.6992V86.7521H37.3652V81.0897Z" fill="black"/>
<path d="M43.0332 81.0897H37.3672V86.7521H43.0332V81.0897Z" fill="black"/>
<path d="M48.6973 81.0897H43.0312V86.7521H48.6973V81.0897Z" fill="black"/>
<path d="M54.3926 81.0897H48.7266V86.7521H54.3926V81.0897Z" fill="black"/>
<path d="M60.0586 81.0897H54.3926V86.7521H60.0586V81.0897Z" fill="black"/>
<path d="M61.2628 86.7801H64.5165C65.1897 86.7801 65.7227 86.2475 65.7227 85.5747V82.323C65.7227 81.6503 65.1897 81.1177 64.5165 81.1177H60.0566V86.7801H61.2628V86.7801Z" fill="black"/>
<path d="M71.419 82.295V81.0897H70.2129C70.8861 81.0897 71.419 81.6223 71.419 82.295Z" fill="black"/>
<path d="M77.084 81.0897H71.418V86.7521H77.084V81.0897Z" fill="black"/>
<path d="M78.2901 81.0897H77.084V82.295C77.084 81.6223 77.6169 81.0897 78.2901 81.0897Z" fill="black"/>
<path d="M146.396 81.0897C145.722 81.0897 145.189 81.6223 145.189 82.295V86.7521H150.855V81.0897H146.396Z" fill="black"/>
<path d="M156.522 81.0897H150.855V86.7521H156.522V81.0897Z" fill="black"/>
<path d="M162.188 81.0897H156.521V86.7521H162.188V81.0897Z" fill="black"/>
<path d="M167.852 81.0897H162.186V86.7521H167.852V81.0897Z" fill="black"/>
<path d="M26.0332 91.2372C26.0332 91.9099 26.5661 92.4425 27.2393 92.4425H30.4931C31.1663 92.4425 31.6992 91.9099 31.6992 91.2372V86.7801H26.0332V91.2372Z" fill="black"/>
<path d="M32.9054 86.7801H31.6992V87.9855C31.6992 87.3127 32.2322 86.7801 32.9054 86.7801Z" fill="black"/>
<path d="M43.0323 87.9574V86.7521H41.8262C42.4994 86.7801 43.0323 87.3127 43.0323 87.9574Z" fill="black"/>
<path d="M43.0312 91.2372C43.0312 91.9099 43.5642 92.4425 44.2374 92.4425H47.4911C48.1643 92.4425 48.6973 91.9099 48.6973 91.2372V86.7801H43.0312V91.2372V91.2372Z" fill="black"/>
<path d="M49.9327 86.7801H48.7266V87.9855C48.7266 87.3127 49.2595 86.7801 49.9327 86.7801Z" fill="black"/>
<path d="M54.3917 87.9574V86.7521H53.1855C53.8587 86.7801 54.3917 87.3127 54.3917 87.9574Z" fill="black"/>
<path d="M54.3926 91.2372C54.3926 91.9099 54.9255 92.4425 55.5987 92.4425H58.8525C59.5257 92.4425 60.0586 91.9099 60.0586 91.2372V86.7801H54.3926V91.2372V91.2372Z" fill="black"/>
<path d="M61.2628 86.7801H60.0566V87.9855C60.0566 87.3127 60.6176 86.7801 61.2628 86.7801Z" fill="black"/>
<path d="M77.084 86.7801H71.418V92.4425H77.084V86.7801Z" fill="black"/>
<path d="M78.2901 92.4425C77.6169 92.4425 77.084 91.9099 77.084 91.2372V92.4425H78.2901Z" fill="black"/>
<path d="M89.6495 86.7801C88.9763 86.7801 88.4434 87.3127 88.4434 87.9855V92.4425H94.1094V86.7801H89.6495Z" fill="black"/>
<path d="M95.3175 92.4425H98.5712C99.2444 92.4425 99.7774 91.9099 99.7774 91.2372V87.9855C99.7774 87.3127 99.2444 86.7801 98.5712 86.7801H94.1113V92.4425H95.3175V92.4425Z" fill="black"/>
<path d="M109.932 92.4425C110.605 92.4425 111.138 91.9099 111.138 91.2372V92.4425H109.932Z" fill="black"/>
<path d="M116.803 91.2372V87.9855C116.803 87.3127 116.27 86.7801 115.597 86.7801H112.343C111.67 86.7801 111.137 87.3127 111.137 87.9855V92.4425H116.803V91.2372V91.2372Z" fill="black"/>
<path d="M126.958 86.7801H123.704C123.031 86.7801 122.498 87.3127 122.498 87.9855V91.2372C122.498 91.9099 123.031 92.4425 123.704 92.4425H128.164V86.7801H126.958V86.7801Z" fill="black"/>
<path d="M133.828 86.7801H128.162V92.4425H133.828V86.7801Z" fill="black"/>
<path d="M138.288 86.7801C138.961 86.7801 139.494 87.3127 139.494 87.9855V92.4425H133.828V86.7801H138.288Z" fill="black"/>
<path d="M143.982 92.4425C144.656 92.4425 145.189 91.9099 145.189 91.2372V92.4425H143.982Z" fill="black"/>
<path d="M140.702 92.4425C140.029 92.4425 139.496 91.9099 139.496 91.2372V92.4425H140.702Z" fill="black"/>
<path d="M150.855 86.7801H145.189V92.4425H150.855V86.7801Z" fill="black"/>
<path d="M156.522 91.2372C156.522 91.9099 155.989 92.4425 155.315 92.4425H150.855V86.7801H156.522V91.2372Z" fill="black"/>
<path d="M157.728 86.7801H156.521V87.9855C156.521 87.3127 157.054 86.7801 157.728 86.7801Z" fill="black"/>
<path d="M162.187 87.9574V86.7521H160.98C161.654 86.7801 162.187 87.3127 162.187 87.9574Z" fill="black"/>
<path d="M160.98 92.4425C161.654 92.4425 162.187 91.9099 162.187 91.2372V92.4425H160.98Z" fill="black"/>
<path d="M167.852 86.7801H162.186V92.4425H167.852V86.7801Z" fill="black"/>
<path d="M43.0332 96.8996V93.6479C43.0332 92.9751 42.5003 92.4425 41.8271 92.4425H38.5733C37.9001 92.4425 37.3672 92.9751 37.3672 93.6479V98.1049H43.0332V96.8996V96.8996Z" fill="black"/>
<path d="M47.5215 98.105C48.1947 98.105 48.7276 97.5724 48.7276 96.8996V98.105H47.5215Z" fill="black"/>
<path d="M44.2374 98.105C43.5642 98.105 43.0312 97.5724 43.0312 96.8996V98.105H44.2374Z" fill="black"/>
<path d="M54.3926 96.8996V93.6479C54.3926 92.9751 53.8597 92.4425 53.1865 92.4425H49.9327C49.2595 92.4425 48.7266 92.9751 48.7266 93.6479V98.1049H54.3926V96.8996V96.8996Z" fill="black"/>
<path d="M61.2628 92.4425H64.5165C65.1897 92.4425 65.7227 92.9751 65.7227 93.6479V96.8996C65.7227 97.5723 65.1897 98.1049 64.5165 98.1049H61.2628C60.5896 98.1049 60.0566 97.5723 60.0566 96.8996V93.6479C60.0566 92.9751 60.6176 92.4425 61.2628 92.4425Z" fill="black"/>
<path d="M71.418 96.8996C71.418 97.5723 71.9509 98.1049 72.6241 98.1049H77.084V92.4425H71.418V96.8996Z" fill="black"/>
<path d="M81.5439 92.4425C82.2171 92.4425 82.75 92.9751 82.75 93.6479V98.1049H77.084V92.4425H81.5439Z" fill="black"/>
<path d="M87.2383 98.105C87.9115 98.105 88.4444 97.5724 88.4444 96.8996V98.105H87.2383Z" fill="black"/>
<path d="M83.9561 98.105C83.2829 98.105 82.75 97.5724 82.75 96.8996V98.105H83.9561Z" fill="black"/>
<path d="M94.1094 92.4425H88.4434V98.1049H94.1094V92.4425Z" fill="black"/>
<path d="M95.3175 92.4425H94.1113V93.6479C94.1113 92.9751 94.6443 92.4425 95.3175 92.4425Z" fill="black"/>
<path d="M104.265 92.4425H101.011C100.338 92.4425 99.8047 92.9751 99.8047 93.6479V96.8996C99.8047 97.5723 100.338 98.1049 101.011 98.1049H105.471V92.4425H104.265V92.4425Z" fill="black"/>
<path d="M111.135 92.4425H105.469V98.1049H111.135V92.4425Z" fill="black"/>
<path d="M116.803 92.4425H111.137V98.1049H116.803V92.4425Z" fill="black"/>
<path d="M118.009 98.105C117.336 98.105 116.803 97.5724 116.803 96.8996V98.105H118.009Z" fill="black"/>
<path d="M128.163 93.6479V92.4425H126.957C127.602 92.4425 128.163 92.9751 128.163 93.6479Z" fill="black"/>
<path d="M128.162 96.8996C128.162 97.5723 128.695 98.1049 129.368 98.1049H133.828V92.4425H128.162V96.8996Z" fill="black"/>
<path d="M139.494 92.4425H133.828V98.1049H139.494V92.4425Z" fill="black"/>
<path d="M145.162 92.4425H139.496V98.1049H145.162V92.4425Z" fill="black"/>
<path d="M150.855 92.4425H145.189V98.1049H150.855V92.4425Z" fill="black"/>
<path d="M152.062 92.4425H150.855V93.6479C150.855 92.9751 151.388 92.4425 152.062 92.4425Z" fill="black"/>
<path d="M157.728 92.4425C157.054 92.4425 156.521 92.9751 156.521 93.6479V98.1049H162.188V92.4425H157.728Z" fill="black"/>
<path d="M167.852 92.4425H162.186V98.1049H167.852V92.4425Z" fill="black"/>
<path d="M37.3672 102.562C37.3672 103.235 37.9001 103.767 38.5733 103.767H43.0332V98.105H37.3672V102.562V102.562Z" fill="black"/>
<path d="M48.6973 98.105H43.0312V103.767H48.6973V98.105Z" fill="black"/>
<path d="M54.3926 98.105H48.7266V103.767H54.3926V98.105Z" fill="black"/>
<path d="M55.5987 103.767C54.9255 103.767 54.3926 103.235 54.3926 102.562V103.767H55.5987Z" fill="black"/>
<path d="M64.5469 103.767C65.2201 103.767 65.753 103.235 65.753 102.562V103.767H64.5469Z" fill="black"/>
<path d="M71.418 102.562V99.3103C71.418 98.6376 70.885 98.105 70.2118 98.105H66.9581C66.2849 98.105 65.752 98.6376 65.752 99.3103V103.767H71.418V102.562Z" fill="black"/>
<path d="M77.0831 99.3103V98.105H75.877C76.5501 98.105 77.0831 98.6376 77.0831 99.3103Z" fill="black"/>
<path d="M77.084 102.562C77.084 103.235 77.6169 103.767 78.2901 103.767H82.75V98.105H77.084V102.562Z" fill="black"/>
<path d="M88.416 98.105H82.75V103.767H88.416V98.105Z" fill="black"/>
<path d="M94.1094 102.562C94.1094 103.235 93.5764 103.767 92.9033 103.767H88.4434V98.105H94.1094V102.562Z" fill="black"/>
<path d="M105.47 99.3103V98.105H104.264C104.909 98.105 105.47 98.6376 105.47 99.3103Z" fill="black"/>
<path d="M104.264 103.767C104.937 103.767 105.47 103.235 105.47 102.562V103.767H104.264Z" fill="black"/>
<path d="M111.135 98.105H105.469V103.767H111.135V98.105Z" fill="black"/>
<path d="M116.803 98.105H111.137V103.767H116.803V98.105Z" fill="black"/>
<path d="M121.263 98.105C121.936 98.105 122.469 98.6376 122.469 99.3103V103.767H116.803V98.105H121.263Z" fill="black"/>
<path d="M123.675 103.767C123.002 103.767 122.469 103.235 122.469 102.562V103.767H123.675Z" fill="black"/>
<path d="M133.827 99.3103V98.105H132.621C133.294 98.105 133.827 98.6376 133.827 99.3103Z" fill="black"/>
<path d="M139.494 98.105H133.828V103.767H139.494V98.105Z" fill="black"/>
<path d="M140.702 98.105H139.496V99.3103C139.496 98.6376 140.057 98.105 140.702 98.105Z" fill="black"/>
<path d="M145.189 99.3103V98.105H143.982C144.628 98.105 145.189 98.6376 145.189 99.3103Z" fill="black"/>
<path d="M143.982 103.767C144.656 103.767 145.189 103.235 145.189 102.562V103.767H143.982Z" fill="black"/>
<path d="M140.702 103.767C140.029 103.767 139.496 103.235 139.496 102.562V103.767H140.702Z" fill="black"/>
<path d="M150.855 98.105H145.189V103.767H150.855V98.105Z" fill="black"/>
<path d="M162.188 98.105H156.521V103.767H162.188V98.105Z" fill="black"/>
<path d="M167.881 102.562C167.881 103.235 167.348 103.767 166.675 103.767H162.215V98.105H167.881V102.562V102.562Z" fill="black"/>
<path d="M32.9054 103.767H36.1591C36.8323 103.767 37.3652 104.3 37.3652 104.973V108.224C37.3652 108.897 36.8323 109.43 36.1591 109.43H32.9054C32.2322 109.43 31.6992 108.897 31.6992 108.224V104.973C31.6992 104.328 32.2322 103.767 32.9054 103.767Z" fill="black"/>
<path d="M43.0323 104.973V103.767H41.8262C42.4994 103.767 43.0323 104.328 43.0323 104.973Z" fill="black"/>
<path d="M41.8262 109.458C42.4994 109.458 43.0323 108.925 43.0323 108.252V109.458H41.8262Z" fill="black"/>
<path d="M48.6973 103.767H43.0312V109.43H48.6973V103.767Z" fill="black"/>
<path d="M54.3926 103.767H48.7266V109.43H54.3926V103.767Z" fill="black"/>
<path d="M60.0586 103.767H54.3926V109.43H60.0586V103.767Z" fill="black"/>
<path d="M65.7227 103.767H60.0566V109.43H65.7227V103.767Z" fill="black"/>
<path d="M71.418 103.767H65.752V109.43H71.418V103.767Z" fill="black"/>
<path d="M95.3175 103.767C94.6443 103.767 94.1113 104.3 94.1113 104.973V109.43H99.7774V103.767H95.3175Z" fill="black"/>
<path d="M105.443 103.767H99.7773V109.43H105.443V103.767Z" fill="black"/>
<path d="M111.135 103.767H105.469V109.43H111.135V103.767Z" fill="black"/>
<path d="M116.803 103.767H111.137V109.43H116.803V103.767Z" fill="black"/>
<path d="M122.469 103.767H116.803V109.43H122.469V103.767Z" fill="black"/>
<path d="M126.958 103.767C127.631 103.767 128.164 104.3 128.164 104.973V109.43H122.498V103.767H126.958Z" fill="black"/>
<path d="M133.828 108.252C133.828 108.925 134.361 109.458 135.034 109.458H139.494V103.795H133.828V108.252Z" fill="black"/>
<path d="M145.162 103.767H139.496V109.43H145.162V103.767Z" fill="black"/>
<path d="M150.855 108.252C150.855 108.925 150.323 109.458 149.649 109.458H145.189V103.795H150.855V108.252Z" fill="black"/>
<path d="M162.188 103.767H156.521V109.43H162.188V103.767Z" fill="black"/>
<path d="M163.392 103.767H162.186V104.973C162.186 104.328 162.747 103.767 163.392 103.767Z" fill="black"/>
<path d="M163.392 109.458C162.718 109.458 162.186 108.925 162.186 108.252V109.458H163.392Z" fill="black"/>
<path d="M27.2393 109.458H30.4931C31.1663 109.458 31.6992 109.99 31.6992 110.663V113.915C31.6992 114.588 31.1663 115.12 30.4931 115.12H27.2393C26.5661 115.12 26.0332 114.588 26.0332 113.915V110.663C26.0332 109.99 26.5661 109.458 27.2393 109.458Z" fill="black"/>
<path d="M38.5733 109.458C37.9001 109.458 37.3672 109.99 37.3672 110.663V115.12H43.0332V109.458H38.5733Z" fill="black"/>
<path d="M48.6973 109.458H43.0312V115.12H48.6973V109.458Z" fill="black"/>
<path d="M49.9327 109.458H48.7266V110.663C48.7266 109.99 49.2595 109.458 49.9327 109.458Z" fill="black"/>
<path d="M65.753 110.663V109.458H64.5469C65.192 109.458 65.753 109.99 65.753 110.663Z" fill="black"/>
<path d="M64.5469 115.12C65.2201 115.12 65.753 114.588 65.753 113.915V115.12H64.5469Z" fill="black"/>
<path d="M71.418 109.458H65.752V115.12H71.418V109.458Z" fill="black"/>
<path d="M94.1113 113.915C94.1113 114.588 94.6443 115.12 95.3175 115.12H98.5712C99.2444 115.12 99.7774 114.588 99.7774 113.915V109.458H94.1113V113.915V113.915Z" fill="black"/>
<path d="M100.983 109.458H99.7773V110.663C99.7773 109.99 100.338 109.458 100.983 109.458Z" fill="black"/>
<path d="M122.468 110.663V109.458H121.262C121.935 109.458 122.468 109.99 122.468 110.663Z" fill="black"/>
<path d="M121.262 115.12C121.935 115.12 122.468 114.588 122.468 113.915V115.12H121.262Z" fill="black"/>
<path d="M128.135 109.458H122.469V115.12H128.135V109.458Z" fill="black"/>
<path d="M129.368 115.12C128.695 115.12 128.162 114.588 128.162 113.915V115.12H129.368Z" fill="black"/>
<path d="M162.188 109.458H156.521V115.12H162.188V109.458Z" fill="black"/>
<path d="M163.392 115.12H166.645C167.319 115.12 167.852 114.588 167.852 113.915V110.663C167.852 109.99 167.319 109.458 166.645 109.458H162.186V115.12H163.392V115.12Z" fill="black"/>
<path d="M37.3672 119.577C37.3672 120.25 37.9001 120.783 38.5733 120.783H43.0332V115.12H37.3672V119.577V119.577Z" fill="black"/>
<path d="M48.7266 119.577C48.7266 120.25 48.1936 120.783 47.5204 120.783H43.0605V115.12H48.7266V119.577V119.577Z" fill="black"/>
<path d="M58.8525 115.12H55.5987C54.9255 115.12 54.3926 115.653 54.3926 116.326V119.577C54.3926 120.25 54.9255 120.783 55.5987 120.783H60.0586V115.12H58.8525V115.12Z" fill="black"/>
<path d="M65.7227 115.12H60.0566V120.783H65.7227V115.12Z" fill="black"/>
<path d="M71.418 119.577C71.418 120.25 70.885 120.783 70.2118 120.783H65.752V115.12H71.418V119.577Z" fill="black"/>
<path d="M78.2901 115.12H81.5439C82.2171 115.12 82.75 115.653 82.75 116.326V119.577C82.75 120.25 82.2171 120.783 81.5439 120.783H78.2901C77.6169 120.783 77.084 120.25 77.084 119.577V116.326C77.084 115.653 77.6169 115.12 78.2901 115.12Z" fill="black"/>
<path d="M89.6495 115.12H92.9033C93.5764 115.12 94.1094 115.653 94.1094 116.326V119.577C94.1094 120.25 93.5764 120.783 92.9033 120.783H89.6495C88.9763 120.783 88.4434 120.25 88.4434 119.577V116.326C88.4434 115.653 88.9763 115.12 89.6495 115.12Z" fill="black"/>
<path d="M98.5703 120.783C99.2435 120.783 99.7764 120.25 99.7764 119.577V120.783H98.5703Z" fill="black"/>
<path d="M100.983 115.12C100.31 115.12 99.7773 115.653 99.7773 116.326V120.783H105.443V115.12H100.983Z" fill="black"/>
<path d="M106.675 120.783H109.929C110.602 120.783 111.135 120.25 111.135 119.577V116.326C111.135 115.653 110.602 115.12 109.929 115.12H105.469V120.783H106.675V120.783Z" fill="black"/>
<path d="M115.596 120.783C116.269 120.783 116.802 120.25 116.802 119.577V120.783H115.596Z" fill="black"/>
<path d="M118.009 115.12C117.336 115.12 116.803 115.653 116.803 116.326V120.783H122.469V115.12H118.009Z" fill="black"/>
<path d="M128.135 115.12H122.469V120.783H128.135V115.12Z" fill="black"/>
<path d="M133.828 115.12H128.162V120.783H133.828V115.12Z" fill="black"/>
<path d="M139.494 115.12H133.828V120.783H139.494V115.12Z" fill="black"/>
<path d="M143.983 115.12C144.657 115.12 145.189 115.653 145.189 116.326V120.783H139.523V115.12H143.983Z" fill="black"/>
<path d="M146.396 120.783C145.722 120.783 145.189 120.25 145.189 119.577V120.783H146.396Z" fill="black"/>
<path d="M156.521 119.577C156.521 120.25 157.054 120.783 157.728 120.783H160.981C161.655 120.783 162.188 120.25 162.188 119.577V115.12H156.521V119.577V119.577Z" fill="black"/>
<path d="M163.392 115.12H162.186V116.326C162.186 115.653 162.747 115.12 163.392 115.12Z" fill="black"/>
<path d="M72.6241 120.783H75.8779C76.5511 120.783 77.084 121.315 77.084 121.988V125.24C77.084 125.912 76.5511 126.445 75.8779 126.445H72.6241C71.9509 126.445 71.418 125.912 71.418 125.24V121.988C71.418 121.315 71.9509 120.783 72.6241 120.783Z" fill="black"/>
<path d="M88.4453 125.268V122.016C88.4453 121.343 87.9124 120.811 87.2392 120.811H83.9854C83.3122 120.811 82.7793 121.343 82.7793 122.016V126.473H88.4453V125.268V125.268Z" fill="black"/>
<path d="M92.9043 126.473C93.5775 126.473 94.1104 125.941 94.1104 125.268V126.473H92.9043Z" fill="black"/>
<path d="M89.6495 126.473C88.9763 126.473 88.4434 125.941 88.4434 125.268V126.473H89.6495Z" fill="black"/>
<path d="M95.3175 120.783C94.6443 120.783 94.1113 121.315 94.1113 121.988V126.445H99.7774V120.783H95.3175Z" fill="black"/>
<path d="M105.443 120.783H99.7773V126.445H105.443V120.783Z" fill="black"/>
<path d="M106.675 120.783H105.469V121.988C105.469 121.315 106.002 120.783 106.675 120.783Z" fill="black"/>
<path d="M115.597 120.783H112.343C111.67 120.783 111.137 121.315 111.137 121.988V125.24C111.137 125.912 111.67 126.445 112.343 126.445H116.803V120.783H115.597V120.783Z" fill="black"/>
<path d="M122.469 120.783H116.803V126.445H122.469V120.783Z" fill="black"/>
<path d="M123.675 120.783H122.469V121.988C122.469 121.315 123.03 120.783 123.675 120.783Z" fill="black"/>
<path d="M139.495 121.988V120.783H138.289C138.962 120.783 139.495 121.315 139.495 121.988Z" fill="black"/>
<path d="M145.162 120.783H139.496V126.445H145.162V120.783Z" fill="black"/>
<path d="M150.855 120.783H145.189V126.445H150.855V120.783Z" fill="black"/>
<path d="M155.315 120.783C155.989 120.783 156.522 121.315 156.522 121.988V126.445H150.855V120.783H155.315Z" fill="black"/>
<path d="M157.728 126.473C157.054 126.473 156.521 125.941 156.521 125.268V126.473H157.728Z" fill="black"/>
<path d="M82.75 130.93C82.75 131.603 83.2829 132.136 83.9561 132.136H88.416V126.473H82.75V130.93Z" fill="black"/>
<path d="M94.1094 126.473H88.4434V132.136H94.1094V126.473Z" fill="black"/>
<path d="M99.7774 126.473H94.1113V132.136H99.7774V126.473Z" fill="black"/>
<path d="M105.471 130.93C105.471 131.603 104.938 132.136 104.265 132.136H99.8047V126.473H105.471V130.93Z" fill="black"/>
<path d="M116.802 127.65V126.445H115.596C116.269 126.445 116.802 127.006 116.802 127.65Z" fill="black"/>
<path d="M115.596 132.136C116.269 132.136 116.802 131.603 116.802 130.93V132.136H115.596Z" fill="black"/>
<path d="M122.469 126.473H116.803V132.136H122.469V126.473Z" fill="black"/>
<path d="M129.368 126.473H132.622C133.295 126.473 133.828 127.006 133.828 127.679V130.93C133.828 131.603 133.295 132.136 132.622 132.136H129.368C128.695 132.136 128.162 131.603 128.162 130.93V127.679C128.162 127.006 128.695 126.473 129.368 126.473Z" fill="black"/>
<path d="M145.162 126.473H139.496V132.136H145.162V126.473Z" fill="black"/>
<path d="M146.396 126.473H145.189V127.679C145.189 127.006 145.722 126.473 146.396 126.473Z" fill="black"/>
<path d="M150.855 127.65V126.445H149.648C150.322 126.445 150.855 127.006 150.855 127.65Z" fill="black"/>
<path d="M150.855 130.93C150.855 131.603 151.388 132.136 152.062 132.136H156.522V126.473H150.855V130.93Z" fill="black"/>
<path d="M162.188 126.473H156.521V132.136H162.188V126.473Z" fill="black"/>
<path d="M166.675 126.473C167.348 126.473 167.881 127.006 167.881 127.679V132.136H162.215V126.473H166.675Z" fill="black"/>
<path d="M78.2901 132.136H81.5439C82.2171 132.136 82.75 132.668 82.75 133.341V136.593C82.75 137.265 82.2171 137.798 81.5439 137.798H78.2901C77.6169 137.798 77.084 137.265 77.084 136.593V133.341C77.084 132.668 77.6169 132.136 78.2901 132.136Z" fill="black"/>
<path d="M94.1104 133.341V132.136H92.9043C93.5775 132.136 94.1104 132.668 94.1104 133.341Z" fill="black"/>
<path d="M94.1113 136.593C94.1113 137.265 94.6443 137.798 95.3175 137.798H98.5712C99.2444 137.798 99.7774 137.265 99.7774 136.593V132.136H94.1113V136.593V136.593Z" fill="black"/>
<path d="M100.983 132.136H99.7773V133.341C99.7773 132.668 100.338 132.136 100.983 132.136Z" fill="black"/>
<path d="M112.343 132.136C111.67 132.136 111.137 132.668 111.137 133.341V137.798H116.803V132.136H112.343Z" fill="black"/>
<path d="M122.469 132.136H116.803V137.798H122.469V132.136Z" fill="black"/>
<path d="M123.675 137.798C123.002 137.798 122.469 137.265 122.469 136.593V137.798H123.675Z" fill="black"/>
<path d="M138.289 137.798C138.962 137.798 139.495 137.265 139.495 136.593V137.798H138.289Z" fill="black"/>
<path d="M145.162 132.136H139.496V137.798H145.162V132.136Z" fill="black"/>
<path d="M156.521 133.341V132.136H155.314C155.988 132.136 156.521 132.668 156.521 133.341Z" fill="black"/>
<path d="M156.521 136.593C156.521 137.265 157.054 137.798 157.728 137.798H162.188V132.136H156.521V136.593V136.593Z" fill="black"/>
<path d="M167.852 132.136H162.186V137.798H167.852V132.136Z" fill="black"/>
<path d="M89.6495 137.798H92.9033C93.5764 137.798 94.1094 138.331 94.1094 139.003V142.255C94.1094 142.928 93.5764 143.46 92.9033 143.46H89.6495C88.9763 143.46 88.4434 142.928 88.4434 142.255V139.003C88.4434 138.331 88.9763 137.798 89.6495 137.798Z" fill="black"/>
<path d="M100.983 137.798H104.237C104.91 137.798 105.443 138.331 105.443 139.003V142.255C105.443 142.928 104.91 143.46 104.237 143.46H100.983C100.31 143.46 99.7773 142.928 99.7773 142.255V139.003C99.7773 138.331 100.338 137.798 100.983 137.798Z" fill="black"/>
<path d="M116.803 137.798H111.137V143.46H116.803V137.798Z" fill="black"/>
<path d="M122.469 137.798H116.803V143.46H122.469V137.798Z" fill="black"/>
<path d="M128.135 137.798H122.469V143.46H128.135V137.798Z" fill="black"/>
<path d="M133.828 137.798H128.162V143.46H133.828V137.798Z" fill="black"/>
<path d="M139.494 137.798H133.828V143.46H139.494V137.798Z" fill="black"/>
<path d="M145.162 137.798H139.496V143.46H145.162V137.798Z" fill="black"/>
<path d="M152.062 137.798H155.315C155.989 137.798 156.522 138.331 156.522 139.003V142.255C156.522 142.928 155.989 143.46 155.315 143.46H152.062C151.388 143.46 150.855 142.928 150.855 142.255V139.003C150.855 138.331 151.388 137.798 152.062 137.798Z" fill="black"/>
<path d="M162.187 139.003V137.798H160.98C161.654 137.798 162.187 138.331 162.187 139.003Z" fill="black"/>
<path d="M160.98 143.46C161.654 143.46 162.187 142.928 162.187 142.255V143.46H160.98Z" fill="black"/>
<path d="M167.852 137.798H162.186V143.46H167.852V137.798Z" fill="black"/>
<path d="M77.084 147.945V144.694C77.084 144.021 76.5511 143.488 75.8779 143.488H72.6241C71.9509 143.488 71.418 144.021 71.418 144.694V149.151H77.084V147.945Z" fill="black"/>
<path d="M95.3175 143.46H98.5712C99.2444 143.46 99.7774 143.993 99.7774 144.666V147.917C99.7774 148.59 99.2444 149.123 98.5712 149.123H95.3175C94.6443 149.123 94.1113 148.59 94.1113 147.917V144.666C94.1113 144.021 94.6443 143.46 95.3175 143.46Z" fill="black"/>
<path d="M116.803 143.46H111.137V149.123H116.803V143.46Z" fill="black"/>
<path d="M122.469 147.945C122.469 148.618 121.936 149.151 121.263 149.151H116.803V143.488H122.469V147.945Z" fill="black"/>
<path d="M123.675 143.46H122.469V144.666C122.469 144.021 123.03 143.46 123.675 143.46Z" fill="black"/>
<path d="M128.163 144.666V143.46H126.957C127.602 143.46 128.163 144.021 128.163 144.666Z" fill="black"/>
<path d="M126.957 149.151C127.63 149.151 128.163 148.618 128.163 147.945V149.151H126.957Z" fill="black"/>
<path d="M133.828 143.46H128.162V149.123H133.828V143.46Z" fill="black"/>
<path d="M135.034 143.46H133.828V144.666C133.828 144.021 134.361 143.46 135.034 143.46Z" fill="black"/>
<path d="M139.495 144.666V143.46H138.289C138.962 143.46 139.495 144.021 139.495 144.666Z" fill="black"/>
<path d="M139.496 147.945C139.496 148.618 140.029 149.151 140.702 149.151H143.956C144.629 149.151 145.162 148.618 145.162 147.945V143.488H139.496V147.945V147.945Z" fill="black"/>
<path d="M155.314 149.151C155.988 149.151 156.521 148.618 156.521 147.945V149.151H155.314Z" fill="black"/>
<path d="M157.728 143.46C157.054 143.46 156.521 143.993 156.521 144.666V149.123H162.188V143.46H157.728V143.46Z" fill="black"/>
<path d="M167.881 147.945C167.881 148.618 167.348 149.151 166.675 149.151H162.215V143.488H167.881V147.945V147.945Z" fill="black"/>
<path d="M77.084 149.151H71.418V154.813H77.084V149.151Z" fill="black"/>
<path d="M87.2392 149.151H83.9854C83.3122 149.151 82.7793 149.683 82.7793 150.356V153.608C82.7793 154.281 83.3122 154.813 83.9854 154.813H88.4453V149.151H87.2392V149.151Z" fill="black"/>
<path d="M89.6495 154.813H92.9033C93.5764 154.813 94.1094 154.281 94.1094 153.608V150.356C94.1094 149.683 93.5764 149.151 92.9033 149.151H88.4434V154.813H89.6495Z" fill="black"/>
<path d="M105.471 153.608V150.356C105.471 149.683 104.938 149.151 104.265 149.151H101.011C100.338 149.151 99.8047 149.683 99.8047 150.356V154.813H105.471V153.608V153.608Z" fill="black"/>
<path d="M109.932 154.813C110.605 154.813 111.138 154.281 111.138 153.608V154.813H109.932Z" fill="black"/>
<path d="M106.675 154.813C106.002 154.813 105.469 154.281 105.469 153.608V154.813H106.675Z" fill="black"/>
<path d="M116.803 149.151H111.137V154.813H116.803V149.151Z" fill="black"/>
<path d="M118.009 149.151H116.803V150.356C116.803 149.683 117.336 149.151 118.009 149.151Z" fill="black"/>
<path d="M123.675 149.151C123.002 149.151 122.469 149.683 122.469 150.356V154.813H128.135V149.151H123.675Z" fill="black"/>
<path d="M133.828 153.608C133.828 154.281 133.295 154.813 132.622 154.813H128.162V149.151H133.828V153.608Z" fill="black"/>
<path d="M149.649 149.151H146.396C145.722 149.151 145.189 149.683 145.189 150.356V153.608C145.189 154.281 145.722 154.813 146.396 154.813H150.855V149.151H149.649V149.151Z" fill="black"/>
<path d="M156.522 149.151H150.855V154.813H156.522V149.151Z" fill="black"/>
<path d="M162.188 149.151H156.521V154.813H162.188V149.151Z" fill="black"/>
<path d="M163.392 149.151H162.186V150.356C162.186 149.683 162.747 149.151 163.392 149.151Z" fill="black"/>
<path d="M163.392 154.813C162.718 154.813 162.186 154.281 162.186 153.608V154.813H163.392Z" fill="black"/>
<path d="M77.084 154.813H71.418V160.476H77.084V154.813Z" fill="black"/>
<path d="M98.5703 160.476C99.2435 160.476 99.7764 159.943 99.7764 159.27V160.476H98.5703Z" fill="black"/>
<path d="M105.443 154.813H99.7773V160.476H105.443V154.813Z" fill="black"/>
<path d="M111.135 154.813H105.469V160.476H111.135V154.813Z" fill="black"/>
<path d="M116.803 154.813H111.137V160.476H116.803V154.813Z" fill="black"/>
<path d="M122.469 159.27C122.469 159.943 123.002 160.476 123.675 160.476H126.929C127.602 160.476 128.135 159.943 128.135 159.27V154.813H122.469V159.27V159.27Z" fill="black"/>
<path d="M129.368 154.813H128.162V156.019C128.162 155.346 128.695 154.813 129.368 154.813Z" fill="black"/>
<path d="M140.702 154.813H143.956C144.629 154.813 145.162 155.346 145.162 156.019V159.27C145.162 159.943 144.629 160.476 143.956 160.476H140.702C140.029 160.476 139.496 159.943 139.496 159.27V156.019C139.496 155.346 140.057 154.813 140.702 154.813Z" fill="black"/>
<path d="M150.855 156.019V154.813H149.648C150.322 154.813 150.855 155.346 150.855 156.019Z" fill="black"/>
<path d="M156.522 154.813H150.855V160.476H156.522V154.813Z" fill="black"/>
<path d="M162.188 154.813H156.521V160.476H162.188V154.813Z" fill="black"/>
<path d="M166.675 154.813C167.348 154.813 167.881 155.346 167.881 156.019V160.476H162.215V154.813H166.675Z" fill="black"/>
<path d="M71.418 164.961C71.418 165.634 71.9509 166.166 72.6241 166.166H75.8779C76.5511 166.166 77.084 165.634 77.084 164.961V160.504H71.418V164.961V164.961Z" fill="black"/>
<path d="M98.5712 160.476H95.3175C94.6443 160.476 94.1113 161.008 94.1113 161.681V164.933C94.1113 165.605 94.6443 166.138 95.3175 166.138H99.7774V160.476H98.5712V160.476Z" fill="black"/>
<path d="M105.443 160.476H99.7773V166.138H105.443V160.476Z" fill="black"/>
<path d="M111.135 160.476H105.469V166.138H111.135V160.476Z" fill="black"/>
<path d="M116.803 164.961C116.803 165.634 116.27 166.166 115.597 166.166H111.137V160.504H116.803V164.961Z" fill="black"/>
<path d="M150.855 164.961C150.855 165.634 151.388 166.166 152.062 166.166H156.522V160.504H150.855V164.961Z" fill="black"/>
<path d="M162.188 160.476H156.521V166.138H162.188V160.476Z" fill="black"/>
<path d="M167.881 164.961C167.881 165.634 167.348 166.166 166.675 166.166H162.215V160.504H167.881V164.961V164.961Z" fill="black"/>
<path d="M27.212 24.3813C26.5388 24.3813 26.0059 24.914 26.0059 25.5867V30.0718V35.7342V41.3966V47.0591V52.7215V58.3839V62.869C26.0059 63.5418 26.5388 64.0744 27.212 64.0744H64.518C65.1912 64.0744 65.7242 63.5418 65.7242 62.869V58.4119V52.7495V47.0871V41.4247V35.7623V30.0718V25.5867C65.7242 24.914 65.1912 24.3813 64.518 24.3813H27.212ZM60.0581 35.7342V41.3966V47.0591V52.7215V57.7111C60.0581 58.1036 59.7496 58.4119 59.3569 58.4119H32.3731C31.9804 58.4119 31.6719 58.1036 31.6719 57.7111V52.7215V47.0591V41.3966V35.7342V30.7446C31.6719 30.3521 31.9804 30.0438 32.3731 30.0438H59.3569C59.7496 30.0438 60.0581 30.3521 60.0581 30.7446V35.7342Z" fill="black"/>
<path d="M54.3933 47.0871V41.4247V36.9676C54.3933 36.2949 53.8604 35.7623 53.1872 35.7623H38.5733C37.9001 35.7623 37.3672 36.2949 37.3672 36.9676V41.4247V47.0871V51.5442C37.3672 52.2169 37.9001 52.7495 38.5733 52.7495H53.1872C53.8604 52.7495 54.3933 52.2169 54.3933 51.5442V47.0871Z" fill="black"/>
<path d="M129.368 24.3813C128.695 24.3813 128.162 24.914 128.162 25.5867V30.0718V35.7342V41.3966V47.0591V52.7215V58.3839V62.869C128.162 63.5418 128.695 64.0744 129.368 64.0744H166.674C167.347 64.0744 167.88 63.5418 167.88 62.869V58.4119V52.7495V47.0871V41.4247V35.7623V30.0718V25.5867C167.88 24.914 167.347 24.3813 166.674 24.3813H129.368ZM162.186 35.7342V41.3966V47.0591V52.7215V57.7111C162.186 58.1036 161.878 58.4119 161.485 58.4119H134.501C134.109 58.4119 133.8 58.1036 133.8 57.7111V52.7215V47.0591V41.3966V35.7342V30.7446C133.8 30.3521 134.109 30.0438 134.501 30.0438H161.513C161.906 30.0438 162.214 30.3521 162.214 30.7446V35.7342H162.186Z" fill="black"/>
<path d="M156.522 47.0871V41.4247V36.9676C156.522 36.2949 155.989 35.7623 155.316 35.7623H140.702C140.029 35.7623 139.496 36.2949 139.496 36.9676V41.4247V47.0871V51.5442C139.496 52.2169 140.029 52.7495 140.702 52.7495H155.316C155.989 52.7495 156.522 52.2169 156.522 51.5442V47.0871Z" fill="black"/>
<path d="M27.212 126.445C26.5388 126.445 26.0059 126.978 26.0059 127.65V132.107V137.77V143.432V149.095V154.813V160.476V164.933C26.0059 165.605 26.5388 166.138 27.212 166.138H64.518C65.1912 166.138 65.7242 165.605 65.7242 164.933V160.476V154.813V149.151V143.488V137.826V132.164V127.706C65.7242 127.034 65.1912 126.501 64.518 126.501H27.212V126.445ZM60.0581 137.798V143.46V149.123V154.813V159.803C60.0581 160.195 59.7496 160.504 59.3569 160.504H32.3731C31.9804 160.504 31.6719 160.195 31.6719 159.803V154.813V149.151V143.488V137.826V132.836C31.6719 132.444 31.9804 132.136 32.3731 132.136H59.3569C59.7496 132.136 60.0581 132.444 60.0581 132.836V137.798Z" fill="black"/>
<path d="M54.3933 149.151V143.488V139.031C54.3933 138.359 53.8604 137.826 53.1872 137.826H38.5733C37.9001 137.826 37.3672 138.359 37.3672 139.031V143.488V149.151V153.608C37.3672 154.281 37.9001 154.813 38.5733 154.813H53.1872C53.8604 154.813 54.3933 154.281 54.3933 153.608V149.151Z" fill="black"/>
<defs>
<filter id="filter0_d_1143_228" x="0" y="0.109009" width="194" height="193" filterUnits="userSpaceOnUse" color-interpolation-filters="sRGB">
<feFlood flood-opacity="0" result="BackgroundImageFix"/>
<feColorMatrix in="SourceAlpha" type="matrix" values="0 0 0 0 0 0 0 0 0 0 0 0 0 0 0 0 0 0 127 0" result="hardAlpha"/>
<feOffset dy="1"/>
<feGaussianBlur stdDeviation="6.5"/>
<feComposite in2="hardAlpha" operator="out"/>
<feColorMatrix type="matrix" values="0 0 0 0 0 0 0 0 0 0 0 0 0 0 0 0 0 0 0.25 0"/>
<feBlend mode="normal" in2="BackgroundImageFix" result="effect1_dropShadow_1143_228"/>
<feBlend mode="normal" in="SourceGraphic" in2="effect1_dropShadow_1143_228" result="shape"/>
</filter>
</defs>
</svg>
