<svg width="110" height="47" viewBox="0 0 110 47" fill="none" xmlns="http://www.w3.org/2000/svg">
<path d="M13.1949 34.5756L9.79172 37.9254L4.61591 32.8318L13.1949 24.3836V34.5756Z" fill="white" stroke="#01478B"/>
<path d="M13.1949 22.9801L9.7917 26.3299L4.61757 21.2363L13.1949 12.7898V22.9801Z" fill="white" stroke="#01478B"/>
<path d="M9.79175 14.7376L4.61584 9.64069L13.1949 1.19396V11.3862L9.79175 14.7376Z" fill="white" stroke="#01478B"/>
<path d="M3.90314 32.1301L0.5 28.7788V18.5864L9.07913 27.0316L3.90314 32.1301Z" fill="white" stroke="#01478B"/>
<path d="M3.90489 20.5345L0.5 17.183V6.99099L9.07914 15.4393L3.90489 20.5345Z" fill="white" stroke="#01478B"/>
<path d="M3.90489 43.7224L0.5 40.3709V30.1821L9.07907 38.6272L3.90489 43.7224Z" fill="white" stroke="#01478B"/>
<path d="M19.6387 33.9955C19.6387 32.7994 19.9426 31.1962 20.2465 30.7124H20.3479C21.2348 31.9085 23.11 32.5959 24.9833 32.5959C26.7821 32.5959 27.5677 31.9085 27.5677 30.3053C27.5677 29.1092 26.7074 28.4986 25.5912 28.1165L23.5134 27.4292C21.4356 26.6151 20.0421 25.4439 20.0421 22.6446C20.0421 19.8702 22.5252 17.8867 25.9698 17.8867C28.1489 17.8867 30.1254 18.3705 30.8346 18.7776C30.8346 20.0755 30.4293 21.0681 30.0241 21.6537H29.9494C29.4429 21.2717 28.0991 20.3808 26.0729 20.3808C24.603 20.3808 23.6165 20.9664 23.6165 22.1625C23.6165 23.2569 23.9951 23.8925 25.0847 24.3513L27.3651 25.1404C29.2402 25.776 31.2167 26.9222 31.2167 29.8233C31.2167 33.2082 28.5559 35.0917 24.8838 35.0917C22.7047 35.0899 20.8295 34.6829 19.6387 33.9955Z" fill="white"/>
<path d="M33.6997 27.0219C33.6997 26.2328 33.6997 24.451 33.4207 22.8496H37.0679V34.7844H33.6997V27.0219Z" fill="white"/>
<path d="M40.8164 27.0219C40.8164 26.2328 40.8164 24.451 40.5374 22.8496H49.531L49.3284 25.4437C48.8467 25.2401 47.0231 25.1384 45.5781 25.1384H44.1846V27.6324H48.7454L48.8467 27.7342C48.8467 28.4216 48.6441 29.3124 48.2389 29.923H44.1864V32.4938H46.9485C48.1393 32.4938 49.1276 32.3921 49.7354 32.1885H49.8368C49.8368 33.2829 49.4315 34.2756 48.5446 34.7844H40.8164V27.0219Z" fill="white"/>
<path d="M55.713 27.6342L55.1815 34.7844H52.1155L52.926 24.6563V24.2743C52.926 23.919 52.9011 23.5102 52.7998 22.8496H56.575L60.2738 31.3495L64.2765 22.8496H67.8491L68.6347 34.7844H65.2647L64.7831 27.6342L61.3118 34.7844H58.8288L55.713 27.6342Z" fill="white"/>
<path d="M71.6456 34.7849V27.0242C71.6456 26.2351 71.6456 24.4534 71.3666 22.852C72.1273 22.7502 75.2698 22.6484 76.5104 22.6484C79.5764 22.6484 81.5511 23.7178 81.5511 25.6513C81.5511 27.026 80.8668 27.8401 79.7773 28.3239C81.1459 28.6292 82.2354 29.7236 82.2354 31.0965C82.2354 33.8959 79.676 35.092 76.3078 35.092C75.1916 35.0902 72.3548 34.9885 71.6456 34.7849ZM75.0156 24.9104V27.6598C75.396 27.7116 75.851 27.7348 76.2065 27.7348C77.3973 27.7348 78.1829 27.3027 78.1829 26.1316C78.1829 25.1389 77.296 24.8337 76.1816 24.8337C75.8261 24.8337 75.396 24.8604 75.0156 24.9104ZM75.0156 29.72V32.7997C75.4208 32.8765 75.9025 32.9014 76.4073 32.9014C77.8275 32.9014 78.7642 32.3926 78.7642 31.0947C78.7642 30.0003 77.8772 29.6183 76.4073 29.6183C76.0785 29.6183 75.4973 29.6451 75.0156 29.72Z" fill="white"/>
<path d="M90.0631 30.5857C89.8356 30.6107 89.5814 30.6107 89.3539 30.6107L88.3657 30.559V34.783H84.9957V27.0223C84.9957 26.2332 84.9957 24.4514 84.7167 22.85C85.7049 22.7732 88.5168 22.6465 89.8587 22.6465C93.2038 22.6465 95.2798 23.9444 95.2798 26.4385C95.2798 27.9649 94.3182 29.0843 92.9745 29.7716L95.7864 33.9957C96.0139 34.326 96.0903 34.5813 96.0903 34.7848H92.619L90.0631 30.5857ZM88.3657 24.9103V28.5755C88.7212 28.6005 89.0749 28.6273 89.3539 28.6273C90.9998 28.6273 91.9383 28.0167 91.9383 26.5402C91.9383 25.3441 91.1278 24.8353 89.4552 24.8353C89.1513 24.8335 88.7461 24.8603 88.3657 24.9103Z" fill="white"/>
<path d="M101.593 23.0535C102.176 22.85 104.051 22.6465 105.141 22.6465L109.679 34.7848H106.129L105.064 31.7319L100.758 31.8837L99.7944 34.3777C99.6931 34.6312 99.5154 34.7848 99.1101 34.7848H96.6271L101.593 23.0535ZM101.593 29.7716L104.33 29.6699L103.063 26.0314L101.593 29.7716Z" fill="white"/>
<path d="M87.8609 9.79387C88.172 9.63855 88.8509 9.48145 89.3948 9.48145L92.763 18.7775L91.4317 18.7793L90.2871 15.6015L86.6185 15.7193L85.513 18.5454C85.4543 18.7008 85.3761 18.7793 85.2215 18.7793H84.2314L87.8609 9.79387ZM87.006 14.7249L89.9369 14.6267L88.5577 10.7865L87.006 14.7249Z" fill="#F1F1F1"/>
<path d="M97.2155 10.7095H96.1473V13.6731H99.7963L99.8745 13.7499C99.8745 14.1391 99.7198 14.4319 99.487 14.6658H96.149V15.5816C96.149 16.1868 96.149 17.5508 96.3037 18.7773H94.8675V12.8322C94.8675 12.227 94.8675 10.8631 94.7129 9.63477H100.244L100.166 10.9416C99.7981 10.7881 98.3424 10.7095 97.2155 10.7095Z" fill="#F1F1F1"/>
<path d="M102.32 12.8342C102.32 12.229 102.32 10.8651 102.166 9.63677C102.864 9.57785 103.893 9.48145 104.901 9.48145C107.251 9.48145 108.607 10.5544 108.607 12.2308C108.607 14.3553 106.803 15.5051 104.823 15.5051C104.512 15.5051 103.987 15.4658 103.6 15.4087V15.5836C103.6 16.1888 103.6 17.5528 103.755 18.7793H102.318V12.8342H102.32ZM103.602 10.5544V14.4142C103.952 14.5107 104.476 14.5892 104.825 14.5892C106.3 14.5892 107.327 14.0233 107.327 12.3861C107.327 11.0793 106.57 10.3973 104.901 10.3973C104.513 10.3973 103.952 10.4562 103.602 10.5544Z" fill="#F1F1F1"/>
<path d="M52.8014 44.4238V39.7302C52.8014 39.2607 52.8014 38.4716 52.7214 37.8628H53.795V44.422H52.8014V44.4238Z" fill="white"/>
<path d="M55.2419 44.4244C55.2916 43.8245 55.2916 43.1764 55.2916 42.8569V41.6089C55.2916 41.3001 55.2916 40.5913 55.2028 39.9807H56.1768V40.4895C56.4345 40.2307 56.902 39.9004 57.588 39.9004C58.523 39.9004 59.0686 40.3806 59.0686 41.4375V42.8551C59.0686 43.1746 59.0686 43.8245 59.1184 44.4226H58.1248C58.1746 43.8227 58.1746 43.1746 58.1746 42.8551V41.9071C58.1746 40.9377 57.9453 40.6181 57.2201 40.6181C56.7918 40.6181 56.415 40.8073 56.1963 40.9769V42.8533C56.1963 43.1729 56.1963 43.8423 56.2461 44.4208H55.2419V44.4244Z" fill="white"/>
<path d="M61.3739 44.524L59.8329 39.9804H60.8176L61.9604 43.5653L62.2484 42.8672C62.5363 42.1781 62.9345 41.2801 62.9345 40.5713C62.9345 40.3018 62.8349 40.1214 62.7354 40.0518C62.8243 39.9626 63.0038 39.9019 63.2029 39.9019C63.5512 39.9019 63.7503 40.1018 63.7503 40.591C63.7503 41.1498 63.194 42.2674 62.8954 42.9065L62.1897 44.424L61.3739 44.524Z" fill="white"/>
<path d="M64.6051 44.424C64.6549 43.8241 64.6549 43.1761 64.6549 42.8565V41.6086C64.6549 41.2997 64.6549 40.5909 64.566 39.9804H65.5596V42.8565C65.5596 43.1761 65.5596 43.8456 65.6094 44.424H64.6051ZM64.614 38.2736C64.614 37.963 64.8433 37.7041 65.1401 37.7041C65.4281 37.7041 65.668 37.963 65.668 38.2736C65.668 38.6128 65.4583 38.8431 65.1401 38.8431C64.8433 38.8431 64.614 38.6128 64.614 38.2736Z" fill="white"/>
<path d="M66.651 42.2977C66.651 40.8499 67.5362 39.9019 68.7874 39.9019C69.8503 39.9019 70.4671 40.6303 70.4671 41.6193C70.4671 41.73 70.4582 41.9085 70.4067 42.0282C70.2965 42.0871 70.0085 42.1281 69.6317 42.1281H67.5735V42.2977C67.5735 43.3261 68.1209 43.8456 68.9154 43.8456C69.5713 43.8456 69.9499 43.6653 70.1987 43.4564C70.2485 43.4564 70.2876 43.526 70.2876 43.6456C70.2876 43.8063 70.2485 43.9759 70.2183 44.0545C70.0583 44.2152 69.5926 44.5437 68.7768 44.5437C67.4864 44.5437 66.651 43.776 66.651 42.2977ZM67.6357 41.5979H69.5731V41.439C69.5731 40.9195 69.3349 40.4696 68.7377 40.4696C68.1618 40.4696 67.7743 40.8695 67.6357 41.5979Z" fill="white"/>
<path d="M71.5406 44.424C71.5903 43.8242 71.5903 43.1761 71.5903 42.8565V41.6086C71.5903 41.2997 71.5903 40.591 71.5015 39.9804H72.4453L72.4862 40.6106C72.6657 40.341 73.0816 39.9019 73.5402 39.9019C73.8476 39.9019 74.0272 39.9822 74.1374 40.0822C74.1374 40.3821 74.0378 40.682 73.7801 40.8713C73.5704 40.8713 73.5206 40.682 73.2327 40.682C72.9554 40.682 72.7154 40.8713 72.4968 41.2105V42.8583C72.4968 43.1779 72.4968 43.8474 72.5466 44.4258H71.5406V44.424Z" fill="white"/>
<path d="M74.5178 40.0607C74.5285 40.0107 74.548 39.9804 74.628 39.9804H74.9675C74.9764 39.7304 74.9764 39.5412 74.987 39.4412C75.1861 39.2216 75.7424 39.002 75.8313 38.9717C75.8811 38.9717 75.9202 38.9913 75.9202 39.0717L75.8811 39.9804H77.2035C77.2035 40.191 77.1448 40.4803 76.9546 40.6302H75.8615C75.8313 41.4693 75.8011 42.437 75.8011 43.0368C75.8011 43.6367 75.9095 43.8456 76.3876 43.8456C76.7147 43.8456 76.9937 43.7349 77.1821 43.5956H77.2319C77.2319 43.8152 77.1928 44.0937 77.0933 44.2651C76.9546 44.3651 76.6062 44.5454 76.1388 44.5454C75.3727 44.5454 74.8964 44.1758 74.8964 43.2582C74.8964 42.6387 74.9159 41.5104 74.9461 40.632H74.4076L74.5178 40.0607Z" fill="white"/>
<path d="M77.6798 42.2977C77.6798 40.8499 78.565 39.9019 79.8163 39.9019C80.8791 39.9019 81.4959 40.6303 81.4959 41.6193C81.4959 41.73 81.4852 41.9085 81.4372 42.0282C81.327 42.0871 81.0391 42.1281 80.6623 42.1281H78.6041V42.2977C78.6041 43.3261 79.1515 43.8456 79.946 43.8456C80.6019 43.8456 80.9805 43.6653 81.2275 43.4564C81.2773 43.4564 81.3164 43.526 81.3164 43.6456C81.3164 43.8063 81.2773 43.9759 81.2471 44.0545C81.0889 44.2152 80.6214 44.5437 79.8056 44.5437C78.5152 44.5437 77.6798 43.776 77.6798 42.2977ZM78.6645 41.5979H80.6036V41.439C80.6036 40.9195 80.3655 40.4696 79.7683 40.4696C79.1906 40.4696 78.8031 40.8695 78.6645 41.5979Z" fill="white"/>
<path d="M85.465 44.494V45.4223C85.465 45.7312 85.465 46.4114 85.5147 47.0006H84.5016C84.5621 46.3918 84.5621 45.733 84.5621 45.4223V41.5679C84.5621 41.2572 84.5621 40.5395 84.4625 39.9111H85.4668V40.4092C85.6854 40.2003 86.1422 39.9004 86.7287 39.9004C87.8716 39.9004 88.627 40.5984 88.627 42.0463C88.627 43.6245 87.5339 44.5422 86.1813 44.5422C85.9129 44.544 85.6747 44.5243 85.465 44.494ZM87.7027 42.1285C87.7027 41.0805 87.1464 40.5806 86.4408 40.5806C86.0729 40.5806 85.7156 40.7502 85.4668 40.9305V43.7763C85.6463 43.8656 85.9147 43.9155 86.2026 43.9155C87.0451 43.9155 87.7027 43.3264 87.7027 42.1285Z" fill="white"/>
<path d="M92.0839 44.4237L92.0253 44.0042C91.8262 44.2345 91.4192 44.5433 90.7829 44.5433C89.9866 44.5433 89.3805 44.2041 89.3805 43.3454C89.3805 42.5277 90.1252 42.1171 91.1099 42.0082L91.9844 41.9189V41.5797C91.9844 40.8317 91.7267 40.5121 91.0904 40.5121C90.5038 40.5121 90.127 40.871 89.9368 41.1905C89.7378 41.1405 89.5885 41.0013 89.5885 40.7317C89.5885 40.2122 90.4327 39.9033 91.2486 39.9033C92.283 39.9033 92.8678 40.3032 92.8678 41.2905C92.8678 41.9993 92.8287 42.6991 92.8287 43.3168C92.8287 43.5971 92.8678 43.9952 92.9886 44.4255H92.0839V44.4237ZM91.9844 43.5846V42.4063L91.4974 42.4563C91.0495 42.5063 90.6425 42.5759 90.4238 42.6955C90.3243 42.8152 90.2354 42.9848 90.2354 43.2151C90.2354 43.6846 90.534 43.9435 91.021 43.9435C91.4085 43.9453 91.7071 43.7846 91.9844 43.5846Z" fill="white"/>
<path d="M94.3005 44.424C94.3502 43.8242 94.3502 43.1761 94.3502 42.8565V41.6086C94.3502 41.2997 94.3502 40.591 94.2614 39.9804H95.2052L95.2443 40.6106C95.4238 40.341 95.8415 39.9019 96.2983 39.9019C96.6057 39.9019 96.7853 39.9822 96.8937 40.0822C96.8937 40.3821 96.7942 40.682 96.5364 40.8713C96.3285 40.8713 96.2787 40.682 95.989 40.682C95.7099 40.682 95.4718 40.8713 95.2531 41.2105V42.8583C95.2531 43.1779 95.2531 43.8474 95.3029 44.4258H94.3005V44.424Z" fill="white"/>
<path d="M99.9259 44.4237L99.8655 44.0042C99.6664 44.2345 99.2594 44.5433 98.6231 44.5433C97.8268 44.5433 97.2207 44.2041 97.2207 43.3454C97.2207 42.5277 97.9654 42.1171 98.9501 42.0082L99.8246 41.9189V41.5797C99.8246 40.8317 99.5651 40.5121 98.9306 40.5121C98.344 40.5121 97.9672 40.871 97.777 41.1905C97.578 41.1405 97.4287 41.0013 97.4287 40.7317C97.4287 40.2122 98.2729 39.9033 99.0888 39.9033C100.123 39.9033 100.708 40.3032 100.708 41.2905C100.708 41.9993 100.669 42.6991 100.669 43.3168C100.669 43.5971 100.708 43.9952 100.829 44.4255H99.9259V44.4237ZM99.8264 43.5846V42.4063L99.3394 42.4563C98.8915 42.5063 98.4844 42.5759 98.2658 42.6955C98.1663 42.8152 98.0774 42.9848 98.0774 43.2151C98.0774 43.6846 98.376 43.9435 98.863 43.9435C99.2505 43.9453 99.5473 43.7846 99.8264 43.5846Z" fill="white"/>
<path d="M103.653 40.0607C103.662 40.0107 103.683 39.9804 103.763 39.9804H104.28C104.291 39.7304 104.291 39.5412 104.3 39.4412C104.499 39.2216 105.055 39.002 105.144 38.9717C105.194 38.9717 105.233 38.9913 105.233 39.0717L105.194 39.9804H106.516C106.516 40.191 106.456 40.4803 106.268 40.6302H105.174C105.144 41.4693 105.116 42.437 105.116 43.0368C105.116 43.6367 105.226 43.8456 105.702 43.8456C106.031 43.8456 106.308 43.7349 106.499 43.5956H106.548C106.548 43.8152 106.509 44.0937 106.41 44.2651C106.271 44.3651 105.923 44.5454 105.455 44.5454C104.689 44.5454 104.213 44.1758 104.213 43.2582C104.213 42.6387 104.232 41.5104 104.263 40.632H103.546L103.653 40.0607Z" fill="white"/>
<path d="M107.34 44.424C107.389 43.8241 107.389 43.1761 107.389 42.8565V41.6086C107.389 41.2997 107.389 40.5909 107.3 39.9804H108.294V42.8565C108.294 43.1761 108.294 43.8456 108.344 44.424H107.34ZM107.35 38.2736C107.35 37.963 107.579 37.7041 107.876 37.7041C108.164 37.7041 108.402 37.963 108.402 38.2736C108.402 38.6128 108.194 38.8431 107.876 38.8431C107.578 38.8431 107.35 38.6128 107.35 38.2736Z" fill="white"/>
</svg>
