<svg width="446" height="337" viewBox="0 0 446 337" fill="none" xmlns="http://www.w3.org/2000/svg">
<path d="M71.1867 1.78854L37.0508 28.488L97.7714 106.397L131.907 79.6971L71.1867 1.78854Z" fill="white"/>
<path d="M97.6693 107.535L97.1986 106.875L36.0015 28.3094L71.4016 0.580322L71.8724 1.24054L133.07 79.8062L97.6693 107.535ZM38.2611 28.5923L97.9518 105.177L130.81 79.5232L71.1192 2.93824L38.2611 28.5923Z" fill="black"/>
<path d="M70.5756 6.21644L41.5601 28.911L98.5146 101.988L127.53 79.2929L70.5756 6.21644Z" fill="white"/>
<path d="M98.3282 103.102L97.8574 102.442L40.4263 28.781L70.7424 5.10754L71.2131 5.76776L128.644 79.429L98.3282 103.102ZM42.6858 29.0639L98.6106 100.839L126.291 79.146L70.3658 7.37114L42.6858 29.0639Z" fill="black"/>
<path d="M104.354 91.7845L116.311 82.4471C114.146 79.7119 114.71 75.7507 117.441 73.5814L73.5672 17.3687C70.8369 19.538 66.8826 19.0664 64.7171 16.2369L52.7602 25.5743C54.9256 28.3095 54.4549 32.2707 51.6304 34.44L95.504 90.6527C98.2343 88.5777 102.189 89.0493 104.354 91.7845Z" fill="#005EB8"/>
<path d="M104.354 92.6333C104.071 92.6333 103.883 92.5389 103.695 92.3503C101.812 89.9924 98.4224 89.5208 96.0687 91.4071C95.6921 91.6901 95.2213 91.5958 94.9389 91.3128L51.0652 35.0059C50.9711 34.8172 50.877 34.6286 50.877 34.44C50.877 34.2513 50.9711 34.0627 51.1594 33.8741C53.5131 31.9877 53.9839 28.5923 52.1009 26.2344C51.8184 25.8572 51.9126 25.3856 52.195 25.1026L64.152 15.7653C64.3403 15.671 64.5286 15.5767 64.7169 15.5767C64.9052 15.5767 65.0935 15.671 65.2818 15.8596C66.2233 16.9914 67.4472 17.7459 68.9536 17.9346C70.3659 18.1232 71.8723 17.7459 73.0021 16.8028C73.1904 16.7085 73.3787 16.6141 73.567 16.6141C73.7553 16.6141 73.9436 16.7085 74.1319 16.8971L118.005 73.1097C118.1 73.2984 118.194 73.487 118.194 73.6756C118.194 73.8643 118.1 74.0529 117.911 74.2415C115.558 76.1279 115.087 79.5233 116.97 81.8812C117.064 82.0698 117.158 82.2584 117.158 82.4471C117.158 82.6357 117.064 82.8243 116.876 83.013L104.919 92.3503C104.73 92.6333 104.542 92.6333 104.354 92.6333ZM99.3639 88.5776C101.247 88.5776 103.036 89.3322 104.448 90.6526L115.181 82.2584C113.486 79.4289 113.957 75.8449 116.217 73.487L73.2845 18.4062C71.9664 19.255 70.3659 19.6323 68.7653 19.3493C67.1648 19.1607 65.6584 18.4062 64.6228 17.2744L53.8897 25.6685C55.5844 28.498 55.1137 32.0821 52.8541 34.44L95.7862 89.5208C96.8219 88.9549 98.14 88.5776 99.3639 88.5776Z" fill="black"/>
<path d="M90.3256 61.5088C84.9591 65.7531 77.992 65.8474 74.7909 61.7918C71.5898 57.7362 73.3787 51.0397 78.7452 46.7954C84.1117 42.5512 91.0788 42.4569 94.2799 46.5125C97.4809 50.5681 95.6921 57.2646 90.3256 61.5088Z" fill="white"/>
<path d="M81.5696 65.4701C78.4626 65.4701 75.8264 64.3383 74.2259 62.169C72.5312 59.9997 72.0605 57.0759 72.9078 53.9635C73.661 50.9454 75.6381 48.1159 78.3685 45.9466C84.1116 41.4194 91.5494 41.4194 95.0329 45.8523C98.5165 50.2851 96.6335 57.5475 90.8903 61.9804C88.16 64.1497 84.9589 65.3758 81.852 65.3758C81.6637 65.4701 81.5696 65.4701 81.5696 65.4701ZM87.501 44.2489C84.8648 44.2489 81.852 45.2864 79.2158 47.267C76.7679 49.1533 74.9791 51.6999 74.3201 54.3408C73.661 56.8873 74.0376 59.3395 75.3557 61.0372C76.7679 62.8292 78.9334 63.7724 81.6637 63.6781C84.394 63.6781 87.3127 62.5463 89.7606 60.66C94.7505 56.6987 96.5393 50.4738 93.6207 46.7954C92.2084 45.192 90.043 44.2489 87.501 44.2489Z" fill="black"/>
<path d="M70.7426 36.1377C68.9538 37.5525 66.4118 37.1752 64.9995 35.4775C63.5873 33.6855 63.9639 31.1389 65.6586 29.7242C67.4474 28.3094 69.9894 28.6867 71.4017 30.3844C72.8139 32.1764 72.5315 34.723 70.7426 36.1377Z" fill="white"/>
<path d="M68.2948 37.741C68.1065 37.741 67.9182 37.741 67.7299 37.741C66.4119 37.5524 65.2821 36.8922 64.5289 35.8547C62.8342 33.7797 63.2108 30.6673 65.3762 28.9696C66.4119 28.1208 67.6358 27.8378 68.9539 27.9321C70.272 28.1208 71.4018 28.781 72.155 29.8185C73.0023 30.8559 73.2848 32.0821 73.1906 33.4025C73.0023 34.7229 72.3433 35.8547 71.3076 36.6092C70.3661 37.4581 69.3305 37.741 68.2948 37.741ZM68.2007 29.6298C67.4475 29.6298 66.7884 29.9128 66.2236 30.29C65.5645 30.8559 65.0938 31.6105 64.9996 32.4593C64.9055 33.3082 65.0938 34.157 65.6587 34.8172C66.2236 35.4774 66.9768 35.949 67.8241 36.0433C68.6714 36.1377 69.5188 35.949 70.1778 35.3831C70.8369 34.8172 71.3076 34.0627 71.4018 33.2139C71.4959 32.365 71.3076 31.5162 70.7427 30.8559C70.1778 30.1957 69.4246 29.7241 68.5773 29.6298C68.4831 29.6298 68.389 29.6298 68.2007 29.6298Z" fill="black"/>
<path d="M103.601 78.2971C101.812 79.7119 99.2701 79.3346 97.8579 77.6369C96.4457 75.8449 96.8223 73.2984 98.517 71.8836C100.212 70.4689 102.848 70.8461 104.26 72.5438C105.672 74.3358 105.39 76.8824 103.601 78.2971Z" fill="white"/>
<path d="M101.153 79.9005C99.7406 79.9005 98.2342 79.2403 97.2927 78.0142C96.4453 76.9767 96.1629 75.7506 96.257 74.4302C96.4453 73.1097 97.1044 71.9779 98.14 71.2234C99.1757 70.3745 100.4 70.0916 101.718 70.1859C103.036 70.3745 104.166 71.0348 104.919 72.0722C106.613 74.1472 106.237 77.2597 104.071 78.9573C103.224 79.6176 102.188 79.9005 101.153 79.9005ZM101.059 71.7893C100.305 71.7893 99.6464 72.0722 99.0815 72.4495C98.4225 73.0154 97.9517 73.7699 97.8576 74.6188C97.7634 75.4676 97.9517 76.3165 98.5166 76.9767C99.6464 78.3914 101.624 78.6744 103.036 77.5426C104.448 76.4108 104.73 74.4302 103.601 73.0154C103.036 72.3552 102.283 71.8836 101.435 71.7893C101.341 71.7893 101.247 71.7893 101.059 71.7893Z" fill="black"/>
<path d="M82.6994 61.1316C81.5696 60.943 80.534 60.3771 79.4983 59.2453L77.7095 60.66L76.6738 59.3396L78.4627 57.9249C77.8978 57.076 77.427 56.2272 77.1446 55.3783C76.8621 54.5295 76.6738 53.6806 76.768 53.0204L78.9334 52.4545C78.9334 53.1147 79.0276 53.7749 79.2159 54.5295C79.4042 55.284 79.7808 55.9442 80.1574 56.6044L83.3584 54.1522C82.9818 53.3033 82.6994 52.4545 82.5111 51.7943C82.3228 51.1341 82.3228 50.4739 82.5111 49.8136C82.6994 49.1534 83.076 48.5875 83.735 48.0216C84.5824 47.3614 85.5239 47.0785 86.6537 47.2671C87.7835 47.4557 88.8191 48.0216 89.8547 49.1534L91.6436 47.7387L92.6792 49.0591L90.8904 50.4738C91.3611 51.1341 91.6436 51.7943 91.926 52.4545C92.2085 53.1147 92.3968 53.7749 92.3968 54.4351L90.3255 55.001C90.1372 53.8692 89.7606 52.7374 89.1957 51.7943L85.9946 54.3408C86.3712 55.284 86.7478 56.0385 86.842 56.6987C87.0303 57.359 87.0303 58.0192 86.842 58.6794C86.6537 59.3396 86.2771 59.9998 85.618 60.4714C84.6765 61.0373 83.735 61.3202 82.6994 61.1316ZM84.8648 51.0397C84.8648 51.5113 84.959 51.9829 85.2414 52.6431L88.0659 50.4738C87.5952 50.0023 87.1244 49.7193 86.6537 49.625C86.1829 49.5307 85.8063 49.625 85.4297 50.0023C84.959 50.2852 84.7707 50.6625 84.8648 51.0397ZM82.6052 58.7737C83.076 58.868 83.4526 58.7737 83.8292 58.4908C84.2058 58.2078 84.3941 57.8305 84.3941 57.359C84.3941 56.8874 84.2058 56.3215 84.0175 55.7556L81.193 57.9249C81.6637 58.3964 82.1345 58.6794 82.6052 58.7737Z" fill="black"/>
<path d="M254.239 75.0617L197.198 155.718L232.538 180.799L289.578 100.143L254.239 75.0617Z" fill="white"/>
<path d="M232.774 181.951L196.149 155.92L254.145 73.9586L290.864 99.99L232.774 181.951ZM198.409 155.542L232.397 179.687L288.51 100.367L254.522 76.2222L198.409 155.542Z" fill="black"/>
<path d="M255.186 79.4329L201.684 155.087L231.723 176.406L285.225 100.752L255.186 79.4329Z" fill="white"/>
<path d="M231.926 177.518L200.575 155.259L254.993 78.2971L286.345 100.556L231.926 177.518ZM202.834 154.882L231.55 175.254L284.085 100.933L255.37 80.5607L202.834 154.882Z" fill="black"/>
<path d="M213.002 157.806L225.336 166.577C227.313 163.748 231.267 163.088 234.092 165.068L275.235 106.875C272.411 104.894 271.752 100.933 273.729 98.1036L261.395 89.3322C259.418 92.1616 255.464 92.8219 252.639 90.8412L211.496 149.035C214.321 151.015 215.074 154.976 213.002 157.806Z" fill="#005EB8"/>
<path d="M225.336 167.426C225.147 167.426 224.959 167.332 224.865 167.238L212.531 158.466C212.155 158.183 212.061 157.712 212.343 157.334C214.038 154.882 213.473 151.487 211.025 149.695C210.837 149.6 210.743 149.412 210.648 149.129C210.648 148.94 210.648 148.657 210.743 148.563L251.886 90.3697C251.98 90.1811 252.168 90.0867 252.451 89.9924C252.639 89.9924 252.922 89.9924 253.016 90.0867C254.24 90.9356 255.652 91.2185 257.064 91.0299C258.476 90.7469 259.794 89.9924 260.642 88.7663C260.736 88.5777 260.924 88.4834 261.207 88.389C261.395 88.389 261.677 88.389 261.772 88.4834L274.105 97.2548C274.293 97.3491 274.388 97.5377 274.482 97.8207C274.482 98.0093 274.482 98.2923 274.388 98.3866C273.54 99.6127 273.258 101.027 273.446 102.442C273.729 103.857 274.482 105.177 275.706 106.026C276.082 106.309 276.176 106.781 275.894 107.158L234.751 165.351C234.657 165.54 234.468 165.634 234.186 165.729C233.997 165.729 233.715 165.729 233.621 165.634C232.397 164.785 230.985 164.502 229.572 164.691C228.16 164.974 226.842 165.729 225.995 166.955C225.901 167.143 225.712 167.238 225.43 167.332C225.43 167.426 225.43 167.426 225.336 167.426ZM214.132 157.617L225.242 165.446C226.277 164.22 227.689 163.465 229.29 163.182C230.891 162.899 232.491 163.182 233.903 163.937L274.199 106.969C272.975 105.932 272.222 104.517 271.94 102.914C271.657 101.31 271.94 99.707 272.693 98.2923L261.583 90.464C260.548 91.6901 259.135 92.4446 257.535 92.7276C255.934 93.0105 254.334 92.7276 252.922 91.9731L212.626 148.94C215.073 151.11 215.732 154.694 214.132 157.617Z" fill="black"/>
<path d="M238.046 135.642C232.491 131.68 230.42 125.078 233.338 120.834C236.351 116.59 243.224 116.401 248.873 120.362C254.428 124.324 256.499 130.926 253.58 135.17C250.568 139.32 243.601 139.509 238.046 135.642Z" fill="white"/>
<path d="M246.331 139.226C243.318 139.226 240.211 138.188 237.481 136.208C234.657 134.227 232.585 131.492 231.644 128.474C230.702 125.455 230.985 122.532 232.585 120.268C235.786 115.647 243.318 115.364 249.25 119.608C255.181 123.852 257.347 130.926 254.146 135.547C252.545 137.811 249.909 139.131 246.708 139.226C246.614 139.226 246.519 139.226 246.331 139.226ZM240.494 118.287C237.764 118.287 235.41 119.325 233.998 121.306C232.68 123.098 232.397 125.55 233.244 128.096C234.092 130.737 235.975 133.189 238.517 134.981C241.059 136.773 243.977 137.717 246.708 137.622C249.344 137.528 251.509 136.49 252.828 134.698C255.558 130.831 253.581 124.701 248.308 121.023C245.86 119.136 243.036 118.287 240.494 118.287Z" fill="black"/>
<path d="M256.688 109.516C254.899 108.195 254.428 105.649 255.746 103.857C257.064 102.065 259.606 101.593 261.395 102.914C263.184 104.234 263.655 106.781 262.337 108.573C261.018 110.459 258.476 110.836 256.688 109.516Z" fill="white"/>
<path d="M259.041 111.119C258.1 111.119 257.064 110.836 256.217 110.176C254.051 108.573 253.486 105.555 255.087 103.385C255.84 102.348 256.97 101.593 258.288 101.405C259.606 101.216 260.83 101.499 261.96 102.254C262.996 103.008 263.749 104.14 263.937 105.46C264.125 106.781 263.843 108.007 263.09 109.139C262.054 110.365 260.548 111.119 259.041 111.119ZM257.158 108.856C258.571 109.893 260.642 109.516 261.677 108.101C262.148 107.347 262.337 106.498 262.242 105.649C262.054 104.8 261.583 104.046 260.924 103.574C260.171 103.102 259.324 102.914 258.476 103.008C257.629 103.197 256.876 103.668 256.405 104.329C255.369 105.838 255.652 107.818 257.158 108.856Z" fill="black"/>
<path d="M225.807 153.185C224.018 151.864 223.547 149.318 224.865 147.526C226.183 145.733 228.725 145.262 230.514 146.582C232.303 147.903 232.774 150.449 231.456 152.241C230.138 154.033 227.596 154.505 225.807 153.185Z" fill="white"/>
<path d="M228.16 154.788C227.125 154.788 226.183 154.505 225.336 153.845C224.3 153.09 223.547 151.958 223.359 150.638C223.17 149.318 223.453 148.091 224.206 146.96C224.959 145.922 226.089 145.168 227.407 144.979C228.725 144.79 229.949 145.073 231.079 145.828C233.244 147.431 233.809 150.449 232.209 152.619C231.456 153.656 230.326 154.411 229.008 154.599C228.725 154.788 228.443 154.788 228.16 154.788ZM228.16 146.677C227.972 146.677 227.784 146.677 227.595 146.771C226.748 146.96 225.995 147.431 225.524 148.091C225.053 148.846 224.865 149.695 224.959 150.544C225.148 151.392 225.618 152.147 226.277 152.619C227.031 153.09 227.878 153.279 228.725 153.184C229.573 152.996 230.326 152.524 230.797 151.864C231.267 151.11 231.456 150.261 231.361 149.412C231.173 148.563 230.702 147.808 230.043 147.337C229.478 146.865 228.819 146.677 228.16 146.677Z" fill="black"/>
<path d="M236.163 128.191C235.975 127.059 236.257 125.927 237.011 124.607L235.222 123.286L236.163 121.966L237.952 123.286C238.611 122.532 239.27 121.871 240.023 121.306C240.776 120.74 241.53 120.362 242.189 120.268L243.319 122.154C242.659 122.343 242.095 122.626 241.436 123.003C240.776 123.381 240.212 123.946 239.741 124.512L243.036 126.87C243.789 126.21 244.448 125.738 245.013 125.361C245.578 124.984 246.237 124.795 246.896 124.795C247.555 124.795 248.308 124.984 248.967 125.455C249.815 126.116 250.38 126.965 250.568 128.002C250.756 129.134 250.474 130.266 249.721 131.586L251.604 132.906L250.662 134.227L248.873 132.906C248.403 133.472 247.838 134.038 247.273 134.51C246.708 134.981 246.049 135.359 245.484 135.547L244.26 133.661C245.296 133.189 246.237 132.529 246.99 131.586L243.695 129.228C242.942 129.888 242.283 130.36 241.718 130.737C241.153 131.114 240.494 131.303 239.835 131.397C239.176 131.492 238.423 131.209 237.764 130.737C236.822 130.171 236.257 129.322 236.163 128.191ZM246.425 127.342C246.049 127.436 245.484 127.719 245.013 128.191L247.932 130.266C248.214 129.605 248.403 129.134 248.308 128.662C248.214 128.191 248.026 127.813 247.649 127.53C247.179 127.342 246.802 127.247 246.425 127.342ZM238.423 127.53C238.517 128.002 238.705 128.379 239.082 128.568C239.458 128.851 239.835 128.851 240.306 128.757C240.776 128.662 241.247 128.285 241.718 127.908L238.799 125.833C238.423 126.493 238.329 127.059 238.423 127.53Z" fill="black"/>
<path d="M28.7519 174.311C28.7519 174.311 23.5736 197.23 54.8313 207.982C54.8313 207.982 51.536 219.772 64.9052 217.791C64.9052 217.791 66.2233 247.218 104.071 239.39C104.071 239.39 110.944 250.142 126.573 240.71C126.573 240.71 162.162 279.569 201.328 214.207L28.7519 174.311Z" fill="black"/>
<path d="M153.029 252.971C138.813 252.971 128.739 243.917 126.479 241.653C118.382 246.369 112.639 245.709 109.156 244.294C106.143 243.068 104.448 241.087 103.695 240.239C90.7023 242.879 80.6284 241.37 73.5672 235.9C66.0352 230.052 64.4347 221.47 64.1522 218.734C60.1038 219.206 57.1852 218.357 55.3963 216.376C53.1367 213.83 53.5133 210.152 53.7958 208.548C37.7904 202.889 31.5765 193.929 29.2228 187.421C26.5866 180.253 27.8105 174.406 27.9047 174.123L28.093 173.368L28.8462 173.557L202.552 213.641L201.987 214.584C187.77 238.258 172.424 251.179 156.324 252.783C155.195 252.877 154.065 252.971 153.029 252.971ZM126.762 239.673L127.232 240.144C127.326 240.239 139.189 252.971 156.23 251.179C171.577 249.576 186.264 237.409 200.01 214.773L29.4111 175.349C29.2228 177.141 28.8462 181.668 30.8233 186.95C34.2127 195.91 42.592 202.984 55.1139 207.228L55.8671 207.511L55.6788 208.265C55.6788 208.265 54.4548 212.792 56.7144 215.339C58.2208 217.037 60.9511 217.603 64.8113 217.037L65.6586 216.942V217.886C65.6586 217.98 66.2235 228.355 74.5086 234.768C81.2874 240.05 91.0789 241.37 103.789 238.73L104.354 238.635L104.636 239.107C104.919 239.484 111.321 249.104 126.008 240.144L126.762 239.673Z" fill="black"/>
<path d="M130.81 204.681L134.105 263.818L115.464 235.806L118.382 215.905L114.805 215.245L111.886 231.561C111.886 231.561 96.5397 214.867 91.644 210.623L87.4072 211.283C87.4072 211.283 119.7 248.256 132.411 280.606V335.215H152.653L149.358 240.71L178.073 220.432L174.778 218.451L149.358 234.485L148.039 204.776H130.81V204.681Z" fill="white"/>
<path d="M153.5 335.97H131.657V280.7C119.135 248.916 87.1243 212.132 86.8419 211.755L85.9004 210.623L92.0201 209.68L92.3025 209.963C96.4451 213.547 107.837 225.808 111.509 229.769L114.334 214.207L119.512 215.15L116.499 235.523L133.258 260.894L130.151 203.832H149.075L150.393 232.976L175.06 217.414L179.861 220.243L150.487 240.993L153.5 335.97ZM133.258 334.272H151.805L148.51 240.239L176.566 220.432L174.777 219.395L148.604 235.9L147.286 205.53H131.657L135.046 266.836L114.616 235.994L117.44 216.565L115.463 216.188L112.356 233.353L111.227 232.127C111.038 231.939 96.4451 216.094 91.361 211.566L88.9132 211.944C94.3738 218.357 121.771 251.368 133.163 280.323L133.258 280.512V334.272Z" fill="black"/>
<path d="M65.4702 199.022C65.4702 199.022 16.8891 212.132 28.9402 155.92C28.9402 155.92 22.5381 150.827 28.7519 140.735C28.7519 140.735 10.1104 114.609 40.5206 96.3116C40.5206 96.3116 40.2382 48.9647 81.6639 52.1714C81.6639 52.1714 95.9746 33.874 113.675 38.1183C113.675 38.1183 128.644 11.3324 159.996 37.4581C159.996 37.4581 171.388 31.6104 175.625 43.0227C175.625 43.0227 183.816 38.1183 188.053 47.267C188.053 47.267 232.397 31.6104 232.774 79.9948C232.774 79.9948 246.143 80.938 242.848 94.9911C242.848 94.9911 251.698 96.9718 249.344 106.781C249.344 106.781 281.355 122.814 254.24 153.562C254.24 153.562 264.031 172.519 246.425 179.404C246.425 179.404 252.922 188.27 240.212 195.721C240.212 195.721 243.507 217.32 217.71 213.736C217.71 213.736 201.045 256.838 155.76 219.3C155.76 219.3 145.968 224.865 138.813 214.396C138.813 214.396 118.947 232.033 98.705 213.453C98.705 213.453 80.0634 217.037 75.5442 204.304C75.3559 204.021 69.8011 208.643 65.4702 199.022Z" fill="white"/>
<path d="M189.277 235.334C179.203 235.334 167.811 230.241 155.477 220.055C153.312 220.998 144.932 224.016 138.436 215.339C136.836 216.659 132.411 219.772 126.291 221.47C119.324 223.45 108.779 223.639 98.1402 214.113C96.9163 214.302 92.8678 214.867 88.4428 214.207C81.6641 213.264 77.0507 210.246 74.8853 205.247C74.0379 205.719 72.5316 206.19 70.8369 205.813C68.4831 205.247 66.506 203.266 64.9055 199.965C61.3278 200.814 44.2867 204.115 33.8362 194.212C26.1159 186.855 24.1388 174.028 27.9047 156.108C26.5866 154.693 22.5382 149.506 27.6223 140.64C26.21 138.377 20.2786 128.473 22.7265 116.967C24.4212 108.667 30.0702 101.499 39.5793 95.6513C39.6734 92.2559 40.5208 71.8836 53.5134 59.8111C60.4804 53.3032 69.8012 50.3794 81.1933 51.2283C82.1348 50.0965 85.5242 46.2295 90.5141 42.7398C98.046 37.4581 105.955 35.4774 113.204 37.0808C114.522 35.0058 119.983 27.3662 129.963 25.4799C139.095 23.7822 149.169 27.4605 159.996 36.4206C161.503 35.7604 165.928 34.157 170.165 35.7604C172.707 36.7978 174.684 38.7785 176.002 41.7966C177.32 41.2307 180.05 40.2875 182.875 41.1364C185.134 41.7966 187.017 43.4943 188.335 46.1352C192.007 45.0034 208.86 40.3819 221.005 48.9647C229.008 54.6237 233.15 64.7155 233.433 79.1459C235.128 79.4289 239.364 80.4664 242 83.9561C243.978 86.597 244.543 90.0867 243.695 94.3309C244.919 94.8025 247.461 95.9343 249.062 98.4808C250.38 100.65 250.756 103.197 250.191 106.309C252.734 107.724 263.184 114.232 265.444 125.644C267.138 134.321 263.655 143.753 255.087 153.562C256.029 155.637 259.324 163.559 256.594 170.727C255.087 174.689 252.074 177.707 247.461 179.687C248.12 181.008 249.156 183.554 248.591 186.761C247.838 190.251 245.296 193.363 240.965 196.098C241.153 198.173 241.436 205.247 236.54 210.152C232.586 214.113 226.372 215.622 218.087 214.584C216.768 217.603 210.272 230.901 196.432 234.58C194.173 234.957 191.725 235.334 189.277 235.334ZM155.76 218.074L156.23 218.451C171.294 230.901 184.758 235.806 196.15 232.788C210.743 229.015 216.957 213.358 216.957 213.264L217.145 212.698L217.804 212.792C225.901 213.924 231.927 212.604 235.504 208.925C240.494 203.832 239.364 195.815 239.364 195.721L239.27 195.155L239.741 194.872C243.978 192.42 246.426 189.496 247.085 186.384C247.838 182.705 245.766 179.782 245.766 179.687L245.107 178.838L246.049 178.461C250.662 176.669 253.675 173.84 255.181 170.067C258.006 162.616 253.581 153.845 253.487 153.75L253.204 153.279L253.581 152.901C262.054 143.281 265.444 134.227 263.843 125.927C261.489 113.854 249.062 107.441 248.873 107.441L248.309 107.158L248.497 106.498C249.156 103.668 248.873 101.216 247.744 99.3297C245.955 96.5002 242.66 95.6513 242.66 95.6513L241.906 95.4627L242.095 94.7082C243.036 90.6526 242.66 87.3515 240.871 84.8993C238.046 81.1266 232.774 80.655 232.774 80.655L232.021 80.5607V79.8062C231.926 65.5644 227.972 55.6611 220.252 50.2851C207.542 41.325 188.524 47.8329 188.335 47.9272L187.676 48.2101L187.394 47.5499C186.17 45.0034 184.569 43.4 182.592 42.7398C179.391 41.7023 176.19 43.5886 176.19 43.6829L175.343 44.1545L174.966 43.2114C173.836 40.1932 172.047 38.1183 169.694 37.2694C165.363 35.5717 160.467 38.1183 160.373 38.1183L159.902 38.4012L159.526 38.0239C148.793 29.1582 139.001 25.4799 130.245 27.0832C119.606 29.0639 114.334 38.3069 114.24 38.4012L113.957 38.9671L113.392 38.7785C96.5397 34.7229 82.4172 52.3601 82.2289 52.5487L81.9465 52.926H81.4757C70.3661 52.0771 61.4219 54.8123 54.6432 61.0372C41.274 73.487 41.2739 95.9343 41.2739 96.2172V96.6888L40.8974 96.9718C31.6707 102.536 26.1159 109.422 24.4212 117.438C21.8792 129.605 29.317 140.169 29.4111 140.263L29.6936 140.735L29.4111 141.206C23.668 150.544 29.1287 155.165 29.4111 155.354L29.7877 155.542L29.6936 156.014C25.9276 173.557 27.7164 186.007 35.0601 192.986C45.7931 203.172 64.9996 198.173 65.1879 198.173L65.847 197.985L66.1294 198.645C67.6358 201.852 69.3305 203.738 71.3076 204.21C73.2847 204.681 74.7911 203.455 74.8853 203.455L75.7326 202.701L76.1092 203.832C80.346 215.811 98.1402 212.509 98.3285 212.415L98.7051 212.321L98.9875 212.604C107.179 220.149 116.217 222.601 125.914 219.866C133.164 217.886 138.06 213.547 138.06 213.547L138.719 212.981L139.283 213.736C142.108 217.791 145.591 219.866 149.734 219.772C152.841 219.678 155.101 218.451 155.101 218.451L155.76 218.074Z" fill="black"/>
<path d="M203.493 157.146C203.493 172.236 191.254 184.498 176.19 184.498C161.126 184.498 148.887 172.236 148.887 157.146C148.887 142.055 161.126 129.794 176.19 129.794C191.254 129.794 203.493 142.055 203.493 157.146Z" fill="#FFD423"/>
<path d="M176.19 185.252C160.749 185.252 148.133 172.614 148.133 157.146C148.133 141.678 160.749 129.039 176.19 129.039C191.63 129.039 204.246 141.678 204.246 157.146C204.34 172.614 191.724 185.252 176.19 185.252ZM176.19 130.643C161.597 130.643 149.734 142.527 149.734 157.146C149.734 171.765 161.597 183.649 176.19 183.649C190.783 183.649 202.646 171.765 202.646 157.146C202.646 142.527 190.783 130.643 176.19 130.643Z" fill="black"/>
<path d="M196.338 157.146C196.338 168.275 187.3 177.33 176.19 177.33C165.08 177.33 156.042 168.275 156.042 157.146C156.042 146.016 165.08 136.962 176.19 136.962C187.3 136.962 196.338 146.016 196.338 157.146Z" fill="white"/>
<path d="M176.19 178.084C164.609 178.084 155.194 168.652 155.194 157.051C155.194 145.45 164.609 136.019 176.19 136.019C187.77 136.019 197.185 145.45 197.185 157.051C197.185 168.747 187.77 178.084 176.19 178.084ZM176.19 137.716C165.551 137.716 156.889 146.394 156.889 157.051C156.889 167.709 165.551 176.386 176.19 176.386C186.829 176.386 195.49 167.709 195.49 157.051C195.584 146.488 186.829 137.716 176.19 137.716Z" fill="black"/>
<path d="M182.027 164.785C180.991 165.823 179.485 166.389 177.414 166.577V169.596H175.248V166.672C173.93 166.577 172.706 166.389 171.576 165.917C170.447 165.54 169.505 165.068 168.752 164.408L169.976 161.767C170.635 162.333 171.388 162.71 172.33 163.088C173.271 163.465 174.213 163.654 175.248 163.748V158.466C174.024 158.183 172.989 157.806 172.141 157.429C171.294 157.051 170.635 156.58 170.07 155.825C169.505 155.165 169.223 154.222 169.223 153.09C169.223 151.675 169.788 150.449 170.823 149.412C171.859 148.374 173.365 147.808 175.342 147.62V144.602H177.508V147.526C178.543 147.62 179.485 147.714 180.426 147.997C181.368 148.28 182.215 148.657 182.874 149.129L181.745 151.77C180.426 151.015 179.014 150.544 177.414 150.355V155.731C178.732 156.014 179.767 156.391 180.615 156.674C181.462 157.051 182.121 157.523 182.78 158.278C183.345 158.938 183.628 159.881 183.628 161.013C183.628 162.616 183.063 163.842 182.027 164.785ZM173.271 154.411C173.742 154.788 174.401 155.071 175.248 155.354V150.638C174.307 150.732 173.648 151.11 173.271 151.487C172.8 151.958 172.612 152.43 172.612 153.09C172.612 153.562 172.895 154.033 173.271 154.411ZM179.579 162.899C180.05 162.522 180.238 161.956 180.238 161.39C180.238 160.824 179.956 160.258 179.485 159.975C179.014 159.598 178.355 159.315 177.414 159.032V163.748C178.449 163.559 179.108 163.371 179.579 162.899Z" fill="black"/>
<path d="M160.09 195.816C160.09 195.816 161.691 179.405 182.78 176.198C182.78 176.198 190.218 154.977 218.181 169.879L160.09 195.816Z" fill="white"/>
<path d="M160.937 193.835L159.337 193.458C159.337 193.269 160.373 189.591 163.668 185.535C166.681 181.857 172.33 177.235 182.121 175.632C182.874 173.934 185.699 168.181 192.383 165.351C198.786 162.71 206.6 163.465 215.732 167.709L215.073 169.218C206.412 165.163 198.974 164.408 193.042 166.86C185.981 169.784 183.439 176.575 183.439 176.669L183.251 177.141L182.78 177.235C164.703 179.876 160.937 193.741 160.937 193.835Z" fill="black"/>
<path d="M115.275 186.384C109.532 193.741 98.799 195.061 91.4554 189.308C84.1117 183.554 82.7936 172.802 88.5367 165.446C94.2798 158.089 105.013 156.769 112.357 162.522C119.7 168.275 121.018 179.027 115.275 186.384Z" fill="#FFD423"/>
<path d="M101.906 193.741C98.0458 193.741 94.1856 192.514 90.9846 189.968C87.2186 187.044 84.8648 182.8 84.2999 178.084C83.735 173.368 85.0531 168.652 87.9718 164.974C90.8904 161.201 95.1271 158.843 99.8346 158.278C104.542 157.712 109.25 159.032 112.921 161.956C120.642 167.992 121.96 179.216 115.934 186.95C112.356 191.383 107.178 193.741 101.906 193.741ZM101.906 159.692C97.1043 159.692 92.3968 161.862 89.1957 165.917C86.5595 169.313 85.3356 173.557 85.9005 177.895C86.4654 182.234 88.5367 186.007 91.9261 188.648C98.8931 194.118 109.155 192.892 114.616 185.912C120.077 178.933 118.853 168.652 111.886 163.182C108.873 160.824 105.389 159.692 101.906 159.692Z" fill="black"/>
<path d="M111.792 183.649C107.555 189.119 99.6464 190.062 94.1858 185.818C88.7251 181.574 87.7836 173.651 92.0203 168.181C96.2571 162.71 104.166 161.767 109.626 166.011C115.087 170.256 116.028 178.178 111.792 183.649Z" fill="white"/>
<path d="M101.906 189.308C98.9874 189.308 96.1629 188.365 93.715 186.478C90.8905 184.309 89.1017 181.102 88.7251 177.518C88.2543 173.934 89.29 170.444 91.4554 167.615C93.6209 164.785 96.8219 162.993 100.4 162.616C103.977 162.145 107.461 163.182 110.285 165.351C116.123 169.879 117.064 178.367 112.545 184.12C109.815 187.516 105.86 189.308 101.906 189.308ZM101.906 164.125C101.435 164.125 100.965 164.125 100.494 164.22C97.3868 164.597 94.5624 166.2 92.6794 168.652C90.7022 171.105 89.8549 174.217 90.2315 177.33C90.6081 180.442 92.2086 183.271 94.6565 185.158C99.7406 189.119 107.084 188.27 111.133 183.177C115.087 178.084 114.24 170.727 109.156 166.672C107.084 164.974 104.542 164.125 101.906 164.125Z" fill="black"/>
<path d="M101.812 181.951C100.871 182.045 99.929 181.762 98.8934 181.102L97.7636 182.517L96.7279 181.668L97.8577 180.253C97.2928 179.687 96.7279 179.122 96.3513 178.461C95.9747 177.801 95.6923 177.235 95.5981 176.669L97.1987 175.82C97.2928 176.292 97.5753 176.858 97.8577 177.424C98.1402 177.99 98.6109 178.461 98.9875 178.839L101.059 176.198C100.588 175.538 100.211 174.972 99.929 174.5C99.6466 174.028 99.5524 173.463 99.5524 172.897C99.5524 172.331 99.7407 171.765 100.211 171.199C100.776 170.539 101.53 170.067 102.377 169.973C103.318 169.879 104.26 170.161 105.296 170.822L106.425 169.313L107.461 170.161L106.331 171.576C106.802 171.953 107.179 172.425 107.555 172.897C107.932 173.368 108.214 173.934 108.308 174.406L106.708 175.255C106.331 174.311 105.86 173.557 105.107 172.897L103.036 175.538C103.507 176.198 103.977 176.764 104.166 177.235C104.448 177.707 104.542 178.273 104.636 178.839C104.636 179.404 104.448 179.97 103.977 180.536C103.413 181.385 102.659 181.857 101.812 181.951ZM101.53 173.463C101.624 173.84 101.812 174.217 102.189 174.689L103.977 172.331C103.507 172.048 103.036 171.953 102.659 171.953C102.283 171.953 102 172.142 101.718 172.425C101.53 172.708 101.435 173.085 101.53 173.463ZM101.341 180.065C101.718 180.065 102 179.876 102.283 179.593C102.471 179.31 102.565 178.933 102.471 178.65C102.377 178.273 102.189 177.895 101.812 177.424L100.023 179.687C100.494 179.876 100.965 180.065 101.341 180.065Z" fill="black"/>
<path d="M79.1221 188.647C79.1221 188.647 86.1833 181.196 97.7636 187.799C97.7636 187.799 109.532 180.253 117.535 198.362L79.1221 188.647Z" fill="white"/>
<path d="M116.028 196.947C113.392 191.666 110.097 188.553 106.331 187.516C101.812 186.29 98.2342 188.553 98.14 188.553L97.7634 188.836L97.2927 188.553C87.5011 183.083 80.7224 188.082 80.4399 188.27L79.4043 186.95C79.6867 186.667 87.1246 181.196 97.5751 186.855C98.7991 186.195 102.377 184.686 106.613 185.818C110.85 186.95 114.428 190.439 117.347 196.098L116.028 196.947Z" fill="black"/>
<path d="M103.224 113.383C95.3154 123.569 80.6281 125.267 70.4599 117.344C60.2918 109.422 58.5971 94.7082 66.5056 84.522C74.4142 74.3358 89.1015 72.6381 99.2696 80.5607C109.344 88.5776 111.132 103.291 103.224 113.383Z" fill="#FFD423"/>
<path d="M84.8649 123.192C79.6867 123.192 74.4143 121.494 69.9893 118.099C59.5387 109.893 57.6557 94.6139 65.8467 84.1447C74.0377 73.6756 89.2899 71.7893 99.7405 79.9948C110.191 88.2003 112.074 103.48 103.883 113.949C99.0815 119.985 92.0203 123.192 84.8649 123.192ZM84.8649 76.4108C78.1803 76.4108 71.5898 79.3346 67.1648 84.9936C59.5387 94.8025 61.2334 108.95 71.0249 116.684C75.1675 119.891 80.0633 121.494 84.8649 121.494C91.5495 121.494 98.14 118.57 102.565 112.911C110.191 103.102 108.496 88.9549 98.7049 81.2209C94.6564 78.0142 89.7607 76.4108 84.8649 76.4108Z" fill="black"/>
<path d="M98.4225 109.61C92.5852 117.156 81.758 118.382 74.2261 112.534C66.6941 106.686 65.4702 95.84 71.3074 88.2946C77.1447 80.7493 87.9719 79.5232 95.5038 85.3708C102.942 91.3128 104.26 102.159 98.4225 109.61Z" fill="white"/>
<path d="M84.8651 117.061C81.005 117.061 77.0507 115.835 73.7555 113.194C69.9895 110.176 67.5416 105.932 66.9767 101.122C66.4118 96.3116 67.7299 91.5958 70.6485 87.8231C73.6613 84.0505 77.898 81.5983 82.6997 81.0324C87.5013 80.4665 92.2088 81.7869 95.9747 84.7107C103.789 90.8413 105.201 102.254 99.0817 110.082C95.504 114.703 90.2316 117.061 84.8651 117.061ZM84.8651 82.5414C84.206 82.5414 83.547 82.5414 82.888 82.6357C78.5571 83.2016 74.697 85.3709 71.9666 88.8606C69.2363 92.3503 68.1065 96.5946 68.5772 101.027C69.1421 105.366 71.3076 109.327 74.7911 111.968C81.9465 117.533 92.2087 116.307 97.8577 109.139C103.413 101.971 102.189 91.6901 95.0332 86.0311C92.1146 83.7675 88.5369 82.5414 84.8651 82.5414Z" fill="black"/>
<path d="M84.7709 107.252C83.547 107.347 82.2289 106.969 80.7225 106.026L79.122 108.007L77.6156 106.875L79.2161 104.894C78.3688 104.14 77.7097 103.291 77.0507 102.442C76.4858 101.593 76.1092 100.744 75.9209 99.9899L78.1805 98.8582C78.3688 99.5184 78.6512 100.273 79.122 101.027C79.5927 101.782 80.0635 102.442 80.7225 103.008L83.547 99.4241C82.888 98.5752 82.3231 97.8207 81.9465 97.0661C81.5699 96.4059 81.3816 95.6514 81.3816 94.8969C81.3816 94.1423 81.664 93.3878 82.2289 92.5389C82.9821 91.5958 84.0177 91.0299 85.2417 90.9356C86.4656 90.8412 87.7837 91.2185 89.2901 92.1617L90.8906 90.181L92.397 91.3128L90.7965 93.2935C91.4556 93.8594 92.0205 94.5196 92.4912 95.1798C92.9619 95.84 93.3385 96.5946 93.5268 97.2548L91.3614 98.4809C90.8906 97.2548 90.1375 96.123 89.196 95.2741L86.3715 98.8582C87.0305 99.707 87.5954 100.556 87.972 101.216C88.3486 101.876 88.5369 102.631 88.5369 103.385C88.5369 104.14 88.2545 104.894 87.6896 105.743C86.9364 106.592 85.9949 107.158 84.7709 107.252ZM84.3943 95.5571C84.4885 96.0287 84.7709 96.5946 85.2417 97.2548L87.6896 94.048C87.0305 93.6707 86.3715 93.4821 85.9007 93.5764C85.3358 93.6707 84.9592 93.8594 84.5826 94.2366C84.3002 94.7082 84.206 95.0855 84.3943 95.5571ZM84.1119 104.611C84.5826 104.611 85.0534 104.329 85.3358 103.951C85.6183 103.574 85.7124 103.102 85.6183 102.631C85.5241 102.159 85.1475 101.593 84.7709 100.933L82.3231 104.14C82.9821 104.517 83.547 104.706 84.1119 104.611Z" fill="black"/>
<path d="M53.6074 116.495C53.6074 116.495 63.3048 106.309 79.2161 115.363C79.2161 115.363 95.3156 104.989 106.425 129.794L53.6074 116.495Z" fill="white"/>
<path d="M104.542 127.719C100.871 120.457 96.3514 116.024 91.079 114.515C84.771 112.817 79.6869 115.929 79.5928 116.024L79.2162 116.307L78.7455 116.024C65.1879 108.384 55.6788 115.364 55.3022 115.647L54.2666 114.326C54.3608 114.232 56.9969 112.251 61.422 111.308C65.3762 110.459 71.6842 110.27 79.1221 114.326C80.5343 113.572 85.5242 111.214 91.4556 112.911C97.1987 114.515 102.095 119.231 105.955 126.87L104.542 127.719Z" fill="black"/>
<path d="M226.936 116.024C218.84 123.569 206.223 123.097 198.692 114.986C191.16 106.875 191.63 94.2366 199.727 86.6913C207.824 79.146 220.44 79.6175 227.972 87.7288C235.504 95.7457 235.033 108.478 226.936 116.024Z" fill="#FFD423"/>
<path d="M213.379 122.154C213.096 122.154 212.814 122.154 212.626 122.154C207.071 121.966 201.893 119.608 198.127 115.458C194.361 111.402 192.384 106.026 192.572 100.462C192.76 94.8969 195.114 89.7095 199.256 85.9368C207.636 78.1085 220.911 78.5801 228.631 87.0686C236.446 95.4628 235.975 108.761 227.501 116.495C223.641 120.174 218.651 122.154 213.379 122.154ZM213.379 82.0698C208.671 82.0698 204.058 83.7675 200.292 87.1629C196.526 90.6526 194.361 95.3684 194.172 100.556C193.984 105.649 195.773 110.553 199.256 114.326C202.74 118.099 207.448 120.268 212.626 120.457C217.71 120.645 222.606 118.853 226.372 115.364C230.137 111.874 232.303 107.158 232.491 101.971C232.68 96.8775 230.891 91.973 227.407 88.2004C223.641 84.1448 218.557 82.0698 213.379 82.0698Z" fill="black"/>
<path d="M223.453 112.157C217.427 117.721 208.106 117.344 202.552 111.402C196.997 105.366 197.373 96.0287 203.305 90.464C209.33 84.8993 218.651 85.2766 224.206 91.2185C229.761 97.2548 229.384 106.592 223.453 112.157Z" fill="white"/>
<path d="M213.379 116.967C209.237 116.967 205 115.269 201.987 111.968C196.15 105.649 196.526 95.7458 202.834 89.8981C205.847 87.0686 209.896 85.5596 214.038 85.7482C218.181 85.9368 222.041 87.6345 224.865 90.747C230.703 97.0662 230.326 106.969 224.018 112.817C221.005 115.552 217.145 116.967 213.379 116.967ZM213.379 87.3516C209.801 87.3516 206.506 88.672 203.87 91.1242C201.14 93.6708 199.539 97.1605 199.445 100.839C199.351 104.612 200.669 108.101 203.211 110.836C208.483 116.495 217.333 116.778 222.982 111.591C228.631 106.309 228.914 97.4435 223.736 91.7845C221.194 89.0493 217.71 87.4459 214.038 87.3516C213.756 87.3516 213.567 87.3516 213.379 87.3516Z" fill="black"/>
<path d="M212.155 108.29C211.119 108.195 209.99 107.724 208.86 106.781L207.259 108.29L206.129 107.158L207.73 105.649C207.165 104.894 206.6 104.14 206.224 103.291C205.847 102.442 205.659 101.688 205.659 101.027L207.73 100.367C207.73 101.027 207.918 101.593 208.201 102.348C208.483 103.008 208.86 103.668 209.331 104.234L212.155 101.593C211.684 100.744 211.308 100.084 211.119 99.424C210.931 98.7638 210.837 98.1036 210.931 97.5377C211.025 96.8775 211.402 96.3116 211.967 95.6513C212.72 94.8968 213.661 94.6139 214.697 94.7082C215.733 94.8025 216.862 95.2741 217.898 96.2172L219.499 94.7082L220.628 95.84L219.028 97.349C219.499 97.9149 219.875 98.4808 220.252 99.1411C220.534 99.8013 220.817 100.461 220.911 101.027L218.934 101.782C218.651 100.65 218.181 99.6126 217.522 98.7638L214.603 101.405C215.074 102.253 215.45 103.008 215.639 103.574C215.827 104.234 215.921 104.8 215.827 105.46C215.733 106.12 215.356 106.781 214.791 107.347C214.132 108.007 213.191 108.384 212.155 108.29ZM213.379 98.3865C213.379 98.8581 213.567 99.3297 213.85 99.8956L216.392 97.5377C215.827 97.1604 215.356 96.8775 214.885 96.8775C214.415 96.8775 214.038 96.9718 213.756 97.349C213.473 97.632 213.379 97.9149 213.379 98.3865ZM211.967 106.026C212.437 106.026 212.814 105.932 213.097 105.649C213.379 105.366 213.567 104.989 213.473 104.517C213.473 104.046 213.285 103.574 212.908 102.914L210.366 105.272C211.025 105.743 211.496 105.932 211.967 106.026Z" fill="black"/>
<path d="M184.569 111.968C184.569 111.968 194.173 104.611 206.412 114.42C206.412 114.42 221.476 107.818 227.501 130.36L184.569 111.968Z" fill="white"/>
<path d="M226.089 128.379C223.924 121.777 220.722 117.438 216.486 115.458C211.496 113.194 206.694 115.175 206.6 115.175L206.129 115.364L205.753 115.081C195.302 106.781 186.452 111.402 186.075 111.591L185.322 110.176C185.416 110.082 195.302 104.894 206.412 113.477C207.824 113.006 212.343 111.779 217.145 113.949C221.852 116.118 225.336 120.74 227.595 127.813L226.089 128.379Z" fill="black"/>
<path d="M165.363 44.5318C158.961 53.5862 146.533 55.7555 137.495 49.342C128.456 42.9285 126.291 30.4787 132.693 21.4243C139.095 12.3699 151.523 10.2006 160.561 16.6141C169.6 23.0277 171.765 35.4775 165.363 44.5318Z" fill="#FFD423"/>
<path d="M148.981 53.7749C144.838 53.7749 140.601 52.5488 137.024 49.9079C132.504 46.7012 129.492 41.891 128.55 36.4207C127.609 30.9503 128.833 25.3856 132.034 20.8584C135.235 16.3312 140.036 13.3131 145.497 12.3699C150.958 11.4268 156.513 12.6529 161.032 15.8597C165.551 19.0664 168.564 23.8766 169.505 29.3469C170.447 34.8173 169.223 40.3819 166.022 44.9091C161.973 50.7568 155.477 53.7749 148.981 53.7749ZM149.075 13.6904C147.945 13.6904 146.909 13.7847 145.78 13.9733C140.695 14.8222 136.27 17.6517 133.352 21.8016C130.433 25.9515 129.209 31.0446 130.151 36.1377C130.998 41.2308 133.823 45.6637 137.965 48.5875C141.355 50.9454 145.215 52.0772 148.981 52.0772C155.006 52.0772 160.938 49.2477 164.704 43.966C167.622 39.816 168.846 34.723 167.905 29.6299C167.057 24.5368 164.233 20.1039 160.09 17.1801C156.795 14.9165 153.029 13.6904 149.075 13.6904Z" fill="black"/>
<path d="M161.126 41.5138C156.419 48.2102 147.192 49.8136 140.507 45.0035C133.823 40.2876 132.222 31.0446 137.024 24.3482C141.731 17.6517 150.958 16.0483 157.643 20.8584C164.233 25.5743 165.834 34.8173 161.126 41.5138Z" fill="white"/>
<path d="M148.981 48.5874C145.874 48.5874 142.767 47.6443 140.037 45.7579C132.975 40.7592 131.375 31.0446 136.271 23.9708C141.26 16.8971 150.958 15.2937 158.019 20.1982C165.08 25.197 166.681 34.9115 161.785 41.9853C158.678 46.2295 153.876 48.5874 148.981 48.5874ZM149.075 18.9721C144.65 18.9721 140.413 21.047 137.683 24.914C133.258 31.2332 134.764 40.0046 140.978 44.4375C147.286 48.8704 156.042 47.3613 160.467 41.1364C164.892 34.8172 163.386 26.0458 157.172 21.6129C154.63 19.8209 151.805 18.9721 149.075 18.9721Z" fill="black"/>
<path d="M149.263 40.0046C148.228 40.1933 147.004 39.9103 145.78 39.1558L144.556 40.9478L143.238 40.0046L144.462 38.2126C143.708 37.6467 143.049 36.8922 142.579 36.232C142.014 35.4774 141.731 34.8172 141.543 34.157L143.426 33.0252C143.614 33.5911 143.897 34.2513 144.273 34.8172C144.65 35.4774 145.121 35.949 145.78 36.4206L148.039 33.2138C147.38 32.4593 146.909 31.8934 146.533 31.3275C146.156 30.7616 145.968 30.1014 145.968 29.4412C145.968 28.781 146.156 28.1207 146.627 27.4605C147.192 26.6117 148.039 26.0458 149.075 25.9515C150.111 25.7628 151.24 26.0458 152.558 26.8003L153.782 25.0083L155.1 25.9515L153.877 27.7435C154.441 28.2151 154.912 28.6866 155.383 29.2525C155.854 29.8184 156.136 30.3843 156.419 30.9502L154.63 32.082C154.159 31.0446 153.5 30.1957 152.653 29.4412L150.393 32.6479C151.052 33.4025 151.523 33.9684 151.899 34.5343C152.276 35.1002 152.464 35.7604 152.464 36.4206C152.558 37.0808 152.276 37.741 151.805 38.4012C151.146 39.3444 150.299 39.9103 149.263 40.0046ZM148.416 30.1014C148.51 30.4787 148.792 30.9502 149.263 31.5161L151.24 28.6866C150.675 28.4037 150.111 28.3094 149.64 28.3094C149.169 28.4037 148.887 28.5923 148.604 28.9696C148.416 29.2525 148.322 29.6298 148.416 30.1014ZM148.604 37.8353C149.075 37.741 149.357 37.5524 149.64 37.1751C149.922 36.7979 149.922 36.4206 149.828 36.0433C149.734 35.6661 149.452 35.1945 148.981 34.6286L147.004 37.4581C147.569 37.741 148.133 37.9297 148.604 37.8353Z" fill="black"/>
<path d="M122.996 49.342C122.996 49.342 130.904 40.1933 144.932 47.267C144.932 47.267 158.302 37.7411 168.846 58.4907L122.996 49.342Z" fill="white"/>
<path d="M166.963 56.793C163.48 50.7567 159.431 47.1727 154.912 46.1352C149.546 44.9091 145.309 47.8329 145.215 47.9272L144.838 48.2102L144.367 48.0215C132.505 42.0796 124.69 48.3988 124.408 48.6817L123.372 47.4556C123.466 47.3613 132.034 40.2876 144.744 46.4182C146.062 45.6636 150.205 43.4943 155.289 44.7205C160.279 45.8523 164.704 49.7192 168.375 56.1327L166.963 56.793Z" fill="black"/>
<path d="M106.519 283.436H152.747C153.688 283.436 154.347 284.19 154.347 285.039V292.113C154.347 293.056 153.594 293.716 152.747 293.716H106.519C105.578 293.716 104.919 292.961 104.919 292.113V285.039C104.919 284.19 105.578 283.436 106.519 283.436Z" fill="#FFD423"/>
<path d="M152.747 294.565H106.519C105.201 294.565 104.071 293.433 104.071 292.113V285.039C104.071 283.718 105.201 282.587 106.519 282.587H152.747C154.065 282.587 155.194 283.718 155.194 285.039V292.113C155.194 293.433 154.065 294.565 152.747 294.565ZM106.519 284.284C106.048 284.284 105.672 284.662 105.672 285.133V292.207C105.672 292.679 106.048 293.056 106.519 293.056H152.747C153.217 293.056 153.594 292.679 153.594 292.207V285.133C153.594 284.662 153.217 284.284 152.747 284.284H106.519Z" fill="black"/>
<path d="M40.4264 283.53H86.6537C87.5952 283.53 88.2543 284.284 88.2543 285.133V292.207C88.2543 293.15 87.5011 293.81 86.6537 293.81H40.4264C39.4849 293.81 38.8258 293.056 38.8258 292.207V285.133C38.7317 284.284 39.4849 283.53 40.4264 283.53Z" fill="#FFD423"/>
<path d="M86.5596 294.659H40.4264C39.1083 294.659 37.9785 293.527 37.9785 292.207V285.133C37.9785 283.813 39.1083 282.681 40.4264 282.681H86.6538C87.9719 282.681 89.1017 283.813 89.1017 285.133V292.207C89.0075 293.527 87.9719 294.659 86.5596 294.659ZM40.4264 284.379C39.9557 284.379 39.5791 284.756 39.5791 285.228V292.301C39.5791 292.773 39.9557 293.15 40.4264 293.15H86.6538C87.1245 293.15 87.5011 292.773 87.5011 292.301V285.228C87.5011 284.756 87.1245 284.379 86.6538 284.379H40.4264Z" fill="black"/>
<path d="M23.1974 273.249H69.3306C70.2721 273.249 70.9311 274.004 70.9311 274.853V281.927C70.9311 282.87 70.1779 283.53 69.3306 283.53H23.1974C22.2559 283.53 21.5968 282.775 21.5968 281.927V274.853C21.5027 273.91 22.2559 273.249 23.1974 273.249Z" fill="#FFD423"/>
<path d="M69.3301 284.379H23.1969C21.8788 284.379 20.749 283.247 20.749 281.926V274.853C20.749 273.532 21.8788 272.401 23.1969 272.401H69.3301C70.6482 272.401 71.778 273.532 71.778 274.853V281.926C71.778 283.247 70.7424 284.379 69.3301 284.379ZM23.1969 274.004C22.7262 274.004 22.3496 274.381 22.3496 274.853V281.926C22.3496 282.398 22.7262 282.775 23.1969 282.775H69.3301C69.8009 282.775 70.1775 282.398 70.1775 281.926V274.853C70.1775 274.381 69.8009 274.004 69.3301 274.004H23.1969Z" fill="black"/>
<path d="M26.1157 262.875H72.343C73.2845 262.875 73.9436 263.629 73.9436 264.478V271.552C73.9436 272.495 73.1904 273.155 72.343 273.155H26.1157C25.1742 273.155 24.5151 272.4 24.5151 271.552V264.478C24.5151 263.629 25.1742 262.875 26.1157 262.875Z" fill="#FFD423"/>
<path d="M72.3432 274.004H26.1159C24.7978 274.004 23.668 272.872 23.668 271.552V264.478C23.668 263.157 24.7978 262.026 26.1159 262.026H72.3432C73.6613 262.026 74.7911 263.157 74.7911 264.478V271.552C74.697 272.966 73.6613 274.004 72.3432 274.004ZM26.1159 263.723C25.6451 263.723 25.2685 264.101 25.2685 264.572V271.646C25.2685 272.118 25.6451 272.495 26.1159 272.495H72.3432C72.814 272.495 73.1906 272.118 73.1906 271.646V264.572C73.1906 264.101 72.814 263.723 72.3432 263.723H26.1159Z" fill="black"/>
<path d="M26.1157 252.594H72.343C73.2845 252.594 73.9436 253.349 73.9436 254.197V261.271C73.9436 262.214 73.1904 262.874 72.343 262.874H26.1157C25.1742 262.874 24.5151 262.12 24.5151 261.271V254.197C24.5151 253.349 25.1742 252.594 26.1157 252.594Z" fill="#FFD423"/>
<path d="M72.3432 263.723H26.1159C24.7978 263.723 23.668 262.592 23.668 261.271V254.197C23.668 252.877 24.7978 251.745 26.1159 251.745H72.3432C73.6613 251.745 74.7911 252.877 74.7911 254.197V261.271C74.697 262.592 73.6613 263.723 72.3432 263.723ZM26.1159 253.443C25.6451 253.443 25.2685 253.82 25.2685 254.292V261.365C25.2685 261.837 25.6451 262.214 26.1159 262.214H72.3432C72.814 262.214 73.1906 261.837 73.1906 261.365V254.292C73.1906 253.82 72.814 253.443 72.3432 253.443H26.1159Z" fill="black"/>
<path d="M25.645 293.81H71.8723C72.8138 293.81 73.4729 294.565 73.4729 295.414V302.487C73.4729 303.431 72.7197 304.091 71.8723 304.091H25.645C24.7035 304.091 24.0444 303.336 24.0444 302.487V295.414C24.0444 294.565 24.7035 293.81 25.645 293.81Z" fill="#FFD423"/>
<path d="M71.7784 304.94H25.6451C24.3271 304.94 23.1973 303.808 23.1973 302.487V295.414C23.1973 294.093 24.3271 292.962 25.6451 292.962H71.8725C73.1906 292.962 74.3204 294.093 74.3204 295.414V302.487C74.2263 303.902 73.1906 304.94 71.7784 304.94ZM25.6451 294.659C25.1744 294.659 24.7978 295.036 24.7978 295.508V302.582C24.7978 303.053 25.1744 303.431 25.6451 303.431H71.8725C72.3433 303.431 72.7199 303.053 72.7199 302.582V295.508C72.7199 295.036 72.3433 294.659 71.8725 294.659H25.6451Z" fill="black"/>
<path d="M25.645 304.185H71.8723C72.8138 304.185 73.4729 304.94 73.4729 305.789V312.862C73.4729 313.805 72.7197 314.466 71.8723 314.466H25.645C24.7035 314.466 24.0444 313.711 24.0444 312.862V305.789C24.0444 304.845 24.7035 304.185 25.645 304.185Z" fill="#FFD423"/>
<path d="M71.7784 315.315H25.6451C24.3271 315.315 23.1973 314.183 23.1973 312.862V305.789C23.1973 304.468 24.3271 303.336 25.6451 303.336H71.8725C73.1906 303.336 74.3204 304.468 74.3204 305.789V312.862C74.2263 314.183 73.1906 315.315 71.7784 315.315ZM25.6451 304.94C25.1744 304.94 24.7978 305.317 24.7978 305.789V312.862C24.7978 313.334 25.1744 313.711 25.6451 313.711H71.8725C72.3433 313.711 72.7199 313.334 72.7199 312.862V305.789C72.7199 305.317 72.3433 304.94 71.8725 304.94H25.6451Z" fill="black"/>
<path d="M20.0903 314.466H66.3177C67.2591 314.466 67.9182 315.22 67.9182 316.069V323.143C67.9182 324.086 67.165 324.746 66.3177 324.746H20.0903C19.1488 324.746 18.4897 323.992 18.4897 323.143V316.069C18.4897 315.22 19.1488 314.466 20.0903 314.466Z" fill="#FFD423"/>
<path d="M66.3178 325.595H20.0905C18.7724 325.595 17.6426 324.463 17.6426 323.143V316.069C17.6426 314.749 18.7724 313.617 20.0905 313.617H66.3178C67.6359 313.617 68.7657 314.749 68.7657 316.069V323.143C68.7657 324.463 67.6359 325.595 66.3178 325.595ZM20.0905 315.315C19.6197 315.315 19.2431 315.692 19.2431 316.163V323.237C19.2431 323.709 19.6197 324.086 20.0905 324.086H66.3178C66.7886 324.086 67.1652 323.709 67.1652 323.237V316.163C67.1652 315.692 66.7886 315.315 66.3178 315.315H20.0905Z" fill="black"/>
<path d="M25.645 324.746H71.8723C72.8138 324.746 73.4729 325.501 73.4729 326.35V333.423C73.4729 334.367 72.7197 335.027 71.8723 335.027H25.645C24.7035 335.027 24.0444 334.272 24.0444 333.423V326.35C24.0444 325.501 24.7035 324.746 25.645 324.746Z" fill="#FFD423"/>
<path d="M71.7784 335.876H25.6451C24.3271 335.876 23.1973 334.744 23.1973 333.423V326.35C23.1973 325.029 24.3271 323.897 25.6451 323.897H71.8725C73.1906 323.897 74.3204 325.029 74.3204 326.35V333.423C74.2263 334.838 73.1906 335.876 71.7784 335.876ZM25.6451 325.595C25.1744 325.595 24.7978 325.972 24.7978 326.444V333.518C24.7978 333.989 25.1744 334.366 25.6451 334.366H71.8725C72.3433 334.366 72.7199 333.989 72.7199 333.518V326.444C72.7199 325.972 72.3433 325.595 71.8725 325.595H25.6451Z" fill="black"/>
<path d="M98.611 293.81H144.838C145.78 293.81 146.439 294.565 146.439 295.414V302.487C146.439 303.431 145.686 304.091 144.838 304.091H98.611C97.6695 304.091 97.0104 303.336 97.0104 302.487V295.414C96.9163 294.565 97.6695 293.81 98.611 293.81Z" fill="#FFD423"/>
<path d="M144.744 304.94H98.5167C97.1986 304.94 96.0688 303.808 96.0688 302.487V295.414C96.0688 294.093 97.1986 292.962 98.5167 292.962H144.744C146.062 292.962 147.192 294.093 147.192 295.414V302.487C147.192 303.902 146.156 304.94 144.744 304.94ZM98.6109 294.659C98.1401 294.659 97.7635 295.036 97.7635 295.508V302.582C97.7635 303.053 98.1401 303.431 98.6109 303.431H144.838C145.309 303.431 145.686 303.053 145.686 302.582V295.508C145.686 295.036 145.309 294.659 144.838 294.659H98.6109Z" fill="black"/>
<path d="M110.662 304.185H156.889C157.831 304.185 158.49 304.94 158.49 305.789V312.862C158.49 313.805 157.737 314.466 156.889 314.466H110.662C109.721 314.466 109.062 313.711 109.062 312.862V305.789C109.062 304.845 109.721 304.185 110.662 304.185Z" fill="#FFD423"/>
<path d="M156.889 315.315H110.662C109.344 315.315 108.214 314.183 108.214 312.862V305.789C108.214 304.468 109.344 303.336 110.662 303.336H156.889C158.207 303.336 159.337 304.468 159.337 305.789V312.862C159.337 314.183 158.207 315.315 156.889 315.315ZM110.662 304.94C110.191 304.94 109.814 305.317 109.814 305.789V312.862C109.814 313.334 110.191 313.711 110.662 313.711H156.889C157.36 313.711 157.736 313.334 157.736 312.862V305.789C157.736 305.317 157.36 304.94 156.889 304.94H110.662Z" fill="black"/>
<path d="M97.0102 314.466H143.238C144.179 314.466 144.838 315.22 144.838 316.069V323.143C144.838 324.086 144.085 324.746 143.238 324.746H97.0102C96.0687 324.746 95.4097 323.992 95.4097 323.143V316.069C95.4097 315.22 96.0687 314.466 97.0102 314.466Z" fill="#FFD423"/>
<path d="M143.238 325.595H97.0104C95.6923 325.595 94.5625 324.463 94.5625 323.143V316.069C94.5625 314.749 95.6923 313.617 97.0104 313.617H143.238C144.556 313.617 145.686 314.749 145.686 316.069V323.143C145.686 324.463 144.556 325.595 143.238 325.595ZM97.0104 315.315C96.5396 315.315 96.163 315.692 96.163 316.163V323.237C96.163 323.709 96.5396 324.086 97.0104 324.086H143.238C143.708 324.086 144.085 323.709 144.085 323.237V316.163C144.085 315.692 143.708 315.315 143.238 315.315H97.0104Z" fill="black"/>
<path d="M97.0102 324.746H143.238C144.179 324.746 144.838 325.501 144.838 326.35V333.423C144.838 334.367 144.085 335.027 143.238 335.027H97.0102C96.0687 335.027 95.4097 334.272 95.4097 333.423V326.35C95.4097 325.501 96.0687 324.746 97.0102 324.746Z" fill="#FFD423"/>
<path d="M143.238 335.876H97.0104C95.6923 335.876 94.5625 334.744 94.5625 333.423V326.35C94.5625 325.029 95.6923 323.897 97.0104 323.897H143.238C144.556 323.897 145.686 325.029 145.686 326.35V333.423C145.686 334.838 144.556 335.876 143.238 335.876ZM97.0104 325.595C96.5396 325.595 96.163 325.972 96.163 326.444V333.518C96.163 333.989 96.5396 334.366 97.0104 334.366H143.238C143.708 334.366 144.085 333.989 144.085 333.518V326.444C144.085 325.972 143.708 325.595 143.238 325.595H97.0104Z" fill="black"/>
<path d="M146.438 324.746H192.666C193.607 324.746 194.266 325.501 194.266 326.35V333.423C194.266 334.367 193.513 335.027 192.666 335.027H146.438C145.497 335.027 144.838 334.272 144.838 333.423V326.35C144.838 325.501 145.591 324.746 146.438 324.746Z" fill="#FFD423"/>
<path d="M192.666 335.876H146.439C145.121 335.876 143.991 334.744 143.991 333.423V326.35C143.991 325.029 145.121 323.897 146.439 323.897H192.666C193.984 323.897 195.114 325.029 195.114 326.35V333.423C195.114 334.838 193.984 335.876 192.666 335.876ZM146.439 325.595C145.968 325.595 145.591 325.972 145.591 326.444V333.518C145.591 333.989 145.968 334.366 146.439 334.366H192.666C193.137 334.366 193.513 333.989 193.513 333.518V326.444C193.513 325.972 193.137 325.595 192.666 325.595H146.439Z" fill="black"/>
<path d="M251.415 283.436H297.642C298.584 283.436 299.243 284.19 299.243 285.039V292.113C299.243 293.056 298.49 293.716 297.642 293.716H251.415C250.474 293.716 249.815 292.961 249.815 292.113V285.039C249.72 284.19 250.474 283.436 251.415 283.436Z" fill="#FFD423"/>
<path d="M297.548 294.565H251.321C250.003 294.565 248.873 293.433 248.873 292.113V285.039C248.873 283.718 250.003 282.587 251.321 282.587H297.548C298.866 282.587 299.996 283.718 299.996 285.039V292.113C299.996 293.433 298.961 294.565 297.548 294.565ZM251.415 284.284C250.944 284.284 250.568 284.662 250.568 285.133V292.207C250.568 292.679 250.944 293.056 251.415 293.056H297.642C298.113 293.056 298.49 292.679 298.49 292.207V285.133C298.49 284.662 298.113 284.284 297.642 284.284H251.415Z" fill="black"/>
<path d="M177.037 304.185H223.264C224.206 304.185 224.865 304.94 224.865 305.789V312.862C224.865 313.805 224.112 314.466 223.264 314.466H177.037C176.096 314.466 175.437 313.711 175.437 312.862V305.789C175.437 304.845 176.096 304.185 177.037 304.185Z" fill="#FFD423"/>
<path d="M223.17 315.315H176.943C175.625 315.315 174.495 314.183 174.495 312.862V305.789C174.495 304.468 175.625 303.336 176.943 303.336H223.17C224.488 303.336 225.618 304.468 225.618 305.789V312.862C225.618 314.183 224.583 315.315 223.17 315.315ZM177.037 304.94C176.566 304.94 176.19 305.317 176.19 305.789V312.862C176.19 313.334 176.566 313.711 177.037 313.711H223.265C223.735 313.711 224.112 313.334 224.112 312.862V305.789C224.112 305.317 223.735 304.94 223.265 304.94H177.037Z" fill="black"/>
<path d="M171.482 314.466H217.71C218.651 314.466 219.31 315.22 219.31 316.069V323.143C219.31 324.086 218.557 324.746 217.71 324.746H171.482C170.541 324.746 169.882 323.992 169.882 323.143V316.069C169.882 315.22 170.541 314.466 171.482 314.466Z" fill="#FFD423"/>
<path d="M217.616 325.595H171.388C170.07 325.595 168.94 324.463 168.94 323.143V316.069C168.94 314.749 170.07 313.617 171.388 313.617H217.616C218.934 313.617 220.064 314.749 220.064 316.069V323.143C220.064 324.463 219.028 325.595 217.616 325.595ZM171.482 315.315C171.012 315.315 170.635 315.692 170.635 316.163V323.237C170.635 323.709 171.012 324.086 171.482 324.086H217.71C218.181 324.086 218.557 323.709 218.557 323.237V316.163C218.557 315.692 218.181 315.315 217.71 315.315H171.482Z" fill="black"/>
<path d="M177.037 324.746H223.264C224.206 324.746 224.865 325.501 224.865 326.35V333.423C224.865 334.367 224.112 335.027 223.264 335.027H177.037C176.096 335.027 175.437 334.272 175.437 333.423V326.35C175.437 325.501 176.096 324.746 177.037 324.746Z" fill="#FFD423"/>
<path d="M223.17 335.876H176.943C175.625 335.876 174.495 334.744 174.495 333.423V326.35C174.495 325.029 175.625 323.897 176.943 323.897H223.17C224.488 323.897 225.618 325.029 225.618 326.35V333.423C225.618 334.838 224.583 335.876 223.17 335.876ZM177.037 325.595C176.566 325.595 176.19 325.972 176.19 326.444V333.518C176.19 333.989 176.566 334.366 177.037 334.366H223.265C223.735 334.366 224.112 333.989 224.112 333.518V326.444C224.112 325.972 223.735 325.595 223.265 325.595H177.037Z" fill="black"/>
<path d="M243.413 293.81H289.64C290.581 293.81 291.24 294.565 291.24 295.414V302.487C291.24 303.431 290.487 304.091 289.64 304.091H243.413C242.471 304.091 241.812 303.336 241.812 302.487V295.414C241.812 294.565 242.565 293.81 243.413 293.81Z" fill="#FFD423"/>
<path d="M289.64 304.94H243.413C242.095 304.94 240.965 303.808 240.965 302.487V295.414C240.965 294.093 242.095 292.962 243.413 292.962H289.64C290.958 292.962 292.088 294.093 292.088 295.414V302.487C292.088 303.902 290.958 304.94 289.64 304.94ZM243.413 294.659C242.942 294.659 242.565 295.036 242.565 295.508V302.582C242.565 303.053 242.942 303.431 243.413 303.431H289.64C290.111 303.431 290.487 303.053 290.487 302.582V295.508C290.487 295.036 290.111 294.659 289.64 294.659H243.413Z" fill="black"/>
<path d="M255.558 304.185H301.785C302.727 304.185 303.386 304.94 303.386 305.789V312.862C303.386 313.805 302.632 314.466 301.785 314.466H255.558C254.616 314.466 253.957 313.711 253.957 312.862V305.789C253.863 304.845 254.616 304.185 255.558 304.185Z" fill="#FFD423"/>
<path d="M301.691 315.315H255.464C254.145 315.315 253.016 314.183 253.016 312.862V305.789C253.016 304.468 254.145 303.336 255.464 303.336H301.691C303.009 303.336 304.139 304.468 304.139 305.789V312.862C304.139 314.183 303.103 315.315 301.691 315.315ZM255.558 304.94C255.087 304.94 254.71 305.317 254.71 305.789V312.862C254.71 313.334 255.087 313.711 255.558 313.711H301.785C302.256 313.711 302.632 313.334 302.632 312.862V305.789C302.632 305.317 302.256 304.94 301.785 304.94H255.558Z" fill="black"/>
<path d="M241.906 314.466H288.134C289.075 314.466 289.734 315.22 289.734 316.069V323.143C289.734 324.086 288.981 324.746 288.134 324.746H241.906C240.965 324.746 240.306 323.992 240.306 323.143V316.069C240.212 315.22 240.965 314.466 241.906 314.466Z" fill="#FFD423"/>
<path d="M288.039 325.595H241.812C240.494 325.595 239.364 324.463 239.364 323.143V316.069C239.364 314.749 240.494 313.617 241.812 313.617H288.039C289.358 313.617 290.487 314.749 290.487 316.069V323.143C290.487 324.463 289.452 325.595 288.039 325.595ZM241.906 315.315C241.436 315.315 241.059 315.692 241.059 316.163V323.237C241.059 323.709 241.436 324.086 241.906 324.086H288.134C288.604 324.086 288.981 323.709 288.981 323.237V316.163C288.981 315.692 288.604 315.315 288.134 315.315H241.906Z" fill="black"/>
<path d="M241.906 324.746H288.134C289.075 324.746 289.734 325.501 289.734 326.35V333.423C289.734 334.367 288.981 335.027 288.134 335.027H241.906C240.965 335.027 240.306 334.272 240.306 333.423V326.35C240.212 325.501 240.965 324.746 241.906 324.746Z" fill="#FFD423"/>
<path d="M288.039 335.876H241.812C240.494 335.876 239.364 334.744 239.364 333.423V326.35C239.364 325.029 240.494 323.897 241.812 323.897H288.039C289.358 323.897 290.487 325.029 290.487 326.35V333.423C290.487 334.838 289.452 335.876 288.039 335.876ZM241.906 325.595C241.436 325.595 241.059 325.972 241.059 326.444V333.518C241.059 333.989 241.436 334.366 241.906 334.366H288.134C288.604 334.366 288.981 333.989 288.981 333.518V326.444C288.981 325.972 288.604 325.595 288.134 325.595H241.906Z" fill="black"/>
<path d="M142.014 291.547H43.3452V334.932H142.014V291.547Z" fill="white"/>
<path d="M142.861 335.781H42.4976V290.792H142.767V335.781H142.861ZM44.1923 334.178H141.26V292.396H44.1923V334.178Z" fill="black"/>
<path d="M139.001 294.848H46.4521V331.726H139.001V294.848Z" fill="white"/>
<path d="M139.754 332.48H45.6045V293.999H139.754V332.48ZM47.205 330.877H138.059V295.697H47.205V330.877Z" fill="black"/>
<path d="M134.576 320.879V305.694C131.092 305.694 128.268 302.865 128.268 299.375H57.0907C57.0907 302.865 54.2662 305.694 50.7827 305.694V320.879C54.2662 320.879 57.0907 323.709 57.0907 327.198H128.362C128.268 323.709 131.092 320.879 134.576 320.879Z" fill="#005EB8"/>
<path d="M128.268 327.953H57.0909C56.6202 327.953 56.2436 327.576 56.2436 327.104C56.2436 324.086 53.7957 321.634 50.7829 321.634C50.3121 321.634 49.9355 321.256 49.9355 320.785V305.6C49.9355 305.128 50.3121 304.751 50.7829 304.751C53.7957 304.751 56.2436 302.299 56.2436 299.281C56.2436 298.809 56.6202 298.432 57.0909 298.432H128.362C128.833 298.432 129.209 298.809 129.209 299.281C129.209 302.299 131.657 304.751 134.67 304.751C135.141 304.751 135.517 305.128 135.517 305.6V320.785C135.517 321.256 135.141 321.634 134.67 321.634C131.657 321.634 129.209 324.086 129.209 327.104C129.115 327.576 128.739 327.953 128.268 327.953ZM57.8441 326.35H127.515C127.891 323.048 130.527 320.502 133.729 320.125V306.449C130.433 306.072 127.891 303.431 127.515 300.224H57.8441C57.4675 303.525 54.8313 306.072 51.6302 306.449V320.03C54.8313 320.502 57.4675 323.048 57.8441 326.35Z" fill="black"/>
<path d="M102 313.24C102 320.125 97.8574 325.595 92.6792 325.595C87.501 325.595 83.3584 320.03 83.3584 313.24C83.3584 306.449 87.501 300.884 92.6792 300.884C97.8574 300.884 102 306.449 102 313.24Z" fill="white"/>
<path d="M92.6794 326.444C87.0304 326.444 82.5112 320.502 82.5112 313.24C82.5112 305.977 87.0304 300.035 92.6794 300.035C98.3283 300.035 102.848 305.977 102.848 313.24C102.848 320.596 98.3283 326.444 92.6794 326.444ZM92.6794 301.733C87.9719 301.733 84.1118 306.92 84.1118 313.334C84.1118 319.747 87.9719 324.935 92.6794 324.935C97.3868 324.935 101.247 319.747 101.247 313.334C101.247 306.92 97.3868 301.733 92.6794 301.733Z" fill="black"/>
<path d="M70.0837 313.051C70.0837 315.315 68.2948 317.107 66.0352 317.107C63.7757 317.107 61.9868 315.315 61.9868 313.051C61.9868 310.787 63.7757 308.995 66.0352 308.995C68.2007 308.995 70.0837 310.882 70.0837 313.051Z" fill="white"/>
<path d="M65.9407 317.955C63.2104 317.955 61.0449 315.786 61.0449 313.051C61.0449 310.316 63.2104 308.146 65.9407 308.146C68.671 308.146 70.8365 310.316 70.8365 313.051C70.8365 315.786 68.671 317.955 65.9407 317.955ZM65.9407 309.844C64.1519 309.844 62.7396 311.259 62.7396 313.051C62.7396 314.843 64.1519 316.258 65.9407 316.258C67.7295 316.258 69.1418 314.843 69.1418 313.051C69.1418 311.259 67.7295 309.844 65.9407 309.844Z" fill="black"/>
<path d="M123.466 313.051C123.466 315.315 121.677 317.107 119.418 317.107C117.158 317.107 115.369 315.315 115.369 313.051C115.369 310.787 117.158 308.995 119.418 308.995C121.583 308.995 123.466 310.882 123.466 313.051Z" fill="white"/>
<path d="M119.418 317.955C116.687 317.955 114.522 315.786 114.522 313.051C114.522 310.316 116.687 308.146 119.418 308.146C122.148 308.146 124.314 310.316 124.314 313.051C124.219 315.786 122.054 317.955 119.418 317.955ZM119.418 309.844C117.629 309.844 116.217 311.259 116.217 313.051C116.217 314.843 117.629 316.258 119.418 316.258C121.207 316.258 122.619 314.843 122.619 313.051C122.619 311.259 121.207 309.844 119.418 309.844Z" fill="black"/>
<path d="M97.1043 319.087C96.3511 319.842 95.1271 320.313 93.6207 320.502V322.766H91.926V320.502C90.8904 320.408 90.0431 320.219 89.1016 319.936C88.2542 319.653 87.501 319.276 87.0303 318.804L87.9718 316.729C88.4425 317.107 89.1016 317.484 89.7606 317.767C90.5138 318.05 91.1728 318.238 91.926 318.238V314.183C90.9845 313.994 90.1372 313.711 89.5723 313.428C88.9133 313.145 88.4425 312.768 87.9718 312.202C87.501 311.636 87.3127 310.976 87.3127 310.127C87.3127 308.995 87.6893 308.146 88.5367 307.392C89.2899 306.637 90.5138 306.166 91.926 305.977V303.714H93.6207V305.977C94.3739 305.977 95.1271 306.166 95.7862 306.354C96.5394 306.543 97.1043 306.826 97.6692 307.203L96.8218 309.278C95.7862 308.712 94.7505 308.335 93.5266 308.146V312.202C94.4681 312.391 95.3154 312.674 95.9745 312.957C96.6335 313.24 97.1043 313.617 97.575 314.183C98.0458 314.749 98.234 315.409 98.234 316.258C98.3282 317.39 97.8575 318.333 97.1043 319.087ZM90.5138 311.165C90.8904 311.448 91.3611 311.636 92.0202 311.825V308.241C91.3611 308.335 90.7962 308.524 90.5138 308.901C90.1372 309.184 90.0431 309.656 90.0431 310.127C89.9489 310.599 90.1372 310.882 90.5138 311.165ZM95.2213 317.672C95.5979 317.39 95.692 317.012 95.692 316.541C95.692 316.069 95.5037 315.692 95.1271 315.409C94.7505 315.126 94.2798 314.937 93.6207 314.749V318.333C94.3739 318.144 94.8447 317.955 95.2213 317.672Z" fill="black"/>
<path d="M237.387 246.652C237.387 266.27 253.298 282.209 272.882 282.209C292.465 282.209 308.376 266.27 308.376 246.652C308.376 227.034 292.465 211.095 272.882 211.095C253.298 211.095 237.387 227.034 237.387 246.652Z" fill="black"/>
<path d="M272.881 282.964C252.827 282.964 236.54 266.647 236.54 246.558C236.54 226.468 252.827 210.152 272.881 210.152C292.935 210.152 309.223 226.468 309.223 246.558C309.223 266.647 292.841 282.964 272.881 282.964ZM272.881 211.944C253.769 211.944 238.234 227.506 238.234 246.652C238.234 265.798 253.769 281.361 272.881 281.361C291.994 281.361 307.528 265.798 307.528 246.652C307.528 227.506 291.994 211.944 272.881 211.944Z" fill="black"/>
<path d="M243.789 246.652C243.789 266.27 259.7 282.209 279.283 282.209C298.866 282.209 314.778 266.27 314.778 246.652C314.778 227.034 298.866 211.095 279.283 211.095C259.606 211.095 243.789 227.034 243.789 246.652Z" fill="#FFD423"/>
<path d="M279.284 282.964C259.23 282.964 242.942 266.647 242.942 246.558C242.942 226.468 259.23 210.246 279.284 210.246C299.337 210.246 315.625 226.563 315.625 246.652C315.625 266.742 299.243 282.964 279.284 282.964ZM279.284 211.944C260.171 211.944 244.637 227.506 244.637 246.652C244.637 265.798 260.171 281.361 279.284 281.361C298.396 281.361 313.931 265.798 313.931 246.652C313.931 227.506 298.396 211.944 279.284 211.944Z" fill="black"/>
<path d="M253.016 246.652C253.016 261.177 264.784 272.872 279.189 272.872C293.688 272.872 305.363 261.083 305.363 246.652C305.363 232.222 293.594 220.432 279.189 220.432C264.784 220.338 253.016 232.127 253.016 246.652Z" fill="white"/>
<path d="M279.284 273.721C264.408 273.721 252.263 261.554 252.263 246.652C252.263 231.75 264.408 219.583 279.284 219.583C294.159 219.583 306.304 231.75 306.304 246.652C306.304 261.554 294.159 273.721 279.284 273.721ZM279.284 221.187C265.255 221.187 253.863 232.599 253.863 246.652C253.863 260.705 265.255 272.118 279.284 272.118C293.312 272.118 304.704 260.705 304.704 246.652C304.61 232.599 293.218 221.187 279.284 221.187Z" fill="black"/>
<path d="M286.815 256.65C285.403 257.97 283.426 258.725 280.884 259.008V262.875H278.059V259.008C276.365 258.913 274.764 258.536 273.258 258.064C271.751 257.593 270.528 256.933 269.68 256.084L271.187 252.594C272.034 253.254 273.07 253.914 274.294 254.386C275.517 254.858 276.741 255.141 278.059 255.235V248.35C276.459 247.973 275.047 247.501 274.011 247.029C272.881 246.558 272.034 245.898 271.281 244.954C270.528 244.011 270.151 242.879 270.151 241.37C270.151 239.484 270.81 237.881 272.222 236.56C273.54 235.24 275.517 234.485 278.154 234.202V230.335H280.978V234.202C282.296 234.297 283.52 234.485 284.744 234.863C285.968 235.24 287.098 235.711 287.945 236.277L286.533 239.767C284.744 238.729 282.955 238.164 280.978 237.881V244.86C282.673 245.237 283.991 245.709 285.121 246.181C286.25 246.652 287.098 247.312 287.851 248.255C288.604 249.199 288.981 250.33 288.981 251.84C288.887 253.726 288.228 255.329 286.815 256.65ZM275.423 243.068C275.988 243.54 276.93 243.917 277.965 244.2V238.069C276.836 238.258 275.894 238.635 275.329 239.201C274.764 239.767 274.482 240.427 274.482 241.276C274.576 241.936 274.858 242.596 275.423 243.068ZM283.614 254.197C284.179 253.632 284.462 252.971 284.462 252.217C284.462 251.462 284.179 250.802 283.52 250.33C282.861 249.859 282.014 249.482 280.884 249.104V255.235C282.108 255.046 283.049 254.669 283.614 254.197Z" fill="black"/>
<path d="M382.377 189.025C382.377 189.025 379.929 217.603 342.74 214.396L335.679 204.115L370.609 181.857L382.377 189.025Z" fill="#F59E32"/>
<path d="M348.483 215.433C346.6 215.433 344.623 215.339 342.646 215.15H342.27L334.549 203.832L370.609 180.914L383.225 188.648V189.119C383.225 189.591 382.189 200.06 373.056 207.699C366.937 212.887 358.652 215.433 348.483 215.433ZM343.211 213.547C357.898 214.773 369.196 210.906 375.787 202.418C380.118 196.947 381.247 191.1 381.436 189.402L370.609 182.706L336.809 204.21L343.211 213.547Z" fill="black"/>
<path d="M433.783 305.223C433.783 305.223 432.465 321.539 417.495 324.463L412.882 317.578L427.569 302.582L433.783 305.223Z" fill="#F59E32"/>
<path d="M417.118 325.406L411.846 317.578L427.38 301.639L434.63 304.657L434.536 305.223C434.536 305.411 434.159 309.561 431.9 314.088C428.887 320.125 423.897 323.992 417.495 325.312L417.118 325.406ZM413.917 317.767L417.777 323.614C423.426 322.388 427.757 318.899 430.393 313.428C431.994 310.127 432.653 307.015 432.747 305.694L427.663 303.525L413.917 317.767Z" fill="black"/>
<path d="M321.086 150.638L306.493 138L293.594 127.625L282.296 139.509C282.296 139.509 291.994 163.371 301.315 151.864L309.882 162.616L321.086 150.638Z" fill="white"/>
<path d="M309.788 163.842L301.22 153.184C299.243 155.259 297.172 156.108 294.912 155.825C287.569 154.788 281.731 140.452 281.449 139.886L281.261 139.414L293.406 126.587L306.964 137.434L322.216 150.638L309.788 163.842ZM301.315 150.544L309.882 161.296L319.862 150.638L305.834 138.565L293.5 128.662L283.144 139.697C284.179 142.149 289.358 153.279 295.101 154.128C296.984 154.411 298.773 153.467 300.561 151.298L301.315 150.544Z" fill="black"/>
<path d="M277.118 143.47C274.953 141.018 278.248 137.717 278.248 137.717C276.836 138.471 275.894 138.094 275.518 137.528C273.164 134.321 280.884 131.114 280.884 131.114C278.625 131.02 280.131 129.134 280.131 129.134C282.108 127.059 287.286 125.172 291.052 124.135C291.994 123.38 304.045 114.232 309.129 139.131C309.129 139.131 304.233 146.111 298.49 140.169C298.49 140.169 297.643 135.547 294.348 137.434C293.689 137.811 293.406 138.471 293.5 139.226C293.594 140.169 293.783 140.923 293.971 141.395C294.065 141.772 293.971 142.149 293.689 142.432C293.312 142.81 292.747 142.715 292.37 142.338L290.205 139.886C285.027 144.036 278.625 145.262 277.118 143.47Z" fill="black"/>
<path d="M419.096 309.75C419.096 309.75 425.121 321.445 425.121 325.784V329.839C425.121 329.839 419.472 331.065 418.625 334.838H433.595L440.468 317.955L429.735 304.374L419.096 309.75Z" fill="white"/>
<path d="M434.065 335.593H417.495L417.778 334.555C418.625 331.16 422.673 329.651 424.274 329.179V325.784C424.274 321.634 418.342 310.222 418.342 310.127L417.966 309.373L429.829 303.336L441.315 317.767L434.065 335.593ZM419.849 333.989H433.03L439.526 318.144L429.452 305.506L420.225 310.127C421.544 312.768 425.969 321.917 425.969 325.784V329.839H425.121L425.31 330.594C425.31 330.594 421.261 331.537 419.849 333.989Z" fill="black"/>
<path d="M376.54 201.474L391.227 256.084L434.63 304.751C434.63 304.751 418.437 308.146 417.307 325.312L373.621 274.004L356.957 247.878L376.54 201.474Z" fill="black"/>
<path d="M301.785 174.028L295.289 185.158L271.469 207.416L264.22 209.491C262.996 209.869 261.96 210.529 261.113 211.566L258.006 215.433C257.441 216.094 258.006 217.037 258.853 216.942L271.469 215.056C271.469 215.056 270.716 216.659 270.057 218.452C269.68 219.583 271.092 220.526 272.034 219.772L280.884 212.132L307.999 194.118L314.213 184.969L301.785 174.028Z" fill="white"/>
<path d="M271.281 220.621C270.904 220.621 270.527 220.526 270.151 220.243C269.398 219.772 269.021 218.829 269.303 217.886C269.586 217.131 269.868 216.376 270.057 215.811L258.947 217.508C258.194 217.603 257.535 217.32 257.158 216.659C256.782 215.999 256.876 215.245 257.346 214.679L260.453 210.812C261.395 209.68 262.619 208.926 263.937 208.454L270.998 206.473L294.63 184.498L301.597 172.614L315.248 184.498L308.564 194.401L281.355 212.415L272.504 220.055C272.222 220.526 271.751 220.621 271.281 220.621ZM272.881 213.83L272.222 215.245C272.222 215.245 271.469 216.848 270.904 218.546C270.81 218.829 270.998 218.923 271.092 219.017C271.186 219.112 271.375 219.206 271.563 219.017L280.507 211.283L307.434 193.363L313.177 184.969L302.067 175.349L295.948 185.724L295.854 185.818L271.94 208.171L264.502 210.34C263.466 210.623 262.525 211.283 261.771 212.132L258.665 215.999V216.094C258.665 216.188 258.759 216.188 258.759 216.188L272.881 213.83Z" fill="black"/>
<path d="M328.712 326.444C328.712 326.444 317.32 329.368 308.188 315.975L313.083 310.127L330.407 318.333L328.712 326.444Z" fill="#F59E32"/>
<path d="M325.888 327.576C324.758 327.576 323.251 327.481 321.651 327.104C317.885 326.255 312.33 323.614 307.434 316.541L307.058 316.069L312.707 309.184L331.16 317.861L329.277 327.198L328.806 327.293C328.806 327.293 327.77 327.576 325.888 327.576ZM309.223 316.069C316.849 326.915 325.887 326.161 328.053 325.784L329.465 318.804L313.366 311.165L309.223 316.069Z" fill="black"/>
<path d="M311.671 312.485C311.671 312.485 310.635 321.634 303.856 320.596C299.996 320.03 292.747 317.107 288.322 321.728L316.567 334.744L323.439 316.163L311.671 312.485Z" fill="white"/>
<path d="M316.943 335.876L286.91 322.011L287.757 321.162C291.711 317.107 297.36 318.333 301.503 319.276C302.444 319.464 303.292 319.653 303.951 319.747C305.457 319.936 306.681 319.653 307.717 318.804C310.353 316.824 310.824 312.296 310.824 312.296L310.918 311.353L324.381 315.598L316.943 335.876ZM289.734 321.539L316.002 333.706L322.31 316.729L312.33 313.617C312.048 315.22 311.106 318.427 308.752 320.219C307.34 321.351 305.645 321.728 303.668 321.445C302.915 321.351 301.974 321.162 301.126 320.974C297.643 320.125 293.029 319.087 289.734 321.539Z" fill="black"/>
<path d="M370.138 185.252C370.138 185.252 395.935 202.889 370.797 240.522L357.051 265.044L329.277 327.104C329.277 327.104 321.086 314.654 307.058 315.975C307.058 315.975 328.053 269.571 333.137 253.254C337.374 239.673 346.224 197.325 346.224 197.325L370.138 185.252Z" fill="black"/>
<path d="M381.436 188.082C381.436 188.082 352.061 188.082 342.269 213.264L316.19 183.554L312.236 189.402L298.208 176.669L305.08 157.429C305.08 157.429 309.976 161.013 313.271 142.715L326.923 143.47C333.043 143.847 338.88 146.394 343.305 150.732L381.436 188.082Z" fill="white"/>
<path d="M342.552 214.773L316.284 184.78L312.424 190.534L297.266 176.764L304.704 155.92L305.551 156.58C305.551 156.58 306.022 156.863 306.681 156.58C307.717 156.108 310.353 153.845 312.424 142.432L312.518 141.678L326.829 142.527C333.137 142.904 339.163 145.545 343.682 149.978L383.319 188.836H381.342C381.247 188.836 373.998 188.836 365.713 191.949C354.603 196.004 346.977 203.267 343.023 213.453L342.552 214.773ZM316.096 182.14L341.987 211.661C347.354 199.211 357.522 193.269 365.242 190.439C371.362 188.176 376.728 187.516 379.553 187.327L342.74 151.204C338.504 147.054 332.855 144.507 326.923 144.224L314.025 143.47C312.424 152.147 310.165 157.051 307.434 158.183C306.775 158.466 306.21 158.466 305.74 158.372L299.337 176.386L312.236 188.176L316.096 182.14Z" fill="black"/>
<path d="M319.768 175.915C319.768 175.915 326.64 170.35 340.951 172.331C340.951 172.331 340.951 176.952 329.842 179.499C329.842 179.593 322.686 180.159 319.768 175.915Z" fill="#F59E32"/>
<path d="M328.806 180.442C326.546 180.442 321.556 179.97 319.108 176.481L318.638 175.82L319.203 175.349C319.485 175.16 326.452 169.596 341.045 171.576L341.704 171.671V172.425C341.704 172.991 341.422 177.707 329.936 180.442H329.841C329.841 180.348 329.465 180.442 328.806 180.442ZM320.897 176.103C323.628 179.027 329.088 178.744 329.653 178.744C337.185 176.952 339.256 174.311 339.821 173.085C329.182 171.765 322.874 174.877 320.897 176.103Z" fill="black"/>
<path d="M336.997 172.048C336.997 172.048 332.102 171.859 328.43 172.425C322.969 173.274 319.297 175.632 319.297 175.632L321.274 185.158L300.091 212.981L291.617 212.132C290.958 212.038 290.299 212.132 289.64 212.415L283.144 214.773C282.297 215.245 282.485 216.471 283.332 216.754C287.381 218.074 295.76 220.715 300.75 220.809C302.162 220.809 303.48 220.338 304.516 219.3L335.397 190.439C336.903 189.025 337.751 186.95 337.656 184.875L336.997 172.048Z" fill="white"/>
<path d="M301.032 221.47H300.938C295.948 221.375 287.757 218.829 283.332 217.32C282.579 217.037 282.108 216.471 282.014 215.716C281.92 214.962 282.296 214.207 282.955 213.83L283.049 213.736L289.546 211.378C290.299 211.095 291.052 211.001 291.9 211.095L299.902 211.944L320.615 184.781L318.638 175.16L319.109 174.877C319.297 174.783 322.875 172.519 328.524 171.576C332.195 171.01 336.997 171.105 337.185 171.105H337.939L338.786 184.498C338.974 186.856 338.033 189.119 336.338 190.722L305.457 219.583C304.139 220.904 302.633 221.47 301.032 221.47ZM283.709 215.339C283.614 215.433 283.614 215.528 283.614 215.622C283.614 215.716 283.614 215.811 283.803 215.905C287.286 217.037 295.948 219.866 300.938 219.961C302.162 219.961 303.292 219.583 304.139 218.734L335.02 189.874C336.338 188.553 337.091 186.761 336.997 184.969L336.244 172.991C334.738 172.991 331.348 172.991 328.618 173.463C324.475 174.123 321.462 175.632 320.333 176.198L322.216 185.441L300.467 213.924L291.523 212.981C290.958 212.887 290.393 212.981 289.922 213.17L283.709 215.339Z" fill="black"/>
<path d="M362.229 257.404L360.817 256.555C375.598 230.996 380.023 218.263 380.023 218.169L381.53 218.734C381.53 218.829 377.105 231.75 362.229 257.404Z" fill="white"/>
<path d="M336.528 154.184L334.994 154.639L340.209 172.273L341.744 171.818L336.528 154.184Z" fill="black"/>
<path d="M316.903 163.673L315.357 164.091L318.624 176.201L320.17 175.783L316.903 163.673Z" fill="black"/>
<path d="M310.574 175.472L309.344 176.498L316.452 185.051L317.682 184.025L310.574 175.472Z" fill="black"/>
<path d="M445.457 334.178H0.130371V336.158H445.457V334.178Z" fill="black"/>
</svg>
