<svg width="205" height="91" viewBox="0 0 205 91" fill="none" xmlns="http://www.w3.org/2000/svg">
<path d="M25.0967 67.2889L18.3012 74.1614L7.99803 63.7434L25.0967 46.4433V67.2889Z" fill="white" stroke="#F2952E"/>
<path d="M25.0972 45.0208L18.3018 51.8933L8.00189 41.4754L25.0972 24.1786V45.0208Z" fill="white" stroke="#F2952E"/>
<path d="M7.99796 19.2074L25.0967 1.91038V22.7562L18.3012 29.6319L7.99796 19.2074Z" fill="white" stroke="#F2952E"/>
<path d="M7.2954 63.0327L0.5 56.1571V35.3111L17.5987 52.6049L7.2954 63.0327Z" fill="white" stroke="#F2952E"/>
<path d="M7.29869 40.7643L0.5 33.8885V13.0429L17.5987 30.3431L7.29869 40.7643Z" fill="white" stroke="#F2952E"/>
<path d="M7.29869 85.2941L0.5 78.4182V57.5792L17.5987 74.8729L7.29869 85.2941Z" fill="white" stroke="#F2952E"/>
<path d="M36.707 65.979C36.707 63.6819 37.2751 60.6031 37.8432 59.674H38.0326C39.6903 61.9711 43.1952 63.291 46.6967 63.291C50.0588 63.291 51.5272 61.9711 51.5272 58.8922C51.5272 56.5951 49.9192 55.4226 47.8329 54.6889L43.9493 53.3689C40.0657 51.8055 37.4612 49.5564 37.4612 44.1805C37.4612 38.8525 42.1022 35.0435 48.5405 35.0435C52.6135 35.0435 56.3077 35.9726 57.6333 36.7543C57.6333 39.2468 56.8758 41.1531 56.1184 42.2776H55.9788C55.032 41.5439 52.5205 39.8331 48.7332 39.8331C45.9858 39.8331 44.142 40.9577 44.142 43.2548C44.142 45.3564 44.8496 46.577 46.8861 47.4581L51.1484 48.9735C54.6533 50.1941 58.3475 52.3952 58.3475 57.9665C58.3475 64.467 53.3743 68.0841 46.5107 68.0841C42.4377 68.0807 38.9329 67.299 36.707 65.979Z" fill="white"/>
<path d="M62.9884 52.5876C62.9884 51.0722 62.9884 47.6506 62.4668 44.5752H69.2839V67.4949H62.9884V52.5876Z" fill="white"/>
<path d="M76.2911 52.5876C76.2911 51.0722 76.2911 47.6506 75.7695 44.5752H92.5796L92.2009 49.5568C91.3006 49.166 87.8921 48.9706 85.1911 48.9706H82.5866V53.7602H91.1112L91.3006 53.9556C91.3006 55.2756 90.9219 56.9864 90.1644 58.159H82.5899V63.0961H87.7525C89.9784 63.0961 91.8255 62.9006 92.9617 62.5098H93.151C93.151 64.6115 92.3936 66.5177 90.7358 67.4949H76.2911V52.5876Z" fill="white"/>
<path d="M104.134 53.7636L103.141 67.4949H97.4102L98.9251 48.0449V47.3112C98.9251 46.6289 98.8785 45.8437 98.6892 44.5752H105.745L112.659 60.8984L120.14 44.5752H126.818L128.286 67.4949H121.987L121.087 53.7636L114.599 67.4949H109.958L104.134 53.7636Z" fill="white"/>
<path d="M133.912 67.4946V52.5908C133.912 51.0754 133.912 47.6537 133.391 44.5784C134.813 44.3829 140.686 44.1875 143.005 44.1875C148.736 44.1875 152.427 46.2412 152.427 49.9543C152.427 52.5942 151.148 54.1576 149.111 55.0868C151.669 55.673 153.706 57.7747 153.706 60.4113C153.706 65.7872 148.922 68.0843 142.626 68.0843C140.54 68.0809 135.238 67.8854 133.912 67.4946ZM140.211 48.5314V53.8114C140.922 53.9108 141.772 53.9554 142.437 53.9554C144.663 53.9554 146.131 53.1257 146.131 50.8765C146.131 48.9703 144.473 48.384 142.39 48.384C141.726 48.384 140.922 48.4354 140.211 48.5314ZM140.211 57.7679V63.6821C140.968 63.8295 141.869 63.8775 142.812 63.8775C145.467 63.8775 147.217 62.9004 147.217 60.4078C147.217 58.3061 145.56 57.5724 142.812 57.5724C142.198 57.5724 141.111 57.6239 140.211 57.7679Z" fill="white"/>
<path d="M168.337 59.4312C167.912 59.4792 167.436 59.4792 167.011 59.4792L165.164 59.3798V67.4917H158.865V52.5879C158.865 51.0725 158.865 47.6508 158.344 44.5754C160.191 44.428 165.447 44.1846 167.955 44.1846C174.207 44.1846 178.087 46.6771 178.087 51.4667C178.087 54.3981 176.29 56.5478 173.778 57.8678L179.034 65.9797C179.459 66.614 179.602 67.1042 179.602 67.4951H173.114L168.337 59.4312ZM165.164 48.5319V55.5707C165.829 55.6187 166.49 55.6701 167.011 55.6701C170.088 55.6701 171.842 54.4976 171.842 51.6622C171.842 49.3651 170.327 48.3879 167.201 48.3879C166.633 48.3845 165.875 48.4359 165.164 48.5319Z" fill="white"/>
<path d="M189.888 44.9663C190.977 44.5754 194.482 44.1846 196.519 44.1846L205 67.4951H198.366L196.376 61.6323L188.326 61.9237L186.526 66.7134C186.336 67.2002 186.004 67.4951 185.247 67.4951H180.605L189.888 44.9663ZM189.888 57.8678L195.004 57.6724L192.635 50.685L189.888 57.8678Z" fill="white"/>
<path d="M164.221 19.5023C164.803 19.2041 166.072 18.9023 167.088 18.9023L173.384 36.7546L170.896 36.7581L168.756 30.6553L161.899 30.8816L159.833 36.3089C159.723 36.6072 159.577 36.7581 159.288 36.7581H157.438L164.221 19.5023ZM162.623 28.9719L168.102 28.7833L165.524 21.4086L162.623 28.9719Z" fill="white"/>
<path d="M181.705 21.2607H179.708V26.9521H186.529L186.675 27.0995C186.675 27.8469 186.386 28.4092 185.951 28.8583H179.712V30.6172C179.712 31.7794 179.712 34.3988 180.001 36.7542H177.316V25.3373C177.316 24.175 177.316 21.5556 177.027 19.1968H187.366L187.22 21.7065C186.532 21.4116 183.811 21.2607 181.705 21.2607Z" fill="white"/>
<path d="M191.246 25.3411C191.246 24.1788 191.246 21.5594 190.957 19.2006C192.263 19.0875 194.186 18.9023 196.07 18.9023C200.462 18.9023 202.997 20.9629 202.997 24.1823C202.997 28.2622 199.625 30.4702 195.924 30.4702C195.342 30.4702 194.362 30.3947 193.638 30.285V30.621C193.638 31.7833 193.638 34.4027 193.927 36.7581H191.243V25.3411H191.246ZM193.641 20.9629V28.3753C194.296 28.5605 195.276 28.7113 195.927 28.7113C198.684 28.7113 200.605 27.6245 200.605 24.4805C200.605 21.9709 199.189 20.6612 196.07 20.6612C195.346 20.6612 194.296 20.7743 193.641 20.9629Z" fill="white"/>
<path d="M98.6925 86.0051V76.9915C98.6925 76.0898 98.6925 74.5744 98.543 73.4053H100.55V86.0017H98.6925V86.0051Z" fill="white"/>
<path d="M103.253 86.0053C103.346 84.8533 103.346 83.6087 103.346 82.995V80.5985C103.346 80.0053 103.346 78.6442 103.18 77.4717H105V78.4488C105.482 77.9517 106.356 77.3174 107.638 77.3174C109.385 77.3174 110.405 78.2397 110.405 80.2693V82.9916C110.405 83.6053 110.405 84.8533 110.498 86.0018H108.641C108.734 84.8498 108.734 83.6053 108.734 82.9916V81.171C108.734 79.3094 108.306 78.6956 106.95 78.6956C106.15 78.6956 105.445 79.0591 105.037 79.3848V82.9882C105.037 83.6019 105.037 84.8876 105.13 85.9984H103.253V86.0053Z" fill="white"/>
<path d="M114.714 86.1968L111.834 77.4712H113.674L115.811 84.3556L116.349 83.0151C116.887 81.6917 117.631 79.9671 117.631 78.606C117.631 78.0883 117.445 77.742 117.259 77.6083C117.425 77.4369 117.761 77.3203 118.133 77.3203C118.784 77.3203 119.156 77.7043 119.156 78.6437C119.156 79.7168 118.116 81.8631 117.558 83.0905L116.239 86.0048L114.714 86.1968Z" fill="white"/>
<path d="M120.753 86.0055C120.846 84.8536 120.846 83.609 120.846 82.9953V80.5988C120.846 80.0056 120.846 78.6445 120.68 77.4719H122.537V82.9953C122.537 83.609 122.537 84.8947 122.63 86.0055H120.753ZM120.769 74.1943C120.769 73.5977 121.198 73.1006 121.753 73.1006C122.291 73.1006 122.739 73.5977 122.739 74.1943C122.739 74.8457 122.347 75.288 121.753 75.288C121.198 75.288 120.769 74.8457 120.769 74.1943Z" fill="white"/>
<path d="M124.578 81.9214C124.578 79.1409 126.233 77.3203 128.571 77.3203C130.558 77.3203 131.711 78.7191 131.711 80.6185C131.711 80.8311 131.694 81.174 131.598 81.4037C131.392 81.5168 130.854 81.5957 130.149 81.5957H126.302V81.9214C126.302 83.8962 127.326 84.8939 128.811 84.8939C130.036 84.8939 130.744 84.5476 131.209 84.1465C131.302 84.1465 131.375 84.2802 131.375 84.5099C131.375 84.8185 131.302 85.1442 131.246 85.2951C130.947 85.6036 130.076 86.2345 128.551 86.2345C126.14 86.2345 124.578 84.7602 124.578 81.9214ZM126.419 80.5774H130.04V80.2723C130.04 79.2746 129.595 78.4106 128.478 78.4106C127.402 78.4106 126.678 79.1786 126.419 80.5774Z" fill="white"/>
<path d="M133.716 86.0048C133.809 84.8528 133.809 83.6082 133.809 82.9945V80.598C133.809 80.0048 133.809 78.6437 133.643 77.4712H135.407L135.483 78.6814C135.819 78.1637 136.596 77.3203 137.453 77.3203C138.028 77.3203 138.363 77.4746 138.569 77.6666C138.569 78.2426 138.383 78.8186 137.902 79.182C137.51 79.182 137.417 78.8186 136.878 78.8186C136.36 78.8186 135.912 79.182 135.503 79.8334V82.9979C135.503 83.6116 135.503 84.8973 135.596 86.0082H133.716V86.0048Z" fill="white"/>
<path d="M139.28 77.6261C139.3 77.5301 139.337 77.4718 139.486 77.4718H140.121C140.137 76.9918 140.137 76.6284 140.157 76.4364C140.529 76.0147 141.569 75.593 141.735 75.5347C141.828 75.5347 141.901 75.5724 141.901 75.7267L141.828 77.4718H144.3C144.3 77.8764 144.19 78.4318 143.835 78.7198H141.792C141.735 80.3312 141.679 82.1894 141.679 83.3414C141.679 84.4934 141.881 84.8945 142.775 84.8945C143.386 84.8945 143.908 84.682 144.26 84.4145H144.353C144.353 84.8362 144.28 85.3711 144.094 85.7002C143.835 85.8922 143.184 86.2385 142.31 86.2385C140.878 86.2385 139.988 85.5288 139.988 83.7666C139.988 82.5769 140.024 80.41 140.081 78.7232H139.074L139.28 77.6261Z" fill="white"/>
<path d="M145.191 81.9214C145.191 79.1409 146.846 77.3203 149.185 77.3203C151.171 77.3203 152.324 78.7191 152.324 80.6185C152.324 80.8311 152.304 81.174 152.214 81.4037C152.008 81.5168 151.47 81.5957 150.766 81.5957H146.919V81.9214C146.919 83.8962 147.942 84.8939 149.427 84.8939C150.653 84.8939 151.361 84.5476 151.822 84.1465C151.915 84.1465 151.989 84.2802 151.989 84.5099C151.989 84.8185 151.915 85.1442 151.859 85.2951C151.563 85.6036 150.69 86.2345 149.165 86.2345C146.753 86.2345 145.191 84.7602 145.191 81.9214ZM147.032 80.5774H150.656V80.2723C150.656 79.2746 150.211 78.4106 149.095 78.4106C148.015 78.4106 147.291 79.1786 147.032 80.5774Z" fill="white"/>
<path d="M159.743 86.139V87.9218C159.743 88.5149 159.743 89.8212 159.836 90.9526H157.942C158.055 89.7835 158.055 88.5184 158.055 87.9218V80.5196C158.055 79.9231 158.055 78.5448 157.869 77.338H159.746V78.2945C160.155 77.8934 161.009 77.3174 162.105 77.3174C164.241 77.3174 165.653 78.6579 165.653 81.4385C165.653 84.4693 163.61 86.2315 161.082 86.2315C160.58 86.235 160.135 86.1972 159.743 86.139ZM163.925 81.5962C163.925 79.5836 162.886 78.6236 161.567 78.6236C160.879 78.6236 160.211 78.9494 159.746 79.2956V84.7607C160.082 84.9321 160.583 85.0281 161.122 85.0281C162.696 85.0281 163.925 83.8967 163.925 81.5962Z" fill="white"/>
<path d="M172.114 86.0052L172.004 85.1995C171.632 85.6418 170.871 86.2349 169.682 86.2349C168.193 86.2349 167.061 85.5835 167.061 83.9344C167.061 82.3641 168.453 81.5756 170.293 81.3664L171.928 81.195V80.5436C171.928 79.107 171.446 78.4933 170.256 78.4933C169.16 78.4933 168.456 79.1825 168.1 79.7962C167.728 79.7002 167.449 79.4328 167.449 78.9151C167.449 77.9174 169.027 77.3242 170.552 77.3242C172.486 77.3242 173.579 78.0922 173.579 79.9882C173.579 81.3493 173.506 82.6933 173.506 83.8796C173.506 84.4178 173.579 85.1824 173.805 86.0087H172.114V86.0052ZM171.928 84.3938V82.131L171.017 82.227C170.18 82.323 169.419 82.4567 169.011 82.6864C168.825 82.9161 168.659 83.2418 168.659 83.6841C168.659 84.5858 169.217 85.083 170.127 85.083C170.851 85.0864 171.409 84.7778 171.928 84.3938Z" fill="white"/>
<path d="M176.257 86.0048C176.35 84.8528 176.35 83.6082 176.35 82.9945V80.598C176.35 80.0048 176.35 78.6437 176.184 77.4712H177.948L178.021 78.6814C178.356 78.1637 179.137 77.3203 179.991 77.3203C180.565 77.3203 180.901 77.4746 181.104 77.6666C181.104 78.2426 180.918 78.8186 180.436 79.182C180.047 79.182 179.954 78.8186 179.413 78.8186C178.891 78.8186 178.446 79.182 178.037 79.8334V82.9979C178.037 83.6116 178.037 84.8973 178.13 86.0082H176.257V86.0048Z" fill="white"/>
<path d="M186.771 86.0052L186.658 85.1995C186.286 85.6418 185.525 86.2349 184.336 86.2349C182.848 86.2349 181.715 85.5835 181.715 83.9344C181.715 82.3641 183.107 81.5756 184.947 81.3664L186.582 81.195V80.5436C186.582 79.107 186.097 78.4933 184.911 78.4933C183.814 78.4933 183.11 79.1825 182.755 79.7962C182.383 79.7002 182.104 79.4328 182.104 78.9151C182.104 77.9174 183.682 77.3242 185.206 77.3242C187.14 77.3242 188.233 78.0922 188.233 79.9882C188.233 81.3493 188.16 82.6933 188.16 83.8796C188.16 84.4178 188.233 85.1824 188.459 86.0087H186.771V86.0052ZM186.585 84.3938V82.131L185.675 82.227C184.838 82.323 184.077 82.4567 183.668 82.6864C183.482 82.9161 183.316 83.2418 183.316 83.6841C183.316 84.5858 183.874 85.083 184.785 85.083C185.509 85.0864 186.064 84.7778 186.585 84.3938Z" fill="white"/>
<path d="M193.738 77.6261C193.755 77.5301 193.795 77.4718 193.944 77.4718H194.911C194.931 76.9918 194.931 76.6284 194.948 76.4364C195.32 76.0147 196.36 75.593 196.526 75.5347C196.619 75.5347 196.692 75.5724 196.692 75.7267L196.619 77.4718H199.09C199.09 77.8764 198.977 78.4318 198.625 78.7198H196.582C196.526 80.3312 196.473 82.1894 196.473 83.3414C196.473 84.4934 196.678 84.8945 197.569 84.8945C198.183 84.8945 198.702 84.682 199.057 84.4145H199.15C199.15 84.8362 199.077 85.3711 198.891 85.7002C198.632 85.8922 197.981 86.2385 197.107 86.2385C195.675 86.2385 194.785 85.5288 194.785 83.7666C194.785 82.5769 194.821 80.41 194.878 78.7232H193.539L193.738 77.6261Z" fill="white"/>
<path d="M200.628 86.005C200.721 84.8531 200.721 83.6085 200.721 82.9948V80.5983C200.721 80.0051 200.721 78.644 200.555 77.4715H202.412V82.9948C202.412 83.6085 202.412 84.8942 202.505 86.005H200.628ZM200.648 74.1938C200.648 73.5972 201.076 73.1001 201.631 73.1001C202.169 73.1001 202.614 73.5972 202.614 74.1938C202.614 74.8452 202.226 75.2875 201.631 75.2875C201.073 75.2875 200.648 74.8452 200.648 74.1938Z" fill="white"/>
</svg>
