<svg width="82" height="82" viewBox="0 0 82 82" fill="none" xmlns="http://www.w3.org/2000/svg">
<circle cx="41" cy="41" r="41" fill="#005EB8"/>
<g clip-path="url(#clip0_1144_230)">
<path d="M33.4889 45.0482H33.2852V43.1845C34.1679 42.3211 34.9063 41.1243 35.3985 39.5598H35.9587C37.2742 39.5598 38.3435 38.534 38.4539 37.2431L41.5347 33.4645H45.3284C45.6 33.4645 45.8461 33.3192 45.9734 33.0799L49.224 27.1983H55.5469C55.7675 27.1983 55.9712 27.1042 56.1155 26.9333L58.7974 23.7189L60.7325 22.6589C60.7155 22.9666 60.8768 23.2744 61.1823 23.4026C61.2756 23.4454 61.369 23.4625 61.4624 23.4625C61.7509 23.4625 62.031 23.2915 62.1498 23.0008L62.8373 21.3253C62.8542 21.2911 62.8627 21.2569 62.8712 21.2227C62.8967 21.1372 62.9052 21.0517 62.8967 20.9662C62.8882 20.8551 62.8542 20.7439 62.8033 20.6499C62.7524 20.5559 62.676 20.4704 62.5827 20.4105C62.5148 20.3593 62.4384 20.3251 62.3535 20.2994C62.3196 20.2909 62.2856 20.2823 62.2517 20.2823L60.4779 20.0088C60.079 19.9489 59.697 20.2225 59.6292 20.6328C59.5867 20.932 59.7225 21.2227 59.9686 21.3766L57.9657 22.4794C57.8808 22.5221 57.8129 22.5819 57.7535 22.6503L55.2074 25.7022H48.7996C48.528 25.7022 48.2819 25.8476 48.1546 26.0869L44.9041 31.9685H41.1952C40.9745 31.9685 40.7624 32.0711 40.6181 32.2421L37.9616 35.4992C37.5118 34.9007 36.8074 34.5075 36.0181 34.4904C36.0096 34.3707 35.9926 34.251 35.9756 34.1314C37.4439 31.6779 36.9517 29.9852 36.5188 29.1731C35.7465 27.754 34.0491 26.8991 32.2074 27.0273C30.9258 27.1128 29.5764 27.1555 28.3033 27.1555C25.6978 27.1555 23.6779 26.9675 22.9055 26.6597C22.6 26.5315 22.2435 26.6341 22.0399 26.8991C21.1232 28.113 20.7838 29.7202 21.0978 31.3188C21.3439 32.5755 21.972 33.6526 22.8037 34.3194C22.7952 34.3793 22.7867 34.4391 22.7867 34.499C21.4458 34.5502 20.3679 35.6616 20.3679 37.0294C20.3679 38.4314 21.4967 39.5684 22.8886 39.5684H23.4148C23.7458 40.6028 24.1871 41.5261 24.7557 42.304C24.9934 42.6289 25.248 42.911 25.5196 43.176V45.0482H25.3159C21.2845 45.0482 18 48.348 18 52.4087V60.2479C18 60.6582 18.331 61.0002 18.7469 61.0002H40.0749C40.4823 61.0002 40.8218 60.6668 40.8218 60.2479V52.4001C40.7963 48.348 37.5203 45.0482 33.4889 45.0482ZM33.4889 46.5442C33.8963 46.5442 34.2867 46.5869 34.6771 46.6639L32.6742 50.0834L30.9598 48.9122C31.9273 48.3651 32.6148 47.5615 33.0476 46.5442H33.4889ZM29.1605 53.426H29.6188L30.4081 59.5042H28.3712L29.1605 53.426ZM29.7207 51.9299H29.0502L28.5325 50.2458L29.3812 49.6645L30.2299 50.2458L29.7207 51.9299ZM36.9856 37.0208C36.9856 37.5936 36.5188 38.0638 35.9502 38.0638H35.755C35.8738 37.4226 35.9587 36.7302 35.9926 35.9864C36.5528 36.0121 36.9856 36.4652 36.9856 37.0208ZM22.9395 28.2327C24.3144 28.5746 26.5465 28.6516 28.2948 28.6516C29.5934 28.6516 30.9768 28.6088 32.2922 28.5233C33.5483 28.4464 34.7196 29.0021 35.2118 29.8997C35.6531 30.7118 35.5513 31.7548 34.9317 32.9516C31.1041 30.823 27.2764 30.8743 23.6184 33.0713C23.1092 32.6182 22.7188 31.8745 22.5491 31.0281C22.3454 30.0279 22.4897 29.0363 22.9395 28.2327ZM22.8716 38.0638C22.303 38.0638 21.8362 37.5936 21.8362 37.0208C21.8362 36.4823 22.252 36.0377 22.7697 35.9864C22.8037 36.7131 22.8886 37.4055 23.0074 38.0552L22.8716 38.0638ZM24.238 35.029C24.238 34.8238 24.255 34.6186 24.2804 34.422C27.6074 32.3703 31.0022 32.3789 34.4989 34.422C34.5244 34.6272 34.5498 34.8324 34.5498 35.029C34.5498 40.7652 31.8764 43.3726 29.3897 43.3726C26.9114 43.3811 24.238 40.7652 24.238 35.029ZM29.3897 44.8772C30.1959 44.8772 31.0192 44.6806 31.8 44.2788V45.6637C31.4266 46.7921 30.6373 47.553 29.3897 47.9633C28.1506 47.5444 27.3613 46.7921 26.9878 45.6637V44.2617C27.7432 44.6549 28.5579 44.8772 29.3897 44.8772ZM25.7487 46.5442C26.1816 47.5615 26.869 48.3651 27.8365 48.9122L26.1221 50.0834L24.1192 46.6639C24.5011 46.5869 24.9 46.5442 25.2989 46.5442H25.7487ZM19.4768 52.4087C19.4768 50.1176 20.7923 48.1343 22.6934 47.1683L25.248 51.5281C25.3498 51.7077 25.528 51.8359 25.7232 51.8786C25.7742 51.8872 25.8336 51.8957 25.8845 51.8957C26.0288 51.8957 26.1731 51.853 26.3004 51.7675L27.2594 51.1178L27.7601 52.7421L26.886 59.5042H24.5181V55.1614C24.5181 54.751 24.1871 54.4091 23.7712 54.4091C23.3554 54.4091 23.0244 54.7425 23.0244 55.1614V59.5042H19.4768V52.4087ZM39.3111 59.5042H35.7635V55.1614C35.7635 54.751 35.4325 54.4091 35.0166 54.4091C34.6007 54.4091 34.2697 54.7425 34.2697 55.1614V59.5042H31.9018L31.0277 52.7421L31.5284 51.1178L32.4875 51.7675C32.6148 51.853 32.759 51.8957 32.9033 51.8957C32.9542 51.8957 33.0137 51.8872 33.0646 51.8786C33.2683 51.8359 33.438 51.7077 33.5399 51.5281L36.0945 47.1683C37.9956 48.1343 39.3111 50.1176 39.3111 52.4087V59.5042Z" fill="white"/>
<path d="M63.2871 26.7878H58.9841C58.5767 26.7878 58.2373 27.1212 58.2373 27.54V44.971H57.5753C56.9387 44.4496 56.2088 44.0221 55.428 43.7229V29.8397C55.428 29.4293 55.097 29.0874 54.6812 29.0874H50.3867C49.9793 29.0874 49.6398 29.4208 49.6398 29.8397V43.7229C48.876 44.0307 48.1631 44.441 47.535 44.9539H46.8306V36.3026C46.8306 35.8922 46.4996 35.5503 46.0838 35.5503H41.7808C41.3734 35.5503 41.0339 35.8837 41.0339 36.3026V45.7062C41.0339 46.1166 41.3649 46.4585 41.7808 46.4585H46.1177C45.1502 47.7921 44.5646 49.4249 44.5646 51.2031C44.5646 55.6314 48.1461 59.2304 52.5424 59.2304C56.9387 59.2304 60.5118 55.6314 60.5118 51.2031C60.5118 49.4249 59.9347 47.7921 58.9587 46.4585H60.6561H63.2531C63.6605 46.4585 64 46.1251 64 45.7062V27.5315C64.0339 27.1212 63.6945 26.7878 63.2871 26.7878ZM51.1421 30.592H53.9513V43.2955C53.5015 43.2185 53.0432 43.1672 52.5679 43.1672C52.0756 43.1672 51.6004 43.2185 51.1421 43.304V30.592ZM42.5446 37.0548H45.3623V44.9625H42.5446V37.0548ZM52.5679 57.7344C48.9863 57.7344 46.0753 54.8021 46.0753 51.2031C46.0753 47.5955 48.9863 44.6633 52.5679 44.6633C56.1409 44.6633 59.052 47.5955 59.052 51.2031C59.052 54.8021 56.1409 57.7344 52.5679 57.7344ZM62.5487 44.9625H59.731V28.2838H62.5487V44.9625Z" fill="white"/>
<path d="M52.6783 50.4252C51.5155 50.2114 51.3288 49.7498 51.3967 49.1001C51.4901 48.4846 52.1775 48.1939 52.7716 48.2367C53.0347 48.2538 53.6543 48.3649 53.6628 48.9975C53.6712 49.4079 53.9938 49.7156 54.4181 49.7327C54.8255 49.7242 55.1565 49.3908 55.148 48.9719C55.131 47.8691 54.4096 47.0398 53.3063 46.8005V46.2619C53.3063 45.8516 52.9753 45.5096 52.5594 45.5096C52.1436 45.5096 51.8126 45.843 51.8126 46.2619V46.8518C50.896 47.1082 50.0812 47.7836 49.9115 48.9035C49.8181 49.8353 50.0048 51.4596 52.4321 51.8956C53.6967 52.0751 53.8665 52.6051 53.8665 53.1522C53.8665 53.3916 53.7901 53.5797 53.6373 53.7336C53.4081 53.9644 53.0093 54.1011 52.534 54.1011H52.5255C51.7277 54.1011 51.2524 53.6737 51.193 52.8958C51.1591 52.4854 50.8026 52.1777 50.3952 52.2033C49.9879 52.2375 49.6823 52.5966 49.7078 53.0069C49.8011 54.3063 50.6244 55.2381 51.8041 55.5031V56.1101C51.8041 56.5205 52.1351 56.8624 52.551 56.8624C52.9668 56.8624 53.2978 56.529 53.2978 56.1101V55.5031C53.8495 55.3835 54.3332 55.1441 54.6897 54.7851C55.1225 54.3491 55.3517 53.7763 55.3517 53.1437C55.3602 52.2803 55.0122 50.7586 52.6783 50.4252Z" fill="white"/>
<path d="M32.08 37.3626C32.1904 37.3626 32.3092 37.337 32.411 37.2857H32.4195C32.7845 37.0976 32.9287 36.6531 32.7505 36.2855C32.5638 35.9179 32.1225 35.764 31.749 35.9521C31.3841 36.1401 31.2313 36.5847 31.418 36.9523C31.5453 37.2087 31.7999 37.3626 32.08 37.3626Z" fill="white"/>
<path d="M27.1916 37.1745C27.5057 36.901 27.5311 36.4308 27.2595 36.1145C26.9879 35.8067 26.5212 35.7725 26.2071 36.0461C25.9016 36.3197 25.8676 36.7898 26.1392 37.0976C26.2835 37.2686 26.4957 37.3541 26.6994 37.3541C26.8691 37.3626 27.0474 37.3028 27.1916 37.1745Z" fill="white"/>
</g>
<defs>
<clipPath id="clip0_1144_230">
<rect width="46" height="41" fill="white" transform="translate(18 20)"/>
</clipPath>
</defs>
</svg>
