<svg width="1150" height="478" viewBox="0 0 1150 478" fill="none" xmlns="http://www.w3.org/2000/svg">
<path d="M40.9255 333.632L102.668 392.521L143.594 353.48V235.647L40.9255 333.632Z" fill="url(#paint0_linear_382_405)"/>
<path d="M40.944 215.8L102.668 274.689L143.594 235.647V117.833L40.944 215.8Z" fill="url(#paint1_linear_382_405)"/>
<path d="M143.594 0V117.833L102.668 156.893L40.9255 97.9671L143.594 0Z" fill="url(#paint2_linear_382_405)"/>
<path d="M0 176.74V294.573L40.9257 333.633L102.668 274.689L0 176.74Z" fill="url(#paint3_linear_382_405)"/>
<path d="M0 58.9077V176.74L40.9443 215.8L102.668 156.893L0 58.9077Z" fill="url(#paint4_linear_382_405)"/>
<path d="M0 294.572V412.369L40.9443 451.429L102.668 392.521L0 294.572Z" fill="url(#paint5_linear_382_405)"/>
<path d="M205.914 345.461C205.914 333.306 209.101 317.014 212.288 312.098H213.35C222.65 324.253 242.311 331.238 261.954 331.238C280.814 331.238 289.051 324.253 289.051 307.961C289.051 295.806 280.031 289.602 268.328 285.719L246.542 278.734C224.756 270.462 210.145 258.56 210.145 230.114C210.145 201.921 236.18 181.765 272.297 181.765C295.145 181.765 315.869 186.682 323.305 190.818C323.305 204.007 319.056 214.094 314.807 220.045H314.024C308.713 216.162 294.624 207.11 273.378 207.11C257.966 207.11 247.622 213.06 247.622 225.215C247.622 236.336 251.592 242.795 263.016 247.458L286.927 255.476C306.588 261.935 327.312 273.582 327.312 303.063C327.312 337.46 299.413 356.6 260.91 356.6C238.062 356.582 218.4 352.446 205.914 345.461Z" fill="white"/>
<path d="M353.347 274.598C353.347 266.579 353.347 248.473 350.422 232.2H388.664V353.479H353.347V274.598Z" fill="white"/>
<path d="M427.968 274.598C427.968 266.579 427.968 248.473 425.042 232.2H519.342L517.218 258.56C512.167 256.492 493.046 255.458 477.895 255.458H463.284V280.802H511.105L512.167 281.836C512.167 288.821 510.043 297.874 505.794 304.079H463.302V330.203H492.263C504.75 330.203 515.112 329.169 521.485 327.101H522.548C522.548 338.222 518.299 348.309 508.999 353.479H427.968V274.598Z" fill="white"/>
<path d="M584.16 280.82L578.588 353.479H546.44L554.938 250.559V246.677C554.938 243.067 554.677 238.912 553.615 232.2H593.199L631.981 318.574L673.95 232.2H711.41L719.647 353.479H684.312L679.262 280.82L642.865 353.479H616.83L584.16 280.82Z" fill="white"/>
<path d="M751.217 353.481V274.617C751.217 266.598 751.217 248.493 748.291 232.219C756.267 231.185 789.217 230.151 802.225 230.151C834.373 230.151 855.078 241.018 855.078 260.666C855.078 274.635 847.903 282.908 836.479 287.824C850.829 290.927 862.253 302.048 862.253 315.999C862.253 344.446 835.417 356.601 800.1 356.601C788.397 356.583 758.653 355.549 751.217 353.481ZM786.552 253.137V281.076C790.54 281.602 795.311 281.838 799.038 281.838C811.525 281.838 819.762 277.447 819.762 265.546C819.762 255.459 810.462 252.357 798.777 252.357C795.05 252.357 790.54 252.629 786.552 253.137ZM786.552 302.012V333.307C790.801 334.087 795.851 334.341 801.144 334.341C816.035 334.341 825.856 329.17 825.856 315.981C825.856 304.86 816.556 300.977 801.144 300.977C797.696 300.977 791.602 301.25 786.552 302.012Z" fill="white"/>
<path d="M944.328 310.809C941.942 311.063 939.277 311.063 936.892 311.063L926.53 310.537V353.461H891.195V274.598C891.195 266.579 891.195 248.473 888.269 232.2C898.631 231.419 928.114 230.131 942.185 230.131C977.258 230.131 999.026 243.321 999.026 268.665C999.026 284.177 988.943 295.552 974.854 302.536L1004.34 345.46C1006.72 348.817 1007.52 351.411 1007.52 353.479H971.127L944.328 310.809ZM926.53 253.135V290.381C930.257 290.635 933.966 290.907 936.892 290.907C954.149 290.907 963.989 284.703 963.989 269.699C963.989 257.544 955.491 252.374 937.954 252.374C934.767 252.355 930.518 252.628 926.53 253.135Z" fill="white"/>
<path d="M1065.22 234.268C1071.34 232.2 1091 230.131 1102.42 230.131L1150 353.479H1112.78L1101.62 322.456L1056.46 323.998L1046.36 349.343C1045.3 351.919 1043.44 353.479 1039.19 353.479H1013.15L1065.22 234.268ZM1065.22 302.536L1093.92 301.502L1080.64 264.529L1065.22 302.536Z" fill="white"/>
<path d="M921.238 99.5269C924.499 97.9486 931.618 96.3521 937.321 96.3521L972.637 190.818L958.678 190.836L946.676 158.543L908.211 159.74L896.619 188.459C896.004 190.038 895.184 190.836 893.562 190.836H883.182L921.238 99.5269ZM912.273 149.635L943.005 148.637L928.543 109.614L912.273 149.635Z" fill="#FEBD3B"/>
<path d="M1019.32 108.835H1008.12V138.95H1046.38L1047.2 139.731C1047.2 143.686 1045.58 146.661 1043.14 149.037H1008.14V158.344C1008.14 164.494 1008.14 178.355 1009.76 190.819H994.702V130.406C994.702 124.255 994.702 110.395 993.081 97.9131H1051.08L1050.26 111.193C1046.4 109.633 1031.14 108.835 1019.32 108.835Z" fill="#FEBD3B"/>
<path d="M1072.85 130.423C1072.85 124.273 1072.85 110.412 1071.22 97.9304C1078.55 97.3317 1089.34 96.3521 1099.91 96.3521C1124.54 96.3521 1138.76 107.255 1138.76 124.291C1138.76 145.88 1119.85 157.563 1099.09 157.563C1095.82 157.563 1090.33 157.164 1086.26 156.584V158.362C1086.26 164.512 1086.26 178.372 1087.88 190.836H1072.83V130.423H1072.85ZM1086.28 107.255V146.479C1089.95 147.458 1095.45 148.256 1099.1 148.256C1114.57 148.256 1125.34 142.505 1125.34 125.869C1125.34 112.589 1117.41 105.659 1099.91 105.659C1095.84 105.659 1089.95 106.258 1086.28 107.255Z" fill="#FEBD3B"/>
<path d="M553.633 451.429V403.734C553.633 398.963 553.633 390.944 552.795 384.757H564.051V451.411H553.633V451.429Z" fill="white"/>
<path d="M579.221 451.429C579.743 445.333 579.743 438.748 579.743 435.5V422.819C579.743 419.68 579.743 412.478 578.811 406.273H589.024V411.444C591.726 408.813 596.627 405.457 603.821 405.457C613.624 405.457 619.345 410.337 619.345 421.077V435.482C619.345 438.73 619.345 445.333 619.867 451.411H609.449C609.971 445.315 609.971 438.73 609.971 435.482V425.849C609.971 415.998 607.567 412.75 599.963 412.75C595.472 412.75 591.521 414.673 589.229 416.397V435.464C589.229 438.711 589.229 445.515 589.75 451.393H579.221V451.429Z" fill="white"/>
<path d="M643.516 452.444L627.359 406.273H637.683L649.666 442.702L652.686 435.609C655.705 428.606 659.879 419.48 659.879 412.278C659.879 409.538 658.836 407.706 657.792 406.999C658.724 406.091 660.606 405.475 662.693 405.475C666.346 405.475 668.433 407.507 668.433 412.477C668.433 418.156 662.6 429.513 659.469 436.008L652.071 451.428L643.516 452.444Z" fill="white"/>
<path d="M677.398 451.429C677.92 445.334 677.92 438.748 677.92 435.501V422.819C677.92 419.681 677.92 412.478 676.988 406.274H687.406V435.501C687.406 438.748 687.406 445.551 687.927 451.429H677.398ZM677.491 388.93C677.491 385.773 679.895 383.143 683.007 383.143C686.026 383.143 688.542 385.773 688.542 388.93C688.542 392.377 686.343 394.717 683.007 394.717C679.895 394.717 677.491 392.377 677.491 388.93Z" fill="white"/>
<path d="M698.848 429.821C698.848 415.108 708.129 405.475 721.249 405.475C732.394 405.475 738.861 412.877 738.861 422.927C738.861 424.052 738.767 425.866 738.227 427.082C737.072 427.681 734.052 428.098 730.102 428.098H708.52V429.821C708.52 440.271 714.261 445.55 722.591 445.55C729.468 445.55 733.437 443.718 736.047 441.595C736.568 441.595 736.978 442.303 736.978 443.519C736.978 445.151 736.568 446.875 736.252 447.673C734.574 449.306 729.692 452.644 721.137 452.644C707.607 452.644 698.848 444.843 698.848 429.821ZM709.173 422.71H729.486V421.095C729.486 415.816 726.989 411.244 720.727 411.244C714.689 411.244 710.626 415.308 709.173 422.71Z" fill="white"/>
<path d="M750.117 451.428C750.639 445.333 750.639 438.747 750.639 435.5V422.818C750.639 419.68 750.639 412.477 749.707 406.273H759.603L760.032 412.677C761.914 409.938 766.275 405.475 771.083 405.475C774.307 405.475 776.189 406.291 777.345 407.307C777.345 410.355 776.301 413.403 773.599 415.326C771.4 415.326 770.878 413.403 767.859 413.403C764.952 413.403 762.436 415.326 760.143 418.773V435.518C760.143 438.765 760.143 445.569 760.665 451.447H750.117V451.428Z" fill="white"/>
<path d="M781.333 407.09C781.445 406.582 781.65 406.274 782.489 406.274H786.048C786.142 403.734 786.142 401.811 786.253 400.795C788.341 398.563 794.174 396.332 795.106 396.023C795.628 396.023 796.038 396.223 796.038 397.039L795.628 406.274H809.493C809.493 408.414 808.878 411.353 806.884 412.877H795.423C795.106 421.404 794.789 431.237 794.789 437.333C794.789 443.429 795.926 445.551 800.939 445.551C804.368 445.551 807.294 444.426 809.269 443.011H809.791C809.791 445.243 809.381 448.073 808.338 449.815C806.884 450.831 803.231 452.663 798.33 452.663C790.298 452.663 785.303 448.908 785.303 439.583C785.303 433.287 785.508 421.821 785.825 412.896H780.178L781.333 407.09Z" fill="white"/>
<path d="M814.488 429.821C814.488 415.108 823.769 405.475 836.889 405.475C848.033 405.475 854.5 412.877 854.5 422.927C854.5 424.052 854.388 425.866 853.885 427.082C852.73 427.681 849.711 428.098 845.76 428.098H824.179V429.821C824.179 440.271 829.919 445.55 838.249 445.55C845.126 445.55 849.096 443.718 851.686 441.595C852.208 441.595 852.618 442.303 852.618 443.519C852.618 445.151 852.208 446.875 851.891 447.673C850.232 449.306 845.331 452.644 836.777 452.644C823.247 452.644 814.488 444.843 814.488 429.821ZM824.812 422.71H845.145V421.095C845.145 415.816 842.647 411.244 836.386 411.244C830.329 411.244 826.266 415.308 824.812 422.71Z" fill="white"/>
<path d="M896.116 452.137V461.57C896.116 464.709 896.116 471.621 896.637 477.608H886.015C886.648 471.422 886.648 464.727 886.648 461.57V422.402C886.648 419.245 886.648 411.952 885.605 405.566H896.134V410.628C898.427 408.505 903.216 405.457 909.366 405.457C921.349 405.457 929.27 412.551 929.27 427.264C929.27 443.301 917.809 452.626 903.626 452.626C900.812 452.645 898.315 452.445 896.116 452.137ZM919.579 428.098C919.579 417.449 913.746 412.369 906.347 412.369C902.489 412.369 898.743 414.093 896.134 415.925V444.843C898.017 445.751 900.831 446.259 903.85 446.259C912.683 446.259 919.579 440.272 919.579 428.098Z" fill="white"/>
<path d="M965.518 451.43L964.903 447.166C962.816 449.507 958.548 452.645 951.876 452.645C943.527 452.645 937.172 449.198 937.172 440.472C937.172 432.163 944.981 427.99 955.305 426.883L964.474 425.976V422.529C964.474 414.928 961.772 411.68 955.1 411.68C948.95 411.68 944.999 415.327 943.005 418.574C940.918 418.066 939.352 416.651 939.352 413.912C939.352 408.632 948.205 405.494 956.759 405.494C967.605 405.494 973.737 409.558 973.737 419.59C973.737 426.793 973.327 433.904 973.327 440.182C973.327 443.03 973.737 447.076 975.004 451.448H965.518V451.43ZM964.474 442.903V430.929L959.368 431.437C954.672 431.945 950.404 432.653 948.111 433.868C947.068 435.084 946.136 436.807 946.136 439.147C946.136 443.919 949.267 446.549 954.373 446.549C958.436 446.568 961.567 444.935 964.474 442.903Z" fill="white"/>
<path d="M988.757 451.428C989.279 445.333 989.279 438.747 989.279 435.5V422.818C989.279 419.68 989.279 412.477 988.347 406.273H998.243L998.653 412.677C1000.54 409.938 1004.91 405.475 1009.7 405.475C1012.93 405.475 1014.81 406.291 1015.95 407.307C1015.95 410.355 1014.9 413.403 1012.2 415.326C1010.02 415.326 1009.5 413.403 1006.46 413.403C1003.54 413.403 1001.04 415.326 998.746 418.773V435.518C998.746 438.765 998.746 445.569 999.268 451.447H988.757V451.428Z" fill="white"/>
<path d="M1047.74 451.43L1047.11 447.166C1045.02 449.507 1040.75 452.645 1034.08 452.645C1025.73 452.645 1019.38 449.198 1019.38 440.472C1019.38 432.163 1027.19 427.99 1037.51 426.883L1046.68 425.976V422.529C1046.68 414.928 1043.96 411.68 1037.3 411.68C1031.15 411.68 1027.2 415.327 1025.21 418.574C1023.12 418.066 1021.56 416.651 1021.56 413.912C1021.56 408.632 1030.41 405.494 1038.96 405.494C1049.81 405.494 1055.94 409.558 1055.94 419.59C1055.94 426.793 1055.53 433.904 1055.53 440.182C1055.53 443.03 1055.94 447.076 1057.21 451.448H1047.74V451.43ZM1046.7 442.903V430.929L1041.59 431.437C1036.9 431.945 1032.63 432.653 1030.33 433.868C1029.29 435.084 1028.36 436.807 1028.36 439.147C1028.36 443.919 1031.49 446.549 1036.6 446.549C1040.66 446.568 1043.77 444.935 1046.7 442.903Z" fill="white"/>
<path d="M1086.82 407.09C1086.92 406.582 1087.14 406.274 1087.98 406.274H1093.4C1093.51 403.734 1093.51 401.811 1093.61 400.795C1095.69 398.563 1101.53 396.332 1102.46 396.023C1102.98 396.023 1103.39 396.223 1103.39 397.039L1102.98 406.274H1116.85C1116.85 408.414 1116.21 411.353 1114.24 412.877H1102.78C1102.46 421.404 1102.16 431.237 1102.16 437.333C1102.16 443.429 1103.32 445.551 1108.31 445.551C1111.76 445.551 1114.67 444.426 1116.66 443.011H1117.18C1117.18 445.243 1116.77 448.073 1115.73 449.815C1114.27 450.831 1110.62 452.663 1105.72 452.663C1097.69 452.663 1092.69 448.908 1092.69 439.583C1092.69 433.287 1092.9 421.821 1093.21 412.896H1085.7L1086.82 407.09Z" fill="white"/>
<path d="M1125.47 451.429C1126 445.334 1126 438.748 1126 435.501V422.819C1126 419.681 1126 412.478 1125.06 406.274H1135.48V435.501C1135.48 438.748 1135.48 445.551 1136 451.429H1125.47ZM1125.59 388.93C1125.59 385.773 1127.99 383.143 1131.1 383.143C1134.12 383.143 1136.62 385.773 1136.62 388.93C1136.62 392.377 1134.44 394.717 1131.1 394.717C1127.97 394.717 1125.59 392.377 1125.59 388.93Z" fill="white"/>
<defs>
<linearGradient id="paint0_linear_382_405" x1="73.1735" y1="362.318" x2="157.063" y2="275.279" gradientUnits="userSpaceOnUse">
<stop stop-color="#F57F29"/>
<stop offset="1" stop-color="#FEBD3B"/>
</linearGradient>
<linearGradient id="paint1_linear_382_405" x1="70.5594" y1="245.498" x2="158.761" y2="158.344" gradientUnits="userSpaceOnUse">
<stop stop-color="#F57F29"/>
<stop offset="1" stop-color="#FEBD3B"/>
</linearGradient>
<linearGradient id="paint2_linear_382_405" x1="73.0233" y1="126.99" x2="160.248" y2="35.6642" gradientUnits="userSpaceOnUse">
<stop stop-color="#F57F29"/>
<stop offset="1" stop-color="#FEBD3B"/>
</linearGradient>
<linearGradient id="paint3_linear_382_405" x1="-15.2599" y1="215.83" x2="66.8422" y2="305.333" gradientUnits="userSpaceOnUse">
<stop stop-color="#FFE600"/>
<stop offset="1" stop-color="#FDB515"/>
</linearGradient>
<linearGradient id="paint4_linear_382_405" x1="-27.1858" y1="94.6476" x2="66.9299" y2="183.629" gradientUnits="userSpaceOnUse">
<stop stop-color="#FFE600"/>
<stop offset="1" stop-color="#FDB515"/>
</linearGradient>
<linearGradient id="paint5_linear_382_405" x1="-18.6048" y1="335" x2="70.3409" y2="425.519" gradientUnits="userSpaceOnUse">
<stop stop-color="#FFE600"/>
<stop offset="1" stop-color="#FDB515"/>
</linearGradient>
</defs>
</svg>
