<svg width="81" height="82" viewBox="0 0 81 82" fill="none" xmlns="http://www.w3.org/2000/svg">
<path d="M80 41C80 63.103 62.3037 81 40.5 81C18.6963 81 1 63.103 1 41C1 18.897 18.6963 1 40.5 1C62.3037 1 80 18.897 80 41Z" fill="#F4F5F5" stroke="#005EB8" stroke-width="2"/>
<path d="M62.7592 39.3637C61.783 38.6122 60.4601 38.5114 59.3836 39.1071L51.3915 43.4966C51.1634 43.6249 50.9171 43.6983 50.6525 43.7166L47.5141 43.964V43.9365C47.5141 42.1862 46.1547 40.7658 44.4121 40.7016L34.714 40.3259C33.7287 40.2892 32.7798 40.6833 32.1138 41.4256L28.6013 45.3111C28.2547 45.696 27.7529 45.916 27.2328 45.916H26.1015V44.3122C26.1015 43.8999 25.7731 43.5608 25.3534 43.5608H18.7481C18.3376 43.5608 18 43.8999 18 44.3122V60.2485C18 60.6609 18.3284 61 18.7481 61H25.3626C25.7731 61 26.1107 60.6609 26.1107 60.2485V58.7365H32.7798C33.1357 58.7365 33.4915 58.6815 33.829 58.5715L49.4209 53.403C49.7219 53.3022 50.0048 53.1647 50.2693 52.9814L62.6497 44.4222C63.48 43.8449 63.9726 42.9376 64 41.9296C64.0091 40.9124 63.5621 39.9776 62.7592 39.3637ZM24.6144 59.5063H19.4871V45.0637H24.6144V59.5063ZM61.7921 43.1942L49.4117 51.7535C49.2658 51.8543 49.1107 51.9276 48.9464 51.9826L33.3637 57.1511C33.1722 57.2152 32.9806 57.2427 32.7798 57.2427H26.1015V47.4189H27.2328C28.1726 47.4189 29.0666 47.0156 29.7053 46.3192L33.2178 42.4336C33.5827 42.0304 34.121 41.8105 34.6593 41.8288L44.3574 42.2045C45.2971 42.2412 46.027 43.0109 46.027 43.9457C46.027 44.8254 45.3701 45.5677 44.5034 45.6777L37.7886 46.5025C37.378 46.5483 37.0952 46.924 37.1408 47.3364C37.1864 47.7488 37.5605 48.0329 37.971 47.987L44.6858 47.1623C45.7441 47.034 46.6382 46.3925 47.1218 45.5036L50.7711 45.2195C51.2455 45.1828 51.6926 45.0454 52.1123 44.8163L60.1043 40.4267C60.6608 40.1151 61.3542 40.1701 61.8651 40.5641C62.2848 40.8849 62.5129 41.3706 62.5038 41.9021C62.4764 42.4153 62.2209 42.8918 61.7921 43.1942Z" fill="#005EB8"/>
<path d="M43.8189 38.7222C48.9553 38.7222 53.1338 34.525 53.1338 29.3657C53.1338 24.2063 48.9553 20 43.8189 20C38.6824 20 34.5039 24.1971 34.5039 29.3565C34.4948 34.525 38.6733 38.7222 43.8189 38.7222ZM43.8189 21.4937C48.1342 21.4937 51.6467 25.0219 51.6467 29.3565C51.6467 33.6911 48.1342 37.2193 43.8189 37.2193C39.5035 37.2193 35.991 33.6911 35.991 29.3565C35.991 25.0219 39.4944 21.4937 43.8189 21.4937Z" fill="#005EB8"/>
<path d="M41.0639 31.8583L39.7319 33.1962C40.6899 34.1768 41.8029 34.5525 43.2171 34.5892V36.1929H44.7133V34.525C46.5653 34.3051 47.8882 33.1871 47.8882 31.3726C47.8882 30.4379 47.6328 29.6772 47.0762 29.1457C46.6292 28.7333 46.0271 28.4584 45.0691 28.3118L44.5126 28.2202V25.6542C45.1147 25.7 45.8446 25.8925 46.3281 26.369L47.6328 25.0769C46.8299 24.3071 45.9176 23.9314 44.7224 23.8581V22.5293H43.2262V23.8672C41.3012 24.078 40.1516 25.3335 40.1516 27.0472C40.1516 27.9361 40.4071 28.6051 40.9088 29.1091C41.3559 29.5581 42.0584 29.8789 42.9525 29.998L43.4269 30.053V32.738C42.5237 32.7197 41.6843 32.4814 41.0639 31.8583ZM44.5126 30.1629C44.8958 30.2179 45.2698 30.2637 45.5618 30.5478C45.7807 30.7586 45.8902 31.0702 45.8902 31.4367C45.8902 32.1607 45.4067 32.6097 44.5126 32.7106V30.1629ZM42.4416 27.7253C42.2226 27.5145 42.1314 27.2396 42.1314 26.9647C42.1314 26.314 42.5602 25.7734 43.4178 25.6542V28.1377C42.9981 28.0827 42.6788 27.9544 42.4416 27.7253Z" fill="#005EB8"/>
</svg>
