<svg width="222" height="96" viewBox="0 0 222 96" fill="none" xmlns="http://www.w3.org/2000/svg">
<path d="M8.14844 66.4928L20.0536 78.2294L27.9449 70.4484V46.9644L8.14844 66.4928Z" fill="url(#paint0_linear_273_793)"/>
<path d="M8.15283 43.0089L20.0544 54.7454L27.9457 46.9644V23.4841L8.15283 43.0089Z" fill="url(#paint1_linear_273_793)"/>
<path d="M27.9449 0V23.484L20.0536 31.2686L8.14844 19.5248L27.9449 0Z" fill="url(#paint2_linear_273_793)"/>
<path d="M0.257812 35.2242V58.7082L8.14907 66.4928L20.0542 54.7454L0.257812 35.2242Z" fill="url(#paint3_linear_273_793)"/>
<path d="M0.257812 11.7402V35.2241L8.15267 43.0087L20.0542 31.2686L0.257812 11.7402Z" fill="url(#paint4_linear_273_793)"/>
<path d="M0.257812 58.708V82.1848L8.15267 89.9694L20.0542 78.2292L0.257812 58.708Z" fill="url(#paint5_linear_273_793)"/>
<path d="M39.9614 68.8501C39.9614 66.4276 40.5759 63.1807 41.1904 62.2009H41.3952C43.1884 64.6234 46.9795 66.0154 50.767 66.0154C54.4036 66.0154 55.9919 64.6234 55.9919 61.3765C55.9919 58.954 54.2527 57.7174 51.996 56.9436L47.7952 55.5516C43.5944 53.9028 40.7771 51.5309 40.7771 45.8615C40.7771 40.2427 45.7972 36.2257 52.7614 36.2257C57.167 36.2257 61.1629 37.2055 62.5967 38.0299C62.5967 40.6585 61.7774 42.6689 60.9581 43.8548H60.8071C59.783 43.081 57.0663 41.2768 52.9698 41.2768C49.998 41.2768 48.0036 42.4628 48.0036 44.8853C48.0036 47.1017 48.769 48.3889 50.9718 49.3181L55.5822 50.9163C59.3734 52.2035 63.3693 54.5247 63.3693 60.4003C63.3693 67.2556 57.9899 71.0702 50.5658 71.0702C46.1602 71.0666 42.3691 70.2422 39.9614 68.8501Z" fill="#005EB8"/>
<path d="M68.3894 54.7272C68.3894 53.1291 68.3894 49.5206 67.8252 46.2773H75.199V70.4483H68.3894V54.7272Z" fill="#005EB8"/>
<path d="M82.7771 54.7272C82.7771 53.1291 82.7771 49.5206 82.2129 46.2773H100.396L99.9862 51.531C99.0124 51.1188 95.3255 50.9127 92.404 50.9127H89.5867V55.9638H98.8075L99.0124 56.1699C99.0124 57.5619 98.6027 59.3662 97.7834 60.6027H89.5903V65.8094H95.1745C97.5822 65.8094 99.5801 65.6033 100.809 65.1911H101.014C101.014 67.4075 100.195 69.4178 98.4015 70.4483H82.7771V54.7272Z" fill="#005EB8"/>
<path d="M112.894 55.9674L111.82 70.4483H105.621L107.26 49.9364V49.1627C107.26 48.4431 107.209 47.6152 107.005 46.2773H114.637L122.115 63.4917L130.208 46.2773H137.431L139.019 70.4483H132.206L131.232 55.9674L124.214 70.4483H119.194L112.894 55.9674Z" fill="#005EB8"/>
<path d="M145.106 70.4483V54.7309C145.106 53.1327 145.106 49.5243 144.542 46.281C146.08 46.0749 152.433 45.8688 154.941 45.8688C161.14 45.8688 165.133 48.0346 165.133 51.9504C165.133 54.7345 163.749 56.3833 161.546 57.3631C164.313 57.9814 166.516 60.1978 166.516 62.9783C166.516 68.6477 161.341 71.0702 154.532 71.0702C152.275 71.0666 146.54 70.8605 145.106 70.4483ZM151.919 50.4499V56.0181C152.688 56.1229 153.608 56.1699 154.327 56.1699C156.735 56.1699 158.323 55.2949 158.323 52.923C158.323 50.9127 156.53 50.2944 154.277 50.2944C153.558 50.2944 152.688 50.3487 151.919 50.4499ZM151.919 60.1906V66.4277C152.739 66.5832 153.713 66.6338 154.733 66.6338C157.604 66.6338 159.498 65.6033 159.498 62.9747C159.498 60.7583 157.705 59.9845 154.733 59.9845C154.068 59.9845 152.893 60.0387 151.919 60.1906Z" fill="#005EB8"/>
<path d="M182.342 61.9441C181.882 61.9948 181.369 61.9948 180.909 61.9948L178.911 61.8899V70.4446H172.097V54.7272C172.097 53.1291 172.097 49.5206 171.533 46.2773C173.531 46.1218 179.216 45.8651 181.929 45.8651C188.692 45.8651 192.889 48.4937 192.889 53.5449C192.889 56.6363 190.945 58.9033 188.228 60.2954L193.913 68.8501C194.373 69.519 194.528 70.0361 194.528 70.4483H187.51L182.342 61.9441ZM178.911 50.4498V57.8729C179.629 57.9235 180.344 57.9777 180.909 57.9777C184.236 57.9777 186.133 56.7411 186.133 53.751C186.133 51.3284 184.495 50.298 181.113 50.298C180.499 50.2943 179.68 50.3486 178.911 50.4498Z" fill="#005EB8"/>
<path d="M205.653 46.6895C206.832 46.2773 210.623 45.8651 212.826 45.8651L222 70.4483H214.824L212.671 64.2654L203.965 64.5727L202.017 69.6239C201.812 70.1373 201.453 70.4483 200.633 70.4483H195.613L205.653 46.6895ZM205.653 60.2954L211.187 60.0893L208.625 52.7205L205.653 60.2954Z" fill="#005EB8"/>
<path d="M177.89 19.8358C178.519 19.5212 179.892 19.203 180.991 19.203L187.801 38.03L185.109 38.0336L182.795 31.5976L175.378 31.8363L173.143 37.5599C173.025 37.8745 172.866 38.0336 172.554 38.0336H170.552L177.89 19.8358ZM176.162 29.8223L182.087 29.6235L179.299 21.8461L176.162 29.8223Z" fill="#FEBD3B"/>
<path d="M196.803 21.6905H194.643V27.6925H202.02L202.179 27.848C202.179 28.6362 201.866 29.2292 201.395 29.7029H194.647V31.5577C194.647 32.7834 194.647 35.5458 194.959 38.0298H192.056V25.9895C192.056 24.7638 192.056 22.0014 191.743 19.5138H202.926L202.768 22.1605C202.024 21.8496 199.081 21.6905 196.803 21.6905Z" fill="#FEBD3B"/>
<path d="M207.123 25.9933C207.123 24.7676 207.123 22.0052 206.811 19.5176C208.223 19.3983 210.303 19.203 212.341 19.203C217.091 19.203 219.833 21.376 219.833 24.7712C219.833 29.0739 216.186 31.4024 212.183 31.4024C211.554 31.4024 210.494 31.3228 209.71 31.2071V31.5615C209.71 32.7872 209.71 35.5496 210.023 38.0336H207.12V25.9933H207.123ZM209.714 21.376V29.1932C210.422 29.3884 211.482 29.5475 212.186 29.5475C215.169 29.5475 217.246 28.4013 217.246 25.0857C217.246 22.4391 215.715 21.0579 212.341 21.0579C211.558 21.0579 210.422 21.1772 209.714 21.376Z" fill="#FEBD3B"/>
<path d="M107.009 89.9695V80.4638C107.009 79.5129 107.009 77.9148 106.848 76.6818H109.018V89.9659H107.009V89.9695Z" fill="#005EB8"/>
<path d="M111.943 89.9695C112.044 88.7546 112.044 87.4421 112.044 86.7949V84.2675C112.044 83.642 112.044 82.2066 111.864 80.97H113.833V82.0005C114.355 81.4762 115.3 80.8073 116.687 80.8073C118.577 80.8073 119.68 81.7799 119.68 83.9204V86.7913C119.68 87.4385 119.68 88.7546 119.781 89.9659H117.772C117.873 88.751 117.873 87.4385 117.873 86.7913V84.8713C117.873 82.908 117.409 82.2608 115.943 82.2608C115.077 82.2608 114.315 82.6441 113.873 82.9875V86.7876C113.873 87.4349 113.873 88.7907 113.974 89.9622H111.943V89.9695Z" fill="#005EB8"/>
<path d="M124.341 90.172L121.225 80.9701H123.216L125.526 88.2304L126.109 86.8167C126.691 85.421 127.496 83.6023 127.496 82.1669C127.496 81.6209 127.294 81.2557 127.093 81.1147C127.273 80.9339 127.636 80.811 128.038 80.811C128.743 80.811 129.145 81.2159 129.145 82.2066C129.145 83.3383 128.02 85.6018 127.417 86.8962L125.99 89.9695L124.341 90.172Z" fill="#005EB8"/>
<path d="M130.873 89.9694C130.974 88.7545 130.974 87.442 130.974 86.7948V84.2675C130.974 83.6419 130.974 82.2065 130.794 80.9699H132.803V86.7948C132.803 87.442 132.803 88.7979 132.904 89.9694H130.873ZM130.891 77.5133C130.891 76.8842 131.355 76.3599 131.955 76.3599C132.537 76.3599 133.022 76.8842 133.022 77.5133C133.022 78.2003 132.598 78.6667 131.955 78.6667C131.355 78.6667 130.891 78.2003 130.891 77.5133Z" fill="#005EB8"/>
<path d="M135.009 85.6632C135.009 82.7309 136.799 80.811 139.329 80.811C141.478 80.811 142.724 82.2862 142.724 84.2893C142.724 84.5134 142.706 84.875 142.602 85.1173C142.379 85.2366 141.797 85.3198 141.036 85.3198H136.874V85.6632C136.874 87.7459 137.981 88.7981 139.587 88.7981C140.913 88.7981 141.679 88.4329 142.182 88.0098C142.282 88.0098 142.362 88.1508 142.362 88.3931C142.362 88.7185 142.282 89.062 142.221 89.2211C141.898 89.5465 140.956 90.2118 139.307 90.2118C136.698 90.2118 135.009 88.657 135.009 85.6632ZM137 84.2459H140.917V83.9241C140.917 82.8719 140.435 81.9608 139.228 81.9608C138.064 81.9608 137.28 82.7707 137 84.2459Z" fill="#005EB8"/>
<path d="M144.895 89.9695C144.996 88.7547 144.996 87.4422 144.996 86.795V84.2676C144.996 83.6421 144.996 82.2066 144.816 80.9701H146.724L146.807 82.2464C147.17 81.7004 148.011 80.811 148.938 80.811C149.559 80.811 149.922 80.9737 150.145 81.1762C150.145 81.7836 149.944 82.391 149.423 82.7743C148.999 82.7743 148.898 82.391 148.316 82.391C147.755 82.391 147.27 82.7743 146.828 83.4613V86.7986C146.828 87.4458 146.828 88.8017 146.929 89.9732H144.895V89.9695Z" fill="#005EB8"/>
<path d="M150.914 81.1326C150.936 81.0314 150.975 80.9699 151.137 80.9699H151.823C151.841 80.4637 151.841 80.0804 151.863 79.878C152.265 79.4332 153.39 78.9885 153.57 78.927C153.67 78.927 153.749 78.9668 153.749 79.1295L153.67 80.9699H156.344C156.344 81.3966 156.225 81.9823 155.841 82.286H153.631C153.57 83.9854 153.509 85.9451 153.509 87.16C153.509 88.3749 153.728 88.7979 154.695 88.7979C155.356 88.7979 155.92 88.5737 156.301 88.2917H156.401C156.401 88.7364 156.322 89.3005 156.121 89.6476C155.841 89.8501 155.137 90.2153 154.191 90.2153C152.643 90.2153 151.68 89.4668 151.68 87.6083C151.68 86.3537 151.719 84.0686 151.78 82.2896H150.691L150.914 81.1326Z" fill="#005EB8"/>
<path d="M157.307 85.6632C157.307 82.7309 159.097 80.811 161.626 80.811C163.775 80.811 165.022 82.2862 165.022 84.2893C165.022 84.5134 165.001 84.875 164.904 85.1173C164.681 85.2366 164.099 85.3198 163.337 85.3198H159.176V85.6632C159.176 87.7459 160.283 88.7981 161.889 88.7981C163.215 88.7981 163.98 88.4329 164.48 88.0098C164.58 88.0098 164.659 88.1508 164.659 88.3931C164.659 88.7185 164.58 89.062 164.519 89.2211C164.199 89.5465 163.254 90.2118 161.605 90.2118C158.996 90.2118 157.307 88.657 157.307 85.6632ZM159.298 84.2459H163.218V83.9241C163.218 82.8719 162.737 81.9608 161.529 81.9608C160.362 81.9608 159.578 82.7707 159.298 84.2459Z" fill="#005EB8"/>
<path d="M173.047 90.1105V91.9906C173.047 92.6162 173.047 93.9937 173.147 95.1869H171.099C171.221 93.954 171.221 92.6198 171.221 91.9906V84.1843C171.221 83.5552 171.221 82.1017 171.02 80.829H173.05V81.8378C173.492 81.4147 174.416 80.8073 175.602 80.8073C177.912 80.8073 179.44 82.221 179.44 85.1533C179.44 88.3496 177.23 90.2081 174.495 90.2081C173.952 90.2117 173.471 90.1719 173.047 90.1105ZM177.571 85.3197C177.571 83.1973 176.446 82.1849 175.02 82.1849C174.276 82.1849 173.553 82.5284 173.05 82.8935V88.657C173.413 88.8377 173.956 88.939 174.538 88.939C176.241 88.939 177.571 87.7458 177.571 85.3197Z" fill="#005EB8"/>
<path d="M186.428 89.9696L186.309 89.1199C185.907 89.5864 185.084 90.2119 183.797 90.2119C182.187 90.2119 180.962 89.5249 180.962 87.7857C180.962 86.1297 182.468 85.2981 184.458 85.0776L186.226 84.8968V84.2098C186.226 82.6948 185.705 82.0476 184.419 82.0476C183.233 82.0476 182.471 82.7744 182.087 83.4216C181.684 83.3203 181.382 83.0383 181.382 82.4924C181.382 81.4402 183.089 80.8147 184.739 80.8147C186.83 80.8147 188.012 81.6246 188.012 83.6241C188.012 85.0595 187.933 86.4769 187.933 87.7279C187.933 88.2956 188.012 89.1019 188.257 89.9732H186.428V89.9696ZM186.226 88.2702V85.8839L185.242 85.9851C184.336 86.0864 183.513 86.2274 183.071 86.4696C182.87 86.7119 182.69 87.0554 182.69 87.5218C182.69 88.4727 183.294 88.997 184.279 88.997C185.062 89.0006 185.666 88.6752 186.226 88.2702Z" fill="#005EB8"/>
<path d="M190.909 89.9695C191.01 88.7547 191.01 87.4422 191.01 86.795V84.2676C191.01 83.6421 191.01 82.2066 190.83 80.9701H192.738L192.817 82.2464C193.18 81.7004 194.025 80.811 194.948 80.811C195.57 80.811 195.933 80.9737 196.152 81.1762C196.152 81.7836 195.951 82.391 195.43 82.7743C195.009 82.7743 194.909 82.391 194.323 82.391C193.759 82.391 193.277 82.7743 192.835 83.4613V86.7986C192.835 87.4458 192.835 88.8017 192.936 89.9732H190.909V89.9695Z" fill="#005EB8"/>
<path d="M202.283 89.9696L202.161 89.1199C201.758 89.5864 200.935 90.2119 199.649 90.2119C198.039 90.2119 196.813 89.5249 196.813 87.7857C196.813 86.1297 198.319 85.2981 200.31 85.0776L202.078 84.8968V84.2098C202.078 82.6948 201.553 82.0476 200.27 82.0476C199.085 82.0476 198.323 82.7744 197.938 83.4216C197.536 83.3203 197.234 83.0383 197.234 82.4924C197.234 81.4402 198.941 80.8147 200.59 80.8147C202.682 80.8147 203.864 81.6246 203.864 83.6241C203.864 85.0595 203.785 86.4769 203.785 87.7279C203.785 88.2956 203.864 89.1019 204.108 89.9732H202.283V89.9696ZM202.082 88.2702V85.8839L201.097 85.9851C200.191 86.0864 199.368 86.2274 198.926 86.4696C198.725 86.7119 198.546 87.0554 198.546 87.5218C198.546 88.4727 199.149 88.997 200.134 88.997C200.917 89.0006 201.517 88.6752 202.082 88.2702Z" fill="#005EB8"/>
<path d="M209.819 81.1326C209.837 81.0314 209.88 80.9699 210.041 80.9699H211.087C211.109 80.4637 211.109 80.0804 211.127 79.878C211.529 79.4332 212.654 78.9885 212.834 78.927C212.934 78.927 213.013 78.9668 213.013 79.1295L212.934 80.9699H215.608C215.608 81.3966 215.486 81.9823 215.105 82.286H212.895C212.834 83.9854 212.776 85.9451 212.776 87.16C212.776 88.3749 212.999 88.7979 213.962 88.7979C214.627 88.7979 215.187 88.5737 215.572 88.2917H215.672C215.672 88.7364 215.593 89.3005 215.392 89.6476C215.112 89.8501 214.407 90.2153 213.462 90.2153C211.914 90.2153 210.951 89.4668 210.951 87.6083C210.951 86.3537 210.99 84.0686 211.051 82.2896H209.603L209.819 81.1326Z" fill="#005EB8"/>
<path d="M217.271 89.9694C217.372 88.7545 217.372 87.442 217.372 86.7948V84.2675C217.372 83.6419 217.372 82.2065 217.192 80.9699H219.201V86.7948C219.201 87.442 219.201 88.7979 219.301 89.9694H217.271ZM217.293 77.5133C217.293 76.8842 217.756 76.3599 218.356 76.3599C218.938 76.3599 219.42 76.8842 219.42 77.5133C219.42 78.2003 218.999 78.6667 218.356 78.6667C217.752 78.6667 217.293 78.2003 217.293 77.5133Z" fill="#005EB8"/>
<defs>
<linearGradient id="paint0_linear_273_793" x1="14.3665" y1="72.2099" x2="31.0968" y2="55.4158" gradientUnits="userSpaceOnUse">
<stop stop-color="#F57F29"/>
<stop offset="1" stop-color="#FEBD3B"/>
</linearGradient>
<linearGradient id="paint1_linear_273_793" x1="13.8633" y1="48.9278" x2="31.4252" y2="32.1385" gradientUnits="userSpaceOnUse">
<stop stop-color="#F57F29"/>
<stop offset="1" stop-color="#FEBD3B"/>
</linearGradient>
<linearGradient id="paint2_linear_273_793" x1="14.3375" y1="25.3089" x2="31.7382" y2="7.68251" gradientUnits="userSpaceOnUse">
<stop stop-color="#F57F29"/>
<stop offset="1" stop-color="#FEBD3B"/>
</linearGradient>
<linearGradient id="paint3_linear_273_793" x1="-2.68459" y1="43.0147" x2="13.716" y2="60.3124" gradientUnits="userSpaceOnUse">
<stop stop-color="#FFE600"/>
<stop offset="1" stop-color="#FDB515"/>
</linearGradient>
<linearGradient id="paint4_linear_273_793" x1="-4.98413" y1="18.8631" x2="13.7282" y2="35.9794" gradientUnits="userSpaceOnUse">
<stop stop-color="#FFE600"/>
<stop offset="1" stop-color="#FDB515"/>
</linearGradient>
<linearGradient id="paint5_linear_273_793" x1="-3.32955" y1="66.7653" x2="14.3978" y2="84.2196" gradientUnits="userSpaceOnUse">
<stop stop-color="#FFE600"/>
<stop offset="1" stop-color="#FDB515"/>
</linearGradient>
</defs>
</svg>
