<svg width="183" height="62" viewBox="0 0 183 62" fill="none" xmlns="http://www.w3.org/2000/svg">
<path d="M167.615 0.232742H14.5109C13.9528 0.232742 13.4014 0.232742 12.8448 0.235786C12.3789 0.238829 11.9167 0.247672 11.4463 0.255114C10.4243 0.26714 9.40479 0.357045 8.39651 0.52405C7.38966 0.69469 6.41434 1.0164 5.50355 1.47829C4.59387 1.94408 3.76268 2.54934 3.04012 3.2721C2.31376 3.99282 1.70828 4.82588 1.24697 5.73924C0.784391 6.65079 0.463634 7.62759 0.295783 8.63592C0.126335 9.64297 0.0351536 10.6616 0.0230569 11.6828C0.00893359 12.1494 0.00744212 12.6176 0 13.0842V48.262C0.00744212 48.7345 0.00893359 49.1923 0.0230569 49.665C0.0351573 50.6861 0.126339 51.7047 0.295783 52.7117C0.463171 53.7207 0.783947 54.698 1.24697 55.6099C1.70807 56.5203 2.31363 57.35 3.04012 58.0667C3.75994 58.7927 4.59167 59.3984 5.50355 59.8606C6.41433 60.3237 7.38954 60.6473 8.39651 60.8206C9.40496 60.9863 10.4244 61.0762 11.4463 61.0897C11.9167 61.1 12.3789 61.106 12.8448 61.106C13.4014 61.109 13.9528 61.109 14.5109 61.109H167.615C168.162 61.109 168.718 61.109 169.265 61.106C169.728 61.106 170.204 61.1 170.668 61.0897C171.688 61.0769 172.705 60.987 173.711 60.8206C174.722 60.6461 175.7 60.3226 176.616 59.8606C177.527 59.3981 178.358 58.7924 179.077 58.0667C179.801 57.3472 180.408 56.5181 180.875 55.6099C181.335 54.6974 181.652 53.7201 181.817 52.7117C181.987 51.7046 182.081 50.6862 182.1 49.665C182.106 49.1923 182.106 48.7345 182.106 48.262C182.118 47.7091 182.118 47.1592 182.118 46.5973V14.7458C182.118 14.1885 182.118 13.6356 182.106 13.0842C182.106 12.6176 182.106 12.1494 182.1 11.6827C182.081 10.6615 181.987 9.64305 181.817 8.63586C181.652 7.62812 181.334 6.65139 180.875 5.73918C179.936 3.90845 178.446 2.41824 176.616 1.47815C175.7 1.01739 174.722 0.695767 173.711 0.523913C172.705 0.356173 171.688 0.266236 170.668 0.254901C170.204 0.247474 169.728 0.238555 169.265 0.235588C168.718 0.232544 168.162 0.232544 167.615 0.232544V0.232742Z" fill="white"/>
<path d="M12.8517 59.7768C12.388 59.7768 11.9355 59.7709 11.4755 59.7606C10.5224 59.7481 9.57162 59.6652 8.63083 59.5123C7.75359 59.3612 6.90377 59.0802 6.10942 58.6785C5.32236 58.2801 4.60449 57.7577 3.98332 57.1313C3.35316 56.5123 2.82852 55.7944 2.4302 55.006C2.02749 54.2124 1.74878 53.3619 1.6038 52.4839C1.44724 51.5405 1.36253 50.5865 1.35041 49.6303C1.34076 49.3093 1.32812 48.2406 1.32812 48.2406V13.0837C1.32812 13.0837 1.34158 12.0315 1.35048 11.7223C1.36209 10.7676 1.4463 9.81516 1.6024 8.87321C1.74765 7.99282 2.02657 7.13979 2.4295 6.34365C2.82636 5.55578 3.34808 4.83731 3.97445 4.2161C4.60011 3.58899 5.32027 3.0639 6.10868 2.66C6.9012 2.25956 7.74941 1.9805 8.62488 1.83217C9.56876 1.6778 10.5229 1.59434 11.4792 1.58249L12.8525 1.5639H169.257L170.646 1.58323C171.594 1.59449 172.539 1.67721 173.475 1.83068C174.359 1.98087 175.216 2.26187 176.018 2.66446C177.597 3.47844 178.882 4.76624 179.693 6.34736C180.089 7.13801 180.364 7.98408 180.507 8.85687C180.665 9.80654 180.754 10.7665 180.772 11.729C180.776 12.16 180.776 12.623 180.776 13.0837C180.788 13.6544 180.788 14.1977 180.788 14.7453V46.5968C180.788 47.1497 180.788 47.6893 180.776 48.2332C180.776 48.7281 180.776 49.1815 180.77 49.6481C180.753 50.5935 180.666 51.5363 180.51 52.4689C180.368 53.3533 180.091 54.2105 179.689 55.0105C179.287 55.7904 178.766 56.5021 178.143 57.1194C177.521 57.7492 176.802 58.2746 176.013 58.6756C175.214 59.0804 174.358 59.3625 173.475 59.5123C172.534 59.666 171.583 59.749 170.63 59.7606C170.184 59.7709 169.717 59.7768 169.264 59.7768L167.614 59.7799L12.8517 59.7768Z" fill="black"/>
<path d="M64.3776 41.5385H57.1738L55.4438 46.6467H52.3926L59.2159 27.7477H62.386L69.2093 46.6467H66.1061L64.3776 41.5385ZM57.9199 39.1813H63.6301L60.8151 30.8911H60.7363L57.9199 39.1813Z" fill="white"/>
<path d="M83.9442 39.7568C83.9442 44.0386 81.6524 46.7896 78.1939 46.7896C77.3178 46.8355 76.4466 46.6336 75.6798 46.2073C74.9131 45.781 74.2819 45.1473 73.8586 44.3789H73.7932V51.2037H70.9648V32.8666H73.7025V35.1583H73.7545C74.1973 34.3936 74.8391 33.7633 75.6117 33.3343C76.3843 32.9054 77.2587 32.6939 78.1419 32.7224C81.639 32.7224 83.9442 35.4868 83.9442 39.7568ZM81.0371 39.7568C81.0371 36.9671 79.5955 35.1331 77.3958 35.1331C75.2348 35.1331 73.7813 37.0057 73.7813 39.7568C73.7813 42.5331 75.2348 44.3923 77.3958 44.3923C79.5955 44.3923 81.037 42.5717 81.037 39.7568H81.0371Z" fill="white"/>
<path d="M99.111 39.7568C99.111 44.0386 96.8184 46.7896 93.36 46.7896C92.4839 46.8355 91.6126 46.6336 90.8458 46.2073C90.0791 45.781 89.448 45.1473 89.0246 44.3789H88.9592V51.2037H86.1309V32.8666H88.8685V35.1583H88.9205C89.3633 34.3936 90.0052 33.7633 90.7777 33.3343C91.5503 32.9054 92.4247 32.6939 93.3079 32.7224C96.8051 32.7224 99.111 35.4868 99.111 39.7568ZM96.2031 39.7568C96.2031 36.9671 94.7615 35.1331 92.5619 35.1331C90.4009 35.1331 88.9473 37.0057 88.9473 39.7568C88.9473 42.5331 90.4009 44.3923 92.5619 44.3923C94.7615 44.3923 96.2031 42.5717 96.2031 39.7568Z" fill="white"/>
<path d="M109.134 41.3801C109.343 43.2542 111.164 44.4847 113.652 44.4847C116.036 44.4847 117.751 43.2541 117.751 41.5643C117.751 40.0974 116.716 39.219 114.267 38.6171L111.818 38.027C108.347 37.1888 106.736 35.5658 106.736 32.9322C106.736 29.6714 109.578 27.4316 113.612 27.4316C117.607 27.4316 120.344 29.6714 120.436 32.9322H117.581C117.41 31.0462 115.851 29.9077 113.573 29.9077C111.295 29.9077 109.735 31.0596 109.735 32.736C109.735 34.0722 110.731 34.8584 113.167 35.4602L115.249 35.9715C119.127 36.8885 120.737 38.4461 120.737 41.2105C120.737 44.7463 117.922 46.9607 113.442 46.9607C109.251 46.9607 106.421 44.7983 106.238 41.3799L109.134 41.3801Z" fill="white"/>
<path d="M126.843 29.6064V32.8672H129.463V35.107H126.843V42.7031C126.843 43.8832 127.368 44.4331 128.52 44.4331C128.831 44.4277 129.141 44.4058 129.45 44.3676V46.594C128.932 46.6908 128.406 46.7346 127.879 46.7248C125.089 46.7248 124.001 45.677 124.001 43.0048V35.107H121.998V32.8672H124.001V29.6064H126.843Z" fill="white"/>
<path d="M130.979 39.7577C130.979 35.4223 133.532 32.6981 137.513 32.6981C141.509 32.6981 144.05 35.4223 144.05 39.7577C144.05 44.1049 141.522 46.8173 137.513 46.8173C133.507 46.8173 130.979 44.1049 130.979 39.7577ZM141.168 39.7577C141.168 36.7837 139.805 35.0285 137.513 35.0285C135.222 35.0285 133.859 36.7971 133.859 39.7577C133.859 42.7435 135.222 44.4854 137.513 44.4854C139.805 44.4854 141.168 42.7435 141.168 39.7577H141.168Z" fill="white"/>
<path d="M146.381 32.8664H149.078V35.2117H149.144C149.326 34.4792 149.755 33.8319 150.359 33.3785C150.963 32.9252 151.704 32.6934 152.458 32.7222C152.784 32.7211 153.109 32.7565 153.427 32.8278V35.4733C153.016 35.3475 152.586 35.2898 152.156 35.3024C151.745 35.2857 151.336 35.3581 150.956 35.5147C150.575 35.6713 150.234 35.9083 149.954 36.2095C149.674 36.5107 149.462 36.8689 149.334 37.2595C149.205 37.6501 149.163 38.0639 149.209 38.4725V46.6453H146.381L146.381 32.8664Z" fill="white"/>
<path d="M166.47 42.5994C166.09 45.1007 163.654 46.8173 160.537 46.8173C156.529 46.8173 154.041 44.1317 154.041 39.8231C154.041 35.5011 156.542 32.6981 160.418 32.6981C164.231 32.6981 166.628 35.3168 166.628 39.4946V40.4636H156.896V40.6346C156.851 41.1417 156.915 41.6525 157.082 42.1332C157.25 42.6139 157.518 43.0534 157.869 43.4225C158.219 43.7916 158.644 44.082 159.116 44.2742C159.587 44.4664 160.094 44.5561 160.603 44.5374C161.271 44.6 161.942 44.4452 162.515 44.0961C163.088 43.7469 163.534 43.2219 163.785 42.5994L166.47 42.5994ZM156.909 38.4869H163.798C163.824 38.031 163.754 37.5747 163.595 37.1467C163.436 36.7188 163.19 36.3283 162.872 36C162.555 35.6716 162.173 35.4123 161.751 35.2385C161.329 35.0647 160.875 34.98 160.418 34.9898C159.958 34.9871 159.501 35.0756 159.075 35.2502C158.649 35.4248 158.262 35.6821 157.935 36.0073C157.609 36.3324 157.35 36.7189 157.174 37.1445C156.998 37.5701 156.908 38.0264 156.909 38.487V38.4869Z" fill="white"/>
<path d="M57.5633 13.5204C58.1563 13.4778 58.7513 13.5674 59.3054 13.7827C59.8596 13.9979 60.359 14.3334 60.7678 14.7651C61.1766 15.1968 61.4844 15.7137 61.6692 16.2788C61.854 16.8438 61.911 17.4428 61.8363 18.0326C61.8363 20.9337 60.2683 22.6013 57.5633 22.6013H54.2832V13.5204H57.5633ZM55.6936 21.3171H57.4058C57.8295 21.3424 58.2535 21.273 58.647 21.1137C59.0404 20.9545 59.3935 20.7096 59.6803 20.3967C59.9672 20.0839 60.1807 19.711 60.3053 19.3052C60.4299 18.8995 60.4624 18.471 60.4005 18.0511C60.4579 17.6328 60.4221 17.207 60.2956 16.8042C60.1691 16.4014 59.9551 16.0316 59.6689 15.7213C59.3826 15.4109 59.0313 15.1677 58.6401 15.009C58.2488 14.8504 57.8273 14.7803 57.4058 14.8037H55.6936V21.3171Z" fill="white"/>
<path d="M63.4313 19.1731C63.3882 18.7228 63.4397 18.2684 63.5826 17.8391C63.7254 17.4098 63.9563 17.0151 64.2606 16.6803C64.5649 16.3455 64.9358 16.078 65.3496 15.895C65.7633 15.7119 66.2107 15.6174 66.6631 15.6174C67.1155 15.6174 67.563 15.7119 67.9767 15.895C68.3904 16.078 68.7613 16.3455 69.0656 16.6803C69.3699 17.0151 69.6009 17.4098 69.7437 17.8391C69.8865 18.2684 69.938 18.7228 69.8949 19.1731C69.9388 19.6239 69.8879 20.079 69.7455 20.5089C69.6031 20.9389 69.3722 21.3343 69.0679 21.6698C68.7635 22.0052 68.3923 22.2733 67.9782 22.4567C67.564 22.6402 67.1161 22.7349 66.6631 22.7349C66.2102 22.7349 65.7622 22.6402 65.3481 22.4567C64.9339 22.2733 64.5627 22.0052 64.2584 21.6698C63.954 21.3343 63.7232 20.9389 63.5807 20.5089C63.4383 20.079 63.3874 19.6239 63.4313 19.1731ZM68.5038 19.1731C68.5038 17.6876 67.8365 16.8189 66.6654 16.8189C65.4897 16.8189 64.8284 17.6876 64.8284 19.1731C64.8284 20.6705 65.4898 21.5325 66.6654 21.5325C67.8365 21.5325 68.5038 20.6646 68.5038 19.1731H68.5038Z" fill="white"/>
<path d="M78.4866 22.6019H77.0836L75.6672 17.5547H75.5602L74.1497 22.6019H72.7601L70.8711 15.7489H72.2429L73.4705 20.9782H73.5716L74.9806 15.7489H76.278L77.687 20.9782H77.794L79.0157 15.7489H80.3681L78.4866 22.6019Z" fill="white"/>
<path d="M81.9531 15.7491H83.2551V16.8378H83.3561C83.5276 16.4468 83.8168 16.119 84.1833 15.9002C84.5499 15.6813 84.9757 15.5823 85.4012 15.6169C85.7346 15.5918 86.0695 15.6421 86.3808 15.764C86.6922 15.8859 86.9722 16.0763 87.2 16.321C87.4278 16.5658 87.5976 16.8587 87.6968 17.1781C87.7961 17.4974 87.8222 17.835 87.7732 18.1657V22.6021H86.4208V18.5054C86.4208 17.4041 85.9422 16.8564 84.942 16.8564C84.7156 16.8458 84.4896 16.8844 84.2794 16.9693C84.0693 17.0543 83.8801 17.1837 83.7247 17.3487C83.5692 17.5136 83.4513 17.7102 83.379 17.925C83.3067 18.1398 83.2816 18.3677 83.3056 18.593V22.6022H81.9531L81.9531 15.7491Z" fill="white"/>
<path d="M89.9258 13.0737H91.2783V22.602H89.9258V13.0737Z" fill="white"/>
<path d="M93.1617 19.1711C93.1187 18.7207 93.1702 18.2663 93.3131 17.837C93.4559 17.4077 93.6869 17.013 93.9913 16.6782C94.2956 16.3434 94.6665 16.0759 95.0803 15.8928C95.494 15.7098 95.9415 15.6152 96.3939 15.6152C96.8464 15.6152 97.2938 15.7098 97.7076 15.8928C98.1213 16.0759 98.4923 16.3434 98.7966 16.6782C99.1009 17.013 99.3319 17.4077 99.4748 17.837C99.6176 18.2663 99.6692 18.7207 99.6261 19.1711C99.67 19.622 99.619 20.077 99.4765 20.507C99.3341 20.9369 99.1032 21.3323 98.7988 21.6678C98.4944 22.0032 98.1232 22.2713 97.709 22.4547C97.2949 22.6381 96.8469 22.7329 96.3939 22.7329C95.941 22.7329 95.493 22.6381 95.0788 22.4547C94.6647 22.2713 94.2935 22.0032 93.9891 21.6678C93.6847 21.3323 93.4538 20.9369 93.3113 20.507C93.1688 20.077 93.1179 19.622 93.1617 19.1711ZM98.2342 19.1711C98.2342 17.6856 97.5669 16.8169 96.3958 16.8169C95.2202 16.8169 94.5588 17.6856 94.5588 19.1711C94.5588 20.6685 95.2202 21.5305 96.3958 21.5305C97.5669 21.5305 98.2343 20.6625 98.2343 19.1711H98.2342Z" fill="white"/>
<path d="M101.053 20.6646C101.053 19.431 101.971 18.7199 103.602 18.6188L105.458 18.5118V17.9203C105.458 17.1965 104.979 16.7878 104.055 16.7878C103.3 16.7878 102.777 17.065 102.627 17.5495H101.317C101.456 16.3724 102.563 15.6174 104.117 15.6174C105.835 15.6174 106.804 16.4727 106.804 17.9203V22.6027H105.503V21.6396H105.396C105.178 21.9851 104.873 22.2667 104.512 22.4557C104.15 22.6448 103.745 22.7344 103.337 22.7156C103.049 22.7455 102.759 22.7148 102.484 22.6255C102.208 22.5362 101.955 22.3902 101.74 22.1969C101.525 22.0037 101.352 21.7675 101.234 21.5036C101.116 21.2397 101.054 20.9539 101.053 20.6646ZM105.458 20.079V19.5061L103.784 19.6131C102.841 19.6763 102.413 19.9973 102.413 20.6014C102.413 21.2182 102.948 21.5772 103.683 21.5772C103.899 21.599 104.117 21.5772 104.324 21.5132C104.531 21.4491 104.723 21.3441 104.888 21.2043C105.054 21.0645 105.19 20.8929 105.287 20.6995C105.385 20.5062 105.443 20.2952 105.458 20.079Z" fill="white"/>
<path d="M108.58 19.1725C108.58 17.0071 109.693 15.6353 111.425 15.6353C111.853 15.6155 112.278 15.7181 112.65 15.931C113.022 16.1439 113.326 16.4584 113.526 16.8376H113.627V13.0737H114.98V22.602H113.684V21.5193H113.577C113.361 21.8959 113.047 22.2064 112.668 22.4172C112.288 22.628 111.858 22.7309 111.425 22.7149C109.681 22.715 108.58 21.3432 108.58 19.1725ZM109.977 19.1725C109.977 20.6261 110.662 21.5007 111.808 21.5007C112.948 21.5007 113.653 20.6135 113.653 19.1785C113.653 17.7502 112.941 16.8503 111.808 16.8503C110.67 16.8503 109.977 17.7309 109.977 19.1725H109.977Z" fill="white"/>
<path d="M120.576 19.1731C120.533 18.7228 120.584 18.2684 120.727 17.8391C120.87 17.4098 121.101 17.0151 121.405 16.6803C121.709 16.3455 122.08 16.078 122.494 15.895C122.908 15.7119 123.355 15.6174 123.808 15.6174C124.26 15.6174 124.707 15.7119 125.121 15.895C125.535 16.078 125.906 16.3455 126.21 16.6803C126.514 17.0151 126.745 17.4098 126.888 17.8391C127.031 18.2684 127.083 18.7228 127.039 19.1731C127.083 19.6239 127.032 20.079 126.89 20.5089C126.748 20.9389 126.517 21.3343 126.212 21.6698C125.908 22.0052 125.537 22.2733 125.123 22.4567C124.709 22.6402 124.261 22.7349 123.808 22.7349C123.355 22.7349 122.907 22.6402 122.493 22.4567C122.078 22.2733 121.707 22.0052 121.403 21.6698C121.099 21.3343 120.868 20.9389 120.725 20.5089C120.583 20.079 120.532 19.6239 120.576 19.1731ZM125.648 19.1731C125.648 17.6876 124.981 16.8189 123.81 16.8189C122.634 16.8189 121.973 17.6876 121.973 19.1731C121.973 20.6705 122.634 21.5325 123.81 21.5325C124.981 21.5325 125.648 20.6646 125.648 19.1731Z" fill="white"/>
<path d="M128.854 15.7491H130.155V16.8378H130.257C130.428 16.4468 130.717 16.119 131.084 15.9002C131.45 15.6813 131.876 15.5823 132.302 15.6169C132.635 15.5918 132.97 15.6421 133.281 15.764C133.593 15.8859 133.873 16.0763 134.1 16.321C134.328 16.5658 134.498 16.8587 134.597 17.1781C134.696 17.4974 134.723 17.835 134.674 18.1657V22.6021H133.321V18.5054C133.321 17.4041 132.843 16.8564 131.842 16.8564C131.616 16.8458 131.39 16.8844 131.18 16.9693C130.97 17.0543 130.78 17.1837 130.625 17.3487C130.47 17.5136 130.352 17.7102 130.279 17.925C130.207 18.1398 130.182 18.3677 130.206 18.593V22.6022H128.854V15.7491Z" fill="white"/>
<path d="M142.317 14.0426V15.78H143.802V16.9192H142.317V20.4431C142.317 21.1609 142.613 21.4753 143.286 21.4753C143.458 21.4747 143.63 21.4643 143.802 21.4441V22.5706C143.559 22.6141 143.313 22.6372 143.066 22.6397C141.562 22.6397 140.963 22.1106 140.963 20.7894V16.9192H139.875V15.7799H140.963V14.0426H142.317Z" fill="white"/>
<path d="M145.648 13.0737H146.989V16.8503H147.096C147.276 16.4556 147.573 16.126 147.947 15.9063C148.321 15.6866 148.753 15.5876 149.186 15.6226C149.517 15.6046 149.849 15.66 150.157 15.7848C150.465 15.9097 150.741 16.1009 150.967 16.345C151.192 16.589 151.361 16.8798 151.461 17.1965C151.561 17.5133 151.59 17.8482 151.546 18.1775V22.602H150.192V18.5111C150.192 17.4165 149.682 16.8621 148.726 16.8621C148.494 16.8431 148.26 16.875 148.041 16.9558C147.823 17.0365 147.624 17.1641 147.46 17.3296C147.295 17.4951 147.169 17.6945 147.09 17.9138C147.011 18.1332 146.98 18.3672 147.001 18.5995V22.602H145.648L145.648 13.0737Z" fill="white"/>
<path d="M159.43 20.7503C159.246 21.3766 158.848 21.9184 158.305 22.2808C157.762 22.6433 157.109 22.8033 156.461 22.7329C156.009 22.7448 155.56 22.6584 155.146 22.4795C154.731 22.3006 154.36 22.0337 154.059 21.6971C153.758 21.3606 153.533 20.9625 153.401 20.5305C153.269 20.0986 153.233 19.6431 153.295 19.1957C153.235 18.7469 153.272 18.2904 153.403 17.8572C153.535 17.4239 153.758 17.024 154.058 16.6845C154.357 16.345 154.726 16.0739 155.14 15.8894C155.553 15.705 156.002 15.6115 156.455 15.6153C158.361 15.6153 159.512 16.9181 159.512 19.0701V19.542H154.673V19.6178C154.651 19.8693 154.683 20.1224 154.765 20.361C154.848 20.5995 154.979 20.8183 155.151 21.0031C155.323 21.1879 155.531 21.3348 155.763 21.4344C155.995 21.5339 156.245 21.5839 156.498 21.5811C156.821 21.6199 157.149 21.5616 157.439 21.4137C157.73 21.2658 157.969 21.0348 158.128 20.7502L159.43 20.7503ZM154.673 18.5417H158.134C158.151 18.3117 158.12 18.0807 158.042 17.8635C157.965 17.6463 157.843 17.4477 157.684 17.2805C157.525 17.1133 157.333 16.9812 157.12 16.8927C156.907 16.8042 156.678 16.7612 156.447 16.7664C156.213 16.7635 155.981 16.8074 155.764 16.8956C155.548 16.9838 155.351 17.1145 155.186 17.2799C155.02 17.4454 154.89 17.6423 154.801 17.859C154.713 18.0757 154.67 18.3078 154.673 18.5417H154.673Z" fill="white"/>
<path d="M37.9029 30.6278C37.9195 29.3364 38.2631 28.0703 38.9015 26.9471C39.5399 25.824 40.4525 24.8803 41.5543 24.2039C40.8544 23.2058 39.931 22.3843 38.8574 21.8049C37.7839 21.2254 36.5899 20.9038 35.3701 20.8657C32.7681 20.593 30.2456 22.4203 28.9197 22.4203C27.5681 22.4203 25.5267 20.8928 23.3284 20.9379C21.9064 20.9838 20.5206 21.3967 19.306 22.1363C18.0914 22.8759 17.0894 23.9171 16.3976 25.1583C13.401 30.3388 15.6362 37.9524 18.5068 42.1399C19.943 44.1905 21.6215 46.4809 23.8179 46.3997C25.9671 46.3107 26.7698 45.0313 29.3641 45.0313C31.9343 45.0313 32.6874 46.3997 34.9283 46.3481C37.2346 46.3107 38.6876 44.2884 40.0734 42.2185C41.1054 40.7575 41.8994 39.1427 42.4262 37.434C41.0864 36.8681 39.943 35.921 39.1386 34.7107C38.3342 33.5003 37.9044 32.0803 37.9029 30.6278Z" fill="white"/>
<path d="M33.6711 18.1117C34.9286 16.6044 35.5481 14.6671 35.3981 12.7112C33.477 12.9127 31.7024 13.8294 30.428 15.2788C29.8048 15.9869 29.3276 16.8107 29.0235 17.703C28.7194 18.5954 28.5945 19.5388 28.6558 20.4794C29.6167 20.4893 30.5673 20.2813 31.436 19.8712C32.3048 19.4611 33.069 18.8595 33.6711 18.1117Z" fill="white"/>
</svg>
