<svg width="1732" height="1163" viewBox="0 0 1732 1163" fill="none" xmlns="http://www.w3.org/2000/svg">
<mask id="mask0_382_451" style="mask-type:alpha" maskUnits="userSpaceOnUse" x="0" y="0" width="1732" height="1163">
<rect width="1732" height="1163" fill="url(#paint0_linear_382_451)"/>
</mask>
<g mask="url(#mask0_382_451)">
<g filter="url(#filter0_d_382_451)">
<path d="M-859.49 1056.31C-750.691 897.186 -479.797 802.288 -237.285 838.356C-110.573 857.108 1.09248 906.501 117.212 946.509C233.178 986.841 362.996 1019.23 490.232 1000.77C593.022 986.01 680.825 940.161 771.163 901.716C861.347 863.596 966.517 831.078 1068.67 847.407C1171.27 863.842 1264.04 927.555 1365.66 906.783C1439.93 891.566 1483.64 835.571 1552.97 810.599C1619.71 786.827 1698.84 795.348 1771.45 805.954C1843.9 816.884 1920.28 829.079 1990.93 811.95C2061.57 794.821 2116.99 734.34 2081.77 688.537L-701.989 47.863L-859.49 1056.31Z" fill="#E87722" fill-opacity="0.35" shape-rendering="crispEdges"/>
</g>
<g filter="url(#filter1_d_382_451)">
<path d="M2067.92 768.888C1955.82 733.192 1825.09 767.783 1716.35 807.433C1607.15 846.978 1491.11 893.431 1369.65 880.674C1255.51 868.542 1164.65 806.28 1053.52 783.53C945.589 761.519 828.826 779.531 723.236 807.184C618.105 834.942 517.438 872.563 408.305 891.624C299.021 911.005 174.856 909.289 83.7623 863.584C19.7218 831.527 -23.1942 780.653 -93.7635 755.929C-148.752 736.912 -213.578 736.483 -274.732 739.02C-336.343 741.451 -399.165 746.431 -458.694 735.912C-518.374 725.711 -576.305 695.767 -588.374 653.759L-384.219 223.619L2067.92 768.888Z" fill="url(#paint1_linear_382_451)"/>
</g>
<rect width="1732" height="712" fill="url(#paint2_linear_382_451)"/>
</g>
<defs>
<filter id="filter0_d_382_451" x="-898.49" y="29.863" width="3020.16" height="1076.45" filterUnits="userSpaceOnUse" color-interpolation-filters="sRGB">
<feFlood flood-opacity="0" result="BackgroundImageFix"/>
<feColorMatrix in="SourceAlpha" type="matrix" values="0 0 0 0 0 0 0 0 0 0 0 0 0 0 0 0 0 0 127 0" result="hardAlpha"/>
<feOffset dx="-5" dy="16"/>
<feGaussianBlur stdDeviation="17"/>
<feComposite in2="hardAlpha" operator="out"/>
<feColorMatrix type="matrix" values="0 0 0 0 0 0 0 0 0 0 0 0 0 0 0 0 0 0 0.25 0"/>
<feBlend mode="normal" in2="BackgroundImageFix" result="effect1_dropShadow_382_451"/>
<feBlend mode="normal" in="SourceGraphic" in2="effect1_dropShadow_382_451" result="shape"/>
</filter>
<filter id="filter1_d_382_451" x="-620.374" y="217.619" width="2710.3" height="733.704" filterUnits="userSpaceOnUse" color-interpolation-filters="sRGB">
<feFlood flood-opacity="0" result="BackgroundImageFix"/>
<feColorMatrix in="SourceAlpha" type="matrix" values="0 0 0 0 0 0 0 0 0 0 0 0 0 0 0 0 0 0 127 0" result="hardAlpha"/>
<feOffset dx="-5" dy="21"/>
<feGaussianBlur stdDeviation="13.5"/>
<feComposite in2="hardAlpha" operator="out"/>
<feColorMatrix type="matrix" values="0 0 0 0 0 0 0 0 0 0 0 0 0 0 0 0 0 0 0.25 0"/>
<feBlend mode="normal" in2="BackgroundImageFix" result="effect1_dropShadow_382_451"/>
<feBlend mode="normal" in="SourceGraphic" in2="effect1_dropShadow_382_451" result="shape"/>
</filter>
<linearGradient id="paint0_linear_382_451" x1="0" y1="1163" x2="1732" y2="1163" gradientUnits="userSpaceOnUse">
<stop stop-color="#E87722"/>
<stop offset="1" stop-color="#FDB515"/>
</linearGradient>
<linearGradient id="paint1_linear_382_451" x1="-4.99992" y1="993.203" x2="1652.48" y2="627.891" gradientUnits="userSpaceOnUse">
<stop stop-color="#E97822"/>
<stop offset="1" stop-color="#FDB515"/>
</linearGradient>
<linearGradient id="paint2_linear_382_451" x1="0" y1="712" x2="1732" y2="712" gradientUnits="userSpaceOnUse">
<stop stop-color="#E87722"/>
<stop offset="1" stop-color="#FDB515"/>
</linearGradient>
</defs>
</svg>
