<svg width="99" height="98" viewBox="0 0 99 98" fill="none" xmlns="http://www.w3.org/2000/svg">
<g filter="url(#filter0_d_173_2326)">
<rect x="10" y="9" width="73" height="72" rx="36" fill="white"/>
</g>
<path d="M64.6179 33.6011C63.4125 34.1132 62.1453 34.4698 60.8477 34.662C61.4544 34.5594 62.3471 33.4813 62.7024 33.045C63.2423 32.3868 63.6537 31.6354 63.9158 30.8289C63.9158 30.7691 63.9765 30.6835 63.9158 30.6407C63.8853 30.6242 63.851 30.6156 63.8162 30.6156C63.7813 30.6156 63.7471 30.6242 63.7165 30.6407C62.3074 31.394 60.8077 31.9689 59.2529 32.3519C59.1987 32.3683 59.141 32.3697 59.0861 32.3562C59.0311 32.3426 58.9809 32.3145 58.9409 32.2749C58.8199 32.1327 58.6896 31.9983 58.5509 31.8728C57.9167 31.3119 57.1972 30.8528 56.4187 30.5124C55.3679 30.0868 54.2328 29.9025 53.0992 29.9733C51.9993 30.0419 50.9254 30.3332 49.9444 30.8289C48.9783 31.3517 48.1293 32.0618 47.4483 32.9166C46.7319 33.7965 46.2147 34.8176 45.9315 35.9112C45.698 36.9515 45.6715 38.0267 45.8535 39.0769C45.8535 39.2566 45.8535 39.2823 45.6975 39.2566C39.5178 38.3582 34.4475 36.1936 30.3047 31.5477C30.1226 31.3423 30.0273 31.3423 29.88 31.5477C28.0772 34.2514 28.9526 38.5294 31.206 40.6427C31.5094 40.925 31.8214 41.1988 32.1508 41.4555C31.1176 41.3831 30.1096 41.1067 29.1866 40.6427C29.0132 40.5315 28.9179 40.5914 28.9092 40.7967C28.8847 41.0814 28.8847 41.3676 28.9092 41.6523C29.0901 43.0166 29.6348 44.3091 30.4875 45.3975C31.3403 46.4859 32.4706 47.3311 33.7628 47.8469C34.0779 47.9801 34.4061 48.0804 34.7422 48.1463C33.7857 48.3322 32.8048 48.3611 31.8387 48.2319C31.6307 48.1891 31.5527 48.3003 31.6307 48.4971C32.9048 51.9195 35.6696 52.9634 37.6977 53.5452C37.9751 53.5879 38.2524 53.5879 38.5644 53.6564C38.5644 53.6564 38.5644 53.6564 38.5124 53.7077C37.9144 54.7858 35.4963 55.513 34.3869 55.8895C32.3619 56.6075 30.203 56.882 28.0599 56.6938C27.7218 56.6424 27.6438 56.651 27.5572 56.6938C27.4705 56.7366 27.5572 56.8307 27.6525 56.9162C28.0859 57.1986 28.5192 57.4467 28.9699 57.6863C30.3116 58.4087 31.7301 58.9826 33.1995 59.3975C40.8092 61.468 49.3724 59.9451 55.084 54.3409C59.5736 49.9431 61.151 43.8769 61.151 37.8021C61.151 37.5711 61.437 37.4342 61.6017 37.3144C62.7375 36.4407 63.7389 35.409 64.5745 34.2514C64.7192 34.0788 64.7934 33.8591 64.7825 33.6353C64.7825 33.507 64.7825 33.5326 64.6179 33.6011Z" fill="#F59E32"/>
<defs>
<filter id="filter0_d_173_2326" x="0" y="0" width="99" height="98" filterUnits="userSpaceOnUse" color-interpolation-filters="sRGB">
<feFlood flood-opacity="0" result="BackgroundImageFix"/>
<feColorMatrix in="SourceAlpha" type="matrix" values="0 0 0 0 0 0 0 0 0 0 0 0 0 0 0 0 0 0 127 0" result="hardAlpha"/>
<feOffset dx="3" dy="4"/>
<feGaussianBlur stdDeviation="6.5"/>
<feComposite in2="hardAlpha" operator="out"/>
<feColorMatrix type="matrix" values="0 0 0 0 0 0 0 0 0 0 0 0 0 0 0 0 0 0 0.21 0"/>
<feBlend mode="normal" in2="BackgroundImageFix" result="effect1_dropShadow_173_2326"/>
<feBlend mode="normal" in="SourceGraphic" in2="effect1_dropShadow_173_2326" result="shape"/>
</filter>
</defs>
</svg>
