<svg width="19" height="20" viewBox="0 0 19 20" fill="none" xmlns="http://www.w3.org/2000/svg">
<path d="M18.1627 1.08919C17.6265 0.536687 16.7602 0.536687 16.224 1.08919L9.50023 8.00252L2.77648 1.07502C2.24023 0.52252 1.37398 0.52252 0.837734 1.07502C0.301484 1.62752 0.301484 2.52002 0.837734 3.07252L7.56148 10L0.837734 16.9275C0.301484 17.48 0.301484 18.3725 0.837734 18.925C1.37398 19.4775 2.24023 19.4775 2.77648 18.925L9.50023 11.9975L16.224 18.925C16.7602 19.4775 17.6265 19.4775 18.1627 18.925C18.699 18.3725 18.699 17.48 18.1627 16.9275L11.439 10L18.1627 3.07252C18.6852 2.53419 18.6852 1.62752 18.1627 1.08919Z" fill="white"/>
</svg>
