<svg width="82" height="82" viewBox="0 0 82 82" fill="none" xmlns="http://www.w3.org/2000/svg">
<circle cx="41" cy="41" r="40" fill="#F4F5F5" stroke="#005EB8" stroke-width="2"/>
<path d="M33.4889 45.0481H33.2852V43.1845C34.1679 42.3211 34.9063 41.1242 35.3985 39.5598H35.9587C37.2742 39.5598 38.3435 38.534 38.4539 37.2431L41.5347 33.4645H45.3284C45.6 33.4645 45.8461 33.3192 45.9734 33.0798L49.224 27.1983H55.5469C55.7675 27.1983 55.9712 27.1042 56.1155 26.9333L58.7974 23.7189L60.7325 22.6589C60.7155 22.9666 60.8768 23.2744 61.1823 23.4026C61.2756 23.4454 61.369 23.4624 61.4624 23.4624C61.7509 23.4624 62.031 23.2915 62.1498 23.0008L62.8373 21.3253C62.8542 21.2911 62.8627 21.2569 62.8712 21.2227C62.8967 21.1372 62.9052 21.0517 62.8967 20.9662C62.8882 20.8551 62.8542 20.7439 62.8033 20.6499C62.7524 20.5559 62.676 20.4704 62.5827 20.4105C62.5148 20.3592 62.4384 20.325 62.3535 20.2994C62.3196 20.2908 62.2856 20.2823 62.2517 20.2823L60.4779 20.0087C60.079 19.9489 59.697 20.2225 59.6292 20.6328C59.5867 20.932 59.7225 21.2227 59.9686 21.3765L57.9657 22.4793C57.8808 22.5221 57.8129 22.5819 57.7535 22.6503L55.2074 25.7022H48.7996C48.528 25.7022 48.2819 25.8476 48.1546 26.0869L44.9041 31.9685H41.1952C40.9745 31.9685 40.7624 32.0711 40.6181 32.2421L37.9616 35.4991C37.5118 34.9007 36.8074 34.5075 36.0181 34.4904C36.0096 34.3707 35.9926 34.251 35.9756 34.1313C37.4439 31.6778 36.9517 29.9852 36.5188 29.173C35.7465 27.7539 34.0491 26.8991 32.2074 27.0273C30.9258 27.1128 29.5764 27.1555 28.3033 27.1555C25.6978 27.1555 23.6779 26.9675 22.9055 26.6597C22.6 26.5315 22.2435 26.634 22.0399 26.8991C21.1232 28.113 20.7838 29.7202 21.0978 31.3188C21.3439 32.5755 21.972 33.6526 22.8037 34.3194C22.7952 34.3793 22.7867 34.4391 22.7867 34.4989C21.4458 34.5502 20.3679 35.6616 20.3679 37.0294C20.3679 38.4314 21.4967 39.5684 22.8886 39.5684H23.4148C23.7458 40.6028 24.1871 41.526 24.7557 42.304C24.9934 42.6288 25.248 42.9109 25.5196 43.176V45.0481H25.3159C21.2845 45.0481 18 48.348 18 52.4087V60.2479C18 60.6582 18.331 61.0002 18.7469 61.0002H40.0749C40.4823 61.0002 40.8218 60.6668 40.8218 60.2479V52.4001C40.7963 48.348 37.5203 45.0481 33.4889 45.0481ZM33.4889 46.5442C33.8963 46.5442 34.2867 46.5869 34.6771 46.6639L32.6742 50.0834L30.9598 48.9122C31.9273 48.3651 32.6148 47.5615 33.0476 46.5442H33.4889ZM29.1605 53.426H29.6188L30.4081 59.5042H28.3712L29.1605 53.426ZM29.7207 51.9299H29.0502L28.5325 50.2458L29.3812 49.6645L30.2299 50.2458L29.7207 51.9299ZM36.9856 37.0208C36.9856 37.5936 36.5188 38.0638 35.9502 38.0638H35.755C35.8738 37.4226 35.9587 36.7302 35.9926 35.9864C36.5528 36.0121 36.9856 36.4652 36.9856 37.0208ZM22.9395 28.2327C24.3144 28.5746 26.5465 28.6516 28.2948 28.6516C29.5934 28.6516 30.9768 28.6088 32.2922 28.5233C33.5483 28.4464 34.7196 29.0021 35.2118 29.8997C35.6531 30.7118 35.5513 31.7548 34.9317 32.9516C31.1041 30.823 27.2764 30.8742 23.6184 33.0713C23.1092 32.6182 22.7188 31.8745 22.5491 31.0281C22.3454 30.0279 22.4897 29.0363 22.9395 28.2327ZM22.8716 38.0638C22.303 38.0638 21.8362 37.5936 21.8362 37.0208C21.8362 36.4823 22.252 36.0377 22.7697 35.9864C22.8037 36.7131 22.8886 37.4055 23.0074 38.0552L22.8716 38.0638ZM24.238 35.029C24.238 34.8238 24.255 34.6186 24.2804 34.422C27.6074 32.3703 31.0022 32.3788 34.4989 34.422C34.5244 34.6272 34.5498 34.8323 34.5498 35.029C34.5498 40.7652 31.8764 43.3726 29.3897 43.3726C26.9114 43.3811 24.238 40.7652 24.238 35.029ZM29.3897 44.8772C30.1959 44.8772 31.0192 44.6805 31.8 44.2788V45.6637C31.4266 46.7921 30.6373 47.5529 29.3897 47.9633C28.1506 47.5444 27.3613 46.7921 26.9878 45.6637V44.2617C27.7432 44.6549 28.5579 44.8772 29.3897 44.8772ZM25.7487 46.5442C26.1816 47.5615 26.869 48.3651 27.8365 48.9122L26.1221 50.0834L24.1192 46.6639C24.5011 46.5869 24.9 46.5442 25.2989 46.5442H25.7487ZM19.4768 52.4087C19.4768 50.1176 20.7923 48.1343 22.6934 47.1682L25.248 51.5281C25.3498 51.7077 25.528 51.8359 25.7232 51.8786C25.7742 51.8872 25.8336 51.8957 25.8845 51.8957C26.0288 51.8957 26.1731 51.853 26.3004 51.7675L27.2594 51.1178L27.7601 52.7421L26.886 59.5042H24.5181V55.1614C24.5181 54.751 24.1871 54.4091 23.7712 54.4091C23.3554 54.4091 23.0244 54.7425 23.0244 55.1614V59.5042H19.4768V52.4087ZM39.3111 59.5042H35.7635V55.1614C35.7635 54.751 35.4325 54.4091 35.0166 54.4091C34.6007 54.4091 34.2697 54.7425 34.2697 55.1614V59.5042H31.9018L31.0277 52.7421L31.5284 51.1178L32.4875 51.7675C32.6148 51.853 32.759 51.8957 32.9033 51.8957C32.9542 51.8957 33.0137 51.8872 33.0646 51.8786C33.2683 51.8359 33.438 51.7077 33.5399 51.5281L36.0945 47.1682C37.9956 48.1343 39.3111 50.1176 39.3111 52.4087V59.5042Z" fill="#005EB8"/>
<path d="M63.2873 26.7877H58.9844C58.577 26.7877 58.2375 27.1211 58.2375 27.54V44.971H57.5755C56.939 44.4495 56.2091 44.0221 55.4283 43.7229V29.8397C55.4283 29.4293 55.0973 29.0874 54.6814 29.0874H50.3869C49.9796 29.0874 49.6401 29.4208 49.6401 29.8397V43.7229C48.8762 44.0306 48.1633 44.441 47.5353 44.9539H46.8309V36.3025C46.8309 35.8922 46.4999 35.5502 46.084 35.5502H41.781C41.3737 35.5502 41.0342 35.8836 41.0342 36.3025V45.7062C41.0342 46.1166 41.3652 46.4585 41.781 46.4585H46.1179C45.1504 47.7921 44.5648 49.4249 44.5648 51.2031C44.5648 55.6314 48.1464 59.2304 52.5427 59.2304C56.939 59.2304 60.512 55.6314 60.512 51.2031C60.512 49.4249 59.9349 47.7921 58.9589 46.4585H60.6563H63.2534C63.6607 46.4585 64.0002 46.1251 64.0002 45.7062V27.5315C64.0342 27.1211 63.6947 26.7877 63.2873 26.7877ZM51.1423 30.5919H53.9515V43.2955C53.5017 43.2185 53.0434 43.1672 52.5681 43.1672C52.0759 43.1672 51.6006 43.2185 51.1423 43.304V30.5919ZM42.5449 37.0548H45.3626V44.9625H42.5449V37.0548ZM52.5681 57.7344C48.9866 57.7344 46.0755 54.8021 46.0755 51.2031C46.0755 47.5955 48.9866 44.6633 52.5681 44.6633C56.1412 44.6633 59.0523 47.5955 59.0523 51.2031C59.0523 54.8021 56.1412 57.7344 52.5681 57.7344ZM62.5489 44.9625H59.7312V28.2838H62.5489V44.9625Z" fill="#005EB8"/>
<path d="M52.678 50.4251C51.5153 50.2114 51.3286 49.7498 51.3965 49.1001C51.4898 48.4846 52.1773 48.1939 52.7714 48.2366C53.0345 48.2537 53.654 48.3649 53.6625 48.9975C53.671 49.4078 53.9935 49.7156 54.4179 49.7327C54.8252 49.7241 55.1562 49.3907 55.1478 48.9718C55.1308 47.869 54.4094 47.0398 53.3061 46.8005V46.2619C53.3061 45.8515 52.9751 45.5096 52.5592 45.5096C52.1433 45.5096 51.8123 45.843 51.8123 46.2619V46.8517C50.8957 47.1082 50.081 47.7836 49.9112 48.9035C49.8179 49.8353 50.0046 51.4595 52.4319 51.8955C53.6965 52.0751 53.8662 52.6051 53.8662 53.1522C53.8662 53.3916 53.7898 53.5796 53.6371 53.7335C53.4079 53.9643 53.009 54.1011 52.5337 54.1011H52.5252C51.7275 54.1011 51.2522 53.6737 51.1928 52.8957C51.1588 52.4854 50.8024 52.1776 50.395 52.2033C49.9876 52.2375 49.6821 52.5965 49.7075 53.0069C49.8009 54.3063 50.6241 55.2381 51.8038 55.5031V56.1101C51.8038 56.5204 52.1348 56.8624 52.5507 56.8624C52.9666 56.8624 53.2976 56.529 53.2976 56.1101V55.5031C53.8492 55.3834 54.333 55.1441 54.6895 54.785C55.1223 54.349 55.3514 53.7763 55.3514 53.1437C55.3599 52.2802 55.012 50.7585 52.678 50.4251Z" fill="#005EB8"/>
<path d="M32.0803 37.3626C32.1906 37.3626 32.3094 37.3369 32.4113 37.2857H32.4198C32.7847 37.0976 32.929 36.653 32.7507 36.2854C32.564 35.9178 32.1227 35.764 31.7493 35.952C31.3843 36.1401 31.2316 36.5847 31.4183 36.9523C31.5456 37.2087 31.8002 37.3626 32.0803 37.3626Z" fill="#005EB8"/>
<path d="M27.1916 37.1745C27.5057 36.901 27.5311 36.4308 27.2595 36.1145C26.9879 35.8067 26.5212 35.7725 26.2071 36.0461C25.9016 36.3196 25.8676 36.7898 26.1392 37.0976C26.2835 37.2686 26.4957 37.354 26.6994 37.354C26.8691 37.3626 27.0474 37.3027 27.1916 37.1745Z" fill="#005EB8"/>
</svg>
