<svg width="1732" height="1211" viewBox="0 0 1732 1211" fill="none" xmlns="http://www.w3.org/2000/svg">
<mask id="mask0_993_912" style="mask-type:alpha" maskUnits="userSpaceOnUse" x="0" y="0" width="1732" height="1211">
<rect width="1732" height="1211" fill="#005EB8"/>
</mask>
<g mask="url(#mask0_993_912)">
<g filter="url(#filter0_d_993_912)">
<path d="M-860.49 1056.32C-751.691 897.186 -480.797 802.288 -238.285 838.356C-111.573 857.108 0.0924771 906.502 116.212 946.509C232.178 986.841 361.996 1019.23 489.232 1000.77C592.022 986.01 679.825 940.161 770.163 901.717C860.347 863.596 965.517 831.078 1067.67 847.408C1170.27 863.842 1263.04 927.555 1364.66 906.783C1438.93 891.567 1482.64 835.571 1551.97 810.6C1618.71 786.828 1697.84 795.348 1770.45 805.955C1842.9 816.884 1919.28 829.08 1989.93 811.95C2060.57 794.821 2115.99 734.341 2080.77 688.537L-702.989 47.8633L-860.49 1056.32Z" fill="#3299D3"/>
</g>
<g filter="url(#filter1_d_993_912)">
<path d="M2066.92 768.889C1954.82 733.193 1824.09 767.783 1715.35 807.433C1606.15 846.978 1490.11 893.431 1368.65 880.674C1254.51 868.542 1163.65 806.28 1052.52 783.531C944.589 761.519 827.826 779.531 722.236 807.184C617.105 834.942 516.438 872.563 407.305 891.625C298.021 911.005 173.856 909.289 82.7623 863.584C18.7218 831.528 -24.1942 780.653 -94.7635 755.929C-149.752 736.912 -214.578 736.483 -275.732 739.02C-337.343 741.451 -400.165 746.432 -459.694 735.912C-519.374 725.711 -577.305 695.767 -589.374 653.759L-385.219 223.619L2066.92 768.889Z" fill="#005EB8"/>
</g>
<rect x="-1" width="1732" height="761" fill="#005EB8"/>
<mask id="mask1_993_912" style="mask-type:alpha" maskUnits="userSpaceOnUse" x="-590" y="-238" width="2606" height="1146">
<path d="M2015 -2.61305C1902.9 -38.3089 1824.09 772.045 1715.35 811.696C1606.15 851.24 1490.11 897.694 1368.65 884.936C1254.51 872.804 1163.65 810.543 1052.52 787.793C944.588 765.781 827.825 783.794 722.235 811.446C617.104 839.204 516.437 876.825 407.304 895.887C298.02 915.267 173.855 913.551 82.7613 867.847C18.7208 835.79 -24.1951 784.915 -94.7644 760.192C-149.752 741.175 -214.579 740.746 -275.732 743.282C-337.344 745.714 -400.165 750.694 -459.694 740.174C-519.374 729.973 -577.305 700.03 -589.374 658.022L82.7636 -237.712L2015 -2.61305Z" fill="#005EB8"/>
</mask>
<g mask="url(#mask1_993_912)">
<g filter="url(#filter2_d_993_912)">
<rect x="985" y="630.303" width="322.264" height="70.8991" rx="35.4495" fill="#F59E32"/>
</g>
<path d="M1034.27 658.227V663.251H1041.36V666.488H1034.27V672.919H1044V676.303H1030.46V654.843H1044.16V658.227H1034.27ZM1046.35 675.292L1047.66 672.377C1048.75 673.246 1049.99 673.681 1051.36 673.681C1052.79 673.681 1053.5 673.173 1053.5 672.157C1053.5 671.562 1053.29 671.073 1052.86 670.692C1052.43 670.312 1051.59 669.862 1050.35 669.345C1047.65 668.222 1046.3 666.649 1046.3 664.628C1046.3 663.271 1046.81 662.216 1047.85 661.464C1048.88 660.702 1050.21 660.321 1051.82 660.321C1053.45 660.321 1054.98 660.688 1056.42 661.42L1055.36 664.262C1054.56 663.578 1053.45 663.236 1052.02 663.236C1050.74 663.236 1050.1 663.744 1050.1 664.76C1050.1 665.16 1050.31 665.521 1050.73 665.844C1051.15 666.166 1052.05 666.601 1053.43 667.147C1054.81 667.685 1055.8 668.339 1056.4 669.11C1057.01 669.882 1057.31 670.814 1057.31 671.908C1057.31 673.363 1056.77 674.511 1055.69 675.351C1054.61 676.181 1053.15 676.596 1051.29 676.596C1050.25 676.596 1049.41 676.508 1048.77 676.332C1048.15 676.166 1047.34 675.819 1046.35 675.292ZM1072.55 661.859L1070.98 664.599C1070.12 663.788 1068.97 663.383 1067.52 663.383C1066.13 663.383 1065.04 663.847 1064.23 664.774C1063.42 665.692 1063.02 666.967 1063.02 668.598C1063.02 671.889 1064.59 673.534 1067.73 673.534C1069.08 673.534 1070.28 673.085 1071.32 672.187L1072.66 675.072C1071.6 675.736 1070.67 676.156 1069.86 676.332C1069.07 676.508 1068.14 676.596 1067.05 676.596C1064.63 676.596 1062.72 675.893 1061.31 674.486C1059.91 673.07 1059.22 671.107 1059.22 668.598C1059.22 666.127 1059.98 664.13 1061.52 662.606C1063.05 661.083 1065.14 660.321 1067.78 660.321C1069.61 660.321 1071.2 660.834 1072.55 661.859ZM1084.32 674.735C1083.99 675.282 1083.41 675.731 1082.58 676.083C1081.76 676.425 1080.9 676.596 1080 676.596C1078.31 676.596 1076.98 676.176 1076.02 675.336C1075.05 674.486 1074.57 673.285 1074.57 671.732C1074.57 669.916 1075.25 668.495 1076.6 667.47C1077.97 666.444 1079.91 665.932 1082.42 665.932C1082.85 665.932 1083.36 666.005 1083.94 666.151C1083.94 664.306 1082.78 663.383 1080.44 663.383C1079.06 663.383 1077.91 663.612 1076.98 664.071L1076.19 661.229C1077.45 660.624 1078.95 660.321 1080.69 660.321C1083.08 660.321 1084.84 660.868 1085.95 661.962C1087.06 663.046 1087.62 665.106 1087.62 668.144V671.498C1087.62 673.588 1088.04 674.901 1088.88 675.438C1088.58 675.966 1088.24 676.288 1087.87 676.405C1087.5 676.532 1087.07 676.596 1086.59 676.596C1086.07 676.596 1085.59 676.4 1085.17 676.01C1084.75 675.619 1084.47 675.194 1084.32 674.735ZM1083.97 668.92C1083.35 668.793 1082.88 668.729 1082.57 668.729C1079.67 668.729 1078.23 669.677 1078.23 671.571C1078.23 672.978 1079.04 673.681 1080.68 673.681C1082.87 673.681 1083.97 672.582 1083.97 670.385V668.92ZM1101.68 676.303V667.235C1101.68 665.897 1101.42 664.921 1100.91 664.306C1100.4 663.69 1099.56 663.383 1098.4 663.383C1097.86 663.383 1097.29 663.534 1096.67 663.837C1096.07 664.14 1095.59 664.516 1095.25 664.965V676.303H1091.59V660.614H1094.23L1094.9 662.079C1095.9 660.907 1097.36 660.321 1099.31 660.321C1101.17 660.321 1102.64 660.883 1103.72 662.006C1104.8 663.119 1105.34 664.677 1105.34 666.679V676.303H1101.68ZM1123.32 669.579H1112.11C1112.18 670.829 1112.61 671.801 1113.4 672.494C1114.19 673.188 1115.26 673.534 1116.59 673.534C1118.26 673.534 1119.53 673.1 1120.4 672.23L1121.82 675.028C1120.53 676.073 1118.61 676.596 1116.05 676.596C1113.66 676.596 1111.76 675.897 1110.37 674.501C1108.98 673.095 1108.29 671.137 1108.29 668.627C1108.29 666.156 1109.05 664.154 1110.57 662.621C1112.11 661.088 1113.94 660.321 1116.08 660.321C1118.36 660.321 1120.18 661 1121.56 662.357C1122.94 663.715 1123.62 665.443 1123.62 667.543C1123.62 667.992 1123.52 668.671 1123.32 669.579ZM1112.24 666.825H1119.95C1119.69 664.53 1118.42 663.383 1116.14 663.383C1114.05 663.383 1112.75 664.53 1112.24 666.825ZM1135.3 674.735C1134.97 675.282 1134.39 675.731 1133.56 676.083C1132.74 676.425 1131.88 676.596 1130.98 676.596C1129.29 676.596 1127.96 676.176 1126.99 675.336C1126.03 674.486 1125.54 673.285 1125.54 671.732C1125.54 669.916 1126.22 668.495 1127.58 667.47C1128.95 666.444 1130.89 665.932 1133.4 665.932C1133.82 665.932 1134.33 666.005 1134.92 666.151C1134.92 664.306 1133.75 663.383 1131.42 663.383C1130.04 663.383 1128.89 663.612 1127.96 664.071L1127.17 661.229C1128.43 660.624 1129.93 660.321 1131.67 660.321C1134.06 660.321 1135.81 660.868 1136.93 661.962C1138.04 663.046 1138.6 665.106 1138.6 668.144V671.498C1138.6 673.588 1139.02 674.901 1139.86 675.438C1139.55 675.966 1139.22 676.288 1138.84 676.405C1138.47 676.532 1138.05 676.596 1137.57 676.596C1137.04 676.596 1136.57 676.4 1136.15 676.01C1135.73 675.619 1135.45 675.194 1135.3 674.735ZM1134.95 668.92C1134.32 668.793 1133.85 668.729 1133.54 668.729C1130.65 668.729 1129.21 669.677 1129.21 671.571C1129.21 672.978 1130.02 673.681 1131.65 673.681C1133.85 673.681 1134.95 672.582 1134.95 670.385V668.92ZM1151.63 664.027C1150.98 663.598 1150.26 663.383 1149.48 663.383C1148.63 663.383 1147.87 663.769 1147.21 664.54C1146.55 665.312 1146.23 666.254 1146.23 667.367V676.303H1142.57V660.614H1146.23V662.05C1147.25 660.897 1148.61 660.321 1150.31 660.321C1151.56 660.321 1152.52 660.512 1153.19 660.893L1151.63 664.027Z" fill="white"/>
<g filter="url(#filter3_d_993_912)">
<rect x="1188.26" y="395" width="331.742" height="320.587" rx="12" fill="#E4E4E4" fill-opacity="0.29" shape-rendering="crispEdges"/>
</g>
<g filter="url(#filter4_d_993_912)">
<rect x="1175.62" y="407.33" width="331.742" height="323.67" rx="12" fill="#F4F5F5"/>
</g>
<path d="M1299.78 431.327H1293.36C1292.03 431.327 1290.98 432.359 1290.98 433.663V439.966C1290.98 441.269 1292.03 442.302 1293.36 442.302H1302.17V431.327H1299.78Z" fill="black"/>
<path d="M1304.54 442.356H1310.97C1312.3 442.356 1313.35 441.324 1313.35 440.02V433.663C1313.35 432.359 1312.3 431.327 1310.97 431.327H1302.16V442.356H1304.54Z" fill="black"/>
<path d="M1360.6 431.327H1367.02C1368.35 431.327 1369.4 432.359 1369.4 433.663V439.966C1369.4 441.269 1368.35 442.302 1367.02 442.302H1360.6C1359.27 442.302 1358.22 441.269 1358.22 439.966V433.663C1358.22 432.414 1359.27 431.327 1360.6 431.327Z" fill="black"/>
<path d="M1382.98 431.327H1389.4C1390.73 431.327 1391.78 432.359 1391.78 433.663V439.966C1391.78 441.269 1390.73 442.302 1389.4 442.302H1382.98C1381.65 442.302 1380.6 441.269 1380.6 439.966V433.663C1380.6 432.414 1381.65 431.327 1382.98 431.327Z" fill="black"/>
<path d="M1344.59 453.33C1345.92 453.33 1346.97 452.298 1346.97 450.994V453.33H1344.59Z" fill="black"/>
<path d="M1358.22 450.995V444.693C1358.22 443.389 1357.16 442.356 1355.84 442.356H1349.41C1348.08 442.356 1347.03 443.389 1347.03 444.693V453.331H1358.22V450.995Z" fill="black"/>
<path d="M1380.6 450.995V444.693C1380.6 443.389 1379.54 442.356 1378.21 442.356H1371.79C1370.46 442.356 1369.41 443.389 1369.41 444.693V453.331H1380.6V450.995Z" fill="black"/>
<path d="M1382.98 453.33C1381.65 453.33 1380.6 452.298 1380.6 450.994V453.33H1382.98Z" fill="black"/>
<path d="M1302.17 461.969V455.667C1302.17 454.363 1301.11 453.331 1299.78 453.331H1293.36C1292.03 453.331 1290.98 454.363 1290.98 455.667V464.306H1302.17V461.969Z" fill="black"/>
<path d="M1304.54 464.305C1303.22 464.305 1302.16 463.273 1302.16 461.969V464.305H1304.54Z" fill="black"/>
<path d="M1326.98 453.331C1325.65 453.331 1324.6 454.363 1324.6 455.667V464.306H1335.78V453.331H1326.98Z" fill="black"/>
<path d="M1346.98 453.331H1335.79V464.306H1346.98V453.331Z" fill="black"/>
<path d="M1358.16 453.331H1346.98V464.306H1358.16V453.331Z" fill="black"/>
<path d="M1380.6 453.331H1369.41V464.306H1380.6V453.331Z" fill="black"/>
<path d="M1389.4 453.331C1390.73 453.331 1391.78 454.363 1391.78 455.667V464.306H1380.6V453.331H1389.4Z" fill="black"/>
<path d="M1302.17 464.306H1290.98V475.28H1302.17V464.306Z" fill="black"/>
<path d="M1310.97 464.306C1312.3 464.306 1313.35 465.338 1313.35 466.642V475.28H1302.16V464.306H1310.97Z" fill="black"/>
<path d="M1322.21 475.334C1323.54 475.334 1324.6 474.302 1324.6 472.998V475.334H1322.21Z" fill="black"/>
<path d="M1315.74 475.334C1314.41 475.334 1313.36 474.302 1313.36 472.998V475.334H1315.74Z" fill="black"/>
<path d="M1335.78 464.306H1324.6V475.28H1335.78V464.306Z" fill="black"/>
<path d="M1338.17 464.306H1335.79V466.642C1335.79 465.338 1336.84 464.306 1338.17 464.306Z" fill="black"/>
<path d="M1346.97 466.642V464.306H1344.59C1345.92 464.306 1346.97 465.338 1346.97 466.642Z" fill="black"/>
<path d="M1346.98 472.998C1346.98 474.302 1348.03 475.334 1349.36 475.334H1355.78C1357.11 475.334 1358.16 474.302 1358.16 472.998V464.359H1346.98V472.998Z" fill="black"/>
<path d="M1369.41 472.998C1369.41 474.302 1370.46 475.334 1371.79 475.334H1380.6V464.359H1369.41V472.998Z" fill="black"/>
<path d="M1391.78 464.306H1380.6V475.28H1391.78V464.306Z" fill="black"/>
<path d="M1290.98 483.972C1290.98 485.276 1292.03 486.309 1293.36 486.309H1302.17V475.334H1290.98V483.972Z" fill="black"/>
<path d="M1313.35 475.334H1302.16V486.309H1313.35V475.334Z" fill="black"/>
<path d="M1324.55 475.334H1313.36V486.309H1324.55V475.334Z" fill="black"/>
<path d="M1335.78 483.972C1335.78 485.276 1334.73 486.309 1333.4 486.309H1324.6V475.334H1335.78V483.972Z" fill="black"/>
<path d="M1369.4 483.972V477.67C1369.4 476.366 1368.35 475.334 1367.02 475.334H1360.6C1359.27 475.334 1358.22 476.366 1358.22 477.67V486.309H1369.4V483.972Z" fill="black"/>
<path d="M1380.59 477.67V475.334H1378.21C1379.54 475.334 1380.59 476.366 1380.59 477.67Z" fill="black"/>
<path d="M1391.78 475.334H1380.6V486.309H1391.78V475.334Z" fill="black"/>
<path d="M1302.16 488.645V486.309H1299.78C1301.11 486.309 1302.16 487.341 1302.16 488.645Z" fill="black"/>
<path d="M1302.16 494.947C1302.16 496.251 1303.22 497.283 1304.54 497.283H1310.97C1312.3 497.283 1313.35 496.251 1313.35 494.947V486.309H1302.16V494.947Z" fill="black"/>
<path d="M1315.74 486.309H1313.36V488.645C1313.36 487.341 1314.46 486.309 1315.74 486.309Z" fill="black"/>
<path d="M1346.98 494.947V488.645C1346.98 487.341 1345.93 486.309 1344.6 486.309H1338.17C1336.84 486.309 1335.79 487.341 1335.79 488.645V497.283H1346.98V494.947Z" fill="black"/>
<path d="M1369.4 486.309H1358.22V497.283H1369.4V486.309Z" fill="black"/>
<path d="M1391.78 486.309H1380.6V497.283H1391.78V486.309Z" fill="black"/>
<path d="M1293.36 497.283H1299.78C1301.11 497.283 1302.17 498.315 1302.17 499.619V505.922C1302.17 507.226 1301.11 508.258 1299.78 508.258H1293.36C1292.03 508.258 1290.98 507.226 1290.98 505.922V499.619C1290.98 498.315 1292.03 497.283 1293.36 497.283Z" fill="black"/>
<path d="M1315.74 497.283H1322.16C1323.49 497.283 1324.55 498.315 1324.55 499.619V505.922C1324.55 507.226 1323.49 508.258 1322.16 508.258H1315.74C1314.41 508.258 1313.36 507.226 1313.36 505.922V499.619C1313.36 498.315 1314.46 497.283 1315.74 497.283Z" fill="black"/>
<path d="M1335.79 505.922C1335.79 507.226 1336.84 508.258 1338.17 508.258H1344.6C1345.93 508.258 1346.98 507.226 1346.98 505.922V497.283H1335.79V505.922Z" fill="black"/>
<path d="M1369.4 497.283H1358.22V508.258H1369.4V497.283Z" fill="black"/>
<path d="M1378.21 508.258C1379.54 508.258 1380.59 507.226 1380.59 505.922V508.258H1378.21Z" fill="black"/>
<path d="M1371.79 508.258C1370.46 508.258 1369.41 507.226 1369.41 505.922V508.258H1371.79Z" fill="black"/>
<path d="M1391.78 497.283H1380.6V508.258H1391.78V497.283Z" fill="black"/>
<path d="M1304.54 508.258H1310.97C1312.3 508.258 1313.35 509.29 1313.35 510.594V516.896C1313.35 518.2 1312.3 519.232 1310.97 519.232H1304.54C1303.22 519.232 1302.16 518.2 1302.16 516.896V510.594C1302.16 509.344 1303.22 508.258 1304.54 508.258Z" fill="black"/>
<path d="M1326.98 508.258H1333.4C1334.73 508.258 1335.78 509.29 1335.78 510.594V516.896C1335.78 518.2 1334.73 519.232 1333.4 519.232H1326.98C1325.65 519.232 1324.6 518.2 1324.6 516.896V510.594C1324.6 509.344 1325.65 508.258 1326.98 508.258Z" fill="black"/>
<path d="M1358.22 516.951C1358.22 518.255 1359.27 519.287 1360.6 519.287H1369.4V508.312H1358.22V516.951Z" fill="black"/>
<path d="M1380.6 508.258H1369.41V519.232H1380.6V508.258Z" fill="black"/>
<path d="M1391.78 508.258H1380.6V519.232H1391.78V508.258Z" fill="black"/>
<path d="M1394.16 519.287C1392.84 519.287 1391.78 518.255 1391.78 516.951V519.287H1394.16Z" fill="black"/>
<path d="M1203.74 519.287C1202.41 519.287 1201.36 520.319 1201.36 521.623V530.262H1212.55V519.287H1203.74Z" fill="black"/>
<path d="M1223.73 519.287H1212.54V530.262H1223.73V519.287Z" fill="black"/>
<path d="M1234.92 519.287H1223.74V530.262H1234.92V519.287Z" fill="black"/>
<path d="M1237.31 530.262H1243.73C1245.06 530.262 1246.11 529.229 1246.11 527.926V521.623C1246.11 520.319 1245.06 519.287 1243.73 519.287H1234.92V530.262H1237.31Z" fill="black"/>
<path d="M1270.93 519.287H1277.35C1278.68 519.287 1279.73 520.319 1279.73 521.623V527.926C1279.73 529.229 1278.68 530.262 1277.35 530.262H1270.93C1269.6 530.262 1268.54 529.229 1268.54 527.926V521.623C1268.54 520.319 1269.65 519.287 1270.93 519.287Z" fill="black"/>
<path d="M1288.59 530.261C1289.92 530.261 1290.97 529.229 1290.97 527.925V530.261H1288.59Z" fill="black"/>
<path d="M1302.17 527.926V521.623C1302.17 520.319 1301.11 519.287 1299.78 519.287H1293.36C1292.03 519.287 1290.98 520.319 1290.98 521.623V530.262H1302.17V527.926Z" fill="black"/>
<path d="M1304.54 530.261C1303.22 530.261 1302.16 529.229 1302.16 527.925V530.261H1304.54Z" fill="black"/>
<path d="M1380.59 521.623V519.287H1378.21C1379.54 519.287 1380.59 520.319 1380.59 521.623Z" fill="black"/>
<path d="M1378.21 530.261C1379.54 530.261 1380.59 529.229 1380.59 527.925V530.261H1378.21Z" fill="black"/>
<path d="M1391.78 519.287H1380.6V530.262H1391.78V519.287Z" fill="black"/>
<path d="M1400.65 519.287C1401.97 519.287 1403.03 520.319 1403.03 521.623V530.262H1391.84V519.287H1400.65Z" fill="black"/>
<path d="M1423.02 530.261C1424.35 530.261 1425.41 529.229 1425.41 527.925V530.261H1423.02Z" fill="black"/>
<path d="M1427.79 519.287C1426.46 519.287 1425.41 520.319 1425.41 521.623V530.262H1436.59V519.287H1427.79Z" fill="black"/>
<path d="M1447.84 519.287H1436.65V530.262H1447.84V519.287Z" fill="black"/>
<path d="M1450.22 530.262H1456.65C1457.97 530.262 1459.03 529.229 1459.03 527.926V521.623C1459.03 520.319 1457.97 519.287 1456.65 519.287H1447.84V530.262H1450.22Z" fill="black"/>
<path d="M1481.46 527.926V521.623C1481.46 520.319 1480.4 519.287 1479.07 519.287H1472.65C1471.32 519.287 1470.27 520.319 1470.27 521.623V530.262H1481.46V527.926Z" fill="black"/>
<path d="M1212.55 530.262H1201.36V541.236H1212.55V530.262Z" fill="black"/>
<path d="M1223.73 530.262H1212.54V541.236H1223.73V530.262Z" fill="black"/>
<path d="M1234.92 530.262H1223.74V541.236H1234.92V530.262Z" fill="black"/>
<path d="M1237.31 530.262H1234.92V532.598C1234.92 531.294 1236.03 530.262 1237.31 530.262Z" fill="black"/>
<path d="M1237.31 541.236C1235.98 541.236 1234.92 540.203 1234.92 538.899V541.236H1237.31Z" fill="black"/>
<path d="M1288.6 530.262H1282.17C1280.84 530.262 1279.79 531.294 1279.79 532.598V538.9C1279.79 540.204 1280.84 541.236 1282.17 541.236H1290.98V530.262H1288.6Z" fill="black"/>
<path d="M1302.17 530.262H1290.98V541.236H1302.17V530.262Z" fill="black"/>
<path d="M1304.54 541.236H1310.97C1312.3 541.236 1313.35 540.204 1313.35 538.9V532.598C1313.35 531.294 1312.3 530.262 1310.97 530.262H1302.16V541.236H1304.54Z" fill="black"/>
<path d="M1367.02 530.262H1360.6C1359.27 530.262 1358.22 531.294 1358.22 532.598V538.9C1358.22 540.204 1359.27 541.236 1360.6 541.236H1369.4V530.262H1367.02Z" fill="black"/>
<path d="M1380.6 530.262H1369.41V541.236H1380.6V530.262Z" fill="black"/>
<path d="M1391.78 530.262H1380.6V541.236H1391.78V530.262Z" fill="black"/>
<path d="M1403.03 538.9C1403.03 540.204 1401.97 541.236 1400.65 541.236H1391.84V530.262H1403.03V538.9Z" fill="black"/>
<path d="M1423.02 530.262H1416.6C1415.27 530.262 1414.22 531.294 1414.22 532.598V538.9C1414.22 540.204 1415.27 541.236 1416.6 541.236H1425.4V530.262H1423.02Z" fill="black"/>
<path d="M1436.65 538.9C1436.65 540.204 1435.6 541.236 1434.27 541.236H1425.46V530.262H1436.65V538.9Z" fill="black"/>
<path d="M1439.03 530.262H1436.65V532.598C1436.65 531.294 1437.7 530.262 1439.03 530.262Z" fill="black"/>
<path d="M1467.83 541.236C1469.16 541.236 1470.21 540.203 1470.21 538.899V541.236H1467.83Z" fill="black"/>
<path d="M1481.4 530.262H1470.21V541.236H1481.4V530.262Z" fill="black"/>
<path d="M1212.55 541.236H1201.36V552.211H1212.55V541.236Z" fill="black"/>
<path d="M1223.73 541.236H1212.54V552.211H1223.73V541.236Z" fill="black"/>
<path d="M1234.92 541.236H1223.74V552.211H1234.92V541.236Z" fill="black"/>
<path d="M1246.11 541.236H1234.92V552.211H1246.11V541.236Z" fill="black"/>
<path d="M1257.36 541.236H1246.17V552.211H1257.36V541.236Z" fill="black"/>
<path d="M1268.55 541.236H1257.36V552.211H1268.55V541.236Z" fill="black"/>
<path d="M1270.93 552.265H1277.35C1278.68 552.265 1279.73 551.232 1279.73 549.928V543.626C1279.73 542.322 1278.68 541.29 1277.35 541.29H1268.54V552.265H1270.93Z" fill="black"/>
<path d="M1290.97 543.572V541.236H1288.59C1289.92 541.236 1290.97 542.269 1290.97 543.572Z" fill="black"/>
<path d="M1302.17 541.236H1290.98V552.211H1302.17V541.236Z" fill="black"/>
<path d="M1304.54 541.236H1302.16V543.572C1302.16 542.269 1303.22 541.236 1304.54 541.236Z" fill="black"/>
<path d="M1439.03 541.236C1437.7 541.236 1436.65 542.269 1436.65 543.572V552.211H1447.84V541.236H1439.03Z" fill="black"/>
<path d="M1459.03 541.236H1447.84V552.211H1459.03V541.236Z" fill="black"/>
<path d="M1470.21 541.236H1459.02V552.211H1470.21V541.236Z" fill="black"/>
<path d="M1481.4 541.236H1470.21V552.211H1481.4V541.236Z" fill="black"/>
<path d="M1201.36 560.903C1201.36 562.207 1202.41 563.239 1203.74 563.239H1210.17C1211.49 563.239 1212.55 562.207 1212.55 560.903V552.265H1201.36V560.903Z" fill="black"/>
<path d="M1214.93 552.265H1212.54V554.601C1212.54 553.297 1213.6 552.265 1214.93 552.265Z" fill="black"/>
<path d="M1234.93 554.547V552.211H1232.54C1233.87 552.265 1234.93 553.298 1234.93 554.547Z" fill="black"/>
<path d="M1234.92 560.903C1234.92 562.207 1235.98 563.239 1237.31 563.239H1243.73C1245.06 563.239 1246.11 562.207 1246.11 560.903V552.265H1234.92V560.903Z" fill="black"/>
<path d="M1248.55 552.265H1246.17V554.601C1246.17 553.297 1247.22 552.265 1248.55 552.265Z" fill="black"/>
<path d="M1257.36 554.547V552.211H1254.97C1256.3 552.265 1257.36 553.298 1257.36 554.547Z" fill="black"/>
<path d="M1257.36 560.903C1257.36 562.207 1258.41 563.239 1259.74 563.239H1266.16C1267.49 563.239 1268.55 562.207 1268.55 560.903V552.265H1257.36V560.903Z" fill="black"/>
<path d="M1270.93 552.265H1268.54V554.601C1268.54 553.297 1269.65 552.265 1270.93 552.265Z" fill="black"/>
<path d="M1302.17 552.265H1290.98V563.239H1302.17V552.265Z" fill="black"/>
<path d="M1304.54 563.239C1303.22 563.239 1302.16 562.207 1302.16 560.903V563.239H1304.54Z" fill="black"/>
<path d="M1326.98 552.265C1325.65 552.265 1324.6 553.297 1324.6 554.601V563.239H1335.78V552.265H1326.98Z" fill="black"/>
<path d="M1338.17 563.239H1344.6C1345.93 563.239 1346.98 562.207 1346.98 560.903V554.601C1346.98 553.297 1345.93 552.265 1344.6 552.265H1335.79V563.239H1338.17Z" fill="black"/>
<path d="M1367.03 563.239C1368.36 563.239 1369.41 562.207 1369.41 560.903V563.239H1367.03Z" fill="black"/>
<path d="M1380.6 560.903V554.601C1380.6 553.297 1379.54 552.265 1378.21 552.265H1371.79C1370.46 552.265 1369.41 553.297 1369.41 554.601V563.239H1380.6V560.903Z" fill="black"/>
<path d="M1400.65 552.265H1394.22C1392.89 552.265 1391.84 553.297 1391.84 554.601V560.903C1391.84 562.207 1392.89 563.239 1394.22 563.239H1403.03V552.265H1400.65Z" fill="black"/>
<path d="M1414.22 552.265H1403.03V563.239H1414.22V552.265Z" fill="black"/>
<path d="M1423.02 552.265C1424.35 552.265 1425.4 553.297 1425.4 554.601V563.239H1414.22V552.265H1423.02Z" fill="black"/>
<path d="M1434.27 563.239C1435.59 563.239 1436.65 562.207 1436.65 560.903V563.239H1434.27Z" fill="black"/>
<path d="M1427.79 563.239C1426.46 563.239 1425.41 562.207 1425.41 560.903V563.239H1427.79Z" fill="black"/>
<path d="M1447.84 552.265H1436.65V563.239H1447.84V552.265Z" fill="black"/>
<path d="M1459.03 560.903C1459.03 562.207 1457.97 563.239 1456.65 563.239H1447.84V552.265H1459.03V560.903Z" fill="black"/>
<path d="M1461.41 552.265H1459.02V554.601C1459.02 553.297 1460.08 552.265 1461.41 552.265Z" fill="black"/>
<path d="M1470.21 554.547V552.211H1467.83C1469.16 552.265 1470.21 553.298 1470.21 554.547Z" fill="black"/>
<path d="M1467.83 563.239C1469.16 563.239 1470.21 562.207 1470.21 560.903V563.239H1467.83Z" fill="black"/>
<path d="M1481.4 552.265H1470.21V563.239H1481.4V552.265Z" fill="black"/>
<path d="M1234.92 571.878V565.575C1234.92 564.272 1233.87 563.239 1232.54 563.239H1226.12C1224.79 563.239 1223.74 564.272 1223.74 565.575V574.214H1234.92V571.878Z" fill="black"/>
<path d="M1243.79 574.214C1245.12 574.214 1246.17 573.182 1246.17 571.878V574.214H1243.79Z" fill="black"/>
<path d="M1237.31 574.214C1235.98 574.214 1234.92 573.182 1234.92 571.878V574.214H1237.31Z" fill="black"/>
<path d="M1257.36 571.878V565.575C1257.36 564.272 1256.31 563.239 1254.98 563.239H1248.55C1247.22 563.239 1246.17 564.272 1246.17 565.575V574.214H1257.36V571.878Z" fill="black"/>
<path d="M1270.93 563.239H1277.35C1278.68 563.239 1279.73 564.272 1279.73 565.575V571.878C1279.73 573.182 1278.68 574.214 1277.35 574.214H1270.93C1269.6 574.214 1268.54 573.182 1268.54 571.878V565.575C1268.54 564.272 1269.65 563.239 1270.93 563.239Z" fill="black"/>
<path d="M1290.98 571.878C1290.98 573.182 1292.03 574.214 1293.36 574.214H1302.17V563.239H1290.98V571.878Z" fill="black"/>
<path d="M1310.97 563.239C1312.3 563.239 1313.35 564.272 1313.35 565.575V574.214H1302.16V563.239H1310.97Z" fill="black"/>
<path d="M1322.21 574.214C1323.54 574.214 1324.6 573.182 1324.6 571.878V574.214H1322.21Z" fill="black"/>
<path d="M1315.74 574.214C1314.41 574.214 1313.36 573.182 1313.36 571.878V574.214H1315.74Z" fill="black"/>
<path d="M1335.78 563.239H1324.6V574.214H1335.78V563.239Z" fill="black"/>
<path d="M1338.17 563.239H1335.79V565.575C1335.79 564.272 1336.84 563.239 1338.17 563.239Z" fill="black"/>
<path d="M1355.84 563.239H1349.41C1348.08 563.239 1347.03 564.272 1347.03 565.575V571.878C1347.03 573.182 1348.08 574.214 1349.41 574.214H1358.22V563.239H1355.84Z" fill="black"/>
<path d="M1369.4 563.239H1358.22V574.214H1369.4V563.239Z" fill="black"/>
<path d="M1380.6 563.239H1369.41V574.214H1380.6V563.239Z" fill="black"/>
<path d="M1382.98 574.214C1381.65 574.214 1380.6 573.182 1380.6 571.878V574.214H1382.98Z" fill="black"/>
<path d="M1403.03 565.575V563.239H1400.64C1401.92 563.239 1403.03 564.272 1403.03 565.575Z" fill="black"/>
<path d="M1403.03 571.878C1403.03 573.182 1404.08 574.214 1405.41 574.214H1414.22V563.239H1403.03V571.878Z" fill="black"/>
<path d="M1425.4 563.239H1414.22V574.214H1425.4V563.239Z" fill="black"/>
<path d="M1436.59 563.239H1425.41V574.214H1436.59V563.239Z" fill="black"/>
<path d="M1447.84 563.239H1436.65V574.214H1447.84V563.239Z" fill="black"/>
<path d="M1450.22 563.239H1447.84V565.575C1447.84 564.272 1448.89 563.239 1450.22 563.239Z" fill="black"/>
<path d="M1461.41 563.239C1460.08 563.239 1459.02 564.272 1459.02 565.575V574.214H1470.21V563.239H1461.41Z" fill="black"/>
<path d="M1481.4 563.239H1470.21V574.214H1481.4V563.239Z" fill="black"/>
<path d="M1223.74 582.852C1223.74 584.156 1224.79 585.188 1226.12 585.188H1234.92V574.214H1223.74V582.852Z" fill="black"/>
<path d="M1246.11 574.214H1234.92V585.188H1246.11V574.214Z" fill="black"/>
<path d="M1257.36 574.214H1246.17V585.188H1257.36V574.214Z" fill="black"/>
<path d="M1259.74 585.189C1258.41 585.189 1257.36 584.156 1257.36 582.853V585.189H1259.74Z" fill="black"/>
<path d="M1277.41 585.189C1278.74 585.189 1279.79 584.156 1279.79 582.853V585.189H1277.41Z" fill="black"/>
<path d="M1290.98 582.852V576.55C1290.98 575.246 1289.93 574.214 1288.6 574.214H1282.17C1280.84 574.214 1279.79 575.246 1279.79 576.55V585.188H1290.98V582.852Z" fill="black"/>
<path d="M1302.16 576.55V574.214H1299.78C1301.11 574.214 1302.16 575.246 1302.16 576.55Z" fill="black"/>
<path d="M1302.16 582.852C1302.16 584.156 1303.22 585.188 1304.54 585.188H1313.35V574.214H1302.16V582.852Z" fill="black"/>
<path d="M1324.55 574.214H1313.36V585.188H1324.55V574.214Z" fill="black"/>
<path d="M1335.78 582.852C1335.78 584.156 1334.73 585.188 1333.4 585.188H1324.6V574.214H1335.78V582.852Z" fill="black"/>
<path d="M1358.21 576.55V574.214H1355.83C1357.11 574.214 1358.21 575.246 1358.21 576.55Z" fill="black"/>
<path d="M1355.83 585.189C1357.16 585.189 1358.21 584.156 1358.21 582.853V585.189H1355.83Z" fill="black"/>
<path d="M1369.4 574.214H1358.22V585.188H1369.4V574.214Z" fill="black"/>
<path d="M1380.6 574.214H1369.41V585.188H1380.6V574.214Z" fill="black"/>
<path d="M1389.4 574.214C1390.73 574.214 1391.78 575.246 1391.78 576.55V585.188H1380.6V574.214H1389.4Z" fill="black"/>
<path d="M1394.16 585.189C1392.84 585.189 1391.78 584.156 1391.78 582.853V585.189H1394.16Z" fill="black"/>
<path d="M1414.21 576.55V574.214H1411.83C1413.16 574.214 1414.21 575.246 1414.21 576.55Z" fill="black"/>
<path d="M1425.4 574.214H1414.22V585.188H1425.4V574.214Z" fill="black"/>
<path d="M1427.79 574.214H1425.41V576.55C1425.41 575.246 1426.51 574.214 1427.79 574.214Z" fill="black"/>
<path d="M1436.65 576.55V574.214H1434.27C1435.54 574.214 1436.65 575.246 1436.65 576.55Z" fill="black"/>
<path d="M1434.27 585.189C1435.59 585.189 1436.65 584.156 1436.65 582.853V585.189H1434.27Z" fill="black"/>
<path d="M1427.79 585.189C1426.46 585.189 1425.41 584.156 1425.41 582.853V585.189H1427.79Z" fill="black"/>
<path d="M1447.84 574.214H1436.65V585.188H1447.84V574.214Z" fill="black"/>
<path d="M1470.21 574.214H1459.02V585.188H1470.21V574.214Z" fill="black"/>
<path d="M1481.46 582.852C1481.46 584.156 1480.4 585.188 1479.07 585.188H1470.27V574.214H1481.46V582.852Z" fill="black"/>
<path d="M1214.93 585.188H1221.35C1222.68 585.188 1223.73 586.221 1223.73 587.525V593.827C1223.73 595.131 1222.68 596.163 1221.35 596.163H1214.93C1213.6 596.163 1212.54 595.131 1212.54 593.827V587.525C1212.54 586.275 1213.6 585.188 1214.93 585.188Z" fill="black"/>
<path d="M1234.93 587.525V585.188H1232.54C1233.87 585.188 1234.93 586.275 1234.93 587.525Z" fill="black"/>
<path d="M1232.54 596.218C1233.87 596.218 1234.93 595.186 1234.93 593.882V596.218H1232.54Z" fill="black"/>
<path d="M1246.11 585.188H1234.92V596.163H1246.11V585.188Z" fill="black"/>
<path d="M1257.36 585.188H1246.17V596.163H1257.36V585.188Z" fill="black"/>
<path d="M1268.55 585.188H1257.36V596.163H1268.55V585.188Z" fill="black"/>
<path d="M1279.73 585.188H1268.54V596.163H1279.73V585.188Z" fill="black"/>
<path d="M1290.98 585.188H1279.79V596.163H1290.98V585.188Z" fill="black"/>
<path d="M1338.17 585.188C1336.84 585.188 1335.79 586.221 1335.79 587.525V596.163H1346.98V585.188H1338.17Z" fill="black"/>
<path d="M1358.16 585.188H1346.98V596.163H1358.16V585.188Z" fill="black"/>
<path d="M1369.4 585.188H1358.22V596.163H1369.4V585.188Z" fill="black"/>
<path d="M1380.6 585.188H1369.41V596.163H1380.6V585.188Z" fill="black"/>
<path d="M1391.78 585.188H1380.6V596.163H1391.78V585.188Z" fill="black"/>
<path d="M1400.65 585.188C1401.97 585.188 1403.03 586.221 1403.03 587.525V596.163H1391.84V585.188H1400.65Z" fill="black"/>
<path d="M1414.22 593.882C1414.22 595.185 1415.27 596.218 1416.6 596.218H1425.4V585.243H1414.22V593.882Z" fill="black"/>
<path d="M1436.59 585.188H1425.41V596.163H1436.59V585.188Z" fill="black"/>
<path d="M1447.84 593.882C1447.84 595.185 1446.79 596.218 1445.46 596.218H1436.65V585.243H1447.84V593.882Z" fill="black"/>
<path d="M1470.21 585.188H1459.02V596.163H1470.21V585.188Z" fill="black"/>
<path d="M1472.59 585.188H1470.21V587.525C1470.21 586.275 1471.32 585.188 1472.59 585.188Z" fill="black"/>
<path d="M1472.59 596.217C1471.26 596.217 1470.21 595.185 1470.21 593.881V596.217H1472.59Z" fill="black"/>
<path d="M1203.74 596.218H1210.17C1211.49 596.218 1212.55 597.25 1212.55 598.554V604.856C1212.55 606.16 1211.49 607.192 1210.17 607.192H1203.74C1202.41 607.192 1201.36 606.16 1201.36 604.856V598.554C1201.36 597.25 1202.41 596.218 1203.74 596.218Z" fill="black"/>
<path d="M1226.12 596.218C1224.79 596.218 1223.74 597.25 1223.74 598.554V607.192H1234.92V596.218H1226.12Z" fill="black"/>
<path d="M1246.11 596.218H1234.92V607.192H1246.11V596.218Z" fill="black"/>
<path d="M1248.55 596.218H1246.17V598.554C1246.17 597.25 1247.22 596.218 1248.55 596.218Z" fill="black"/>
<path d="M1279.79 598.554V596.218H1277.41C1278.68 596.218 1279.79 597.25 1279.79 598.554Z" fill="black"/>
<path d="M1277.41 607.192C1278.74 607.192 1279.79 606.159 1279.79 604.855V607.192H1277.41Z" fill="black"/>
<path d="M1290.98 596.218H1279.79V607.192H1290.98V596.218Z" fill="black"/>
<path d="M1335.79 604.856C1335.79 606.16 1336.84 607.192 1338.17 607.192H1344.6C1345.93 607.192 1346.98 606.16 1346.98 604.856V596.218H1335.79V604.856Z" fill="black"/>
<path d="M1349.36 596.218H1346.98V598.554C1346.98 597.25 1348.08 596.218 1349.36 596.218Z" fill="black"/>
<path d="M1391.78 598.554V596.218H1389.4C1390.73 596.218 1391.78 597.25 1391.78 598.554Z" fill="black"/>
<path d="M1389.4 607.192C1390.73 607.192 1391.78 606.159 1391.78 604.855V607.192H1389.4Z" fill="black"/>
<path d="M1402.97 596.218H1391.78V607.192H1402.97V596.218Z" fill="black"/>
<path d="M1405.41 607.192C1404.08 607.192 1403.03 606.159 1403.03 604.855V607.192H1405.41Z" fill="black"/>
<path d="M1470.21 596.218H1459.02V607.192H1470.21V596.218Z" fill="black"/>
<path d="M1472.59 607.192H1479.02C1480.35 607.192 1481.4 606.16 1481.4 604.856V598.554C1481.4 597.25 1480.35 596.218 1479.02 596.218H1470.21V607.192H1472.59Z" fill="black"/>
<path d="M1223.74 615.831C1223.74 617.135 1224.79 618.167 1226.12 618.167H1234.92V607.192H1223.74V615.831Z" fill="black"/>
<path d="M1246.17 615.831C1246.17 617.135 1245.12 618.167 1243.79 618.167H1234.98V607.192H1246.17V615.831Z" fill="black"/>
<path d="M1266.16 607.192H1259.74C1258.41 607.192 1257.36 608.225 1257.36 609.529V615.831C1257.36 617.135 1258.41 618.167 1259.74 618.167H1268.55V607.192H1266.16Z" fill="black"/>
<path d="M1279.73 607.192H1268.54V618.167H1279.73V607.192Z" fill="black"/>
<path d="M1290.98 615.831C1290.98 617.135 1289.93 618.167 1288.6 618.167H1279.79V607.192H1290.98V615.831Z" fill="black"/>
<path d="M1304.54 607.192H1310.97C1312.3 607.192 1313.35 608.225 1313.35 609.529V615.831C1313.35 617.135 1312.3 618.167 1310.97 618.167H1304.54C1303.22 618.167 1302.16 617.135 1302.16 615.831V609.529C1302.16 608.225 1303.22 607.192 1304.54 607.192Z" fill="black"/>
<path d="M1326.98 607.192H1333.4C1334.73 607.192 1335.78 608.225 1335.78 609.529V615.831C1335.78 617.135 1334.73 618.167 1333.4 618.167H1326.98C1325.65 618.167 1324.6 617.135 1324.6 615.831V609.529C1324.6 608.225 1325.65 607.192 1326.98 607.192Z" fill="black"/>
<path d="M1344.59 618.166C1345.92 618.166 1346.97 617.134 1346.97 615.83V618.166H1344.59Z" fill="black"/>
<path d="M1349.36 607.192C1348.03 607.192 1346.98 608.225 1346.98 609.529V618.167H1358.16V607.192H1349.36Z" fill="black"/>
<path d="M1360.6 618.167H1367.02C1368.35 618.167 1369.4 617.135 1369.4 615.831V609.529C1369.4 608.225 1368.35 607.192 1367.02 607.192H1358.22V618.167H1360.6Z" fill="black"/>
<path d="M1378.21 618.166C1379.54 618.166 1380.59 617.134 1380.59 615.83V618.166H1378.21Z" fill="black"/>
<path d="M1382.98 607.192C1381.65 607.192 1380.6 608.225 1380.6 609.529V618.167H1391.78V607.192H1382.98Z" fill="black"/>
<path d="M1402.97 607.192H1391.78V618.167H1402.97V607.192Z" fill="black"/>
<path d="M1414.22 607.192H1403.03V618.167H1414.22V607.192Z" fill="black"/>
<path d="M1425.4 607.192H1414.22V618.167H1425.4V607.192Z" fill="black"/>
<path d="M1434.27 607.192C1435.6 607.192 1436.65 608.225 1436.65 609.529V618.167H1425.46V607.192H1434.27Z" fill="black"/>
<path d="M1439.03 618.166C1437.7 618.166 1436.65 617.134 1436.65 615.83V618.166H1439.03Z" fill="black"/>
<path d="M1459.02 615.831C1459.02 617.135 1460.08 618.167 1461.41 618.167H1467.83C1469.16 618.167 1470.21 617.135 1470.21 615.831V607.192H1459.02V615.831Z" fill="black"/>
<path d="M1472.59 607.192H1470.21V609.529C1470.21 608.225 1471.32 607.192 1472.59 607.192Z" fill="black"/>
<path d="M1293.36 618.167H1299.78C1301.11 618.167 1302.17 619.199 1302.17 620.503V626.805C1302.17 628.109 1301.11 629.142 1299.78 629.142H1293.36C1292.03 629.142 1290.98 628.109 1290.98 626.805V620.503C1290.98 619.199 1292.03 618.167 1293.36 618.167Z" fill="black"/>
<path d="M1324.6 626.859V620.557C1324.6 619.253 1323.55 618.221 1322.22 618.221H1315.79C1314.46 618.221 1313.41 619.253 1313.41 620.557V629.195H1324.6V626.859Z" fill="black"/>
<path d="M1333.41 629.196C1334.74 629.196 1335.79 628.163 1335.79 626.859V629.196H1333.41Z" fill="black"/>
<path d="M1326.98 629.196C1325.65 629.196 1324.6 628.163 1324.6 626.859V629.196H1326.98Z" fill="black"/>
<path d="M1338.17 618.166C1336.84 618.166 1335.79 619.198 1335.79 620.502V629.141H1346.98V618.166H1338.17Z" fill="black"/>
<path d="M1358.16 618.167H1346.98V629.142H1358.16V618.167Z" fill="black"/>
<path d="M1360.6 618.167H1358.22V620.503C1358.22 619.199 1359.27 618.167 1360.6 618.167Z" fill="black"/>
<path d="M1378.21 618.167H1371.79C1370.46 618.167 1369.41 619.199 1369.41 620.503V626.805C1369.41 628.109 1370.46 629.142 1371.79 629.142H1380.6V618.167H1378.21Z" fill="black"/>
<path d="M1391.78 618.166H1380.6V629.141H1391.78V618.166Z" fill="black"/>
<path d="M1394.16 618.166H1391.78V620.502C1391.78 619.198 1392.89 618.166 1394.16 618.166Z" fill="black"/>
<path d="M1425.41 620.502V618.166H1423.02C1424.35 618.166 1425.41 619.198 1425.41 620.502Z" fill="black"/>
<path d="M1436.59 618.166H1425.41V629.141H1436.59V618.166Z" fill="black"/>
<path d="M1447.84 618.167H1436.65V629.142H1447.84V618.167Z" fill="black"/>
<path d="M1456.65 618.167C1457.97 618.167 1459.03 619.199 1459.03 620.503V629.142H1447.84V618.167H1456.65Z" fill="black"/>
<path d="M1461.41 629.196C1460.08 629.196 1459.02 628.163 1459.02 626.859V629.196H1461.41Z" fill="black"/>
<path d="M1313.36 637.834C1313.36 639.138 1314.41 640.17 1315.74 640.17H1324.55V629.195H1313.36V637.834Z" fill="black"/>
<path d="M1335.78 629.195H1324.6V640.17H1335.78V629.195Z" fill="black"/>
<path d="M1346.98 629.195H1335.79V640.17H1346.98V629.195Z" fill="black"/>
<path d="M1358.22 637.834C1358.22 639.138 1357.16 640.17 1355.84 640.17H1347.03V629.195H1358.22V637.834Z" fill="black"/>
<path d="M1380.59 631.478V629.142H1378.21C1379.54 629.142 1380.59 630.228 1380.59 631.478Z" fill="black"/>
<path d="M1378.21 640.17C1379.54 640.17 1380.59 639.138 1380.59 637.834V640.17H1378.21Z" fill="black"/>
<path d="M1391.78 629.195H1380.6V640.17H1391.78V629.195Z" fill="black"/>
<path d="M1405.41 629.195H1411.84C1413.17 629.195 1414.22 630.228 1414.22 631.531V637.834C1414.22 639.138 1413.17 640.17 1411.84 640.17H1405.41C1404.08 640.17 1403.03 639.138 1403.03 637.834V631.531C1403.03 630.228 1404.08 629.195 1405.41 629.195Z" fill="black"/>
<path d="M1436.59 629.195H1425.41V640.17H1436.59V629.195Z" fill="black"/>
<path d="M1439.03 629.195H1436.65V631.531C1436.65 630.228 1437.7 629.195 1439.03 629.195Z" fill="black"/>
<path d="M1447.83 631.478V629.142H1445.45C1446.78 629.142 1447.83 630.228 1447.83 631.478Z" fill="black"/>
<path d="M1447.84 637.834C1447.84 639.138 1448.89 640.17 1450.22 640.17H1459.03V629.195H1447.84V637.834Z" fill="black"/>
<path d="M1470.21 629.195H1459.02V640.17H1470.21V629.195Z" fill="black"/>
<path d="M1479.07 629.195C1480.4 629.195 1481.46 630.228 1481.46 631.531V640.17H1470.27V629.195H1479.07Z" fill="black"/>
<path d="M1304.54 640.17H1310.97C1312.3 640.17 1313.35 641.202 1313.35 642.506V648.808C1313.35 650.112 1312.3 651.144 1310.97 651.144H1304.54C1303.22 651.144 1302.16 650.112 1302.16 648.808V642.506C1302.16 641.202 1303.22 640.17 1304.54 640.17Z" fill="black"/>
<path d="M1335.79 642.506V640.17H1333.41C1334.74 640.17 1335.79 641.202 1335.79 642.506Z" fill="black"/>
<path d="M1335.79 648.808C1335.79 650.112 1336.84 651.144 1338.17 651.144H1344.6C1345.93 651.144 1346.98 650.112 1346.98 648.808V640.17H1335.79V648.808Z" fill="black"/>
<path d="M1349.36 640.17H1346.98V642.506C1346.98 641.202 1348.08 640.17 1349.36 640.17Z" fill="black"/>
<path d="M1371.79 640.17C1370.46 640.17 1369.41 641.202 1369.41 642.506V651.144H1380.6V640.17H1371.79Z" fill="black"/>
<path d="M1391.78 640.17H1380.6V651.144H1391.78V640.17Z" fill="black"/>
<path d="M1394.16 651.145C1392.84 651.145 1391.78 650.113 1391.78 648.809V651.145H1394.16Z" fill="black"/>
<path d="M1423.02 651.145C1424.35 651.145 1425.41 650.113 1425.41 648.809V651.145H1423.02Z" fill="black"/>
<path d="M1436.59 640.17H1425.41V651.144H1436.59V640.17Z" fill="black"/>
<path d="M1459.03 642.506V640.17H1456.64C1457.97 640.17 1459.03 641.202 1459.03 642.506Z" fill="black"/>
<path d="M1459.02 648.808C1459.02 650.112 1460.08 651.144 1461.41 651.144H1470.21V640.17H1459.02V648.808Z" fill="black"/>
<path d="M1481.4 640.17H1470.21V651.144H1481.4V640.17Z" fill="black"/>
<path d="M1326.98 651.145H1333.4C1334.73 651.145 1335.78 652.177 1335.78 653.481V659.783C1335.78 661.087 1334.73 662.119 1333.4 662.119H1326.98C1325.65 662.119 1324.6 661.087 1324.6 659.783V653.481C1324.6 652.177 1325.65 651.145 1326.98 651.145Z" fill="black"/>
<path d="M1349.36 651.145H1355.78C1357.11 651.145 1358.16 652.177 1358.16 653.481V659.783C1358.16 661.087 1357.11 662.119 1355.78 662.119H1349.36C1348.03 662.119 1346.98 661.087 1346.98 659.783V653.481C1346.98 652.177 1348.08 651.145 1349.36 651.145Z" fill="black"/>
<path d="M1380.6 651.145H1369.41V662.119H1380.6V651.145Z" fill="black"/>
<path d="M1391.78 651.145H1380.6V662.119H1391.78V651.145Z" fill="black"/>
<path d="M1402.97 651.145H1391.78V662.119H1402.97V651.145Z" fill="black"/>
<path d="M1414.22 651.145H1403.03V662.119H1414.22V651.145Z" fill="black"/>
<path d="M1425.4 651.145H1414.22V662.119H1425.4V651.145Z" fill="black"/>
<path d="M1436.59 651.145H1425.41V662.119H1436.59V651.145Z" fill="black"/>
<path d="M1450.22 651.145H1456.65C1457.97 651.145 1459.03 652.177 1459.03 653.481V659.783C1459.03 661.087 1457.97 662.119 1456.65 662.119H1450.22C1448.89 662.119 1447.84 661.087 1447.84 659.783V653.481C1447.84 652.177 1448.89 651.145 1450.22 651.145Z" fill="black"/>
<path d="M1470.21 653.481V651.145H1467.83C1469.16 651.145 1470.21 652.177 1470.21 653.481Z" fill="black"/>
<path d="M1467.83 662.119C1469.16 662.119 1470.21 661.087 1470.21 659.783V662.119H1467.83Z" fill="black"/>
<path d="M1481.4 651.145H1470.21V662.119H1481.4V651.145Z" fill="black"/>
<path d="M1302.17 670.812V664.51C1302.17 663.206 1301.11 662.174 1299.78 662.174H1293.36C1292.03 662.174 1290.98 663.206 1290.98 664.51V673.148H1302.17V670.812Z" fill="black"/>
<path d="M1338.17 662.119H1344.6C1345.93 662.119 1346.98 663.151 1346.98 664.455V670.758C1346.98 672.061 1345.93 673.094 1344.6 673.094H1338.17C1336.84 673.094 1335.79 672.061 1335.79 670.758V664.455C1335.79 663.206 1336.84 662.119 1338.17 662.119Z" fill="black"/>
<path d="M1380.6 662.119H1369.41V673.094H1380.6V662.119Z" fill="black"/>
<path d="M1391.78 670.812C1391.78 672.116 1390.73 673.148 1389.4 673.148H1380.6V662.174H1391.78V670.812Z" fill="black"/>
<path d="M1394.16 662.119H1391.78V664.455C1391.78 663.206 1392.89 662.119 1394.16 662.119Z" fill="black"/>
<path d="M1403.03 664.455V662.119H1400.64C1401.92 662.119 1403.03 663.206 1403.03 664.455Z" fill="black"/>
<path d="M1400.64 673.149C1401.97 673.149 1403.03 672.116 1403.03 670.812V673.149H1400.64Z" fill="black"/>
<path d="M1414.22 662.119H1403.03V673.094H1414.22V662.119Z" fill="black"/>
<path d="M1416.6 662.119H1414.22V664.455C1414.22 663.206 1415.27 662.119 1416.6 662.119Z" fill="black"/>
<path d="M1425.41 664.455V662.119H1423.02C1424.35 662.119 1425.41 663.206 1425.41 664.455Z" fill="black"/>
<path d="M1425.41 670.812C1425.41 672.116 1426.46 673.148 1427.79 673.148H1434.21C1435.54 673.148 1436.59 672.116 1436.59 670.812V662.174H1425.41V670.812Z" fill="black"/>
<path d="M1456.64 673.149C1457.97 673.149 1459.03 672.116 1459.03 670.812V673.149H1456.64Z" fill="black"/>
<path d="M1461.41 662.119C1460.08 662.119 1459.02 663.151 1459.02 664.455V673.094H1470.21V662.119H1461.41Z" fill="black"/>
<path d="M1481.46 670.812C1481.46 672.116 1480.4 673.148 1479.07 673.148H1470.27V662.174H1481.46V670.812Z" fill="black"/>
<path d="M1302.17 673.148H1290.98V684.123H1302.17V673.148Z" fill="black"/>
<path d="M1322.22 673.148H1315.79C1314.46 673.148 1313.41 674.181 1313.41 675.485V681.787C1313.41 683.091 1314.46 684.123 1315.79 684.123H1324.6V673.148H1322.22Z" fill="black"/>
<path d="M1326.98 684.123H1333.4C1334.73 684.123 1335.78 683.091 1335.78 681.787V675.485C1335.78 674.181 1334.73 673.148 1333.4 673.148H1324.6V684.123H1326.98Z" fill="black"/>
<path d="M1358.22 681.787V675.485C1358.22 674.181 1357.16 673.148 1355.84 673.148H1349.41C1348.08 673.148 1347.03 674.181 1347.03 675.485V684.123H1358.22V681.787Z" fill="black"/>
<path d="M1367.03 684.123C1368.36 684.123 1369.41 683.091 1369.41 681.787V684.123H1367.03Z" fill="black"/>
<path d="M1360.6 684.122C1359.27 684.122 1358.22 683.09 1358.22 681.786V684.122H1360.6Z" fill="black"/>
<path d="M1380.6 673.148H1369.41V684.123H1380.6V673.148Z" fill="black"/>
<path d="M1382.98 673.148H1380.6V675.485C1380.6 674.181 1381.65 673.148 1382.98 673.148Z" fill="black"/>
<path d="M1394.16 673.148C1392.84 673.148 1391.78 674.181 1391.78 675.485V684.123H1402.97V673.148H1394.16Z" fill="black"/>
<path d="M1414.22 681.787C1414.22 683.091 1413.17 684.123 1411.84 684.123H1403.03V673.148H1414.22V681.787Z" fill="black"/>
<path d="M1445.46 673.148H1439.03C1437.7 673.148 1436.65 674.181 1436.65 675.485V681.787C1436.65 683.091 1437.7 684.123 1439.03 684.123H1447.84V673.148H1445.46Z" fill="black"/>
<path d="M1459.03 673.148H1447.84V684.123H1459.03V673.148Z" fill="black"/>
<path d="M1470.21 673.148H1459.02V684.123H1470.21V673.148Z" fill="black"/>
<path d="M1472.59 673.148H1470.21V675.485C1470.21 674.181 1471.32 673.148 1472.59 673.148Z" fill="black"/>
<path d="M1472.59 684.123C1471.26 684.123 1470.21 683.091 1470.21 681.787V684.123H1472.59Z" fill="black"/>
<path d="M1302.17 684.123H1290.98V695.098H1302.17V684.123Z" fill="black"/>
<path d="M1344.59 695.098C1345.92 695.098 1346.97 694.066 1346.97 692.762V695.098H1344.59Z" fill="black"/>
<path d="M1358.16 684.123H1346.98V695.098H1358.16V684.123Z" fill="black"/>
<path d="M1369.4 684.123H1358.22V695.098H1369.4V684.123Z" fill="black"/>
<path d="M1380.6 684.123H1369.41V695.098H1380.6V684.123Z" fill="black"/>
<path d="M1391.78 692.761C1391.78 694.065 1392.84 695.098 1394.16 695.098H1400.59C1401.92 695.098 1402.97 694.065 1402.97 692.761V684.123H1391.78V692.761Z" fill="black"/>
<path d="M1405.41 684.123H1403.03V686.459C1403.03 685.155 1404.08 684.123 1405.41 684.123Z" fill="black"/>
<path d="M1427.79 684.123H1434.21C1435.54 684.123 1436.59 685.155 1436.59 686.459V692.761C1436.59 694.065 1435.54 695.098 1434.21 695.098H1427.79C1426.46 695.098 1425.41 694.065 1425.41 692.761V686.459C1425.41 685.155 1426.51 684.123 1427.79 684.123Z" fill="black"/>
<path d="M1447.83 686.459V684.123H1445.45C1446.78 684.123 1447.83 685.155 1447.83 686.459Z" fill="black"/>
<path d="M1459.03 684.123H1447.84V695.098H1459.03V684.123Z" fill="black"/>
<path d="M1470.21 684.123H1459.02V695.098H1470.21V684.123Z" fill="black"/>
<path d="M1479.07 684.123C1480.4 684.123 1481.46 685.155 1481.46 686.459V695.098H1470.27V684.123H1479.07Z" fill="black"/>
<path d="M1290.98 703.79C1290.98 705.094 1292.03 706.126 1293.36 706.126H1299.78C1301.11 706.126 1302.17 705.094 1302.17 703.79V695.151H1290.98V703.79Z" fill="black"/>
<path d="M1344.6 695.098H1338.17C1336.84 695.098 1335.79 696.13 1335.79 697.434V703.736C1335.79 705.04 1336.84 706.072 1338.17 706.072H1346.98V695.098H1344.6Z" fill="black"/>
<path d="M1358.16 695.098H1346.98V706.072H1358.16V695.098Z" fill="black"/>
<path d="M1369.4 695.098H1358.22V706.072H1369.4V695.098Z" fill="black"/>
<path d="M1380.6 703.79C1380.6 705.094 1379.54 706.126 1378.21 706.126H1369.41V695.151H1380.6V703.79Z" fill="black"/>
<path d="M1447.84 703.79C1447.84 705.094 1448.89 706.126 1450.22 706.126H1459.03V695.151H1447.84V703.79Z" fill="black"/>
<path d="M1470.21 695.098H1459.02V706.072H1470.21V695.098Z" fill="black"/>
<path d="M1481.46 703.79C1481.46 705.094 1480.4 706.126 1479.07 706.126H1470.27V695.151H1481.46V703.79Z" fill="black"/>
<path d="M1203.68 431.327C1202.36 431.327 1201.3 432.359 1201.3 433.663V442.356V453.331V464.305V475.28V486.254V497.229V505.922C1201.3 507.226 1202.36 508.258 1203.68 508.258H1277.35C1278.68 508.258 1279.73 507.226 1279.73 505.922V497.283V486.309V475.334V464.36V453.385V442.356V433.663C1279.73 432.359 1278.68 431.327 1277.35 431.327H1203.68ZM1268.54 453.331V464.305V475.28V486.254V495.925C1268.54 496.686 1267.94 497.283 1267.16 497.283H1213.88C1213.1 497.283 1212.49 496.686 1212.49 495.925V486.254V475.28V464.305V453.331V443.66C1212.49 442.899 1213.1 442.302 1213.88 442.302H1267.16C1267.94 442.302 1268.54 442.899 1268.54 443.66V453.331Z" fill="black"/>
<path d="M1257.36 475.334V464.359V455.721C1257.36 454.417 1256.3 453.385 1254.98 453.385H1226.12C1224.79 453.385 1223.74 454.417 1223.74 455.721V464.359V475.334V483.972C1223.74 485.276 1224.79 486.308 1226.12 486.308H1254.98C1256.3 486.308 1257.36 485.276 1257.36 483.972V475.334Z" fill="black"/>
<path d="M1405.41 431.327C1404.08 431.327 1403.03 432.359 1403.03 433.663V442.356V453.331V464.305V475.28V486.254V497.229V505.922C1403.03 507.226 1404.08 508.258 1405.41 508.258H1479.08C1480.41 508.258 1481.46 507.226 1481.46 505.922V497.283V486.309V475.334V464.36V453.385V442.356V433.663C1481.46 432.359 1480.41 431.327 1479.08 431.327H1405.41ZM1470.22 453.331V464.305V475.28V486.254V495.925C1470.22 496.686 1469.61 497.283 1468.83 497.283H1415.55C1414.77 497.283 1414.16 496.686 1414.16 495.925V486.254V475.28V464.305V453.331V443.66C1414.16 442.899 1414.77 442.302 1415.55 442.302H1468.89C1469.66 442.302 1470.27 442.899 1470.27 443.66V453.331H1470.22Z" fill="black"/>
<path d="M1459.03 475.334V464.359V455.721C1459.03 454.417 1457.97 453.385 1456.65 453.385H1427.79C1426.46 453.385 1425.41 454.417 1425.41 455.721V464.359V475.334V483.972C1425.41 485.276 1426.46 486.308 1427.79 486.308H1456.65C1457.97 486.308 1459.03 485.276 1459.03 483.972V475.334Z" fill="black"/>
<path d="M1203.68 629.142C1202.36 629.142 1201.3 630.174 1201.3 631.478V640.116V651.091V662.065V673.04V684.123V695.098V703.736C1201.3 705.04 1202.36 706.072 1203.68 706.072H1277.35C1278.68 706.072 1279.73 705.04 1279.73 703.736V695.098V684.123V673.149V662.174V651.199V640.225V631.586C1279.73 630.283 1278.68 629.25 1277.35 629.25H1203.68V629.142ZM1268.54 651.145V662.12V673.094V684.123V693.794C1268.54 694.554 1267.94 695.152 1267.16 695.152H1213.88C1213.1 695.152 1212.49 694.554 1212.49 693.794V684.123V673.149V662.174V651.199V641.529C1212.49 640.768 1213.1 640.171 1213.88 640.171H1267.16C1267.94 640.171 1268.54 640.768 1268.54 641.529V651.145Z" fill="black"/>
<path d="M1257.36 673.148V662.174V653.535C1257.36 652.231 1256.3 651.199 1254.98 651.199H1226.12C1224.79 651.199 1223.74 652.231 1223.74 653.535V662.174V673.148V681.787C1223.74 683.091 1224.79 684.123 1226.12 684.123H1254.98C1256.3 684.123 1257.36 683.091 1257.36 681.787V673.148Z" fill="black"/>
</g>
</g>
<defs>
<filter id="filter0_d_993_912" x="-899.49" y="29.8633" width="3020.16" height="1076.45" filterUnits="userSpaceOnUse" color-interpolation-filters="sRGB">
<feFlood flood-opacity="0" result="BackgroundImageFix"/>
<feColorMatrix in="SourceAlpha" type="matrix" values="0 0 0 0 0 0 0 0 0 0 0 0 0 0 0 0 0 0 127 0" result="hardAlpha"/>
<feOffset dx="-5" dy="16"/>
<feGaussianBlur stdDeviation="17"/>
<feComposite in2="hardAlpha" operator="out"/>
<feColorMatrix type="matrix" values="0 0 0 0 0 0 0 0 0 0 0 0 0 0 0 0 0 0 0.25 0"/>
<feBlend mode="normal" in2="BackgroundImageFix" result="effect1_dropShadow_993_912"/>
<feBlend mode="normal" in="SourceGraphic" in2="effect1_dropShadow_993_912" result="shape"/>
</filter>
<filter id="filter1_d_993_912" x="-621.374" y="217.619" width="2710.3" height="733.704" filterUnits="userSpaceOnUse" color-interpolation-filters="sRGB">
<feFlood flood-opacity="0" result="BackgroundImageFix"/>
<feColorMatrix in="SourceAlpha" type="matrix" values="0 0 0 0 0 0 0 0 0 0 0 0 0 0 0 0 0 0 127 0" result="hardAlpha"/>
<feOffset dx="-5" dy="21"/>
<feGaussianBlur stdDeviation="13.5"/>
<feComposite in2="hardAlpha" operator="out"/>
<feColorMatrix type="matrix" values="0 0 0 0 0 0 0 0 0 0 0 0 0 0 0 0 0 0 0.25 0"/>
<feBlend mode="normal" in2="BackgroundImageFix" result="effect1_dropShadow_993_912"/>
<feBlend mode="normal" in="SourceGraphic" in2="effect1_dropShadow_993_912" result="shape"/>
</filter>
<filter id="filter2_d_993_912" x="975" y="624.303" width="342.264" height="90.8994" filterUnits="userSpaceOnUse" color-interpolation-filters="sRGB">
<feFlood flood-opacity="0" result="BackgroundImageFix"/>
<feColorMatrix in="SourceAlpha" type="matrix" values="0 0 0 0 0 0 0 0 0 0 0 0 0 0 0 0 0 0 127 0" result="hardAlpha"/>
<feOffset dy="4"/>
<feGaussianBlur stdDeviation="5"/>
<feComposite in2="hardAlpha" operator="out"/>
<feColorMatrix type="matrix" values="0 0 0 0 0 0 0 0 0 0 0 0 0 0 0 0 0 0 0.25 0"/>
<feBlend mode="normal" in2="BackgroundImageFix" result="effect1_dropShadow_993_912"/>
<feBlend mode="normal" in="SourceGraphic" in2="effect1_dropShadow_993_912" result="shape"/>
</filter>
<filter id="filter3_d_993_912" x="1175.26" y="383" width="357.742" height="346.587" filterUnits="userSpaceOnUse" color-interpolation-filters="sRGB">
<feFlood flood-opacity="0" result="BackgroundImageFix"/>
<feColorMatrix in="SourceAlpha" type="matrix" values="0 0 0 0 0 0 0 0 0 0 0 0 0 0 0 0 0 0 127 0" result="hardAlpha"/>
<feOffset dy="1"/>
<feGaussianBlur stdDeviation="6.5"/>
<feComposite in2="hardAlpha" operator="out"/>
<feColorMatrix type="matrix" values="0 0 0 0 0 0 0 0 0 0 0 0 0 0 0 0 0 0 0.25 0"/>
<feBlend mode="normal" in2="BackgroundImageFix" result="effect1_dropShadow_993_912"/>
<feBlend mode="normal" in="SourceGraphic" in2="effect1_dropShadow_993_912" result="shape"/>
</filter>
<filter id="filter4_d_993_912" x="1162.62" y="395.33" width="357.742" height="349.67" filterUnits="userSpaceOnUse" color-interpolation-filters="sRGB">
<feFlood flood-opacity="0" result="BackgroundImageFix"/>
<feColorMatrix in="SourceAlpha" type="matrix" values="0 0 0 0 0 0 0 0 0 0 0 0 0 0 0 0 0 0 127 0" result="hardAlpha"/>
<feOffset dy="1"/>
<feGaussianBlur stdDeviation="6.5"/>
<feComposite in2="hardAlpha" operator="out"/>
<feColorMatrix type="matrix" values="0 0 0 0 0 0 0 0 0 0 0 0 0 0 0 0 0 0 0.25 0"/>
<feBlend mode="normal" in2="BackgroundImageFix" result="effect1_dropShadow_993_912"/>
<feBlend mode="normal" in="SourceGraphic" in2="effect1_dropShadow_993_912" result="shape"/>
</filter>
</defs>
</svg>
