<svg width="99" height="99" viewBox="0 0 99 99" fill="none" xmlns="http://www.w3.org/2000/svg">
<g filter="url(#filter0_d_173_2331)">
<rect x="10" y="9" width="73" height="73" rx="36.5" fill="white"/>
</g>
<path d="M40.4249 45.5936C40.4249 42.231 43.1493 39.5043 46.511 39.5043C49.8726 39.5043 52.5984 42.231 52.5984 45.5936C52.5984 48.9562 49.8726 51.6828 46.511 51.6828C43.1493 51.6828 40.4249 48.9562 40.4249 45.5936ZM37.1342 45.5936C37.1342 50.7739 41.3321 54.973 46.511 54.973C51.6898 54.973 55.8877 50.7739 55.8877 45.5936C55.8877 40.4133 51.6898 36.2141 46.511 36.2141C41.3321 36.2141 37.1342 40.4133 37.1342 45.5936ZM54.0676 35.8422C54.0675 36.2757 54.1958 36.6995 54.4364 37.0601C54.6771 37.4207 55.0192 37.7017 55.4195 37.8678C55.8199 38.0339 56.2605 38.0775 56.6856 37.9931C57.1107 37.9086 57.5012 37.7 57.8078 37.3936C58.1144 37.0872 58.3233 36.6967 58.408 36.2715C58.4927 35.8464 58.4495 35.4056 58.2838 35.005C58.1181 34.6044 57.8374 34.262 57.4771 34.021C57.1168 33.78 56.6932 33.6513 56.2598 33.6511H56.2589C55.678 33.6514 55.1209 33.8823 54.7101 34.2931C54.2992 34.7039 54.0681 35.2611 54.0676 35.8422ZM39.1335 60.4618C37.3532 60.3807 36.3855 60.0841 35.7424 59.8335C34.8898 59.5015 34.2815 59.106 33.6419 58.4672C33.0024 57.8283 32.6065 57.2204 32.276 56.3676C32.0253 55.7246 31.7288 54.7563 31.6479 52.9755C31.5593 51.0501 31.5416 50.4717 31.5416 45.5937C31.5416 40.7158 31.5608 40.139 31.6479 38.212C31.7289 36.4311 32.0277 35.4647 32.276 34.8199C32.6079 33.967 33.0033 33.3586 33.6419 32.7188C34.2806 32.079 34.8884 31.683 35.7424 31.3525C36.3852 31.1017 37.3532 30.8051 39.1335 30.7241C41.0584 30.6356 41.6366 30.6179 46.511 30.6179C51.3853 30.6179 51.9641 30.637 53.8906 30.7241C55.6709 30.8052 56.637 31.1041 57.2817 31.3525C58.1343 31.683 58.7426 32.0799 59.3821 32.7188C60.0217 33.3577 60.4162 33.967 60.7481 34.8199C60.9988 35.4628 61.2953 36.4311 61.3762 38.212C61.4648 40.139 61.4824 40.7158 61.4824 45.5937C61.4824 50.4717 61.4648 51.0484 61.3762 52.9755C61.2952 54.7563 60.9971 55.7243 60.7481 56.3676C60.4162 57.2204 60.0208 57.8289 59.3821 58.4672C58.7435 59.1055 58.1343 59.5015 57.2817 59.8335C56.6389 60.0842 55.6709 60.3809 53.8906 60.4618C51.9657 60.5504 51.3875 60.5681 46.511 60.5681C41.6344 60.5681 41.0578 60.5504 39.1335 60.4618ZM38.9823 27.438C37.0383 27.5265 35.71 27.8348 34.5499 28.2864C33.3485 28.7527 32.3314 29.3783 31.3151 30.3933C30.2987 31.4083 29.6749 32.4273 29.2088 33.629C28.7574 34.7902 28.4491 36.1182 28.3606 38.0628C28.2706 40.0104 28.25 40.633 28.25 45.5936C28.25 50.5541 28.2706 51.1767 28.3606 53.1244C28.4491 55.0691 28.7574 56.3969 29.2088 57.5581C29.6749 58.7591 30.2989 59.7793 31.3151 60.7938C32.3312 61.8084 33.3485 62.4331 34.5499 62.9007C35.7122 63.3523 37.0383 63.6606 38.9823 63.7492C40.9304 63.8377 41.5519 63.8598 46.511 63.8598C51.47 63.8598 52.0925 63.8392 54.0396 63.7492C55.9837 63.6606 57.3112 63.3523 58.472 62.9007C59.6727 62.4331 60.6905 61.8089 61.7068 60.7938C62.7232 59.7788 63.3456 58.7591 63.8131 57.5581C64.2645 56.3969 64.5742 55.0689 64.6613 53.1244C64.7498 51.1753 64.7704 50.5541 64.7704 45.5936C64.7704 40.633 64.7498 40.0104 64.6613 38.0628C64.5728 36.1181 64.2645 34.7895 63.8131 33.629C63.3456 32.428 62.7216 31.4099 61.7068 30.3933C60.6921 29.3767 59.6727 28.7527 58.4735 28.2864C57.3112 27.8348 55.9836 27.5251 54.041 27.438C52.094 27.3494 51.4715 27.3273 46.5124 27.3273C41.5533 27.3273 40.9304 27.3479 38.9823 27.438Z" fill="#F59E32"/>
<defs>
<filter id="filter0_d_173_2331" x="0" y="0" width="99" height="99" filterUnits="userSpaceOnUse" color-interpolation-filters="sRGB">
<feFlood flood-opacity="0" result="BackgroundImageFix"/>
<feColorMatrix in="SourceAlpha" type="matrix" values="0 0 0 0 0 0 0 0 0 0 0 0 0 0 0 0 0 0 127 0" result="hardAlpha"/>
<feOffset dx="3" dy="4"/>
<feGaussianBlur stdDeviation="6.5"/>
<feComposite in2="hardAlpha" operator="out"/>
<feColorMatrix type="matrix" values="0 0 0 0 0 0 0 0 0 0 0 0 0 0 0 0 0 0 0.21 0"/>
<feBlend mode="normal" in2="BackgroundImageFix" result="effect1_dropShadow_173_2331"/>
<feBlend mode="normal" in="SourceGraphic" in2="effect1_dropShadow_173_2331" result="shape"/>
</filter>
</defs>
</svg>
